%FSLAX46Y46*%
G04 Gerber Fmt 4.6, Leading zero omitted, Abs format (unit mm)*
G04 Created by KiCad (PCBNEW (2014-jul-16 BZR unknown)-product) date Fri 15 May 2015 05:11:27 PM EDT*
%MOMM*%
G01*
G04 APERTURE LIST*
%ADD10C,0.150000*%
%ADD11C,0.010000*%
%ADD12R,0.800000X0.750000*%
%ADD13R,0.600000X0.500000*%
%ADD14R,0.600000X0.400000*%
%ADD15R,0.400000X0.600000*%
%ADD16R,1.400000X1.050000*%
%ADD17R,0.449580X1.998980*%
%ADD18R,1.998980X0.449580*%
%ADD19R,1.700000X1.900000*%
%ADD20R,0.750000X0.800000*%
%ADD21R,1.524000X1.524000*%
%ADD22C,0.889000*%
%ADD23C,0.254000*%
%ADD24C,0.508000*%
%ADD25C,0.203200*%
G04 APERTURE END LIST*
D10*
D11*
X-6279774Y17513859D02*
X3350000Y17513859D01*
X-7241037Y16789496D02*
G75*
G02X-6279774Y17513859I961263J-275638D01*
G74*
G01*
X-7356884Y15967105D02*
G75*
G02X-7241219Y16788858I2999998J-3246D01*
G74*
G01*
X-7356886Y15963859D02*
X-7356886Y15434116D01*
X-7356886Y15434116D02*
G75*
G02X-10756886Y12034116I-3400000J0D01*
G74*
G01*
X-10756886Y12034116D02*
X-13373666Y12034116D01*
X-16373661Y9039352D02*
G75*
G02X-13373666Y12034116I2999995J-5236D01*
G74*
G01*
X-16373667Y9034116D02*
X-16373667Y-11131265D01*
X-15681866Y-13047567D02*
G75*
G02X-16373667Y-11131265I2308197J1916302D01*
G74*
G01*
X-8143775Y-18703981D02*
G75*
G02X-15679470Y-13050448I8143775J18703983D01*
G74*
G01*
X-6924282Y-18963859D02*
G75*
G02X-8115544Y-18716248I2203J2999999D01*
G74*
G01*
X-6922082Y-18963860D02*
X-5272889Y-18963860D01*
X-4311626Y-18239497D02*
G75*
G02X-5272889Y-18963860I-961263J275638D01*
G74*
G01*
X-4311262Y-18238222D02*
G75*
G02X-3350000Y-17513859I961262J-275637D01*
G74*
G01*
X6279774Y-17513859D02*
X-3350000Y-17513859D01*
X7241037Y-16789496D02*
G75*
G02X6279774Y-17513859I-961263J275638D01*
G74*
G01*
X7356884Y-15967105D02*
G75*
G02X7241219Y-16788858I-2999998J3246D01*
G74*
G01*
X7356886Y-15963859D02*
X7356886Y-15434116D01*
X7356886Y-15434116D02*
G75*
G02X10756886Y-12034116I3400000J0D01*
G74*
G01*
X10756886Y-12034116D02*
X13373666Y-12034116D01*
X16373661Y-9039352D02*
G75*
G02X13373666Y-12034116I-2999995J5236D01*
G74*
G01*
X16373667Y-9034116D02*
X16373667Y11131265D01*
X15681866Y13047567D02*
G75*
G02X16373667Y11131265I-2308197J-1916302D01*
G74*
G01*
X8143775Y18703981D02*
G75*
G02X15679470Y13050448I-8143775J-18703983D01*
G74*
G01*
X6924282Y18963859D02*
G75*
G02X8115544Y18716248I-2203J-2999999D01*
G74*
G01*
X6922082Y18963860D02*
X5272889Y18963860D01*
X4311626Y18239497D02*
G75*
G02X5272889Y18963860I961263J-275638D01*
G74*
G01*
X4311262Y18238222D02*
G75*
G02X3350000Y17513859I-961262J275637D01*
G74*
G01*
D12*
X12000Y7620000D03*
X1512000Y7620000D03*
X-750000Y-9144000D03*
X750000Y-9144000D03*
X-750000Y-7366000D03*
X750000Y-7366000D03*
D13*
X-6900000Y10414000D03*
X-5800000Y10414000D03*
X-2244000Y10414000D03*
X-3344000Y10414000D03*
D14*
X-8128000Y4884000D03*
X-8128000Y5784000D03*
X-9652000Y4884000D03*
X-9652000Y5784000D03*
D15*
X-9710000Y762000D03*
X-10610000Y762000D03*
X-9710000Y-762000D03*
X-10610000Y-762000D03*
D14*
X-9652000Y-4884000D03*
X-9652000Y-5784000D03*
X-8128000Y-4884000D03*
X-8128000Y-5784000D03*
X6350000Y-7170000D03*
X6350000Y-8070000D03*
D15*
X8186000Y-2794000D03*
X9086000Y-2794000D03*
X8186000Y1270000D03*
X9086000Y1270000D03*
X8186000Y2794000D03*
X9086000Y2794000D03*
D14*
X6350000Y8324000D03*
X6350000Y7424000D03*
D15*
X1836000Y12700000D03*
X2736000Y12700000D03*
X3741000Y-14732000D03*
X4641000Y-14732000D03*
X11996000Y-4064000D03*
X12896000Y-4064000D03*
D16*
X-1800000Y-14775000D03*
X-1800000Y-16225000D03*
X1800000Y-14775000D03*
X1800000Y-16225000D03*
X1800000Y14775000D03*
X1800000Y16225000D03*
X-1800000Y14775000D03*
X-1800000Y16225000D03*
D17*
X-2776220Y4815840D03*
X-1976120Y4815840D03*
X-1176020Y4815840D03*
X-375920Y4815840D03*
X424180Y4815840D03*
X1224280Y4815840D03*
X2024380Y4815840D03*
X2824480Y4815840D03*
X2819400Y-4749800D03*
X-2794000Y-4749800D03*
X-1981200Y-4749800D03*
X-1168400Y-4749800D03*
X-381000Y-4749800D03*
X431800Y-4749800D03*
X1219200Y-4749800D03*
X2032000Y-4749800D03*
D18*
X4826000Y2824480D03*
X4826000Y2026920D03*
X4826000Y1224280D03*
X4826000Y426720D03*
X4826000Y-375920D03*
X4826000Y-1173480D03*
X4826000Y-1976120D03*
X4826000Y-2773680D03*
X-4775200Y2819400D03*
X-4775200Y2032000D03*
X-4775200Y1219200D03*
X-4775200Y431800D03*
X-4775200Y-355600D03*
X-4775200Y-1168400D03*
X-4775200Y-1981200D03*
X-4775200Y-2794000D03*
D19*
X-6122000Y8128000D03*
X-3022000Y8128000D03*
D20*
X-13500000Y-10500000D03*
X-13500000Y-9000000D03*
D21*
X-11176000Y-12954000D03*
X-11176000Y-10414000D03*
X-8636000Y-12954000D03*
X-8636000Y-10414000D03*
X-6096000Y-12954000D03*
X-6096000Y-10414000D03*
D22*
X2286000Y-11430000D03*
X3937000Y-13081000D03*
X1300000Y9400000D03*
X-9398000Y2286000D03*
X-10922000Y-4826000D03*
X-2286000Y-9144000D03*
X508000Y-10414000D03*
X6858000Y6096000D03*
X-1270000Y-1270000D03*
X-1270000Y1270000D03*
X1270000Y-1270000D03*
X0Y0D03*
X1270000Y1270000D03*
X13970000Y-4064000D03*
X3810000Y12700000D03*
X5715000Y-14732000D03*
X-13462000Y-11938000D03*
X0Y11430000D03*
X-762000Y-11049000D03*
X6350000Y-9144000D03*
X10414000Y-4318000D03*
X11938000Y1270000D03*
X9144000Y6350000D03*
X6350000Y9398000D03*
X-4572000Y13716000D03*
X-9652000Y7112000D03*
X-11684000Y762000D03*
X-11684000Y-762000D03*
X-9652000Y-7112000D03*
X-8128000Y-7112000D03*
D23*
X-381000Y-6997000D02*
X-750000Y-7366000D01*
X-381000Y-4749800D02*
X-381000Y-6997000D01*
X5511800Y-4749800D02*
X6350000Y-5588000D01*
X6350000Y-5588000D02*
X6350000Y-7170000D01*
X2819400Y-4749800D02*
X5511800Y-4749800D01*
X8165680Y-2773680D02*
X8186000Y-2794000D01*
X4826000Y-2773680D02*
X8165680Y-2773680D01*
X8140280Y1224280D02*
X8186000Y1270000D01*
X4826000Y1224280D02*
X8140280Y1224280D01*
X8155520Y2824480D02*
X8186000Y2794000D01*
X4826000Y2824480D02*
X8155520Y2824480D01*
X2824480Y4815840D02*
X2824480Y6634480D01*
X3614000Y7424000D02*
X6350000Y7424000D01*
X2824480Y6634480D02*
X3614000Y7424000D01*
X-6883400Y2819400D02*
X-8128000Y4064000D01*
X-8128000Y4064000D02*
X-8128000Y4884000D01*
X-4775200Y2819400D02*
X-6883400Y2819400D01*
X-7620000Y2032000D02*
X-9652000Y4064000D01*
X-9652000Y4064000D02*
X-9652000Y4884000D01*
X-4775200Y2032000D02*
X-7620000Y2032000D01*
X-7329648Y1219200D02*
X-7786848Y762000D01*
X-7786848Y762000D02*
X-9710000Y762000D01*
X-4775200Y1219200D02*
X-7329648Y1219200D01*
X-7398624Y431800D02*
X-8592424Y-762000D01*
X-8592424Y-762000D02*
X-9710000Y-762000D01*
X-4775200Y431800D02*
X-7398624Y431800D01*
X-7467600Y-355600D02*
X-9652000Y-2540000D01*
X-9652000Y-2540000D02*
X-9652000Y-4884000D01*
X-4775200Y-355600D02*
X-7467600Y-355600D01*
X-7518400Y-1168400D02*
X-8128000Y-1778000D01*
X-8128000Y-1778000D02*
X-8128000Y-4884000D01*
X-4775200Y-1168400D02*
X-7518400Y-1168400D01*
X1800000Y-14775000D02*
X1778000Y-13970000D01*
X-1778000Y-13970000D02*
X-1800000Y-14775000D01*
X-1270000Y-13462000D02*
X-1778000Y-13970000D01*
X1270000Y-13462000D02*
X-1270000Y-13462000D01*
X1778000Y-13970000D02*
X1270000Y-13462000D01*
X3741000Y-14732000D02*
X3741000Y-13277000D01*
X2032000Y-11176000D02*
X2032000Y-4749800D01*
X2286000Y-11430000D02*
X2032000Y-11176000D01*
X3741000Y-13277000D02*
X3937000Y-13081000D01*
X1800000Y-14775000D02*
X3698000Y-14775000D01*
X3698000Y-14775000D02*
X3741000Y-14732000D01*
X1800000Y-14775000D02*
X2032000Y-14543000D01*
X1836000Y12700000D02*
X1836000Y11753000D01*
X1836000Y11753000D02*
X2667000Y10922000D01*
X-1800000Y14775000D02*
X-1800000Y13738000D01*
X-1524000Y13462000D02*
X1836000Y13462000D01*
X-1800000Y13738000D02*
X-1524000Y13462000D01*
X2024380Y4815840D02*
X2024380Y6596380D01*
X1836000Y11753000D02*
X1836000Y13462000D01*
X1836000Y13462000D02*
X1836000Y14739000D01*
X2667000Y10922000D02*
X1836000Y11753000D01*
X2667000Y7239000D02*
X2667000Y10922000D01*
X2024380Y6596380D02*
X2667000Y7239000D01*
X1836000Y14739000D02*
X1800000Y14775000D01*
X-1976120Y7082120D02*
X-3022000Y8128000D01*
X-1976120Y4815840D02*
X-1976120Y7082120D01*
X-2244000Y8906000D02*
X-3022000Y8128000D01*
X-2244000Y10414000D02*
X-2244000Y8906000D01*
X-6122000Y6630000D02*
X-4307840Y4815840D01*
X-4307840Y4815840D02*
X-2776220Y4815840D01*
X-6122000Y8128000D02*
X-6122000Y6630000D01*
X-6900000Y8906000D02*
X-6122000Y8128000D01*
X-6900000Y10414000D02*
X-6900000Y8906000D01*
X11938000Y-4572000D02*
X11938000Y-4122000D01*
X11938000Y-4122000D02*
X11996000Y-4064000D01*
X254000Y-12700000D02*
X2794000Y-12700000D01*
X11384280Y426720D02*
X11938000Y-127000D01*
X3302000Y-12192000D02*
X4445000Y-11049000D01*
X4445000Y-11049000D02*
X6985000Y-11049000D01*
X6985000Y-11049000D02*
X11938000Y-6096000D01*
X11938000Y-6096000D02*
X11938000Y-4699000D01*
X4826000Y426720D02*
X11384280Y426720D01*
X11938000Y-127000D02*
X11938000Y-4572000D01*
X11938000Y-4572000D02*
X11938000Y-4699000D01*
X254000Y-12700000D02*
X-5842000Y-12700000D01*
X2794000Y-12700000D02*
X3302000Y-12192000D01*
X-6096000Y-12954000D02*
X-6096000Y-12954000D01*
X-6096000Y-12954000D02*
X-5842000Y-12700000D01*
X1270000Y1270000D02*
X1270000Y9370000D01*
X1270000Y9370000D02*
X1300000Y9400000D01*
X-12192000Y-5334000D02*
X-11430000Y-5334000D01*
X-11430000Y-5334000D02*
X-10922000Y-4826000D01*
X762000Y-10668000D02*
X508000Y-10414000D01*
X7874000Y7874000D02*
X7874000Y7112000D01*
X7874000Y7112000D02*
X6858000Y6096000D01*
X750000Y-9144000D02*
X750000Y-7366000D01*
X750000Y-7366000D02*
X431800Y-7047800D01*
X431800Y-7047800D02*
X431800Y-4749800D01*
X0Y0D02*
X-1270000Y-1270000D01*
X0Y0D02*
X-1270000Y1270000D01*
X0Y0D02*
X1270000Y-1270000D01*
X0Y0D02*
X1270000Y1270000D01*
X12896000Y-4064000D02*
X13970000Y-4064000D01*
X2736000Y12700000D02*
X3810000Y12700000D01*
X4641000Y-14732000D02*
X5715000Y-14732000D01*
D24*
X-11176000Y-10414000D02*
X-13414000Y-10414000D01*
X-13414000Y-10414000D02*
X-13462000Y-10462000D01*
X-13462000Y-10462000D02*
X-13462000Y-11938000D01*
X-1176020Y4815840D02*
X-1176020Y6431980D01*
X-1176020Y6431980D02*
X12000Y7620000D01*
X424180Y4815840D02*
X424180Y7207820D01*
X424180Y7207820D02*
X0Y7632000D01*
X0Y7632000D02*
X0Y11430000D01*
D23*
X-762000Y-11049000D02*
X-774000Y-11061000D01*
D24*
X-750000Y-9144000D02*
X-762000Y-11049000D01*
X-1981200Y-7924800D02*
X-1981200Y-4749800D01*
X-762000Y-9144000D02*
X-1981200Y-7924800D01*
D23*
X-750000Y-9144000D02*
X-762000Y-9144000D01*
X6350000Y-9144000D02*
X6350000Y-8070000D01*
X9086000Y-3752000D02*
X9652000Y-4318000D01*
X9652000Y-4318000D02*
X10414000Y-4318000D01*
X9086000Y-2794000D02*
X9086000Y-3752000D01*
X11938000Y1270000D02*
X9086000Y1270000D01*
X9144000Y2852000D02*
X9144000Y6350000D01*
X9086000Y2794000D02*
X9144000Y2852000D01*
X6350000Y9398000D02*
X6350000Y8324000D01*
X-8128000Y10922000D02*
X-5334000Y13716000D01*
X-5334000Y13716000D02*
X-4572000Y13716000D01*
X-8128000Y5784000D02*
X-8128000Y10922000D01*
X-9652000Y7112000D02*
X-9652000Y5784000D01*
X-10610000Y762000D02*
X-11684000Y762000D01*
X-10610000Y-762000D02*
X-11684000Y-762000D01*
X-9652000Y-5784000D02*
X-9652000Y-7112000D01*
X-8128000Y-5784000D02*
X-8128000Y-7112000D01*
X-9906000Y-11684000D02*
X-9906000Y-8890000D01*
X-9906000Y-8890000D02*
X-9271000Y-8255000D01*
X-9271000Y-8255000D02*
X-7747000Y-8255000D01*
X-7747000Y-8255000D02*
X-7112000Y-7620000D01*
X-7112000Y-7620000D02*
X-7112000Y-3556000D01*
X-7112000Y-3556000D02*
X-6350000Y-2794000D01*
X-6350000Y-2794000D02*
X-4775200Y-2794000D01*
X-11176000Y-12954000D02*
X-9906000Y-11684000D01*
X-6604000Y-8636000D02*
X-6095996Y-8127996D01*
X-7366000Y-11684000D02*
X-7366000Y-9398000D01*
X-7366000Y-9398000D02*
X-6858000Y-8890000D01*
X-8636000Y-12954000D02*
X-7366000Y-11684000D01*
X-6604000Y-8636000D02*
X-6858000Y-8890000D01*
X-5842000Y-4572000D02*
X-2971800Y-4572000D01*
X-6095996Y-4825996D02*
X-5842000Y-4572000D01*
X-6095996Y-8127996D02*
X-6095996Y-4825996D01*
X-2971800Y-4572000D02*
X-2794000Y-4749800D01*
X-6350000Y-3556000D02*
X-6350000Y-3556002D01*
X-6350000Y-3556000D02*
X-3556000Y-3556000D01*
X-3556000Y-3556000D02*
X-3302000Y-3302000D01*
X-3302000Y-3302000D02*
X-3302000Y-2286000D01*
X-3302000Y-2286000D02*
X-3606800Y-1981200D01*
X-5029200Y-1981200D02*
X-3606800Y-1981200D01*
X-6603998Y-7873998D02*
X-6604000Y-7874000D01*
X-6603998Y-3810000D02*
X-6603998Y-7873998D01*
X-6350000Y-3556002D02*
X-6603998Y-3810000D01*
X-8636000Y-9906000D02*
X-6604000Y-7874000D01*
X-8636000Y-10414000D02*
X-8636000Y-9906000D01*
D25*
G36*
X16013067Y-9021340D02*
X15960204Y-9550955D01*
X15810555Y-10043509D01*
X15568086Y-10497612D01*
X15242033Y-10895971D01*
X14844811Y-11223416D01*
X14391560Y-11467467D01*
X13899533Y-11618834D01*
X13370383Y-11673516D01*
X10756886Y-11673516D01*
X10756821Y-11673522D01*
X10755625Y-11673518D01*
X10731889Y-11673601D01*
X10716219Y-11675192D01*
X10700468Y-11675083D01*
X10695457Y-11675574D01*
X10035528Y-11744935D01*
X10003525Y-11751504D01*
X9971409Y-11757631D01*
X9966589Y-11759086D01*
X9332701Y-11955308D01*
X9302596Y-11967962D01*
X9272269Y-11980216D01*
X9267823Y-11982580D01*
X8684120Y-12298187D01*
X8657047Y-12316447D01*
X8629676Y-12334359D01*
X8625775Y-12337541D01*
X8114490Y-12760513D01*
X8091485Y-12783678D01*
X8068109Y-12806571D01*
X8064900Y-12810451D01*
X7645509Y-13324675D01*
X7627415Y-13351908D01*
X7608958Y-13378864D01*
X7606563Y-13383293D01*
X7295038Y-13969185D01*
X7282587Y-13999392D01*
X7269708Y-14029442D01*
X7268220Y-14034252D01*
X7076429Y-14669494D01*
X7070088Y-14701514D01*
X7063285Y-14733523D01*
X7062759Y-14738531D01*
X6998007Y-15398928D01*
X6998007Y-15414050D01*
X6996321Y-15429081D01*
X6996286Y-15434116D01*
X6996286Y-15949249D01*
X6942750Y-16489233D01*
X6896563Y-16679976D01*
X6846929Y-16805338D01*
X6779515Y-16909944D01*
X6693063Y-16999468D01*
X6590866Y-17070496D01*
X6476823Y-17120320D01*
X6348460Y-17148543D01*
X6269079Y-17153259D01*
X2958845Y-17153259D01*
X2973507Y-17138598D01*
X3040220Y-17038754D01*
X3086173Y-16927814D01*
X3109600Y-16810041D01*
X3109600Y-16689960D01*
X3109600Y-16529800D01*
X2957200Y-16377400D01*
X1952400Y-16377400D01*
X1952400Y-16397400D01*
X1647600Y-16397400D01*
X1647600Y-16377400D01*
X1627600Y-16377400D01*
X1627600Y-16072600D01*
X1647600Y-16072600D01*
X1647600Y-16052600D01*
X1952400Y-16052600D01*
X1952400Y-16072600D01*
X2957200Y-16072600D01*
X3109600Y-15920200D01*
X3109600Y-15760040D01*
X3109600Y-15639959D01*
X3086173Y-15522186D01*
X3040220Y-15411246D01*
X2973507Y-15311402D01*
X2919704Y-15257600D01*
X3264065Y-15257600D01*
X3264788Y-15258682D01*
X3314319Y-15308213D01*
X3372561Y-15347129D01*
X3437276Y-15373935D01*
X3505977Y-15387600D01*
X3576024Y-15387600D01*
X3976024Y-15387600D01*
X4044725Y-15373934D01*
X4109440Y-15347128D01*
X4167682Y-15308212D01*
X4191000Y-15284894D01*
X4214319Y-15308213D01*
X4272561Y-15347129D01*
X4337276Y-15373935D01*
X4405977Y-15387600D01*
X4476024Y-15387600D01*
X4876024Y-15387600D01*
X4944725Y-15373934D01*
X5009440Y-15347128D01*
X5067682Y-15308212D01*
X5114201Y-15261692D01*
X5193930Y-15344255D01*
X5322775Y-15433804D01*
X5466559Y-15496622D01*
X5619807Y-15530315D01*
X5776680Y-15533601D01*
X5931204Y-15506355D01*
X6077492Y-15449613D01*
X6209974Y-15365538D01*
X6323602Y-15257331D01*
X6414049Y-15129115D01*
X6477869Y-14985773D01*
X6512631Y-14832764D01*
X6515134Y-14653546D01*
X6484657Y-14499627D01*
X6424864Y-14354558D01*
X6338033Y-14223867D01*
X6227470Y-14112530D01*
X6097388Y-14024788D01*
X5952741Y-13963984D01*
X5799038Y-13932433D01*
X5642134Y-13931338D01*
X5488006Y-13960739D01*
X5342523Y-14019518D01*
X5211229Y-14105435D01*
X5113263Y-14201369D01*
X5067681Y-14155787D01*
X5009439Y-14116871D01*
X4944724Y-14090065D01*
X4876023Y-14076400D01*
X4805976Y-14076400D01*
X4405976Y-14076400D01*
X4337275Y-14090066D01*
X4272560Y-14116872D01*
X4223600Y-14149585D01*
X4223600Y-13828049D01*
X4299492Y-13798613D01*
X4431974Y-13714538D01*
X4545602Y-13606331D01*
X4636049Y-13478115D01*
X4699869Y-13334773D01*
X4734631Y-13181764D01*
X4737134Y-13002546D01*
X4706657Y-12848627D01*
X4646864Y-12703558D01*
X4560033Y-12572867D01*
X4449470Y-12461530D01*
X4319388Y-12373788D01*
X4174741Y-12312984D01*
X4021038Y-12281433D01*
X3895940Y-12280559D01*
X4644900Y-11531600D01*
X6985000Y-11531600D01*
X7029325Y-11527253D01*
X7073775Y-11523365D01*
X7076214Y-11522656D01*
X7078737Y-11522409D01*
X7121400Y-11509528D01*
X7164223Y-11497087D01*
X7166475Y-11495919D01*
X7168905Y-11495186D01*
X7208294Y-11474242D01*
X7247843Y-11453742D01*
X7249823Y-11452160D01*
X7252067Y-11450968D01*
X7286624Y-11422783D01*
X7321452Y-11394981D01*
X7324987Y-11391494D01*
X7325056Y-11391439D01*
X7325108Y-11391375D01*
X7326250Y-11390250D01*
X12279250Y-6437250D01*
X12307526Y-6402824D01*
X12336200Y-6368653D01*
X12337423Y-6366427D01*
X12339033Y-6364468D01*
X12360103Y-6325172D01*
X12381575Y-6286116D01*
X12382341Y-6283700D01*
X12383542Y-6281461D01*
X12396585Y-6238797D01*
X12410054Y-6196338D01*
X12410336Y-6193816D01*
X12411079Y-6191389D01*
X12415584Y-6147034D01*
X12420553Y-6102738D01*
X12420587Y-6097777D01*
X12420597Y-6097685D01*
X12420588Y-6097598D01*
X12420600Y-6096000D01*
X12420600Y-4699000D01*
X12420600Y-4641603D01*
X12422682Y-4640212D01*
X12446000Y-4616894D01*
X12469319Y-4640213D01*
X12527561Y-4679129D01*
X12592276Y-4705935D01*
X12660977Y-4719600D01*
X12731024Y-4719600D01*
X13131024Y-4719600D01*
X13199725Y-4705934D01*
X13264440Y-4679128D01*
X13322682Y-4640212D01*
X13369201Y-4593692D01*
X13448930Y-4676255D01*
X13577775Y-4765804D01*
X13721559Y-4828622D01*
X13874807Y-4862315D01*
X14031680Y-4865601D01*
X14186204Y-4838355D01*
X14332492Y-4781613D01*
X14464974Y-4697538D01*
X14578602Y-4589331D01*
X14669049Y-4461115D01*
X14732869Y-4317773D01*
X14767631Y-4164764D01*
X14770134Y-3985546D01*
X14739657Y-3831627D01*
X14679864Y-3686558D01*
X14593033Y-3555867D01*
X14482470Y-3444530D01*
X14352388Y-3356788D01*
X14207741Y-3295984D01*
X14054038Y-3264433D01*
X13897134Y-3263338D01*
X13743006Y-3292739D01*
X13597523Y-3351518D01*
X13466229Y-3437435D01*
X13368263Y-3533369D01*
X13322681Y-3487787D01*
X13264439Y-3448871D01*
X13199724Y-3422065D01*
X13131023Y-3408400D01*
X13060976Y-3408400D01*
X12660976Y-3408400D01*
X12592275Y-3422066D01*
X12527560Y-3448872D01*
X12469318Y-3487788D01*
X12446000Y-3511106D01*
X12422681Y-3487787D01*
X12420600Y-3486396D01*
X12420600Y-127000D01*
X12416249Y-82628D01*
X12412364Y-38225D01*
X12411656Y-35790D01*
X12411409Y-33263D01*
X12398515Y9442D01*
X12386087Y52223D01*
X12384919Y54476D01*
X12384186Y56905D01*
X12363242Y96295D01*
X12342742Y135843D01*
X12341160Y137824D01*
X12339968Y140067D01*
X12311783Y174625D01*
X12283981Y209452D01*
X12280498Y212984D01*
X12280439Y213056D01*
X12280371Y213112D01*
X12279249Y214250D01*
X12021290Y472210D01*
X12154204Y495645D01*
X12300492Y552387D01*
X12432974Y636462D01*
X12546602Y744669D01*
X12637049Y872885D01*
X12700869Y1016227D01*
X12735631Y1169236D01*
X12738134Y1348454D01*
X12707657Y1502373D01*
X12647864Y1647442D01*
X12561033Y1778133D01*
X12450470Y1889470D01*
X12320388Y1977212D01*
X12175741Y2038016D01*
X12022038Y2069567D01*
X11865134Y2070662D01*
X11711006Y2041261D01*
X11565523Y1982482D01*
X11434229Y1896565D01*
X11322122Y1786783D01*
X11298716Y1752600D01*
X9591666Y1752600D01*
X9562212Y1796682D01*
X9512681Y1846213D01*
X9454439Y1885129D01*
X9389724Y1911935D01*
X9321023Y1925600D01*
X9250976Y1925600D01*
X8850976Y1925600D01*
X8782275Y1911934D01*
X8717560Y1885128D01*
X8659318Y1846212D01*
X8636000Y1822894D01*
X8612681Y1846213D01*
X8554439Y1885129D01*
X8489724Y1911935D01*
X8421023Y1925600D01*
X8350976Y1925600D01*
X7950976Y1925600D01*
X7882275Y1911934D01*
X7817560Y1885128D01*
X7759318Y1846212D01*
X7709787Y1796681D01*
X7670871Y1738439D01*
X7657798Y1706880D01*
X6169110Y1706880D01*
X6181090Y1767107D01*
X6181090Y1837154D01*
X6181090Y2286734D01*
X6170120Y2341880D01*
X7664111Y2341880D01*
X7670872Y2325560D01*
X7709788Y2267318D01*
X7759319Y2217787D01*
X7817561Y2178871D01*
X7882276Y2152065D01*
X7950977Y2138400D01*
X8021024Y2138400D01*
X8421024Y2138400D01*
X8489725Y2152066D01*
X8554440Y2178872D01*
X8612682Y2217788D01*
X8636000Y2241106D01*
X8659319Y2217787D01*
X8717561Y2178871D01*
X8782276Y2152065D01*
X8850977Y2138400D01*
X8921024Y2138400D01*
X9321024Y2138400D01*
X9389725Y2152066D01*
X9454440Y2178872D01*
X9512682Y2217788D01*
X9562213Y2267319D01*
X9601129Y2325561D01*
X9627935Y2390276D01*
X9641600Y2458977D01*
X9641600Y2529024D01*
X9641600Y3129024D01*
X9627934Y3197725D01*
X9626600Y3200946D01*
X9626600Y5708610D01*
X9638974Y5716462D01*
X9752602Y5824669D01*
X9843049Y5952885D01*
X9906869Y6096227D01*
X9941631Y6249236D01*
X9944134Y6428454D01*
X9913657Y6582373D01*
X9853864Y6727442D01*
X9767033Y6858133D01*
X9656470Y6969470D01*
X9526388Y7057212D01*
X9381741Y7118016D01*
X9228038Y7149567D01*
X9071134Y7150662D01*
X8917006Y7121261D01*
X8771523Y7062482D01*
X8640229Y6976565D01*
X8528122Y6866783D01*
X8439475Y6737316D01*
X8377662Y6593097D01*
X8345039Y6439618D01*
X8342849Y6282725D01*
X8371173Y6128396D01*
X8428935Y5982507D01*
X8513933Y5850615D01*
X8622930Y5737745D01*
X8661400Y5711008D01*
X8661400Y3371604D01*
X8659318Y3370212D01*
X8636000Y3346894D01*
X8612681Y3370213D01*
X8554439Y3409129D01*
X8489724Y3435935D01*
X8421023Y3449600D01*
X8350976Y3449600D01*
X7950976Y3449600D01*
X7882275Y3435934D01*
X7817560Y3409128D01*
X7759318Y3370212D01*
X7709787Y3320681D01*
X7700699Y3307080D01*
X6070574Y3307080D01*
X6052171Y3325483D01*
X5993929Y3364399D01*
X5929214Y3391205D01*
X5860513Y3404870D01*
X5790466Y3404870D01*
X3791486Y3404870D01*
X3722785Y3391204D01*
X3658070Y3364398D01*
X3599828Y3325482D01*
X3550297Y3275951D01*
X3511381Y3217709D01*
X3484575Y3152994D01*
X3470910Y3084293D01*
X3470910Y3014246D01*
X3470910Y2564666D01*
X3484576Y2495965D01*
X3511382Y2431250D01*
X3515090Y2425701D01*
X3511381Y2420149D01*
X3484575Y2355434D01*
X3470910Y2286733D01*
X3470910Y2216686D01*
X3470910Y1767106D01*
X3484576Y1698405D01*
X3511382Y1633690D01*
X3516787Y1625601D01*
X3511381Y1617509D01*
X3484575Y1552794D01*
X3470910Y1484093D01*
X3470910Y1414046D01*
X3470910Y964466D01*
X3484576Y895765D01*
X3511382Y831050D01*
X3515090Y825501D01*
X3511381Y819949D01*
X3484575Y755234D01*
X3470910Y686533D01*
X3470910Y616486D01*
X3470910Y166906D01*
X3484576Y98205D01*
X3511382Y33490D01*
X3516787Y25401D01*
X3511381Y17309D01*
X3484575Y-47406D01*
X3470910Y-116107D01*
X3470910Y-186154D01*
X3470910Y-635734D01*
X3484576Y-704435D01*
X3511382Y-769150D01*
X3515090Y-774699D01*
X3511381Y-780251D01*
X3484575Y-844966D01*
X3470910Y-913667D01*
X3470910Y-983714D01*
X3470910Y-1433294D01*
X3484576Y-1501995D01*
X3511382Y-1566710D01*
X3516787Y-1574799D01*
X3511381Y-1582891D01*
X3484575Y-1647606D01*
X3470910Y-1716307D01*
X3470910Y-1786354D01*
X3470910Y-2235934D01*
X3484576Y-2304635D01*
X3511382Y-2369350D01*
X3515090Y-2374899D01*
X3511381Y-2380451D01*
X3484575Y-2445166D01*
X3470910Y-2513867D01*
X3470910Y-2583914D01*
X3470910Y-3033494D01*
X3484576Y-3102195D01*
X3511382Y-3166910D01*
X3550298Y-3225152D01*
X3599829Y-3274683D01*
X3658071Y-3313599D01*
X3722786Y-3340405D01*
X3791487Y-3354070D01*
X3861534Y-3354070D01*
X5860514Y-3354070D01*
X5929215Y-3340404D01*
X5993930Y-3313598D01*
X6052172Y-3274682D01*
X6070574Y-3256280D01*
X7668320Y-3256280D01*
X7670872Y-3262440D01*
X7709788Y-3320682D01*
X7759319Y-3370213D01*
X7817561Y-3409129D01*
X7882276Y-3435935D01*
X7950977Y-3449600D01*
X8021024Y-3449600D01*
X8421024Y-3449600D01*
X8489725Y-3435934D01*
X8554440Y-3409128D01*
X8603400Y-3376414D01*
X8603400Y-3752000D01*
X8607746Y-3796325D01*
X8611635Y-3840775D01*
X8612343Y-3843214D01*
X8612591Y-3845737D01*
X8625471Y-3888400D01*
X8637913Y-3931223D01*
X8639080Y-3933475D01*
X8639814Y-3935905D01*
X8660757Y-3975294D01*
X8681258Y-4014843D01*
X8682839Y-4016823D01*
X8684032Y-4019067D01*
X8712216Y-4053624D01*
X8740019Y-4088452D01*
X8743505Y-4091987D01*
X8743561Y-4092056D01*
X8743624Y-4092108D01*
X8744750Y-4093250D01*
X9310750Y-4659250D01*
X9345197Y-4687545D01*
X9379347Y-4716200D01*
X9381569Y-4717421D01*
X9383531Y-4719033D01*
X9422848Y-4740114D01*
X9461884Y-4761575D01*
X9464299Y-4762341D01*
X9466539Y-4763542D01*
X9509202Y-4776585D01*
X9551662Y-4790054D01*
X9554183Y-4790336D01*
X9556611Y-4791079D01*
X9600965Y-4795584D01*
X9645262Y-4800553D01*
X9650222Y-4800587D01*
X9650315Y-4800597D01*
X9650401Y-4800588D01*
X9652000Y-4800600D01*
X9773115Y-4800600D01*
X9783933Y-4817385D01*
X9892930Y-4930255D01*
X10021775Y-5019804D01*
X10165559Y-5082622D01*
X10318807Y-5116315D01*
X10475680Y-5119601D01*
X10630204Y-5092355D01*
X10776492Y-5035613D01*
X10908974Y-4951538D01*
X11022602Y-4843331D01*
X11113049Y-4715115D01*
X11176869Y-4571773D01*
X11211631Y-4418764D01*
X11214134Y-4239546D01*
X11183657Y-4085627D01*
X11123864Y-3940558D01*
X11037033Y-3809867D01*
X10926470Y-3698530D01*
X10796388Y-3610788D01*
X10651741Y-3549984D01*
X10498038Y-3518433D01*
X10341134Y-3517338D01*
X10187006Y-3546739D01*
X10041523Y-3605518D01*
X9910229Y-3691435D01*
X9808022Y-3791522D01*
X9568600Y-3552100D01*
X9568600Y-3311122D01*
X9601129Y-3262439D01*
X9627935Y-3197724D01*
X9641600Y-3129023D01*
X9641600Y-3058976D01*
X9641600Y-2458976D01*
X9627934Y-2390275D01*
X9601128Y-2325560D01*
X9562212Y-2267318D01*
X9512681Y-2217787D01*
X9454439Y-2178871D01*
X9389724Y-2152065D01*
X9321023Y-2138400D01*
X9250976Y-2138400D01*
X8850976Y-2138400D01*
X8782275Y-2152066D01*
X8717560Y-2178872D01*
X8659318Y-2217788D01*
X8636000Y-2241106D01*
X8612681Y-2217787D01*
X8554439Y-2178871D01*
X8489724Y-2152065D01*
X8421023Y-2138400D01*
X8350976Y-2138400D01*
X7950976Y-2138400D01*
X7882275Y-2152066D01*
X7817560Y-2178872D01*
X7759318Y-2217788D01*
X7709787Y-2267319D01*
X7693910Y-2291080D01*
X6170120Y-2291080D01*
X6181090Y-2235933D01*
X6181090Y-2165886D01*
X6181090Y-1716306D01*
X6167424Y-1647605D01*
X6140618Y-1582890D01*
X6135212Y-1574800D01*
X6140619Y-1566709D01*
X6167425Y-1501994D01*
X6181090Y-1433293D01*
X6181090Y-1363246D01*
X6181090Y-913666D01*
X6167424Y-844965D01*
X6140618Y-780250D01*
X6136909Y-774700D01*
X6140619Y-769149D01*
X6167425Y-704434D01*
X6181090Y-635733D01*
X6181090Y-565686D01*
X6181090Y-116106D01*
X6169109Y-55880D01*
X11184380Y-55880D01*
X11455400Y-326899D01*
X11455400Y-3657053D01*
X11454065Y-3660276D01*
X11440400Y-3728977D01*
X11440400Y-3799024D01*
X11440400Y-4399024D01*
X11454066Y-4467725D01*
X11455400Y-4470945D01*
X11455400Y-4572000D01*
X11455400Y-4699000D01*
X11455400Y-5896100D01*
X6785100Y-10566400D01*
X4445000Y-10566400D01*
X4400674Y-10570746D01*
X4356225Y-10574635D01*
X4353785Y-10575343D01*
X4351263Y-10575591D01*
X4308599Y-10588471D01*
X4265777Y-10600913D01*
X4263524Y-10602080D01*
X4261095Y-10602814D01*
X4221705Y-10623757D01*
X4182157Y-10644258D01*
X4180176Y-10645839D01*
X4177933Y-10647032D01*
X4143375Y-10675216D01*
X4108548Y-10703019D01*
X4105012Y-10706505D01*
X4104944Y-10706561D01*
X4104891Y-10706624D01*
X4103750Y-10707750D01*
X2985581Y-11825918D01*
X3048869Y-11683773D01*
X3083631Y-11530764D01*
X3086134Y-11351546D01*
X3055657Y-11197627D01*
X2995864Y-11052558D01*
X2909033Y-10921867D01*
X2798470Y-10810530D01*
X2668388Y-10722788D01*
X2523741Y-10661984D01*
X2514600Y-10660107D01*
X2514600Y-6095941D01*
X2559587Y-6104890D01*
X2629634Y-6104890D01*
X3079214Y-6104890D01*
X3147915Y-6091224D01*
X3212630Y-6064418D01*
X3270872Y-6025502D01*
X3320403Y-5975971D01*
X3359319Y-5917729D01*
X3386125Y-5853014D01*
X3399790Y-5784313D01*
X3399790Y-5714266D01*
X3399790Y-5232400D01*
X5311900Y-5232400D01*
X5867400Y-5787900D01*
X5867400Y-6664333D01*
X5823318Y-6693788D01*
X5773787Y-6743319D01*
X5734871Y-6801561D01*
X5708065Y-6866276D01*
X5694400Y-6934977D01*
X5694400Y-7005024D01*
X5694400Y-7405024D01*
X5708066Y-7473725D01*
X5734872Y-7538440D01*
X5773788Y-7596682D01*
X5797106Y-7620000D01*
X5773787Y-7643319D01*
X5734871Y-7701561D01*
X5708065Y-7766276D01*
X5694400Y-7834977D01*
X5694400Y-7905024D01*
X5694400Y-8305024D01*
X5708066Y-8373725D01*
X5734872Y-8438440D01*
X5773788Y-8496682D01*
X5820114Y-8543008D01*
X5734122Y-8627217D01*
X5645475Y-8756684D01*
X5583662Y-8900903D01*
X5551039Y-9054382D01*
X5548849Y-9211275D01*
X5577173Y-9365604D01*
X5634935Y-9511493D01*
X5719933Y-9643385D01*
X5828930Y-9756255D01*
X5957775Y-9845804D01*
X6101559Y-9908622D01*
X6254807Y-9942315D01*
X6411680Y-9945601D01*
X6566204Y-9918355D01*
X6712492Y-9861613D01*
X6844974Y-9777538D01*
X6958602Y-9669331D01*
X7049049Y-9541115D01*
X7112869Y-9397773D01*
X7147631Y-9244764D01*
X7150134Y-9065546D01*
X7119657Y-8911627D01*
X7059864Y-8766558D01*
X6973033Y-8635867D01*
X6880354Y-8542539D01*
X6926213Y-8496681D01*
X6965129Y-8438439D01*
X6991935Y-8373724D01*
X7005600Y-8305023D01*
X7005600Y-8234976D01*
X7005600Y-7834976D01*
X6991934Y-7766275D01*
X6965128Y-7701560D01*
X6926212Y-7643318D01*
X6902894Y-7620000D01*
X6926213Y-7596681D01*
X6965129Y-7538439D01*
X6991935Y-7473724D01*
X7005600Y-7405023D01*
X7005600Y-7334976D01*
X7005600Y-6934976D01*
X6991934Y-6866275D01*
X6965128Y-6801560D01*
X6926212Y-6743318D01*
X6876681Y-6693787D01*
X6832600Y-6664333D01*
X6832600Y-5588000D01*
X6828253Y-5543674D01*
X6824365Y-5499225D01*
X6823656Y-5496785D01*
X6823409Y-5494263D01*
X6810524Y-5451586D01*
X6798087Y-5408778D01*
X6796920Y-5406527D01*
X6796186Y-5404095D01*
X6775232Y-5364686D01*
X6754742Y-5325157D01*
X6753160Y-5323176D01*
X6751968Y-5320933D01*
X6723783Y-5286375D01*
X6695981Y-5251548D01*
X6692494Y-5248012D01*
X6692439Y-5247944D01*
X6692375Y-5247891D01*
X6691250Y-5246750D01*
X5853050Y-4408550D01*
X5818602Y-4380254D01*
X5784453Y-4351600D01*
X5782230Y-4350378D01*
X5780269Y-4348767D01*
X5740951Y-4327685D01*
X5701916Y-4306225D01*
X5699500Y-4305458D01*
X5697261Y-4304258D01*
X5654597Y-4291214D01*
X5612138Y-4277746D01*
X5609616Y-4277463D01*
X5607189Y-4276721D01*
X5562834Y-4272215D01*
X5518538Y-4267247D01*
X5513577Y-4267212D01*
X5513485Y-4267203D01*
X5513398Y-4267211D01*
X5511800Y-4267200D01*
X3399790Y-4267200D01*
X3399790Y-3715286D01*
X3386124Y-3646585D01*
X3359318Y-3581870D01*
X3320402Y-3523628D01*
X3270871Y-3474097D01*
X3212629Y-3435181D01*
X3147914Y-3408375D01*
X3079213Y-3394710D01*
X3009166Y-3394710D01*
X2559586Y-3394710D01*
X2490885Y-3408376D01*
X2426170Y-3435182D01*
X2425700Y-3435495D01*
X2425229Y-3435181D01*
X2360514Y-3408375D01*
X2291813Y-3394710D01*
X2221766Y-3394710D01*
X1772186Y-3394710D01*
X1703485Y-3408376D01*
X1638770Y-3435182D01*
X1625600Y-3443981D01*
X1612429Y-3435181D01*
X1547714Y-3408375D01*
X1479013Y-3394710D01*
X1408966Y-3394710D01*
X1152145Y-3394710D01*
X1130097Y-3361713D01*
X1045188Y-3276803D01*
X945344Y-3210090D01*
X834404Y-3164137D01*
X716631Y-3140710D01*
X696595Y-3140710D01*
X544195Y-3293110D01*
X544195Y-4597400D01*
X604200Y-4597400D01*
X604200Y-4902200D01*
X544195Y-4902200D01*
X544195Y-6206490D01*
X696595Y-6358890D01*
X716631Y-6358890D01*
X834404Y-6335463D01*
X945344Y-6289510D01*
X1045188Y-6222797D01*
X1130097Y-6137887D01*
X1152145Y-6104890D01*
X1479014Y-6104890D01*
X1547715Y-6091224D01*
X1549400Y-6090526D01*
X1549400Y-6528295D01*
X1538597Y-6517493D01*
X1438754Y-6450779D01*
X1327813Y-6404827D01*
X1210040Y-6381400D01*
X1054800Y-6381400D01*
X902400Y-6533800D01*
X902400Y-7213600D01*
X922400Y-7213600D01*
X922400Y-7518400D01*
X902400Y-7518400D01*
X902400Y-8198200D01*
X959200Y-8255000D01*
X902400Y-8311800D01*
X902400Y-8991600D01*
X922400Y-8991600D01*
X922400Y-9296400D01*
X902400Y-9296400D01*
X902400Y-9976200D01*
X1054800Y-10128600D01*
X1210040Y-10128600D01*
X1327813Y-10105173D01*
X1438754Y-10059221D01*
X1538597Y-9992507D01*
X1549400Y-9981704D01*
X1549400Y-11117519D01*
X1519662Y-11186903D01*
X1487039Y-11340382D01*
X1484849Y-11497275D01*
X1513173Y-11651604D01*
X1570935Y-11797493D01*
X1655933Y-11929385D01*
X1764930Y-12042255D01*
X1893775Y-12131804D01*
X2037559Y-12194622D01*
X2141161Y-12217400D01*
X254000Y-12217400D01*
X-4724400Y-12217400D01*
X-4724400Y-11236040D01*
X-4724400Y-10718800D01*
X-4724400Y-10109200D01*
X-4724400Y-9591960D01*
X-4747827Y-9474187D01*
X-4793779Y-9363246D01*
X-4860493Y-9263403D01*
X-4945402Y-9178493D01*
X-5045246Y-9111780D01*
X-5156186Y-9065827D01*
X-5273959Y-9042400D01*
X-5394040Y-9042400D01*
X-5791200Y-9042400D01*
X-5943600Y-9194800D01*
X-5943600Y-10261600D01*
X-4876800Y-10261600D01*
X-4724400Y-10109200D01*
X-4724400Y-10718800D01*
X-4876800Y-10566400D01*
X-5943600Y-10566400D01*
X-5943600Y-11633200D01*
X-5791200Y-11785600D01*
X-5394040Y-11785600D01*
X-5273959Y-11785600D01*
X-5156186Y-11762173D01*
X-5045246Y-11716220D01*
X-4945402Y-11649507D01*
X-4860493Y-11564597D01*
X-4793779Y-11464754D01*
X-4747827Y-11353813D01*
X-4724400Y-11236040D01*
X-4724400Y-12217400D01*
X-4978400Y-12217400D01*
X-4978400Y-12156976D01*
X-4992066Y-12088275D01*
X-5018872Y-12023560D01*
X-5057788Y-11965318D01*
X-5107319Y-11915787D01*
X-5165561Y-11876871D01*
X-5230276Y-11850065D01*
X-5298977Y-11836400D01*
X-5369024Y-11836400D01*
X-6893024Y-11836400D01*
X-6911474Y-11840069D01*
X-6907426Y-11826830D01*
X-6894347Y-11785600D01*
X-6797960Y-11785600D01*
X-6400800Y-11785600D01*
X-6248400Y-11633200D01*
X-6248400Y-10566400D01*
X-6268400Y-10566400D01*
X-6268400Y-10261600D01*
X-6248400Y-10261600D01*
X-6248400Y-9194800D01*
X-6364350Y-9078850D01*
X-6262750Y-8977250D01*
X-5754746Y-8469246D01*
X-5726451Y-8434798D01*
X-5697796Y-8400649D01*
X-5696575Y-8398426D01*
X-5694963Y-8396465D01*
X-5673882Y-8357147D01*
X-5652421Y-8318112D01*
X-5651655Y-8315696D01*
X-5650454Y-8313457D01*
X-5637407Y-8270781D01*
X-5623942Y-8228334D01*
X-5623660Y-8225814D01*
X-5622917Y-8223386D01*
X-5618412Y-8179025D01*
X-5613443Y-8134734D01*
X-5613409Y-8129773D01*
X-5613399Y-8129681D01*
X-5613408Y-8129594D01*
X-5613396Y-8127996D01*
X-5613396Y-5054600D01*
X-3374390Y-5054600D01*
X-3374390Y-5784314D01*
X-3360724Y-5853015D01*
X-3333918Y-5917730D01*
X-3295002Y-5975972D01*
X-3245471Y-6025503D01*
X-3187229Y-6064419D01*
X-3122514Y-6091225D01*
X-3053813Y-6104890D01*
X-2983766Y-6104890D01*
X-2590800Y-6104890D01*
X-2590800Y-7924800D01*
X-2585307Y-7980829D01*
X-2580397Y-8036937D01*
X-2579503Y-8040014D01*
X-2579190Y-8043205D01*
X-2562919Y-8097100D01*
X-2547205Y-8151186D01*
X-2545730Y-8154032D01*
X-2544803Y-8157101D01*
X-2518380Y-8206795D01*
X-2492454Y-8256812D01*
X-2490453Y-8259319D01*
X-2488949Y-8262147D01*
X-2453392Y-8305744D01*
X-2418229Y-8349792D01*
X-2413829Y-8354253D01*
X-2413754Y-8354345D01*
X-2413670Y-8354415D01*
X-2412252Y-8355852D01*
X-1505600Y-9262504D01*
X-1505600Y-9554024D01*
X-1491934Y-9622725D01*
X-1465128Y-9687440D01*
X-1426212Y-9745682D01*
X-1376681Y-9795213D01*
X-1363769Y-9803840D01*
X-1368298Y-10522835D01*
X-1377878Y-10532217D01*
X-1466525Y-10661684D01*
X-1528338Y-10805903D01*
X-1560961Y-10959382D01*
X-1563151Y-11116275D01*
X-1534827Y-11270604D01*
X-1477065Y-11416493D01*
X-1392067Y-11548385D01*
X-1283070Y-11661255D01*
X-1154225Y-11750804D01*
X-1010441Y-11813622D01*
X-857193Y-11847315D01*
X-700320Y-11850601D01*
X-545796Y-11823355D01*
X-399508Y-11766613D01*
X-267026Y-11682538D01*
X-153398Y-11574331D01*
X-62951Y-11446115D01*
X869Y-11302773D01*
X35631Y-11149764D01*
X38134Y-10970546D01*
X7657Y-10816627D01*
X-52136Y-10671558D01*
X-138967Y-10540867D01*
X-149123Y-10530640D01*
X-144996Y-9875438D01*
X-123507Y-9907598D01*
X-38597Y-9992507D01*
X61246Y-10059221D01*
X172187Y-10105173D01*
X289960Y-10128600D01*
X445200Y-10128600D01*
X597600Y-9976200D01*
X597600Y-9296400D01*
X577600Y-9296400D01*
X577600Y-8991600D01*
X597600Y-8991600D01*
X597600Y-8311800D01*
X540800Y-8255000D01*
X597600Y-8198200D01*
X597600Y-7518400D01*
X577600Y-7518400D01*
X577600Y-7213600D01*
X597600Y-7213600D01*
X597600Y-6533800D01*
X445200Y-6381400D01*
X289960Y-6381400D01*
X172187Y-6404827D01*
X101600Y-6434064D01*
X101600Y-6349865D01*
X146969Y-6358890D01*
X167005Y-6358890D01*
X319405Y-6206490D01*
X319405Y-4902200D01*
X259400Y-4902200D01*
X259400Y-4597400D01*
X319405Y-4597400D01*
X319405Y-3293110D01*
X167005Y-3140710D01*
X146969Y-3140710D01*
X29196Y-3164137D01*
X-81744Y-3210090D01*
X-181588Y-3276803D01*
X-266497Y-3361713D01*
X-288546Y-3394710D01*
X-640814Y-3394710D01*
X-709515Y-3408376D01*
X-774230Y-3435182D01*
X-774700Y-3435495D01*
X-775171Y-3435181D01*
X-839886Y-3408375D01*
X-908587Y-3394710D01*
X-978634Y-3394710D01*
X-1428214Y-3394710D01*
X-1496915Y-3408376D01*
X-1561630Y-3435182D01*
X-1574800Y-3443981D01*
X-1587971Y-3435181D01*
X-1652686Y-3408375D01*
X-1721387Y-3394710D01*
X-1791434Y-3394710D01*
X-2241014Y-3394710D01*
X-2309715Y-3408376D01*
X-2374430Y-3435182D01*
X-2387600Y-3443981D01*
X-2400771Y-3435181D01*
X-2465486Y-3408375D01*
X-2534187Y-3394710D01*
X-2604234Y-3394710D01*
X-2828649Y-3394710D01*
X-2824416Y-3353029D01*
X-2819447Y-3308738D01*
X-2819413Y-3303777D01*
X-2819403Y-3303685D01*
X-2819412Y-3303598D01*
X-2819400Y-3302000D01*
X-2819400Y-2286000D01*
X-2823751Y-2241628D01*
X-2827636Y-2197225D01*
X-2828344Y-2194790D01*
X-2828591Y-2192263D01*
X-2841485Y-2149558D01*
X-2853913Y-2106777D01*
X-2855081Y-2104524D01*
X-2855814Y-2102095D01*
X-2876758Y-2062705D01*
X-2897258Y-2023157D01*
X-2898840Y-2021176D01*
X-2900032Y-2018933D01*
X-2928217Y-1984375D01*
X-2956019Y-1949548D01*
X-2959506Y-1946012D01*
X-2959561Y-1945944D01*
X-2959625Y-1945891D01*
X-2960750Y-1944750D01*
X-3265550Y-1639950D01*
X-3299998Y-1611654D01*
X-3334147Y-1583000D01*
X-3336370Y-1581778D01*
X-3338331Y-1580167D01*
X-3377649Y-1559085D01*
X-3416684Y-1537625D01*
X-3419100Y-1536858D01*
X-3421339Y-1535658D01*
X-3446622Y-1527928D01*
X-3433775Y-1496914D01*
X-3420110Y-1428213D01*
X-3420110Y-1358166D01*
X-3420110Y-908586D01*
X-3433776Y-839885D01*
X-3460582Y-775170D01*
X-3469382Y-762000D01*
X-3460581Y-748829D01*
X-3433775Y-684114D01*
X-3420110Y-615413D01*
X-3420110Y-545366D01*
X-3420110Y-95786D01*
X-3433776Y-27085D01*
X-3460582Y37630D01*
X-3460896Y38100D01*
X-3460581Y38571D01*
X-3433775Y103286D01*
X-3420110Y171987D01*
X-3420110Y242034D01*
X-3420110Y691614D01*
X-3433776Y760315D01*
X-3460582Y825030D01*
X-3460896Y825500D01*
X-3460581Y825971D01*
X-3433775Y890686D01*
X-3420110Y959387D01*
X-3420110Y1029434D01*
X-3420110Y1479014D01*
X-3433776Y1547715D01*
X-3460582Y1612430D01*
X-3469382Y1625600D01*
X-3460581Y1638771D01*
X-3433775Y1703486D01*
X-3420110Y1772187D01*
X-3420110Y1842234D01*
X-3420110Y2291814D01*
X-3433776Y2360515D01*
X-3460582Y2425230D01*
X-3460896Y2425700D01*
X-3460581Y2426171D01*
X-3433775Y2490886D01*
X-3420110Y2559587D01*
X-3420110Y2629634D01*
X-3420110Y2646000D01*
X-1594790Y2646000D01*
X-1346000Y2894790D01*
X-1346000Y3460750D01*
X-1096266Y3460750D01*
X-1074217Y3427753D01*
X-989308Y3342843D01*
X-889464Y3276130D01*
X-778524Y3230177D01*
X-660751Y3206750D01*
X-640715Y3206750D01*
X-488315Y3359150D01*
X-488315Y4663440D01*
X-548320Y4663440D01*
X-548320Y4968240D01*
X-488315Y4968240D01*
X-488315Y4988240D01*
X-263525Y4988240D01*
X-263525Y4968240D01*
X-203520Y4968240D01*
X-203520Y4663440D01*
X-263525Y4663440D01*
X-263525Y3359150D01*
X-111125Y3206750D01*
X-91089Y3206750D01*
X26684Y3230177D01*
X137624Y3276130D01*
X237468Y3342843D01*
X322377Y3427753D01*
X344425Y3460750D01*
X503934Y3460750D01*
X525983Y3427753D01*
X610892Y3342843D01*
X710736Y3276130D01*
X821676Y3230177D01*
X939449Y3206750D01*
X959485Y3206750D01*
X1111885Y3359150D01*
X1111885Y4663440D01*
X1051880Y4663440D01*
X1051880Y4968240D01*
X1111885Y4968240D01*
X1111885Y6272530D01*
X1033780Y6350635D01*
X1033780Y6424930D01*
X1033780Y6639017D01*
X1051960Y6635400D01*
X1207200Y6635400D01*
X1359600Y6787800D01*
X1359600Y7467600D01*
X1339600Y7467600D01*
X1339600Y7772400D01*
X1359600Y7772400D01*
X1359600Y8452200D01*
X1207200Y8604600D01*
X1051960Y8604600D01*
X934187Y8581173D01*
X823246Y8535221D01*
X723403Y8468507D01*
X638493Y8383598D01*
X609600Y8340357D01*
X609600Y10906084D01*
X699049Y11032885D01*
X762869Y11176227D01*
X797631Y11329236D01*
X800134Y11508454D01*
X769657Y11662373D01*
X709864Y11807442D01*
X623033Y11938133D01*
X512470Y12049470D01*
X382388Y12137212D01*
X237741Y12198016D01*
X84038Y12229567D01*
X-72866Y12230662D01*
X-226994Y12201261D01*
X-372477Y12142482D01*
X-503771Y12056565D01*
X-615878Y11946783D01*
X-679408Y11854000D01*
X-2705210Y11854000D01*
X-3054000Y11505210D01*
X-3054000Y11261200D01*
X-3194000Y11121200D01*
X-3194000Y10539000D01*
X-3171600Y10539000D01*
X-3171600Y10289000D01*
X-3194000Y10289000D01*
X-3194000Y10241600D01*
X-3494000Y10241600D01*
X-3494000Y10289000D01*
X-3494000Y10539000D01*
X-3494000Y11121200D01*
X-3646400Y11273600D01*
X-3704040Y11273600D01*
X-3821813Y11250173D01*
X-3932754Y11204221D01*
X-4032597Y11137507D01*
X-4117507Y11052598D01*
X-4184220Y10952754D01*
X-4230173Y10841814D01*
X-4253600Y10724041D01*
X-4253600Y10691400D01*
X-4101200Y10539000D01*
X-3494000Y10539000D01*
X-3494000Y10289000D01*
X-4101200Y10289000D01*
X-4236200Y10154000D01*
X-4253600Y10154000D01*
X-4890400Y10154000D01*
X-4890400Y10691400D01*
X-4890400Y10724041D01*
X-4913827Y10841814D01*
X-4959780Y10952754D01*
X-5026493Y11052598D01*
X-5111403Y11137507D01*
X-5211246Y11204221D01*
X-5322187Y11250173D01*
X-5439960Y11273600D01*
X-5497600Y11273600D01*
X-5650000Y11121200D01*
X-5650000Y10539000D01*
X-5042800Y10539000D01*
X-4890400Y10691400D01*
X-4890400Y10154000D01*
X-4907800Y10154000D01*
X-5042800Y10289000D01*
X-5650000Y10289000D01*
X-5650000Y10241600D01*
X-5950000Y10241600D01*
X-5950000Y10289000D01*
X-5972400Y10289000D01*
X-5972400Y10539000D01*
X-5950000Y10539000D01*
X-5950000Y11121200D01*
X-6102400Y11273600D01*
X-6160040Y11273600D01*
X-6246000Y11256502D01*
X-6246000Y12121500D01*
X-5176923Y13190578D01*
X-5093070Y13103745D01*
X-4964225Y13014196D01*
X-4820441Y12951378D01*
X-4667193Y12917685D01*
X-4510320Y12914399D01*
X-4355796Y12941645D01*
X-4209508Y12998387D01*
X-4077026Y13082462D01*
X-3963398Y13190669D01*
X-3872951Y13318885D01*
X-3809131Y13462227D01*
X-3774369Y13615236D01*
X-3771866Y13794454D01*
X-3802343Y13948373D01*
X-3862136Y14093442D01*
X-3948967Y14224133D01*
X-4059530Y14335470D01*
X-4189612Y14423212D01*
X-4334259Y14484016D01*
X-4487962Y14515567D01*
X-4644866Y14516662D01*
X-4798994Y14487261D01*
X-4944477Y14428482D01*
X-5075771Y14342565D01*
X-5187878Y14232783D01*
X-5211284Y14198600D01*
X-5334000Y14198600D01*
X-5378326Y14194254D01*
X-5422775Y14190365D01*
X-5425215Y14189657D01*
X-5427737Y14189409D01*
X-5470414Y14176525D01*
X-5513222Y14164087D01*
X-5515473Y14162921D01*
X-5517905Y14162186D01*
X-5557314Y14141233D01*
X-5596843Y14120742D01*
X-5598824Y14119161D01*
X-5601067Y14117968D01*
X-5635625Y14089784D01*
X-5670452Y14061981D01*
X-5673988Y14058495D01*
X-5674056Y14058439D01*
X-5674109Y14058376D01*
X-5675250Y14057250D01*
X-8469250Y11263250D01*
X-8497546Y11228803D01*
X-8526200Y11194653D01*
X-8527422Y11192431D01*
X-8529033Y11190469D01*
X-8550115Y11151152D01*
X-8571575Y11112116D01*
X-8572342Y11109701D01*
X-8573542Y11107461D01*
X-8586586Y11064798D01*
X-8600054Y11022338D01*
X-8600337Y11019817D01*
X-8601079Y11017389D01*
X-8605585Y10973035D01*
X-8610553Y10928738D01*
X-8610588Y10923778D01*
X-8610597Y10923685D01*
X-8610589Y10923599D01*
X-8610600Y10922000D01*
X-8610600Y6289667D01*
X-8654682Y6260212D01*
X-8704213Y6210681D01*
X-8743129Y6152439D01*
X-8769935Y6087724D01*
X-8783600Y6019023D01*
X-8783600Y5948976D01*
X-8783600Y5548976D01*
X-8769934Y5480275D01*
X-8743128Y5415560D01*
X-8704212Y5357318D01*
X-8680894Y5334000D01*
X-8704213Y5310681D01*
X-8743129Y5252439D01*
X-8769935Y5187724D01*
X-8783600Y5119023D01*
X-8783600Y5048976D01*
X-8783600Y4648976D01*
X-8769934Y4580275D01*
X-8743128Y4515560D01*
X-8704212Y4457318D01*
X-8654681Y4407787D01*
X-8610600Y4378334D01*
X-8610600Y4064000D01*
X-8606254Y4019675D01*
X-8602365Y3975225D01*
X-8601657Y3972786D01*
X-8601409Y3970263D01*
X-8588529Y3927600D01*
X-8576087Y3884777D01*
X-8574920Y3882525D01*
X-8574186Y3880095D01*
X-8553243Y3840706D01*
X-8532742Y3801157D01*
X-8531161Y3799177D01*
X-8529968Y3796933D01*
X-8501784Y3762376D01*
X-8473981Y3727548D01*
X-8470495Y3724013D01*
X-8470439Y3723944D01*
X-8470376Y3723892D01*
X-8469250Y3722750D01*
X-7261100Y2514600D01*
X-7420100Y2514600D01*
X-9169400Y4263900D01*
X-9169400Y4378334D01*
X-9125318Y4407788D01*
X-9075787Y4457319D01*
X-9036871Y4515561D01*
X-9010065Y4580276D01*
X-8996400Y4648977D01*
X-8996400Y4719024D01*
X-8996400Y5119024D01*
X-9010066Y5187725D01*
X-9036872Y5252440D01*
X-9075788Y5310682D01*
X-9099106Y5334000D01*
X-9075787Y5357319D01*
X-9036871Y5415561D01*
X-9010065Y5480276D01*
X-8996400Y5548977D01*
X-8996400Y5619024D01*
X-8996400Y6019024D01*
X-9010066Y6087725D01*
X-9036872Y6152440D01*
X-9075788Y6210682D01*
X-9125319Y6260213D01*
X-9169400Y6289667D01*
X-9169400Y6470610D01*
X-9157026Y6478462D01*
X-9043398Y6586669D01*
X-8952951Y6714885D01*
X-8889131Y6858227D01*
X-8854369Y7011236D01*
X-8851866Y7190454D01*
X-8882343Y7344373D01*
X-8942136Y7489442D01*
X-9028967Y7620133D01*
X-9139530Y7731470D01*
X-9269612Y7819212D01*
X-9414259Y7880016D01*
X-9567962Y7911567D01*
X-9724866Y7912662D01*
X-9878994Y7883261D01*
X-10024477Y7824482D01*
X-10155771Y7738565D01*
X-10267878Y7628783D01*
X-10356525Y7499316D01*
X-10418338Y7355097D01*
X-10450961Y7201618D01*
X-10453151Y7044725D01*
X-10424827Y6890396D01*
X-10367065Y6744507D01*
X-10282067Y6612615D01*
X-10173070Y6499745D01*
X-10134600Y6473008D01*
X-10134600Y6289667D01*
X-10178682Y6260212D01*
X-10228213Y6210681D01*
X-10267129Y6152439D01*
X-10293935Y6087724D01*
X-10307600Y6019023D01*
X-10307600Y5948976D01*
X-10307600Y5548976D01*
X-10293934Y5480275D01*
X-10267128Y5415560D01*
X-10228212Y5357318D01*
X-10204894Y5334000D01*
X-10228213Y5310681D01*
X-10267129Y5252439D01*
X-10293935Y5187724D01*
X-10307600Y5119023D01*
X-10307600Y5048976D01*
X-10307600Y4648976D01*
X-10293934Y4580275D01*
X-10267128Y4515560D01*
X-10228212Y4457318D01*
X-10178681Y4407787D01*
X-10134600Y4378334D01*
X-10134600Y4064000D01*
X-10130254Y4019675D01*
X-10126365Y3975225D01*
X-10125657Y3972786D01*
X-10125409Y3970263D01*
X-10112529Y3927600D01*
X-10100087Y3884777D01*
X-10098920Y3882525D01*
X-10098186Y3880095D01*
X-10077243Y3840706D01*
X-10056742Y3801157D01*
X-10055161Y3799177D01*
X-10053968Y3796933D01*
X-10025784Y3762376D01*
X-9997981Y3727548D01*
X-9994495Y3724013D01*
X-9994439Y3723944D01*
X-9994376Y3723892D01*
X-9993250Y3722750D01*
X-7961250Y1690750D01*
X-7926803Y1662455D01*
X-7892653Y1633800D01*
X-7890431Y1632579D01*
X-7888469Y1630967D01*
X-7849152Y1609886D01*
X-7810116Y1588425D01*
X-7807701Y1587659D01*
X-7805461Y1586458D01*
X-7762798Y1573415D01*
X-7720338Y1559946D01*
X-7717817Y1559664D01*
X-7715389Y1558921D01*
X-7676388Y1554960D01*
X-7986748Y1244600D01*
X-9204334Y1244600D01*
X-9233788Y1288682D01*
X-9283319Y1338213D01*
X-9341561Y1377129D01*
X-9406276Y1403935D01*
X-9474977Y1417600D01*
X-9545024Y1417600D01*
X-9945024Y1417600D01*
X-10013725Y1403934D01*
X-10078440Y1377128D01*
X-10136682Y1338212D01*
X-10160000Y1314894D01*
X-10183319Y1338213D01*
X-10241561Y1377129D01*
X-10306276Y1403935D01*
X-10374977Y1417600D01*
X-10445024Y1417600D01*
X-10845024Y1417600D01*
X-10913725Y1403934D01*
X-10978440Y1377128D01*
X-11036682Y1338212D01*
X-11082788Y1292107D01*
X-11171530Y1381470D01*
X-11301612Y1469212D01*
X-11446259Y1530016D01*
X-11599962Y1561567D01*
X-11756866Y1562662D01*
X-11910994Y1533261D01*
X-12056477Y1474482D01*
X-12187771Y1388565D01*
X-12299878Y1278783D01*
X-12388525Y1149316D01*
X-12450338Y1005097D01*
X-12482961Y851618D01*
X-12485151Y694725D01*
X-12456827Y540396D01*
X-12399065Y394507D01*
X-12314067Y262615D01*
X-12205070Y149745D01*
X-12076225Y60196D01*
X-11936268Y-950D01*
X-12056477Y-49518D01*
X-12187771Y-135435D01*
X-12299878Y-245217D01*
X-12388525Y-374684D01*
X-12450338Y-518903D01*
X-12482961Y-672382D01*
X-12485151Y-829275D01*
X-12456827Y-983604D01*
X-12399065Y-1129493D01*
X-12314067Y-1261385D01*
X-12205070Y-1374255D01*
X-12076225Y-1463804D01*
X-11932441Y-1526622D01*
X-11779193Y-1560315D01*
X-11622320Y-1563601D01*
X-11467796Y-1536355D01*
X-11321508Y-1479613D01*
X-11189026Y-1395538D01*
X-11081630Y-1293264D01*
X-11036681Y-1338213D01*
X-10978439Y-1377129D01*
X-10913724Y-1403935D01*
X-10845023Y-1417600D01*
X-10774976Y-1417600D01*
X-10374976Y-1417600D01*
X-10306275Y-1403934D01*
X-10241560Y-1377128D01*
X-10183318Y-1338212D01*
X-10160000Y-1314894D01*
X-10136681Y-1338213D01*
X-10078439Y-1377129D01*
X-10013724Y-1403935D01*
X-9945023Y-1417600D01*
X-9874976Y-1417600D01*
X-9474976Y-1417600D01*
X-9406275Y-1403934D01*
X-9341560Y-1377128D01*
X-9283318Y-1338212D01*
X-9233787Y-1288681D01*
X-9204334Y-1244600D01*
X-9039100Y-1244600D01*
X-9993250Y-2198750D01*
X-10021546Y-2233197D01*
X-10050200Y-2267347D01*
X-10051422Y-2269569D01*
X-10053033Y-2271531D01*
X-10074115Y-2310848D01*
X-10095575Y-2349884D01*
X-10096342Y-2352299D01*
X-10097542Y-2354539D01*
X-10110586Y-2397202D01*
X-10124054Y-2439662D01*
X-10124337Y-2442183D01*
X-10125079Y-2444611D01*
X-10129585Y-2488965D01*
X-10134553Y-2533262D01*
X-10134588Y-2538222D01*
X-10134597Y-2538315D01*
X-10134589Y-2538401D01*
X-10134600Y-2540000D01*
X-10134600Y-4378333D01*
X-10178682Y-4407788D01*
X-10228213Y-4457319D01*
X-10267129Y-4515561D01*
X-10293935Y-4580276D01*
X-10307600Y-4648977D01*
X-10307600Y-4719024D01*
X-10307600Y-5119024D01*
X-10293934Y-5187725D01*
X-10267128Y-5252440D01*
X-10228212Y-5310682D01*
X-10204894Y-5334000D01*
X-10228213Y-5357319D01*
X-10267129Y-5415561D01*
X-10293935Y-5480276D01*
X-10307600Y-5548977D01*
X-10307600Y-5619024D01*
X-10307600Y-6019024D01*
X-10293934Y-6087725D01*
X-10267128Y-6152440D01*
X-10228212Y-6210682D01*
X-10178681Y-6260213D01*
X-10134600Y-6289666D01*
X-10134600Y-6471580D01*
X-10155771Y-6485435D01*
X-10267878Y-6595217D01*
X-10356525Y-6724684D01*
X-10418338Y-6868903D01*
X-10450961Y-7022382D01*
X-10453151Y-7179275D01*
X-10424827Y-7333604D01*
X-10367065Y-7479493D01*
X-10282067Y-7611385D01*
X-10173070Y-7724255D01*
X-10044225Y-7813804D01*
X-9900441Y-7876622D01*
X-9747193Y-7910315D01*
X-9611645Y-7913154D01*
X-9612249Y-7913750D01*
X-10247250Y-8548750D01*
X-10275546Y-8583197D01*
X-10304200Y-8617347D01*
X-10305422Y-8619569D01*
X-10307033Y-8621531D01*
X-10328115Y-8660848D01*
X-10349575Y-8699884D01*
X-10350342Y-8702299D01*
X-10351542Y-8704539D01*
X-10364586Y-8747202D01*
X-10378054Y-8789662D01*
X-10378337Y-8792183D01*
X-10379079Y-8794611D01*
X-10383585Y-8838965D01*
X-10388553Y-8883262D01*
X-10388588Y-8888222D01*
X-10388597Y-8888315D01*
X-10388589Y-8888401D01*
X-10388600Y-8890000D01*
X-10388600Y-9296400D01*
X-10449024Y-9296400D01*
X-11973024Y-9296400D01*
X-12041725Y-9310066D01*
X-12106440Y-9336872D01*
X-12164682Y-9375788D01*
X-12214213Y-9425319D01*
X-12253129Y-9483561D01*
X-12279935Y-9548276D01*
X-12293600Y-9616977D01*
X-12293600Y-9687024D01*
X-12293600Y-9804400D01*
X-12667296Y-9804400D01*
X-12651493Y-9788597D01*
X-12584779Y-9688754D01*
X-12538827Y-9577813D01*
X-12515400Y-9460040D01*
X-12515400Y-9304800D01*
X-12515400Y-8695200D01*
X-12515400Y-8539960D01*
X-12538827Y-8422187D01*
X-12584779Y-8311246D01*
X-12651493Y-8211403D01*
X-12736402Y-8126493D01*
X-12836246Y-8059780D01*
X-12947186Y-8013827D01*
X-13064959Y-7990400D01*
X-13185040Y-7990400D01*
X-13195200Y-7990400D01*
X-13347600Y-8142800D01*
X-13347600Y-8847600D01*
X-12667800Y-8847600D01*
X-12515400Y-8695200D01*
X-12515400Y-9304800D01*
X-12667800Y-9152400D01*
X-13347600Y-9152400D01*
X-13347600Y-9172400D01*
X-13652400Y-9172400D01*
X-13652400Y-9152400D01*
X-13652400Y-8847600D01*
X-13652400Y-8142800D01*
X-13804800Y-7990400D01*
X-13814960Y-7990400D01*
X-13935041Y-7990400D01*
X-14052814Y-8013827D01*
X-14163754Y-8059780D01*
X-14263598Y-8126493D01*
X-14348507Y-8211403D01*
X-14415221Y-8311246D01*
X-14461173Y-8422187D01*
X-14484600Y-8539960D01*
X-14484600Y-8695200D01*
X-14332200Y-8847600D01*
X-13652400Y-8847600D01*
X-13652400Y-9152400D01*
X-14332200Y-9152400D01*
X-14484600Y-9304800D01*
X-14484600Y-9460040D01*
X-14461173Y-9577813D01*
X-14415221Y-9688754D01*
X-14348507Y-9788597D01*
X-14263598Y-9873507D01*
X-14185989Y-9925363D01*
X-14190129Y-9931561D01*
X-14216935Y-9996276D01*
X-14230600Y-10064977D01*
X-14230600Y-10135024D01*
X-14230600Y-10935024D01*
X-14216934Y-11003725D01*
X-14190128Y-11068440D01*
X-14151212Y-11126682D01*
X-14101681Y-11176213D01*
X-14071600Y-11196312D01*
X-14071600Y-11415069D01*
X-14077878Y-11421217D01*
X-14166525Y-11550684D01*
X-14228338Y-11694903D01*
X-14260961Y-11848382D01*
X-14263151Y-12005275D01*
X-14234827Y-12159604D01*
X-14177065Y-12305493D01*
X-14092067Y-12437385D01*
X-13983070Y-12550255D01*
X-13854225Y-12639804D01*
X-13710441Y-12702622D01*
X-13557193Y-12736315D01*
X-13400320Y-12739601D01*
X-13245796Y-12712355D01*
X-13099508Y-12655613D01*
X-12967026Y-12571538D01*
X-12853398Y-12463331D01*
X-12762951Y-12335115D01*
X-12699131Y-12191773D01*
X-12664369Y-12038764D01*
X-12661866Y-11859546D01*
X-12692343Y-11705627D01*
X-12752136Y-11560558D01*
X-12838967Y-11429867D01*
X-12852400Y-11416339D01*
X-12852400Y-11130294D01*
X-12848787Y-11126681D01*
X-12809871Y-11068439D01*
X-12791298Y-11023600D01*
X-12293600Y-11023600D01*
X-12293600Y-11211024D01*
X-12279934Y-11279725D01*
X-12253128Y-11344440D01*
X-12214212Y-11402682D01*
X-12164681Y-11452213D01*
X-12106439Y-11491129D01*
X-12041724Y-11517935D01*
X-11973023Y-11531600D01*
X-11902976Y-11531600D01*
X-10436100Y-11531600D01*
X-10740900Y-11836400D01*
X-11973024Y-11836400D01*
X-12041725Y-11850066D01*
X-12106440Y-11876872D01*
X-12164682Y-11915788D01*
X-12214213Y-11965319D01*
X-12253129Y-12023561D01*
X-12279935Y-12088276D01*
X-12293600Y-12156977D01*
X-12293600Y-12227024D01*
X-12293600Y-13751024D01*
X-12279934Y-13819725D01*
X-12253128Y-13884440D01*
X-12214212Y-13942682D01*
X-12164681Y-13992213D01*
X-12106439Y-14031129D01*
X-12041724Y-14057935D01*
X-11973023Y-14071600D01*
X-11902976Y-14071600D01*
X-10378976Y-14071600D01*
X-10310275Y-14057934D01*
X-10245560Y-14031128D01*
X-10187318Y-13992212D01*
X-10137787Y-13942681D01*
X-10098871Y-13884439D01*
X-10072065Y-13819724D01*
X-10058400Y-13751023D01*
X-10058400Y-13680976D01*
X-10058400Y-12518900D01*
X-9753600Y-12214100D01*
X-9753600Y-12227024D01*
X-9753600Y-13751024D01*
X-9739934Y-13819725D01*
X-9713128Y-13884440D01*
X-9674212Y-13942682D01*
X-9624681Y-13992213D01*
X-9566439Y-14031129D01*
X-9501724Y-14057935D01*
X-9433023Y-14071600D01*
X-9362976Y-14071600D01*
X-7838976Y-14071600D01*
X-7770275Y-14057934D01*
X-7705560Y-14031128D01*
X-7647318Y-13992212D01*
X-7597787Y-13942681D01*
X-7558871Y-13884439D01*
X-7532065Y-13819724D01*
X-7518400Y-13751023D01*
X-7518400Y-13680976D01*
X-7518400Y-12518900D01*
X-7213600Y-12214100D01*
X-7213600Y-12227024D01*
X-7213600Y-13751024D01*
X-7199934Y-13819725D01*
X-7173128Y-13884440D01*
X-7134212Y-13942682D01*
X-7084681Y-13992213D01*
X-7026439Y-14031129D01*
X-6961724Y-14057935D01*
X-6893023Y-14071600D01*
X-6822976Y-14071600D01*
X-5298976Y-14071600D01*
X-5230275Y-14057934D01*
X-5165560Y-14031128D01*
X-5107318Y-13992212D01*
X-5057787Y-13942681D01*
X-5018871Y-13884439D01*
X-4992065Y-13819724D01*
X-4978400Y-13751023D01*
X-4978400Y-13680976D01*
X-4978400Y-13182600D01*
X-1673100Y-13182600D01*
X-2119250Y-13628750D01*
X-2143377Y-13658122D01*
X-2168603Y-13686570D01*
X-2173228Y-13694463D01*
X-2179033Y-13701531D01*
X-2196999Y-13735035D01*
X-2216216Y-13767837D01*
X-2219219Y-13776475D01*
X-2223542Y-13784539D01*
X-2234657Y-13820895D01*
X-2247137Y-13856803D01*
X-2248405Y-13865864D01*
X-2251079Y-13874611D01*
X-2253090Y-13894400D01*
X-2535024Y-13894400D01*
X-2603725Y-13908066D01*
X-2668440Y-13934872D01*
X-2726682Y-13973788D01*
X-2776213Y-14023319D01*
X-2815129Y-14081561D01*
X-2841935Y-14146276D01*
X-2855600Y-14214977D01*
X-2855600Y-14285024D01*
X-2855600Y-15204444D01*
X-2888597Y-15226493D01*
X-2973507Y-15311402D01*
X-3040220Y-15411246D01*
X-3086173Y-15522186D01*
X-3109600Y-15639959D01*
X-3109600Y-15760040D01*
X-3109600Y-15920200D01*
X-2957200Y-16072600D01*
X-1952400Y-16072600D01*
X-1952400Y-16052600D01*
X-1647600Y-16052600D01*
X-1647600Y-16072600D01*
X-1627600Y-16072600D01*
X-1627600Y-16377400D01*
X-1647600Y-16377400D01*
X-1647600Y-16397400D01*
X-1952400Y-16397400D01*
X-1952400Y-16377400D01*
X-2957200Y-16377400D01*
X-3109600Y-16529800D01*
X-3109600Y-16689960D01*
X-3109600Y-16810041D01*
X-3086173Y-16927814D01*
X-3040220Y-17038754D01*
X-2973507Y-17138598D01*
X-2958846Y-17153259D01*
X-3350000Y-17153259D01*
X-3358164Y-17154059D01*
X-3366356Y-17153630D01*
X-3371384Y-17153894D01*
X-3489788Y-17160928D01*
X-3515257Y-17164961D01*
X-3540912Y-17167658D01*
X-3545837Y-17168705D01*
X-3736451Y-17210614D01*
X-3767496Y-17220701D01*
X-3798756Y-17230378D01*
X-3803384Y-17232362D01*
X-3982227Y-17310497D01*
X-4010758Y-17326442D01*
X-4039505Y-17341986D01*
X-4043660Y-17344831D01*
X-4203920Y-17456215D01*
X-4228796Y-17477385D01*
X-4253990Y-17498229D01*
X-4257513Y-17501826D01*
X-4393087Y-17642216D01*
X-4413393Y-17667835D01*
X-4434045Y-17693158D01*
X-4436802Y-17697371D01*
X-4542525Y-17861421D01*
X-4557446Y-17890453D01*
X-4572809Y-17919348D01*
X-4574695Y-17924016D01*
X-4646540Y-18105477D01*
X-4646910Y-18106766D01*
X-4705734Y-18255339D01*
X-4773148Y-18359945D01*
X-4859600Y-18449469D01*
X-4961797Y-18520497D01*
X-5075840Y-18570321D01*
X-5204203Y-18598544D01*
X-5283584Y-18603260D01*
X-6906505Y-18603260D01*
X-7436304Y-18550920D01*
X-7944456Y-18397093D01*
X-7974978Y-18384173D01*
X-7979308Y-18382820D01*
X-11415220Y-16468180D01*
X-14404836Y-13930246D01*
X-15396501Y-12825855D01*
X-15691699Y-12389848D01*
X-15892011Y-11915645D01*
X-15998044Y-11403634D01*
X-16013067Y-11121669D01*
X-16013067Y9021342D01*
X-15960205Y9550956D01*
X-15810556Y10043508D01*
X-15568087Y10497613D01*
X-15242034Y10895972D01*
X-14844815Y11223415D01*
X-14391561Y11467468D01*
X-13899534Y11618835D01*
X-13370385Y11673516D01*
X-10756886Y11673516D01*
X-10756822Y11673523D01*
X-10755625Y11673518D01*
X-10731889Y11673601D01*
X-10716220Y11675193D01*
X-10700468Y11675083D01*
X-10695457Y11675574D01*
X-10035528Y11744935D01*
X-10003526Y11751505D01*
X-9971409Y11757631D01*
X-9966589Y11759087D01*
X-9332700Y11955308D01*
X-9302583Y11967969D01*
X-9272269Y11980216D01*
X-9267823Y11982580D01*
X-8684120Y12298187D01*
X-8657031Y12316460D01*
X-8629677Y12334359D01*
X-8625775Y12337541D01*
X-8114490Y12760513D01*
X-8091469Y12783696D01*
X-8068109Y12806571D01*
X-8064900Y12810450D01*
X-7645509Y13324675D01*
X-7627416Y13351909D01*
X-7608958Y13378864D01*
X-7606563Y13383293D01*
X-7606563Y13383294D01*
X-7295038Y13969185D01*
X-7282588Y13999393D01*
X-7269708Y14029442D01*
X-7268220Y14034252D01*
X-7076429Y14669494D01*
X-7070089Y14701515D01*
X-7063285Y14733523D01*
X-7062759Y14738531D01*
X-6998007Y15398928D01*
X-6998007Y15414051D01*
X-6996321Y15429081D01*
X-6996286Y15434116D01*
X-6996286Y15949250D01*
X-6942750Y16489240D01*
X-6896564Y16679978D01*
X-6846929Y16805340D01*
X-6779514Y16909947D01*
X-6693064Y16999469D01*
X-6590867Y17070497D01*
X-6476827Y17120321D01*
X-6348461Y17148544D01*
X-6269079Y17153259D01*
X-2958846Y17153259D01*
X-2973507Y17138598D01*
X-3040220Y17038754D01*
X-3086173Y16927814D01*
X-3109600Y16810041D01*
X-3109600Y16689960D01*
X-3109600Y16529800D01*
X-2957200Y16377400D01*
X-1952400Y16377400D01*
X-1952400Y16397400D01*
X-1647600Y16397400D01*
X-1647600Y16377400D01*
X-1627600Y16377400D01*
X-1627600Y16072600D01*
X-1647600Y16072600D01*
X-1647600Y16052600D01*
X-1952400Y16052600D01*
X-1952400Y16072600D01*
X-2957200Y16072600D01*
X-3109600Y15920200D01*
X-3109600Y15760040D01*
X-3109600Y15639959D01*
X-3086173Y15522186D01*
X-3040220Y15411246D01*
X-2973507Y15311402D01*
X-2888597Y15226493D01*
X-2855600Y15204445D01*
X-2855600Y14214976D01*
X-2841934Y14146275D01*
X-2815128Y14081560D01*
X-2776212Y14023318D01*
X-2726681Y13973787D01*
X-2668439Y13934871D01*
X-2603724Y13908065D01*
X-2535023Y13894400D01*
X-2464976Y13894400D01*
X-2282600Y13894400D01*
X-2282600Y13738000D01*
X-2278254Y13693675D01*
X-2274365Y13649225D01*
X-2273657Y13646786D01*
X-2273409Y13644263D01*
X-2260529Y13601600D01*
X-2248087Y13558777D01*
X-2246920Y13556525D01*
X-2246186Y13554095D01*
X-2225243Y13514706D01*
X-2204742Y13475157D01*
X-2203161Y13473177D01*
X-2201968Y13470933D01*
X-2173784Y13436376D01*
X-2145981Y13401548D01*
X-2142495Y13398013D01*
X-2142439Y13397944D01*
X-2142376Y13397892D01*
X-2141250Y13396750D01*
X-1865250Y13120750D01*
X-1830803Y13092455D01*
X-1796653Y13063800D01*
X-1794431Y13062579D01*
X-1792469Y13060967D01*
X-1753152Y13039886D01*
X-1714116Y13018425D01*
X-1711701Y13017659D01*
X-1709461Y13016458D01*
X-1666798Y13003415D01*
X-1624338Y12989946D01*
X-1621817Y12989664D01*
X-1619389Y12988921D01*
X-1575035Y12984416D01*
X-1530738Y12979447D01*
X-1525778Y12979413D01*
X-1525685Y12979403D01*
X-1525599Y12979412D01*
X-1524000Y12979400D01*
X1280400Y12979400D01*
X1280400Y12964976D01*
X1280400Y12364976D01*
X1294066Y12296275D01*
X1320872Y12231560D01*
X1353400Y12182879D01*
X1353400Y11753000D01*
X1357746Y11708675D01*
X1361635Y11664225D01*
X1362343Y11661786D01*
X1362591Y11659263D01*
X1375471Y11616600D01*
X1387913Y11573777D01*
X1389080Y11571525D01*
X1389814Y11569095D01*
X1410757Y11529706D01*
X1431258Y11490157D01*
X1432839Y11488177D01*
X1434032Y11485933D01*
X1462216Y11451376D01*
X1490019Y11416548D01*
X1493505Y11413013D01*
X1493561Y11412944D01*
X1493624Y11412892D01*
X1494750Y11411750D01*
X2184400Y10722101D01*
X2184400Y8541995D01*
X2089813Y8581173D01*
X1972040Y8604600D01*
X1816800Y8604600D01*
X1664400Y8452200D01*
X1664400Y7772400D01*
X1684400Y7772400D01*
X1684400Y7467600D01*
X1664400Y7467600D01*
X1664400Y6914828D01*
X1654834Y6903183D01*
X1626180Y6869033D01*
X1624958Y6866811D01*
X1623347Y6864849D01*
X1602265Y6825532D01*
X1580805Y6786496D01*
X1580038Y6784081D01*
X1578838Y6781841D01*
X1565794Y6739178D01*
X1552326Y6696718D01*
X1552043Y6694197D01*
X1551301Y6691769D01*
X1546795Y6647415D01*
X1541827Y6603118D01*
X1541792Y6598158D01*
X1541783Y6598065D01*
X1541791Y6597979D01*
X1541780Y6596380D01*
X1541780Y6418432D01*
X1509111Y6424930D01*
X1489075Y6424930D01*
X1336675Y6272530D01*
X1336675Y4968240D01*
X1396680Y4968240D01*
X1396680Y4663440D01*
X1336675Y4663440D01*
X1336675Y3359150D01*
X1489075Y3206750D01*
X1509111Y3206750D01*
X1626884Y3230177D01*
X1737824Y3276130D01*
X1837668Y3342843D01*
X1922577Y3427753D01*
X1944625Y3460750D01*
X2284194Y3460750D01*
X2352895Y3474416D01*
X2417610Y3501222D01*
X2424429Y3505779D01*
X2431251Y3501221D01*
X2495966Y3474415D01*
X2564667Y3460750D01*
X2634714Y3460750D01*
X3084294Y3460750D01*
X3152995Y3474416D01*
X3217710Y3501222D01*
X3275952Y3540138D01*
X3325483Y3589669D01*
X3364399Y3647911D01*
X3391205Y3712626D01*
X3404870Y3781327D01*
X3404870Y3851374D01*
X3404870Y5850354D01*
X3391204Y5919055D01*
X3364398Y5983770D01*
X3325482Y6042012D01*
X3307080Y6060414D01*
X3307080Y6434580D01*
X3813900Y6941400D01*
X5832877Y6941400D01*
X5881561Y6908871D01*
X5946276Y6882065D01*
X6014977Y6868400D01*
X6085024Y6868400D01*
X6685024Y6868400D01*
X6753725Y6882066D01*
X6818440Y6908872D01*
X6876682Y6947788D01*
X6926213Y6997319D01*
X6965129Y7055561D01*
X6991935Y7120276D01*
X7005600Y7188977D01*
X7005600Y7259024D01*
X7005600Y7659024D01*
X6991934Y7727725D01*
X6965128Y7792440D01*
X6926212Y7850682D01*
X6902894Y7874000D01*
X6926213Y7897319D01*
X6965129Y7955561D01*
X6991935Y8020276D01*
X7005600Y8088977D01*
X7005600Y8159024D01*
X7005600Y8559024D01*
X6991934Y8627725D01*
X6965128Y8692440D01*
X6926212Y8750682D01*
X6879527Y8797367D01*
X6958602Y8872669D01*
X7049049Y9000885D01*
X7112869Y9144227D01*
X7147631Y9297236D01*
X7150134Y9476454D01*
X7119657Y9630373D01*
X7059864Y9775442D01*
X6973033Y9906133D01*
X6862470Y10017470D01*
X6732388Y10105212D01*
X6587741Y10166016D01*
X6434038Y10197567D01*
X6277134Y10198662D01*
X6123006Y10169261D01*
X5977523Y10110482D01*
X5846229Y10024565D01*
X5734122Y9914783D01*
X5645475Y9785316D01*
X5583662Y9641097D01*
X5551039Y9487618D01*
X5548849Y9330725D01*
X5577173Y9176396D01*
X5634935Y9030507D01*
X5719933Y8898615D01*
X5819065Y8795960D01*
X5773787Y8750681D01*
X5734871Y8692439D01*
X5708065Y8627724D01*
X5694400Y8559023D01*
X5694400Y8488976D01*
X5694400Y8088976D01*
X5708066Y8020275D01*
X5734872Y7955560D01*
X5767585Y7906600D01*
X3614000Y7906600D01*
X3569674Y7902254D01*
X3525225Y7898365D01*
X3522785Y7897657D01*
X3520263Y7897409D01*
X3477599Y7884529D01*
X3434777Y7872087D01*
X3432524Y7870920D01*
X3430095Y7870186D01*
X3390705Y7849243D01*
X3351157Y7828742D01*
X3349176Y7827161D01*
X3346933Y7825968D01*
X3312375Y7797784D01*
X3277548Y7769981D01*
X3274012Y7766495D01*
X3273944Y7766439D01*
X3273891Y7766376D01*
X3272750Y7765250D01*
X3149600Y7642100D01*
X3149600Y10922000D01*
X3145249Y10966372D01*
X3141364Y11010775D01*
X3140656Y11013210D01*
X3140409Y11015737D01*
X3127515Y11058442D01*
X3115087Y11101223D01*
X3113919Y11103476D01*
X3113186Y11105905D01*
X3092242Y11145295D01*
X3071742Y11184843D01*
X3070160Y11186824D01*
X3068968Y11189067D01*
X3040783Y11223625D01*
X3012981Y11258452D01*
X3009498Y11261984D01*
X3009439Y11262056D01*
X3009371Y11262112D01*
X3008249Y11263250D01*
X2318600Y11952900D01*
X2318600Y12117586D01*
X2367561Y12084871D01*
X2432276Y12058065D01*
X2500977Y12044400D01*
X2571024Y12044400D01*
X2971024Y12044400D01*
X3039725Y12058066D01*
X3104440Y12084872D01*
X3162682Y12123788D01*
X3209201Y12170308D01*
X3288930Y12087745D01*
X3417775Y11998196D01*
X3561559Y11935378D01*
X3714807Y11901685D01*
X3871680Y11898399D01*
X4026204Y11925645D01*
X4172492Y11982387D01*
X4304974Y12066462D01*
X4418602Y12174669D01*
X4509049Y12302885D01*
X4572869Y12446227D01*
X4607631Y12599236D01*
X4610134Y12778454D01*
X4579657Y12932373D01*
X4519864Y13077442D01*
X4433033Y13208133D01*
X4322470Y13319470D01*
X4192388Y13407212D01*
X4047741Y13468016D01*
X3894038Y13499567D01*
X3737134Y13500662D01*
X3583006Y13471261D01*
X3437523Y13412482D01*
X3306229Y13326565D01*
X3208263Y13230631D01*
X3162681Y13276213D01*
X3104439Y13315129D01*
X3039724Y13341935D01*
X2971023Y13355600D01*
X2900976Y13355600D01*
X2500976Y13355600D01*
X2432275Y13341934D01*
X2367560Y13315128D01*
X2318600Y13282415D01*
X2318600Y13462000D01*
X2318600Y13894400D01*
X2535024Y13894400D01*
X2603725Y13908066D01*
X2668440Y13934872D01*
X2726682Y13973788D01*
X2776213Y14023319D01*
X2815129Y14081561D01*
X2841935Y14146276D01*
X2855600Y14214977D01*
X2855600Y14285024D01*
X2855600Y15204445D01*
X2888597Y15226493D01*
X2973507Y15311402D01*
X3040220Y15411246D01*
X3086173Y15522186D01*
X3109600Y15639959D01*
X3109600Y15760040D01*
X3109600Y15920200D01*
X2957200Y16072600D01*
X1952400Y16072600D01*
X1952400Y16052600D01*
X1647600Y16052600D01*
X1647600Y16072600D01*
X1627600Y16072600D01*
X1627600Y16377400D01*
X1647600Y16377400D01*
X1647600Y16397400D01*
X1952400Y16397400D01*
X1952400Y16377400D01*
X2957200Y16377400D01*
X3109600Y16529800D01*
X3109600Y16689960D01*
X3109600Y16810041D01*
X3086173Y16927814D01*
X3040220Y17038754D01*
X2973507Y17138598D01*
X2958845Y17153259D01*
X3350000Y17153259D01*
X3358163Y17154060D01*
X3366356Y17153630D01*
X3371384Y17153894D01*
X3489789Y17160928D01*
X3515256Y17164962D01*
X3540913Y17167658D01*
X3545838Y17168705D01*
X3736451Y17210614D01*
X3767504Y17220705D01*
X3798756Y17230378D01*
X3803383Y17232362D01*
X3803384Y17232362D01*
X3982226Y17310497D01*
X4010713Y17326419D01*
X4039505Y17341986D01*
X4043659Y17344831D01*
X4043660Y17344831D01*
X4203920Y17456215D01*
X4228795Y17477386D01*
X4253990Y17498229D01*
X4257513Y17501826D01*
X4257514Y17501828D01*
X4393087Y17642216D01*
X4413395Y17667840D01*
X4434045Y17693158D01*
X4436802Y17697371D01*
X4542525Y17861421D01*
X4557445Y17890454D01*
X4572809Y17919348D01*
X4574694Y17924016D01*
X4574695Y17924016D01*
X4646540Y18105477D01*
X4646909Y18106767D01*
X4705734Y18255341D01*
X4773149Y18359948D01*
X4859599Y18449470D01*
X4961796Y18520498D01*
X5075836Y18570322D01*
X5204202Y18598545D01*
X5283584Y18603260D01*
X6906503Y18603260D01*
X7436304Y18550921D01*
X7944456Y18397093D01*
X7974979Y18384173D01*
X7979306Y18382822D01*
X11415219Y16468181D01*
X14404839Y13930244D01*
X15396500Y12825856D01*
X15691698Y12389849D01*
X15892010Y11915645D01*
X15998043Y11403634D01*
X16013067Y11121670D01*
X16013067Y-9021340D01*
X16013067Y-9021340D01*
G37*
X16013067Y-9021340D02*
X15960204Y-9550955D01*
X15810555Y-10043509D01*
X15568086Y-10497612D01*
X15242033Y-10895971D01*
X14844811Y-11223416D01*
X14391560Y-11467467D01*
X13899533Y-11618834D01*
X13370383Y-11673516D01*
X10756886Y-11673516D01*
X10756821Y-11673522D01*
X10755625Y-11673518D01*
X10731889Y-11673601D01*
X10716219Y-11675192D01*
X10700468Y-11675083D01*
X10695457Y-11675574D01*
X10035528Y-11744935D01*
X10003525Y-11751504D01*
X9971409Y-11757631D01*
X9966589Y-11759086D01*
X9332701Y-11955308D01*
X9302596Y-11967962D01*
X9272269Y-11980216D01*
X9267823Y-11982580D01*
X8684120Y-12298187D01*
X8657047Y-12316447D01*
X8629676Y-12334359D01*
X8625775Y-12337541D01*
X8114490Y-12760513D01*
X8091485Y-12783678D01*
X8068109Y-12806571D01*
X8064900Y-12810451D01*
X7645509Y-13324675D01*
X7627415Y-13351908D01*
X7608958Y-13378864D01*
X7606563Y-13383293D01*
X7295038Y-13969185D01*
X7282587Y-13999392D01*
X7269708Y-14029442D01*
X7268220Y-14034252D01*
X7076429Y-14669494D01*
X7070088Y-14701514D01*
X7063285Y-14733523D01*
X7062759Y-14738531D01*
X6998007Y-15398928D01*
X6998007Y-15414050D01*
X6996321Y-15429081D01*
X6996286Y-15434116D01*
X6996286Y-15949249D01*
X6942750Y-16489233D01*
X6896563Y-16679976D01*
X6846929Y-16805338D01*
X6779515Y-16909944D01*
X6693063Y-16999468D01*
X6590866Y-17070496D01*
X6476823Y-17120320D01*
X6348460Y-17148543D01*
X6269079Y-17153259D01*
X2958845Y-17153259D01*
X2973507Y-17138598D01*
X3040220Y-17038754D01*
X3086173Y-16927814D01*
X3109600Y-16810041D01*
X3109600Y-16689960D01*
X3109600Y-16529800D01*
X2957200Y-16377400D01*
X1952400Y-16377400D01*
X1952400Y-16397400D01*
X1647600Y-16397400D01*
X1647600Y-16377400D01*
X1627600Y-16377400D01*
X1627600Y-16072600D01*
X1647600Y-16072600D01*
X1647600Y-16052600D01*
X1952400Y-16052600D01*
X1952400Y-16072600D01*
X2957200Y-16072600D01*
X3109600Y-15920200D01*
X3109600Y-15760040D01*
X3109600Y-15639959D01*
X3086173Y-15522186D01*
X3040220Y-15411246D01*
X2973507Y-15311402D01*
X2919704Y-15257600D01*
X3264065Y-15257600D01*
X3264788Y-15258682D01*
X3314319Y-15308213D01*
X3372561Y-15347129D01*
X3437276Y-15373935D01*
X3505977Y-15387600D01*
X3576024Y-15387600D01*
X3976024Y-15387600D01*
X4044725Y-15373934D01*
X4109440Y-15347128D01*
X4167682Y-15308212D01*
X4191000Y-15284894D01*
X4214319Y-15308213D01*
X4272561Y-15347129D01*
X4337276Y-15373935D01*
X4405977Y-15387600D01*
X4476024Y-15387600D01*
X4876024Y-15387600D01*
X4944725Y-15373934D01*
X5009440Y-15347128D01*
X5067682Y-15308212D01*
X5114201Y-15261692D01*
X5193930Y-15344255D01*
X5322775Y-15433804D01*
X5466559Y-15496622D01*
X5619807Y-15530315D01*
X5776680Y-15533601D01*
X5931204Y-15506355D01*
X6077492Y-15449613D01*
X6209974Y-15365538D01*
X6323602Y-15257331D01*
X6414049Y-15129115D01*
X6477869Y-14985773D01*
X6512631Y-14832764D01*
X6515134Y-14653546D01*
X6484657Y-14499627D01*
X6424864Y-14354558D01*
X6338033Y-14223867D01*
X6227470Y-14112530D01*
X6097388Y-14024788D01*
X5952741Y-13963984D01*
X5799038Y-13932433D01*
X5642134Y-13931338D01*
X5488006Y-13960739D01*
X5342523Y-14019518D01*
X5211229Y-14105435D01*
X5113263Y-14201369D01*
X5067681Y-14155787D01*
X5009439Y-14116871D01*
X4944724Y-14090065D01*
X4876023Y-14076400D01*
X4805976Y-14076400D01*
X4405976Y-14076400D01*
X4337275Y-14090066D01*
X4272560Y-14116872D01*
X4223600Y-14149585D01*
X4223600Y-13828049D01*
X4299492Y-13798613D01*
X4431974Y-13714538D01*
X4545602Y-13606331D01*
X4636049Y-13478115D01*
X4699869Y-13334773D01*
X4734631Y-13181764D01*
X4737134Y-13002546D01*
X4706657Y-12848627D01*
X4646864Y-12703558D01*
X4560033Y-12572867D01*
X4449470Y-12461530D01*
X4319388Y-12373788D01*
X4174741Y-12312984D01*
X4021038Y-12281433D01*
X3895940Y-12280559D01*
X4644900Y-11531600D01*
X6985000Y-11531600D01*
X7029325Y-11527253D01*
X7073775Y-11523365D01*
X7076214Y-11522656D01*
X7078737Y-11522409D01*
X7121400Y-11509528D01*
X7164223Y-11497087D01*
X7166475Y-11495919D01*
X7168905Y-11495186D01*
X7208294Y-11474242D01*
X7247843Y-11453742D01*
X7249823Y-11452160D01*
X7252067Y-11450968D01*
X7286624Y-11422783D01*
X7321452Y-11394981D01*
X7324987Y-11391494D01*
X7325056Y-11391439D01*
X7325108Y-11391375D01*
X7326250Y-11390250D01*
X12279250Y-6437250D01*
X12307526Y-6402824D01*
X12336200Y-6368653D01*
X12337423Y-6366427D01*
X12339033Y-6364468D01*
X12360103Y-6325172D01*
X12381575Y-6286116D01*
X12382341Y-6283700D01*
X12383542Y-6281461D01*
X12396585Y-6238797D01*
X12410054Y-6196338D01*
X12410336Y-6193816D01*
X12411079Y-6191389D01*
X12415584Y-6147034D01*
X12420553Y-6102738D01*
X12420587Y-6097777D01*
X12420597Y-6097685D01*
X12420588Y-6097598D01*
X12420600Y-6096000D01*
X12420600Y-4699000D01*
X12420600Y-4641603D01*
X12422682Y-4640212D01*
X12446000Y-4616894D01*
X12469319Y-4640213D01*
X12527561Y-4679129D01*
X12592276Y-4705935D01*
X12660977Y-4719600D01*
X12731024Y-4719600D01*
X13131024Y-4719600D01*
X13199725Y-4705934D01*
X13264440Y-4679128D01*
X13322682Y-4640212D01*
X13369201Y-4593692D01*
X13448930Y-4676255D01*
X13577775Y-4765804D01*
X13721559Y-4828622D01*
X13874807Y-4862315D01*
X14031680Y-4865601D01*
X14186204Y-4838355D01*
X14332492Y-4781613D01*
X14464974Y-4697538D01*
X14578602Y-4589331D01*
X14669049Y-4461115D01*
X14732869Y-4317773D01*
X14767631Y-4164764D01*
X14770134Y-3985546D01*
X14739657Y-3831627D01*
X14679864Y-3686558D01*
X14593033Y-3555867D01*
X14482470Y-3444530D01*
X14352388Y-3356788D01*
X14207741Y-3295984D01*
X14054038Y-3264433D01*
X13897134Y-3263338D01*
X13743006Y-3292739D01*
X13597523Y-3351518D01*
X13466229Y-3437435D01*
X13368263Y-3533369D01*
X13322681Y-3487787D01*
X13264439Y-3448871D01*
X13199724Y-3422065D01*
X13131023Y-3408400D01*
X13060976Y-3408400D01*
X12660976Y-3408400D01*
X12592275Y-3422066D01*
X12527560Y-3448872D01*
X12469318Y-3487788D01*
X12446000Y-3511106D01*
X12422681Y-3487787D01*
X12420600Y-3486396D01*
X12420600Y-127000D01*
X12416249Y-82628D01*
X12412364Y-38225D01*
X12411656Y-35790D01*
X12411409Y-33263D01*
X12398515Y9442D01*
X12386087Y52223D01*
X12384919Y54476D01*
X12384186Y56905D01*
X12363242Y96295D01*
X12342742Y135843D01*
X12341160Y137824D01*
X12339968Y140067D01*
X12311783Y174625D01*
X12283981Y209452D01*
X12280498Y212984D01*
X12280439Y213056D01*
X12280371Y213112D01*
X12279249Y214250D01*
X12021290Y472210D01*
X12154204Y495645D01*
X12300492Y552387D01*
X12432974Y636462D01*
X12546602Y744669D01*
X12637049Y872885D01*
X12700869Y1016227D01*
X12735631Y1169236D01*
X12738134Y1348454D01*
X12707657Y1502373D01*
X12647864Y1647442D01*
X12561033Y1778133D01*
X12450470Y1889470D01*
X12320388Y1977212D01*
X12175741Y2038016D01*
X12022038Y2069567D01*
X11865134Y2070662D01*
X11711006Y2041261D01*
X11565523Y1982482D01*
X11434229Y1896565D01*
X11322122Y1786783D01*
X11298716Y1752600D01*
X9591666Y1752600D01*
X9562212Y1796682D01*
X9512681Y1846213D01*
X9454439Y1885129D01*
X9389724Y1911935D01*
X9321023Y1925600D01*
X9250976Y1925600D01*
X8850976Y1925600D01*
X8782275Y1911934D01*
X8717560Y1885128D01*
X8659318Y1846212D01*
X8636000Y1822894D01*
X8612681Y1846213D01*
X8554439Y1885129D01*
X8489724Y1911935D01*
X8421023Y1925600D01*
X8350976Y1925600D01*
X7950976Y1925600D01*
X7882275Y1911934D01*
X7817560Y1885128D01*
X7759318Y1846212D01*
X7709787Y1796681D01*
X7670871Y1738439D01*
X7657798Y1706880D01*
X6169110Y1706880D01*
X6181090Y1767107D01*
X6181090Y1837154D01*
X6181090Y2286734D01*
X6170120Y2341880D01*
X7664111Y2341880D01*
X7670872Y2325560D01*
X7709788Y2267318D01*
X7759319Y2217787D01*
X7817561Y2178871D01*
X7882276Y2152065D01*
X7950977Y2138400D01*
X8021024Y2138400D01*
X8421024Y2138400D01*
X8489725Y2152066D01*
X8554440Y2178872D01*
X8612682Y2217788D01*
X8636000Y2241106D01*
X8659319Y2217787D01*
X8717561Y2178871D01*
X8782276Y2152065D01*
X8850977Y2138400D01*
X8921024Y2138400D01*
X9321024Y2138400D01*
X9389725Y2152066D01*
X9454440Y2178872D01*
X9512682Y2217788D01*
X9562213Y2267319D01*
X9601129Y2325561D01*
X9627935Y2390276D01*
X9641600Y2458977D01*
X9641600Y2529024D01*
X9641600Y3129024D01*
X9627934Y3197725D01*
X9626600Y3200946D01*
X9626600Y5708610D01*
X9638974Y5716462D01*
X9752602Y5824669D01*
X9843049Y5952885D01*
X9906869Y6096227D01*
X9941631Y6249236D01*
X9944134Y6428454D01*
X9913657Y6582373D01*
X9853864Y6727442D01*
X9767033Y6858133D01*
X9656470Y6969470D01*
X9526388Y7057212D01*
X9381741Y7118016D01*
X9228038Y7149567D01*
X9071134Y7150662D01*
X8917006Y7121261D01*
X8771523Y7062482D01*
X8640229Y6976565D01*
X8528122Y6866783D01*
X8439475Y6737316D01*
X8377662Y6593097D01*
X8345039Y6439618D01*
X8342849Y6282725D01*
X8371173Y6128396D01*
X8428935Y5982507D01*
X8513933Y5850615D01*
X8622930Y5737745D01*
X8661400Y5711008D01*
X8661400Y3371604D01*
X8659318Y3370212D01*
X8636000Y3346894D01*
X8612681Y3370213D01*
X8554439Y3409129D01*
X8489724Y3435935D01*
X8421023Y3449600D01*
X8350976Y3449600D01*
X7950976Y3449600D01*
X7882275Y3435934D01*
X7817560Y3409128D01*
X7759318Y3370212D01*
X7709787Y3320681D01*
X7700699Y3307080D01*
X6070574Y3307080D01*
X6052171Y3325483D01*
X5993929Y3364399D01*
X5929214Y3391205D01*
X5860513Y3404870D01*
X5790466Y3404870D01*
X3791486Y3404870D01*
X3722785Y3391204D01*
X3658070Y3364398D01*
X3599828Y3325482D01*
X3550297Y3275951D01*
X3511381Y3217709D01*
X3484575Y3152994D01*
X3470910Y3084293D01*
X3470910Y3014246D01*
X3470910Y2564666D01*
X3484576Y2495965D01*
X3511382Y2431250D01*
X3515090Y2425701D01*
X3511381Y2420149D01*
X3484575Y2355434D01*
X3470910Y2286733D01*
X3470910Y2216686D01*
X3470910Y1767106D01*
X3484576Y1698405D01*
X3511382Y1633690D01*
X3516787Y1625601D01*
X3511381Y1617509D01*
X3484575Y1552794D01*
X3470910Y1484093D01*
X3470910Y1414046D01*
X3470910Y964466D01*
X3484576Y895765D01*
X3511382Y831050D01*
X3515090Y825501D01*
X3511381Y819949D01*
X3484575Y755234D01*
X3470910Y686533D01*
X3470910Y616486D01*
X3470910Y166906D01*
X3484576Y98205D01*
X3511382Y33490D01*
X3516787Y25401D01*
X3511381Y17309D01*
X3484575Y-47406D01*
X3470910Y-116107D01*
X3470910Y-186154D01*
X3470910Y-635734D01*
X3484576Y-704435D01*
X3511382Y-769150D01*
X3515090Y-774699D01*
X3511381Y-780251D01*
X3484575Y-844966D01*
X3470910Y-913667D01*
X3470910Y-983714D01*
X3470910Y-1433294D01*
X3484576Y-1501995D01*
X3511382Y-1566710D01*
X3516787Y-1574799D01*
X3511381Y-1582891D01*
X3484575Y-1647606D01*
X3470910Y-1716307D01*
X3470910Y-1786354D01*
X3470910Y-2235934D01*
X3484576Y-2304635D01*
X3511382Y-2369350D01*
X3515090Y-2374899D01*
X3511381Y-2380451D01*
X3484575Y-2445166D01*
X3470910Y-2513867D01*
X3470910Y-2583914D01*
X3470910Y-3033494D01*
X3484576Y-3102195D01*
X3511382Y-3166910D01*
X3550298Y-3225152D01*
X3599829Y-3274683D01*
X3658071Y-3313599D01*
X3722786Y-3340405D01*
X3791487Y-3354070D01*
X3861534Y-3354070D01*
X5860514Y-3354070D01*
X5929215Y-3340404D01*
X5993930Y-3313598D01*
X6052172Y-3274682D01*
X6070574Y-3256280D01*
X7668320Y-3256280D01*
X7670872Y-3262440D01*
X7709788Y-3320682D01*
X7759319Y-3370213D01*
X7817561Y-3409129D01*
X7882276Y-3435935D01*
X7950977Y-3449600D01*
X8021024Y-3449600D01*
X8421024Y-3449600D01*
X8489725Y-3435934D01*
X8554440Y-3409128D01*
X8603400Y-3376414D01*
X8603400Y-3752000D01*
X8607746Y-3796325D01*
X8611635Y-3840775D01*
X8612343Y-3843214D01*
X8612591Y-3845737D01*
X8625471Y-3888400D01*
X8637913Y-3931223D01*
X8639080Y-3933475D01*
X8639814Y-3935905D01*
X8660757Y-3975294D01*
X8681258Y-4014843D01*
X8682839Y-4016823D01*
X8684032Y-4019067D01*
X8712216Y-4053624D01*
X8740019Y-4088452D01*
X8743505Y-4091987D01*
X8743561Y-4092056D01*
X8743624Y-4092108D01*
X8744750Y-4093250D01*
X9310750Y-4659250D01*
X9345197Y-4687545D01*
X9379347Y-4716200D01*
X9381569Y-4717421D01*
X9383531Y-4719033D01*
X9422848Y-4740114D01*
X9461884Y-4761575D01*
X9464299Y-4762341D01*
X9466539Y-4763542D01*
X9509202Y-4776585D01*
X9551662Y-4790054D01*
X9554183Y-4790336D01*
X9556611Y-4791079D01*
X9600965Y-4795584D01*
X9645262Y-4800553D01*
X9650222Y-4800587D01*
X9650315Y-4800597D01*
X9650401Y-4800588D01*
X9652000Y-4800600D01*
X9773115Y-4800600D01*
X9783933Y-4817385D01*
X9892930Y-4930255D01*
X10021775Y-5019804D01*
X10165559Y-5082622D01*
X10318807Y-5116315D01*
X10475680Y-5119601D01*
X10630204Y-5092355D01*
X10776492Y-5035613D01*
X10908974Y-4951538D01*
X11022602Y-4843331D01*
X11113049Y-4715115D01*
X11176869Y-4571773D01*
X11211631Y-4418764D01*
X11214134Y-4239546D01*
X11183657Y-4085627D01*
X11123864Y-3940558D01*
X11037033Y-3809867D01*
X10926470Y-3698530D01*
X10796388Y-3610788D01*
X10651741Y-3549984D01*
X10498038Y-3518433D01*
X10341134Y-3517338D01*
X10187006Y-3546739D01*
X10041523Y-3605518D01*
X9910229Y-3691435D01*
X9808022Y-3791522D01*
X9568600Y-3552100D01*
X9568600Y-3311122D01*
X9601129Y-3262439D01*
X9627935Y-3197724D01*
X9641600Y-3129023D01*
X9641600Y-3058976D01*
X9641600Y-2458976D01*
X9627934Y-2390275D01*
X9601128Y-2325560D01*
X9562212Y-2267318D01*
X9512681Y-2217787D01*
X9454439Y-2178871D01*
X9389724Y-2152065D01*
X9321023Y-2138400D01*
X9250976Y-2138400D01*
X8850976Y-2138400D01*
X8782275Y-2152066D01*
X8717560Y-2178872D01*
X8659318Y-2217788D01*
X8636000Y-2241106D01*
X8612681Y-2217787D01*
X8554439Y-2178871D01*
X8489724Y-2152065D01*
X8421023Y-2138400D01*
X8350976Y-2138400D01*
X7950976Y-2138400D01*
X7882275Y-2152066D01*
X7817560Y-2178872D01*
X7759318Y-2217788D01*
X7709787Y-2267319D01*
X7693910Y-2291080D01*
X6170120Y-2291080D01*
X6181090Y-2235933D01*
X6181090Y-2165886D01*
X6181090Y-1716306D01*
X6167424Y-1647605D01*
X6140618Y-1582890D01*
X6135212Y-1574800D01*
X6140619Y-1566709D01*
X6167425Y-1501994D01*
X6181090Y-1433293D01*
X6181090Y-1363246D01*
X6181090Y-913666D01*
X6167424Y-844965D01*
X6140618Y-780250D01*
X6136909Y-774700D01*
X6140619Y-769149D01*
X6167425Y-704434D01*
X6181090Y-635733D01*
X6181090Y-565686D01*
X6181090Y-116106D01*
X6169109Y-55880D01*
X11184380Y-55880D01*
X11455400Y-326899D01*
X11455400Y-3657053D01*
X11454065Y-3660276D01*
X11440400Y-3728977D01*
X11440400Y-3799024D01*
X11440400Y-4399024D01*
X11454066Y-4467725D01*
X11455400Y-4470945D01*
X11455400Y-4572000D01*
X11455400Y-4699000D01*
X11455400Y-5896100D01*
X6785100Y-10566400D01*
X4445000Y-10566400D01*
X4400674Y-10570746D01*
X4356225Y-10574635D01*
X4353785Y-10575343D01*
X4351263Y-10575591D01*
X4308599Y-10588471D01*
X4265777Y-10600913D01*
X4263524Y-10602080D01*
X4261095Y-10602814D01*
X4221705Y-10623757D01*
X4182157Y-10644258D01*
X4180176Y-10645839D01*
X4177933Y-10647032D01*
X4143375Y-10675216D01*
X4108548Y-10703019D01*
X4105012Y-10706505D01*
X4104944Y-10706561D01*
X4104891Y-10706624D01*
X4103750Y-10707750D01*
X2985581Y-11825918D01*
X3048869Y-11683773D01*
X3083631Y-11530764D01*
X3086134Y-11351546D01*
X3055657Y-11197627D01*
X2995864Y-11052558D01*
X2909033Y-10921867D01*
X2798470Y-10810530D01*
X2668388Y-10722788D01*
X2523741Y-10661984D01*
X2514600Y-10660107D01*
X2514600Y-6095941D01*
X2559587Y-6104890D01*
X2629634Y-6104890D01*
X3079214Y-6104890D01*
X3147915Y-6091224D01*
X3212630Y-6064418D01*
X3270872Y-6025502D01*
X3320403Y-5975971D01*
X3359319Y-5917729D01*
X3386125Y-5853014D01*
X3399790Y-5784313D01*
X3399790Y-5714266D01*
X3399790Y-5232400D01*
X5311900Y-5232400D01*
X5867400Y-5787900D01*
X5867400Y-6664333D01*
X5823318Y-6693788D01*
X5773787Y-6743319D01*
X5734871Y-6801561D01*
X5708065Y-6866276D01*
X5694400Y-6934977D01*
X5694400Y-7005024D01*
X5694400Y-7405024D01*
X5708066Y-7473725D01*
X5734872Y-7538440D01*
X5773788Y-7596682D01*
X5797106Y-7620000D01*
X5773787Y-7643319D01*
X5734871Y-7701561D01*
X5708065Y-7766276D01*
X5694400Y-7834977D01*
X5694400Y-7905024D01*
X5694400Y-8305024D01*
X5708066Y-8373725D01*
X5734872Y-8438440D01*
X5773788Y-8496682D01*
X5820114Y-8543008D01*
X5734122Y-8627217D01*
X5645475Y-8756684D01*
X5583662Y-8900903D01*
X5551039Y-9054382D01*
X5548849Y-9211275D01*
X5577173Y-9365604D01*
X5634935Y-9511493D01*
X5719933Y-9643385D01*
X5828930Y-9756255D01*
X5957775Y-9845804D01*
X6101559Y-9908622D01*
X6254807Y-9942315D01*
X6411680Y-9945601D01*
X6566204Y-9918355D01*
X6712492Y-9861613D01*
X6844974Y-9777538D01*
X6958602Y-9669331D01*
X7049049Y-9541115D01*
X7112869Y-9397773D01*
X7147631Y-9244764D01*
X7150134Y-9065546D01*
X7119657Y-8911627D01*
X7059864Y-8766558D01*
X6973033Y-8635867D01*
X6880354Y-8542539D01*
X6926213Y-8496681D01*
X6965129Y-8438439D01*
X6991935Y-8373724D01*
X7005600Y-8305023D01*
X7005600Y-8234976D01*
X7005600Y-7834976D01*
X6991934Y-7766275D01*
X6965128Y-7701560D01*
X6926212Y-7643318D01*
X6902894Y-7620000D01*
X6926213Y-7596681D01*
X6965129Y-7538439D01*
X6991935Y-7473724D01*
X7005600Y-7405023D01*
X7005600Y-7334976D01*
X7005600Y-6934976D01*
X6991934Y-6866275D01*
X6965128Y-6801560D01*
X6926212Y-6743318D01*
X6876681Y-6693787D01*
X6832600Y-6664333D01*
X6832600Y-5588000D01*
X6828253Y-5543674D01*
X6824365Y-5499225D01*
X6823656Y-5496785D01*
X6823409Y-5494263D01*
X6810524Y-5451586D01*
X6798087Y-5408778D01*
X6796920Y-5406527D01*
X6796186Y-5404095D01*
X6775232Y-5364686D01*
X6754742Y-5325157D01*
X6753160Y-5323176D01*
X6751968Y-5320933D01*
X6723783Y-5286375D01*
X6695981Y-5251548D01*
X6692494Y-5248012D01*
X6692439Y-5247944D01*
X6692375Y-5247891D01*
X6691250Y-5246750D01*
X5853050Y-4408550D01*
X5818602Y-4380254D01*
X5784453Y-4351600D01*
X5782230Y-4350378D01*
X5780269Y-4348767D01*
X5740951Y-4327685D01*
X5701916Y-4306225D01*
X5699500Y-4305458D01*
X5697261Y-4304258D01*
X5654597Y-4291214D01*
X5612138Y-4277746D01*
X5609616Y-4277463D01*
X5607189Y-4276721D01*
X5562834Y-4272215D01*
X5518538Y-4267247D01*
X5513577Y-4267212D01*
X5513485Y-4267203D01*
X5513398Y-4267211D01*
X5511800Y-4267200D01*
X3399790Y-4267200D01*
X3399790Y-3715286D01*
X3386124Y-3646585D01*
X3359318Y-3581870D01*
X3320402Y-3523628D01*
X3270871Y-3474097D01*
X3212629Y-3435181D01*
X3147914Y-3408375D01*
X3079213Y-3394710D01*
X3009166Y-3394710D01*
X2559586Y-3394710D01*
X2490885Y-3408376D01*
X2426170Y-3435182D01*
X2425700Y-3435495D01*
X2425229Y-3435181D01*
X2360514Y-3408375D01*
X2291813Y-3394710D01*
X2221766Y-3394710D01*
X1772186Y-3394710D01*
X1703485Y-3408376D01*
X1638770Y-3435182D01*
X1625600Y-3443981D01*
X1612429Y-3435181D01*
X1547714Y-3408375D01*
X1479013Y-3394710D01*
X1408966Y-3394710D01*
X1152145Y-3394710D01*
X1130097Y-3361713D01*
X1045188Y-3276803D01*
X945344Y-3210090D01*
X834404Y-3164137D01*
X716631Y-3140710D01*
X696595Y-3140710D01*
X544195Y-3293110D01*
X544195Y-4597400D01*
X604200Y-4597400D01*
X604200Y-4902200D01*
X544195Y-4902200D01*
X544195Y-6206490D01*
X696595Y-6358890D01*
X716631Y-6358890D01*
X834404Y-6335463D01*
X945344Y-6289510D01*
X1045188Y-6222797D01*
X1130097Y-6137887D01*
X1152145Y-6104890D01*
X1479014Y-6104890D01*
X1547715Y-6091224D01*
X1549400Y-6090526D01*
X1549400Y-6528295D01*
X1538597Y-6517493D01*
X1438754Y-6450779D01*
X1327813Y-6404827D01*
X1210040Y-6381400D01*
X1054800Y-6381400D01*
X902400Y-6533800D01*
X902400Y-7213600D01*
X922400Y-7213600D01*
X922400Y-7518400D01*
X902400Y-7518400D01*
X902400Y-8198200D01*
X959200Y-8255000D01*
X902400Y-8311800D01*
X902400Y-8991600D01*
X922400Y-8991600D01*
X922400Y-9296400D01*
X902400Y-9296400D01*
X902400Y-9976200D01*
X1054800Y-10128600D01*
X1210040Y-10128600D01*
X1327813Y-10105173D01*
X1438754Y-10059221D01*
X1538597Y-9992507D01*
X1549400Y-9981704D01*
X1549400Y-11117519D01*
X1519662Y-11186903D01*
X1487039Y-11340382D01*
X1484849Y-11497275D01*
X1513173Y-11651604D01*
X1570935Y-11797493D01*
X1655933Y-11929385D01*
X1764930Y-12042255D01*
X1893775Y-12131804D01*
X2037559Y-12194622D01*
X2141161Y-12217400D01*
X254000Y-12217400D01*
X-4724400Y-12217400D01*
X-4724400Y-11236040D01*
X-4724400Y-10718800D01*
X-4724400Y-10109200D01*
X-4724400Y-9591960D01*
X-4747827Y-9474187D01*
X-4793779Y-9363246D01*
X-4860493Y-9263403D01*
X-4945402Y-9178493D01*
X-5045246Y-9111780D01*
X-5156186Y-9065827D01*
X-5273959Y-9042400D01*
X-5394040Y-9042400D01*
X-5791200Y-9042400D01*
X-5943600Y-9194800D01*
X-5943600Y-10261600D01*
X-4876800Y-10261600D01*
X-4724400Y-10109200D01*
X-4724400Y-10718800D01*
X-4876800Y-10566400D01*
X-5943600Y-10566400D01*
X-5943600Y-11633200D01*
X-5791200Y-11785600D01*
X-5394040Y-11785600D01*
X-5273959Y-11785600D01*
X-5156186Y-11762173D01*
X-5045246Y-11716220D01*
X-4945402Y-11649507D01*
X-4860493Y-11564597D01*
X-4793779Y-11464754D01*
X-4747827Y-11353813D01*
X-4724400Y-11236040D01*
X-4724400Y-12217400D01*
X-4978400Y-12217400D01*
X-4978400Y-12156976D01*
X-4992066Y-12088275D01*
X-5018872Y-12023560D01*
X-5057788Y-11965318D01*
X-5107319Y-11915787D01*
X-5165561Y-11876871D01*
X-5230276Y-11850065D01*
X-5298977Y-11836400D01*
X-5369024Y-11836400D01*
X-6893024Y-11836400D01*
X-6911474Y-11840069D01*
X-6907426Y-11826830D01*
X-6894347Y-11785600D01*
X-6797960Y-11785600D01*
X-6400800Y-11785600D01*
X-6248400Y-11633200D01*
X-6248400Y-10566400D01*
X-6268400Y-10566400D01*
X-6268400Y-10261600D01*
X-6248400Y-10261600D01*
X-6248400Y-9194800D01*
X-6364350Y-9078850D01*
X-6262750Y-8977250D01*
X-5754746Y-8469246D01*
X-5726451Y-8434798D01*
X-5697796Y-8400649D01*
X-5696575Y-8398426D01*
X-5694963Y-8396465D01*
X-5673882Y-8357147D01*
X-5652421Y-8318112D01*
X-5651655Y-8315696D01*
X-5650454Y-8313457D01*
X-5637407Y-8270781D01*
X-5623942Y-8228334D01*
X-5623660Y-8225814D01*
X-5622917Y-8223386D01*
X-5618412Y-8179025D01*
X-5613443Y-8134734D01*
X-5613409Y-8129773D01*
X-5613399Y-8129681D01*
X-5613408Y-8129594D01*
X-5613396Y-8127996D01*
X-5613396Y-5054600D01*
X-3374390Y-5054600D01*
X-3374390Y-5784314D01*
X-3360724Y-5853015D01*
X-3333918Y-5917730D01*
X-3295002Y-5975972D01*
X-3245471Y-6025503D01*
X-3187229Y-6064419D01*
X-3122514Y-6091225D01*
X-3053813Y-6104890D01*
X-2983766Y-6104890D01*
X-2590800Y-6104890D01*
X-2590800Y-7924800D01*
X-2585307Y-7980829D01*
X-2580397Y-8036937D01*
X-2579503Y-8040014D01*
X-2579190Y-8043205D01*
X-2562919Y-8097100D01*
X-2547205Y-8151186D01*
X-2545730Y-8154032D01*
X-2544803Y-8157101D01*
X-2518380Y-8206795D01*
X-2492454Y-8256812D01*
X-2490453Y-8259319D01*
X-2488949Y-8262147D01*
X-2453392Y-8305744D01*
X-2418229Y-8349792D01*
X-2413829Y-8354253D01*
X-2413754Y-8354345D01*
X-2413670Y-8354415D01*
X-2412252Y-8355852D01*
X-1505600Y-9262504D01*
X-1505600Y-9554024D01*
X-1491934Y-9622725D01*
X-1465128Y-9687440D01*
X-1426212Y-9745682D01*
X-1376681Y-9795213D01*
X-1363769Y-9803840D01*
X-1368298Y-10522835D01*
X-1377878Y-10532217D01*
X-1466525Y-10661684D01*
X-1528338Y-10805903D01*
X-1560961Y-10959382D01*
X-1563151Y-11116275D01*
X-1534827Y-11270604D01*
X-1477065Y-11416493D01*
X-1392067Y-11548385D01*
X-1283070Y-11661255D01*
X-1154225Y-11750804D01*
X-1010441Y-11813622D01*
X-857193Y-11847315D01*
X-700320Y-11850601D01*
X-545796Y-11823355D01*
X-399508Y-11766613D01*
X-267026Y-11682538D01*
X-153398Y-11574331D01*
X-62951Y-11446115D01*
X869Y-11302773D01*
X35631Y-11149764D01*
X38134Y-10970546D01*
X7657Y-10816627D01*
X-52136Y-10671558D01*
X-138967Y-10540867D01*
X-149123Y-10530640D01*
X-144996Y-9875438D01*
X-123507Y-9907598D01*
X-38597Y-9992507D01*
X61246Y-10059221D01*
X172187Y-10105173D01*
X289960Y-10128600D01*
X445200Y-10128600D01*
X597600Y-9976200D01*
X597600Y-9296400D01*
X577600Y-9296400D01*
X577600Y-8991600D01*
X597600Y-8991600D01*
X597600Y-8311800D01*
X540800Y-8255000D01*
X597600Y-8198200D01*
X597600Y-7518400D01*
X577600Y-7518400D01*
X577600Y-7213600D01*
X597600Y-7213600D01*
X597600Y-6533800D01*
X445200Y-6381400D01*
X289960Y-6381400D01*
X172187Y-6404827D01*
X101600Y-6434064D01*
X101600Y-6349865D01*
X146969Y-6358890D01*
X167005Y-6358890D01*
X319405Y-6206490D01*
X319405Y-4902200D01*
X259400Y-4902200D01*
X259400Y-4597400D01*
X319405Y-4597400D01*
X319405Y-3293110D01*
X167005Y-3140710D01*
X146969Y-3140710D01*
X29196Y-3164137D01*
X-81744Y-3210090D01*
X-181588Y-3276803D01*
X-266497Y-3361713D01*
X-288546Y-3394710D01*
X-640814Y-3394710D01*
X-709515Y-3408376D01*
X-774230Y-3435182D01*
X-774700Y-3435495D01*
X-775171Y-3435181D01*
X-839886Y-3408375D01*
X-908587Y-3394710D01*
X-978634Y-3394710D01*
X-1428214Y-3394710D01*
X-1496915Y-3408376D01*
X-1561630Y-3435182D01*
X-1574800Y-3443981D01*
X-1587971Y-3435181D01*
X-1652686Y-3408375D01*
X-1721387Y-3394710D01*
X-1791434Y-3394710D01*
X-2241014Y-3394710D01*
X-2309715Y-3408376D01*
X-2374430Y-3435182D01*
X-2387600Y-3443981D01*
X-2400771Y-3435181D01*
X-2465486Y-3408375D01*
X-2534187Y-3394710D01*
X-2604234Y-3394710D01*
X-2828649Y-3394710D01*
X-2824416Y-3353029D01*
X-2819447Y-3308738D01*
X-2819413Y-3303777D01*
X-2819403Y-3303685D01*
X-2819412Y-3303598D01*
X-2819400Y-3302000D01*
X-2819400Y-2286000D01*
X-2823751Y-2241628D01*
X-2827636Y-2197225D01*
X-2828344Y-2194790D01*
X-2828591Y-2192263D01*
X-2841485Y-2149558D01*
X-2853913Y-2106777D01*
X-2855081Y-2104524D01*
X-2855814Y-2102095D01*
X-2876758Y-2062705D01*
X-2897258Y-2023157D01*
X-2898840Y-2021176D01*
X-2900032Y-2018933D01*
X-2928217Y-1984375D01*
X-2956019Y-1949548D01*
X-2959506Y-1946012D01*
X-2959561Y-1945944D01*
X-2959625Y-1945891D01*
X-2960750Y-1944750D01*
X-3265550Y-1639950D01*
X-3299998Y-1611654D01*
X-3334147Y-1583000D01*
X-3336370Y-1581778D01*
X-3338331Y-1580167D01*
X-3377649Y-1559085D01*
X-3416684Y-1537625D01*
X-3419100Y-1536858D01*
X-3421339Y-1535658D01*
X-3446622Y-1527928D01*
X-3433775Y-1496914D01*
X-3420110Y-1428213D01*
X-3420110Y-1358166D01*
X-3420110Y-908586D01*
X-3433776Y-839885D01*
X-3460582Y-775170D01*
X-3469382Y-762000D01*
X-3460581Y-748829D01*
X-3433775Y-684114D01*
X-3420110Y-615413D01*
X-3420110Y-545366D01*
X-3420110Y-95786D01*
X-3433776Y-27085D01*
X-3460582Y37630D01*
X-3460896Y38100D01*
X-3460581Y38571D01*
X-3433775Y103286D01*
X-3420110Y171987D01*
X-3420110Y242034D01*
X-3420110Y691614D01*
X-3433776Y760315D01*
X-3460582Y825030D01*
X-3460896Y825500D01*
X-3460581Y825971D01*
X-3433775Y890686D01*
X-3420110Y959387D01*
X-3420110Y1029434D01*
X-3420110Y1479014D01*
X-3433776Y1547715D01*
X-3460582Y1612430D01*
X-3469382Y1625600D01*
X-3460581Y1638771D01*
X-3433775Y1703486D01*
X-3420110Y1772187D01*
X-3420110Y1842234D01*
X-3420110Y2291814D01*
X-3433776Y2360515D01*
X-3460582Y2425230D01*
X-3460896Y2425700D01*
X-3460581Y2426171D01*
X-3433775Y2490886D01*
X-3420110Y2559587D01*
X-3420110Y2629634D01*
X-3420110Y2646000D01*
X-1594790Y2646000D01*
X-1346000Y2894790D01*
X-1346000Y3460750D01*
X-1096266Y3460750D01*
X-1074217Y3427753D01*
X-989308Y3342843D01*
X-889464Y3276130D01*
X-778524Y3230177D01*
X-660751Y3206750D01*
X-640715Y3206750D01*
X-488315Y3359150D01*
X-488315Y4663440D01*
X-548320Y4663440D01*
X-548320Y4968240D01*
X-488315Y4968240D01*
X-488315Y4988240D01*
X-263525Y4988240D01*
X-263525Y4968240D01*
X-203520Y4968240D01*
X-203520Y4663440D01*
X-263525Y4663440D01*
X-263525Y3359150D01*
X-111125Y3206750D01*
X-91089Y3206750D01*
X26684Y3230177D01*
X137624Y3276130D01*
X237468Y3342843D01*
X322377Y3427753D01*
X344425Y3460750D01*
X503934Y3460750D01*
X525983Y3427753D01*
X610892Y3342843D01*
X710736Y3276130D01*
X821676Y3230177D01*
X939449Y3206750D01*
X959485Y3206750D01*
X1111885Y3359150D01*
X1111885Y4663440D01*
X1051880Y4663440D01*
X1051880Y4968240D01*
X1111885Y4968240D01*
X1111885Y6272530D01*
X1033780Y6350635D01*
X1033780Y6424930D01*
X1033780Y6639017D01*
X1051960Y6635400D01*
X1207200Y6635400D01*
X1359600Y6787800D01*
X1359600Y7467600D01*
X1339600Y7467600D01*
X1339600Y7772400D01*
X1359600Y7772400D01*
X1359600Y8452200D01*
X1207200Y8604600D01*
X1051960Y8604600D01*
X934187Y8581173D01*
X823246Y8535221D01*
X723403Y8468507D01*
X638493Y8383598D01*
X609600Y8340357D01*
X609600Y10906084D01*
X699049Y11032885D01*
X762869Y11176227D01*
X797631Y11329236D01*
X800134Y11508454D01*
X769657Y11662373D01*
X709864Y11807442D01*
X623033Y11938133D01*
X512470Y12049470D01*
X382388Y12137212D01*
X237741Y12198016D01*
X84038Y12229567D01*
X-72866Y12230662D01*
X-226994Y12201261D01*
X-372477Y12142482D01*
X-503771Y12056565D01*
X-615878Y11946783D01*
X-679408Y11854000D01*
X-2705210Y11854000D01*
X-3054000Y11505210D01*
X-3054000Y11261200D01*
X-3194000Y11121200D01*
X-3194000Y10539000D01*
X-3171600Y10539000D01*
X-3171600Y10289000D01*
X-3194000Y10289000D01*
X-3194000Y10241600D01*
X-3494000Y10241600D01*
X-3494000Y10289000D01*
X-3494000Y10539000D01*
X-3494000Y11121200D01*
X-3646400Y11273600D01*
X-3704040Y11273600D01*
X-3821813Y11250173D01*
X-3932754Y11204221D01*
X-4032597Y11137507D01*
X-4117507Y11052598D01*
X-4184220Y10952754D01*
X-4230173Y10841814D01*
X-4253600Y10724041D01*
X-4253600Y10691400D01*
X-4101200Y10539000D01*
X-3494000Y10539000D01*
X-3494000Y10289000D01*
X-4101200Y10289000D01*
X-4236200Y10154000D01*
X-4253600Y10154000D01*
X-4890400Y10154000D01*
X-4890400Y10691400D01*
X-4890400Y10724041D01*
X-4913827Y10841814D01*
X-4959780Y10952754D01*
X-5026493Y11052598D01*
X-5111403Y11137507D01*
X-5211246Y11204221D01*
X-5322187Y11250173D01*
X-5439960Y11273600D01*
X-5497600Y11273600D01*
X-5650000Y11121200D01*
X-5650000Y10539000D01*
X-5042800Y10539000D01*
X-4890400Y10691400D01*
X-4890400Y10154000D01*
X-4907800Y10154000D01*
X-5042800Y10289000D01*
X-5650000Y10289000D01*
X-5650000Y10241600D01*
X-5950000Y10241600D01*
X-5950000Y10289000D01*
X-5972400Y10289000D01*
X-5972400Y10539000D01*
X-5950000Y10539000D01*
X-5950000Y11121200D01*
X-6102400Y11273600D01*
X-6160040Y11273600D01*
X-6246000Y11256502D01*
X-6246000Y12121500D01*
X-5176923Y13190578D01*
X-5093070Y13103745D01*
X-4964225Y13014196D01*
X-4820441Y12951378D01*
X-4667193Y12917685D01*
X-4510320Y12914399D01*
X-4355796Y12941645D01*
X-4209508Y12998387D01*
X-4077026Y13082462D01*
X-3963398Y13190669D01*
X-3872951Y13318885D01*
X-3809131Y13462227D01*
X-3774369Y13615236D01*
X-3771866Y13794454D01*
X-3802343Y13948373D01*
X-3862136Y14093442D01*
X-3948967Y14224133D01*
X-4059530Y14335470D01*
X-4189612Y14423212D01*
X-4334259Y14484016D01*
X-4487962Y14515567D01*
X-4644866Y14516662D01*
X-4798994Y14487261D01*
X-4944477Y14428482D01*
X-5075771Y14342565D01*
X-5187878Y14232783D01*
X-5211284Y14198600D01*
X-5334000Y14198600D01*
X-5378326Y14194254D01*
X-5422775Y14190365D01*
X-5425215Y14189657D01*
X-5427737Y14189409D01*
X-5470414Y14176525D01*
X-5513222Y14164087D01*
X-5515473Y14162921D01*
X-5517905Y14162186D01*
X-5557314Y14141233D01*
X-5596843Y14120742D01*
X-5598824Y14119161D01*
X-5601067Y14117968D01*
X-5635625Y14089784D01*
X-5670452Y14061981D01*
X-5673988Y14058495D01*
X-5674056Y14058439D01*
X-5674109Y14058376D01*
X-5675250Y14057250D01*
X-8469250Y11263250D01*
X-8497546Y11228803D01*
X-8526200Y11194653D01*
X-8527422Y11192431D01*
X-8529033Y11190469D01*
X-8550115Y11151152D01*
X-8571575Y11112116D01*
X-8572342Y11109701D01*
X-8573542Y11107461D01*
X-8586586Y11064798D01*
X-8600054Y11022338D01*
X-8600337Y11019817D01*
X-8601079Y11017389D01*
X-8605585Y10973035D01*
X-8610553Y10928738D01*
X-8610588Y10923778D01*
X-8610597Y10923685D01*
X-8610589Y10923599D01*
X-8610600Y10922000D01*
X-8610600Y6289667D01*
X-8654682Y6260212D01*
X-8704213Y6210681D01*
X-8743129Y6152439D01*
X-8769935Y6087724D01*
X-8783600Y6019023D01*
X-8783600Y5948976D01*
X-8783600Y5548976D01*
X-8769934Y5480275D01*
X-8743128Y5415560D01*
X-8704212Y5357318D01*
X-8680894Y5334000D01*
X-8704213Y5310681D01*
X-8743129Y5252439D01*
X-8769935Y5187724D01*
X-8783600Y5119023D01*
X-8783600Y5048976D01*
X-8783600Y4648976D01*
X-8769934Y4580275D01*
X-8743128Y4515560D01*
X-8704212Y4457318D01*
X-8654681Y4407787D01*
X-8610600Y4378334D01*
X-8610600Y4064000D01*
X-8606254Y4019675D01*
X-8602365Y3975225D01*
X-8601657Y3972786D01*
X-8601409Y3970263D01*
X-8588529Y3927600D01*
X-8576087Y3884777D01*
X-8574920Y3882525D01*
X-8574186Y3880095D01*
X-8553243Y3840706D01*
X-8532742Y3801157D01*
X-8531161Y3799177D01*
X-8529968Y3796933D01*
X-8501784Y3762376D01*
X-8473981Y3727548D01*
X-8470495Y3724013D01*
X-8470439Y3723944D01*
X-8470376Y3723892D01*
X-8469250Y3722750D01*
X-7261100Y2514600D01*
X-7420100Y2514600D01*
X-9169400Y4263900D01*
X-9169400Y4378334D01*
X-9125318Y4407788D01*
X-9075787Y4457319D01*
X-9036871Y4515561D01*
X-9010065Y4580276D01*
X-8996400Y4648977D01*
X-8996400Y4719024D01*
X-8996400Y5119024D01*
X-9010066Y5187725D01*
X-9036872Y5252440D01*
X-9075788Y5310682D01*
X-9099106Y5334000D01*
X-9075787Y5357319D01*
X-9036871Y5415561D01*
X-9010065Y5480276D01*
X-8996400Y5548977D01*
X-8996400Y5619024D01*
X-8996400Y6019024D01*
X-9010066Y6087725D01*
X-9036872Y6152440D01*
X-9075788Y6210682D01*
X-9125319Y6260213D01*
X-9169400Y6289667D01*
X-9169400Y6470610D01*
X-9157026Y6478462D01*
X-9043398Y6586669D01*
X-8952951Y6714885D01*
X-8889131Y6858227D01*
X-8854369Y7011236D01*
X-8851866Y7190454D01*
X-8882343Y7344373D01*
X-8942136Y7489442D01*
X-9028967Y7620133D01*
X-9139530Y7731470D01*
X-9269612Y7819212D01*
X-9414259Y7880016D01*
X-9567962Y7911567D01*
X-9724866Y7912662D01*
X-9878994Y7883261D01*
X-10024477Y7824482D01*
X-10155771Y7738565D01*
X-10267878Y7628783D01*
X-10356525Y7499316D01*
X-10418338Y7355097D01*
X-10450961Y7201618D01*
X-10453151Y7044725D01*
X-10424827Y6890396D01*
X-10367065Y6744507D01*
X-10282067Y6612615D01*
X-10173070Y6499745D01*
X-10134600Y6473008D01*
X-10134600Y6289667D01*
X-10178682Y6260212D01*
X-10228213Y6210681D01*
X-10267129Y6152439D01*
X-10293935Y6087724D01*
X-10307600Y6019023D01*
X-10307600Y5948976D01*
X-10307600Y5548976D01*
X-10293934Y5480275D01*
X-10267128Y5415560D01*
X-10228212Y5357318D01*
X-10204894Y5334000D01*
X-10228213Y5310681D01*
X-10267129Y5252439D01*
X-10293935Y5187724D01*
X-10307600Y5119023D01*
X-10307600Y5048976D01*
X-10307600Y4648976D01*
X-10293934Y4580275D01*
X-10267128Y4515560D01*
X-10228212Y4457318D01*
X-10178681Y4407787D01*
X-10134600Y4378334D01*
X-10134600Y4064000D01*
X-10130254Y4019675D01*
X-10126365Y3975225D01*
X-10125657Y3972786D01*
X-10125409Y3970263D01*
X-10112529Y3927600D01*
X-10100087Y3884777D01*
X-10098920Y3882525D01*
X-10098186Y3880095D01*
X-10077243Y3840706D01*
X-10056742Y3801157D01*
X-10055161Y3799177D01*
X-10053968Y3796933D01*
X-10025784Y3762376D01*
X-9997981Y3727548D01*
X-9994495Y3724013D01*
X-9994439Y3723944D01*
X-9994376Y3723892D01*
X-9993250Y3722750D01*
X-7961250Y1690750D01*
X-7926803Y1662455D01*
X-7892653Y1633800D01*
X-7890431Y1632579D01*
X-7888469Y1630967D01*
X-7849152Y1609886D01*
X-7810116Y1588425D01*
X-7807701Y1587659D01*
X-7805461Y1586458D01*
X-7762798Y1573415D01*
X-7720338Y1559946D01*
X-7717817Y1559664D01*
X-7715389Y1558921D01*
X-7676388Y1554960D01*
X-7986748Y1244600D01*
X-9204334Y1244600D01*
X-9233788Y1288682D01*
X-9283319Y1338213D01*
X-9341561Y1377129D01*
X-9406276Y1403935D01*
X-9474977Y1417600D01*
X-9545024Y1417600D01*
X-9945024Y1417600D01*
X-10013725Y1403934D01*
X-10078440Y1377128D01*
X-10136682Y1338212D01*
X-10160000Y1314894D01*
X-10183319Y1338213D01*
X-10241561Y1377129D01*
X-10306276Y1403935D01*
X-10374977Y1417600D01*
X-10445024Y1417600D01*
X-10845024Y1417600D01*
X-10913725Y1403934D01*
X-10978440Y1377128D01*
X-11036682Y1338212D01*
X-11082788Y1292107D01*
X-11171530Y1381470D01*
X-11301612Y1469212D01*
X-11446259Y1530016D01*
X-11599962Y1561567D01*
X-11756866Y1562662D01*
X-11910994Y1533261D01*
X-12056477Y1474482D01*
X-12187771Y1388565D01*
X-12299878Y1278783D01*
X-12388525Y1149316D01*
X-12450338Y1005097D01*
X-12482961Y851618D01*
X-12485151Y694725D01*
X-12456827Y540396D01*
X-12399065Y394507D01*
X-12314067Y262615D01*
X-12205070Y149745D01*
X-12076225Y60196D01*
X-11936268Y-950D01*
X-12056477Y-49518D01*
X-12187771Y-135435D01*
X-12299878Y-245217D01*
X-12388525Y-374684D01*
X-12450338Y-518903D01*
X-12482961Y-672382D01*
X-12485151Y-829275D01*
X-12456827Y-983604D01*
X-12399065Y-1129493D01*
X-12314067Y-1261385D01*
X-12205070Y-1374255D01*
X-12076225Y-1463804D01*
X-11932441Y-1526622D01*
X-11779193Y-1560315D01*
X-11622320Y-1563601D01*
X-11467796Y-1536355D01*
X-11321508Y-1479613D01*
X-11189026Y-1395538D01*
X-11081630Y-1293264D01*
X-11036681Y-1338213D01*
X-10978439Y-1377129D01*
X-10913724Y-1403935D01*
X-10845023Y-1417600D01*
X-10774976Y-1417600D01*
X-10374976Y-1417600D01*
X-10306275Y-1403934D01*
X-10241560Y-1377128D01*
X-10183318Y-1338212D01*
X-10160000Y-1314894D01*
X-10136681Y-1338213D01*
X-10078439Y-1377129D01*
X-10013724Y-1403935D01*
X-9945023Y-1417600D01*
X-9874976Y-1417600D01*
X-9474976Y-1417600D01*
X-9406275Y-1403934D01*
X-9341560Y-1377128D01*
X-9283318Y-1338212D01*
X-9233787Y-1288681D01*
X-9204334Y-1244600D01*
X-9039100Y-1244600D01*
X-9993250Y-2198750D01*
X-10021546Y-2233197D01*
X-10050200Y-2267347D01*
X-10051422Y-2269569D01*
X-10053033Y-2271531D01*
X-10074115Y-2310848D01*
X-10095575Y-2349884D01*
X-10096342Y-2352299D01*
X-10097542Y-2354539D01*
X-10110586Y-2397202D01*
X-10124054Y-2439662D01*
X-10124337Y-2442183D01*
X-10125079Y-2444611D01*
X-10129585Y-2488965D01*
X-10134553Y-2533262D01*
X-10134588Y-2538222D01*
X-10134597Y-2538315D01*
X-10134589Y-2538401D01*
X-10134600Y-2540000D01*
X-10134600Y-4378333D01*
X-10178682Y-4407788D01*
X-10228213Y-4457319D01*
X-10267129Y-4515561D01*
X-10293935Y-4580276D01*
X-10307600Y-4648977D01*
X-10307600Y-4719024D01*
X-10307600Y-5119024D01*
X-10293934Y-5187725D01*
X-10267128Y-5252440D01*
X-10228212Y-5310682D01*
X-10204894Y-5334000D01*
X-10228213Y-5357319D01*
X-10267129Y-5415561D01*
X-10293935Y-5480276D01*
X-10307600Y-5548977D01*
X-10307600Y-5619024D01*
X-10307600Y-6019024D01*
X-10293934Y-6087725D01*
X-10267128Y-6152440D01*
X-10228212Y-6210682D01*
X-10178681Y-6260213D01*
X-10134600Y-6289666D01*
X-10134600Y-6471580D01*
X-10155771Y-6485435D01*
X-10267878Y-6595217D01*
X-10356525Y-6724684D01*
X-10418338Y-6868903D01*
X-10450961Y-7022382D01*
X-10453151Y-7179275D01*
X-10424827Y-7333604D01*
X-10367065Y-7479493D01*
X-10282067Y-7611385D01*
X-10173070Y-7724255D01*
X-10044225Y-7813804D01*
X-9900441Y-7876622D01*
X-9747193Y-7910315D01*
X-9611645Y-7913154D01*
X-9612249Y-7913750D01*
X-10247250Y-8548750D01*
X-10275546Y-8583197D01*
X-10304200Y-8617347D01*
X-10305422Y-8619569D01*
X-10307033Y-8621531D01*
X-10328115Y-8660848D01*
X-10349575Y-8699884D01*
X-10350342Y-8702299D01*
X-10351542Y-8704539D01*
X-10364586Y-8747202D01*
X-10378054Y-8789662D01*
X-10378337Y-8792183D01*
X-10379079Y-8794611D01*
X-10383585Y-8838965D01*
X-10388553Y-8883262D01*
X-10388588Y-8888222D01*
X-10388597Y-8888315D01*
X-10388589Y-8888401D01*
X-10388600Y-8890000D01*
X-10388600Y-9296400D01*
X-10449024Y-9296400D01*
X-11973024Y-9296400D01*
X-12041725Y-9310066D01*
X-12106440Y-9336872D01*
X-12164682Y-9375788D01*
X-12214213Y-9425319D01*
X-12253129Y-9483561D01*
X-12279935Y-9548276D01*
X-12293600Y-9616977D01*
X-12293600Y-9687024D01*
X-12293600Y-9804400D01*
X-12667296Y-9804400D01*
X-12651493Y-9788597D01*
X-12584779Y-9688754D01*
X-12538827Y-9577813D01*
X-12515400Y-9460040D01*
X-12515400Y-9304800D01*
X-12515400Y-8695200D01*
X-12515400Y-8539960D01*
X-12538827Y-8422187D01*
X-12584779Y-8311246D01*
X-12651493Y-8211403D01*
X-12736402Y-8126493D01*
X-12836246Y-8059780D01*
X-12947186Y-8013827D01*
X-13064959Y-7990400D01*
X-13185040Y-7990400D01*
X-13195200Y-7990400D01*
X-13347600Y-8142800D01*
X-13347600Y-8847600D01*
X-12667800Y-8847600D01*
X-12515400Y-8695200D01*
X-12515400Y-9304800D01*
X-12667800Y-9152400D01*
X-13347600Y-9152400D01*
X-13347600Y-9172400D01*
X-13652400Y-9172400D01*
X-13652400Y-9152400D01*
X-13652400Y-8847600D01*
X-13652400Y-8142800D01*
X-13804800Y-7990400D01*
X-13814960Y-7990400D01*
X-13935041Y-7990400D01*
X-14052814Y-8013827D01*
X-14163754Y-8059780D01*
X-14263598Y-8126493D01*
X-14348507Y-8211403D01*
X-14415221Y-8311246D01*
X-14461173Y-8422187D01*
X-14484600Y-8539960D01*
X-14484600Y-8695200D01*
X-14332200Y-8847600D01*
X-13652400Y-8847600D01*
X-13652400Y-9152400D01*
X-14332200Y-9152400D01*
X-14484600Y-9304800D01*
X-14484600Y-9460040D01*
X-14461173Y-9577813D01*
X-14415221Y-9688754D01*
X-14348507Y-9788597D01*
X-14263598Y-9873507D01*
X-14185989Y-9925363D01*
X-14190129Y-9931561D01*
X-14216935Y-9996276D01*
X-14230600Y-10064977D01*
X-14230600Y-10135024D01*
X-14230600Y-10935024D01*
X-14216934Y-11003725D01*
X-14190128Y-11068440D01*
X-14151212Y-11126682D01*
X-14101681Y-11176213D01*
X-14071600Y-11196312D01*
X-14071600Y-11415069D01*
X-14077878Y-11421217D01*
X-14166525Y-11550684D01*
X-14228338Y-11694903D01*
X-14260961Y-11848382D01*
X-14263151Y-12005275D01*
X-14234827Y-12159604D01*
X-14177065Y-12305493D01*
X-14092067Y-12437385D01*
X-13983070Y-12550255D01*
X-13854225Y-12639804D01*
X-13710441Y-12702622D01*
X-13557193Y-12736315D01*
X-13400320Y-12739601D01*
X-13245796Y-12712355D01*
X-13099508Y-12655613D01*
X-12967026Y-12571538D01*
X-12853398Y-12463331D01*
X-12762951Y-12335115D01*
X-12699131Y-12191773D01*
X-12664369Y-12038764D01*
X-12661866Y-11859546D01*
X-12692343Y-11705627D01*
X-12752136Y-11560558D01*
X-12838967Y-11429867D01*
X-12852400Y-11416339D01*
X-12852400Y-11130294D01*
X-12848787Y-11126681D01*
X-12809871Y-11068439D01*
X-12791298Y-11023600D01*
X-12293600Y-11023600D01*
X-12293600Y-11211024D01*
X-12279934Y-11279725D01*
X-12253128Y-11344440D01*
X-12214212Y-11402682D01*
X-12164681Y-11452213D01*
X-12106439Y-11491129D01*
X-12041724Y-11517935D01*
X-11973023Y-11531600D01*
X-11902976Y-11531600D01*
X-10436100Y-11531600D01*
X-10740900Y-11836400D01*
X-11973024Y-11836400D01*
X-12041725Y-11850066D01*
X-12106440Y-11876872D01*
X-12164682Y-11915788D01*
X-12214213Y-11965319D01*
X-12253129Y-12023561D01*
X-12279935Y-12088276D01*
X-12293600Y-12156977D01*
X-12293600Y-12227024D01*
X-12293600Y-13751024D01*
X-12279934Y-13819725D01*
X-12253128Y-13884440D01*
X-12214212Y-13942682D01*
X-12164681Y-13992213D01*
X-12106439Y-14031129D01*
X-12041724Y-14057935D01*
X-11973023Y-14071600D01*
X-11902976Y-14071600D01*
X-10378976Y-14071600D01*
X-10310275Y-14057934D01*
X-10245560Y-14031128D01*
X-10187318Y-13992212D01*
X-10137787Y-13942681D01*
X-10098871Y-13884439D01*
X-10072065Y-13819724D01*
X-10058400Y-13751023D01*
X-10058400Y-13680976D01*
X-10058400Y-12518900D01*
X-9753600Y-12214100D01*
X-9753600Y-12227024D01*
X-9753600Y-13751024D01*
X-9739934Y-13819725D01*
X-9713128Y-13884440D01*
X-9674212Y-13942682D01*
X-9624681Y-13992213D01*
X-9566439Y-14031129D01*
X-9501724Y-14057935D01*
X-9433023Y-14071600D01*
X-9362976Y-14071600D01*
X-7838976Y-14071600D01*
X-7770275Y-14057934D01*
X-7705560Y-14031128D01*
X-7647318Y-13992212D01*
X-7597787Y-13942681D01*
X-7558871Y-13884439D01*
X-7532065Y-13819724D01*
X-7518400Y-13751023D01*
X-7518400Y-13680976D01*
X-7518400Y-12518900D01*
X-7213600Y-12214100D01*
X-7213600Y-12227024D01*
X-7213600Y-13751024D01*
X-7199934Y-13819725D01*
X-7173128Y-13884440D01*
X-7134212Y-13942682D01*
X-7084681Y-13992213D01*
X-7026439Y-14031129D01*
X-6961724Y-14057935D01*
X-6893023Y-14071600D01*
X-6822976Y-14071600D01*
X-5298976Y-14071600D01*
X-5230275Y-14057934D01*
X-5165560Y-14031128D01*
X-5107318Y-13992212D01*
X-5057787Y-13942681D01*
X-5018871Y-13884439D01*
X-4992065Y-13819724D01*
X-4978400Y-13751023D01*
X-4978400Y-13680976D01*
X-4978400Y-13182600D01*
X-1673100Y-13182600D01*
X-2119250Y-13628750D01*
X-2143377Y-13658122D01*
X-2168603Y-13686570D01*
X-2173228Y-13694463D01*
X-2179033Y-13701531D01*
X-2196999Y-13735035D01*
X-2216216Y-13767837D01*
X-2219219Y-13776475D01*
X-2223542Y-13784539D01*
X-2234657Y-13820895D01*
X-2247137Y-13856803D01*
X-2248405Y-13865864D01*
X-2251079Y-13874611D01*
X-2253090Y-13894400D01*
X-2535024Y-13894400D01*
X-2603725Y-13908066D01*
X-2668440Y-13934872D01*
X-2726682Y-13973788D01*
X-2776213Y-14023319D01*
X-2815129Y-14081561D01*
X-2841935Y-14146276D01*
X-2855600Y-14214977D01*
X-2855600Y-14285024D01*
X-2855600Y-15204444D01*
X-2888597Y-15226493D01*
X-2973507Y-15311402D01*
X-3040220Y-15411246D01*
X-3086173Y-15522186D01*
X-3109600Y-15639959D01*
X-3109600Y-15760040D01*
X-3109600Y-15920200D01*
X-2957200Y-16072600D01*
X-1952400Y-16072600D01*
X-1952400Y-16052600D01*
X-1647600Y-16052600D01*
X-1647600Y-16072600D01*
X-1627600Y-16072600D01*
X-1627600Y-16377400D01*
X-1647600Y-16377400D01*
X-1647600Y-16397400D01*
X-1952400Y-16397400D01*
X-1952400Y-16377400D01*
X-2957200Y-16377400D01*
X-3109600Y-16529800D01*
X-3109600Y-16689960D01*
X-3109600Y-16810041D01*
X-3086173Y-16927814D01*
X-3040220Y-17038754D01*
X-2973507Y-17138598D01*
X-2958846Y-17153259D01*
X-3350000Y-17153259D01*
X-3358164Y-17154059D01*
X-3366356Y-17153630D01*
X-3371384Y-17153894D01*
X-3489788Y-17160928D01*
X-3515257Y-17164961D01*
X-3540912Y-17167658D01*
X-3545837Y-17168705D01*
X-3736451Y-17210614D01*
X-3767496Y-17220701D01*
X-3798756Y-17230378D01*
X-3803384Y-17232362D01*
X-3982227Y-17310497D01*
X-4010758Y-17326442D01*
X-4039505Y-17341986D01*
X-4043660Y-17344831D01*
X-4203920Y-17456215D01*
X-4228796Y-17477385D01*
X-4253990Y-17498229D01*
X-4257513Y-17501826D01*
X-4393087Y-17642216D01*
X-4413393Y-17667835D01*
X-4434045Y-17693158D01*
X-4436802Y-17697371D01*
X-4542525Y-17861421D01*
X-4557446Y-17890453D01*
X-4572809Y-17919348D01*
X-4574695Y-17924016D01*
X-4646540Y-18105477D01*
X-4646910Y-18106766D01*
X-4705734Y-18255339D01*
X-4773148Y-18359945D01*
X-4859600Y-18449469D01*
X-4961797Y-18520497D01*
X-5075840Y-18570321D01*
X-5204203Y-18598544D01*
X-5283584Y-18603260D01*
X-6906505Y-18603260D01*
X-7436304Y-18550920D01*
X-7944456Y-18397093D01*
X-7974978Y-18384173D01*
X-7979308Y-18382820D01*
X-11415220Y-16468180D01*
X-14404836Y-13930246D01*
X-15396501Y-12825855D01*
X-15691699Y-12389848D01*
X-15892011Y-11915645D01*
X-15998044Y-11403634D01*
X-16013067Y-11121669D01*
X-16013067Y9021342D01*
X-15960205Y9550956D01*
X-15810556Y10043508D01*
X-15568087Y10497613D01*
X-15242034Y10895972D01*
X-14844815Y11223415D01*
X-14391561Y11467468D01*
X-13899534Y11618835D01*
X-13370385Y11673516D01*
X-10756886Y11673516D01*
X-10756822Y11673523D01*
X-10755625Y11673518D01*
X-10731889Y11673601D01*
X-10716220Y11675193D01*
X-10700468Y11675083D01*
X-10695457Y11675574D01*
X-10035528Y11744935D01*
X-10003526Y11751505D01*
X-9971409Y11757631D01*
X-9966589Y11759087D01*
X-9332700Y11955308D01*
X-9302583Y11967969D01*
X-9272269Y11980216D01*
X-9267823Y11982580D01*
X-8684120Y12298187D01*
X-8657031Y12316460D01*
X-8629677Y12334359D01*
X-8625775Y12337541D01*
X-8114490Y12760513D01*
X-8091469Y12783696D01*
X-8068109Y12806571D01*
X-8064900Y12810450D01*
X-7645509Y13324675D01*
X-7627416Y13351909D01*
X-7608958Y13378864D01*
X-7606563Y13383293D01*
X-7606563Y13383294D01*
X-7295038Y13969185D01*
X-7282588Y13999393D01*
X-7269708Y14029442D01*
X-7268220Y14034252D01*
X-7076429Y14669494D01*
X-7070089Y14701515D01*
X-7063285Y14733523D01*
X-7062759Y14738531D01*
X-6998007Y15398928D01*
X-6998007Y15414051D01*
X-6996321Y15429081D01*
X-6996286Y15434116D01*
X-6996286Y15949250D01*
X-6942750Y16489240D01*
X-6896564Y16679978D01*
X-6846929Y16805340D01*
X-6779514Y16909947D01*
X-6693064Y16999469D01*
X-6590867Y17070497D01*
X-6476827Y17120321D01*
X-6348461Y17148544D01*
X-6269079Y17153259D01*
X-2958846Y17153259D01*
X-2973507Y17138598D01*
X-3040220Y17038754D01*
X-3086173Y16927814D01*
X-3109600Y16810041D01*
X-3109600Y16689960D01*
X-3109600Y16529800D01*
X-2957200Y16377400D01*
X-1952400Y16377400D01*
X-1952400Y16397400D01*
X-1647600Y16397400D01*
X-1647600Y16377400D01*
X-1627600Y16377400D01*
X-1627600Y16072600D01*
X-1647600Y16072600D01*
X-1647600Y16052600D01*
X-1952400Y16052600D01*
X-1952400Y16072600D01*
X-2957200Y16072600D01*
X-3109600Y15920200D01*
X-3109600Y15760040D01*
X-3109600Y15639959D01*
X-3086173Y15522186D01*
X-3040220Y15411246D01*
X-2973507Y15311402D01*
X-2888597Y15226493D01*
X-2855600Y15204445D01*
X-2855600Y14214976D01*
X-2841934Y14146275D01*
X-2815128Y14081560D01*
X-2776212Y14023318D01*
X-2726681Y13973787D01*
X-2668439Y13934871D01*
X-2603724Y13908065D01*
X-2535023Y13894400D01*
X-2464976Y13894400D01*
X-2282600Y13894400D01*
X-2282600Y13738000D01*
X-2278254Y13693675D01*
X-2274365Y13649225D01*
X-2273657Y13646786D01*
X-2273409Y13644263D01*
X-2260529Y13601600D01*
X-2248087Y13558777D01*
X-2246920Y13556525D01*
X-2246186Y13554095D01*
X-2225243Y13514706D01*
X-2204742Y13475157D01*
X-2203161Y13473177D01*
X-2201968Y13470933D01*
X-2173784Y13436376D01*
X-2145981Y13401548D01*
X-2142495Y13398013D01*
X-2142439Y13397944D01*
X-2142376Y13397892D01*
X-2141250Y13396750D01*
X-1865250Y13120750D01*
X-1830803Y13092455D01*
X-1796653Y13063800D01*
X-1794431Y13062579D01*
X-1792469Y13060967D01*
X-1753152Y13039886D01*
X-1714116Y13018425D01*
X-1711701Y13017659D01*
X-1709461Y13016458D01*
X-1666798Y13003415D01*
X-1624338Y12989946D01*
X-1621817Y12989664D01*
X-1619389Y12988921D01*
X-1575035Y12984416D01*
X-1530738Y12979447D01*
X-1525778Y12979413D01*
X-1525685Y12979403D01*
X-1525599Y12979412D01*
X-1524000Y12979400D01*
X1280400Y12979400D01*
X1280400Y12964976D01*
X1280400Y12364976D01*
X1294066Y12296275D01*
X1320872Y12231560D01*
X1353400Y12182879D01*
X1353400Y11753000D01*
X1357746Y11708675D01*
X1361635Y11664225D01*
X1362343Y11661786D01*
X1362591Y11659263D01*
X1375471Y11616600D01*
X1387913Y11573777D01*
X1389080Y11571525D01*
X1389814Y11569095D01*
X1410757Y11529706D01*
X1431258Y11490157D01*
X1432839Y11488177D01*
X1434032Y11485933D01*
X1462216Y11451376D01*
X1490019Y11416548D01*
X1493505Y11413013D01*
X1493561Y11412944D01*
X1493624Y11412892D01*
X1494750Y11411750D01*
X2184400Y10722101D01*
X2184400Y8541995D01*
X2089813Y8581173D01*
X1972040Y8604600D01*
X1816800Y8604600D01*
X1664400Y8452200D01*
X1664400Y7772400D01*
X1684400Y7772400D01*
X1684400Y7467600D01*
X1664400Y7467600D01*
X1664400Y6914828D01*
X1654834Y6903183D01*
X1626180Y6869033D01*
X1624958Y6866811D01*
X1623347Y6864849D01*
X1602265Y6825532D01*
X1580805Y6786496D01*
X1580038Y6784081D01*
X1578838Y6781841D01*
X1565794Y6739178D01*
X1552326Y6696718D01*
X1552043Y6694197D01*
X1551301Y6691769D01*
X1546795Y6647415D01*
X1541827Y6603118D01*
X1541792Y6598158D01*
X1541783Y6598065D01*
X1541791Y6597979D01*
X1541780Y6596380D01*
X1541780Y6418432D01*
X1509111Y6424930D01*
X1489075Y6424930D01*
X1336675Y6272530D01*
X1336675Y4968240D01*
X1396680Y4968240D01*
X1396680Y4663440D01*
X1336675Y4663440D01*
X1336675Y3359150D01*
X1489075Y3206750D01*
X1509111Y3206750D01*
X1626884Y3230177D01*
X1737824Y3276130D01*
X1837668Y3342843D01*
X1922577Y3427753D01*
X1944625Y3460750D01*
X2284194Y3460750D01*
X2352895Y3474416D01*
X2417610Y3501222D01*
X2424429Y3505779D01*
X2431251Y3501221D01*
X2495966Y3474415D01*
X2564667Y3460750D01*
X2634714Y3460750D01*
X3084294Y3460750D01*
X3152995Y3474416D01*
X3217710Y3501222D01*
X3275952Y3540138D01*
X3325483Y3589669D01*
X3364399Y3647911D01*
X3391205Y3712626D01*
X3404870Y3781327D01*
X3404870Y3851374D01*
X3404870Y5850354D01*
X3391204Y5919055D01*
X3364398Y5983770D01*
X3325482Y6042012D01*
X3307080Y6060414D01*
X3307080Y6434580D01*
X3813900Y6941400D01*
X5832877Y6941400D01*
X5881561Y6908871D01*
X5946276Y6882065D01*
X6014977Y6868400D01*
X6085024Y6868400D01*
X6685024Y6868400D01*
X6753725Y6882066D01*
X6818440Y6908872D01*
X6876682Y6947788D01*
X6926213Y6997319D01*
X6965129Y7055561D01*
X6991935Y7120276D01*
X7005600Y7188977D01*
X7005600Y7259024D01*
X7005600Y7659024D01*
X6991934Y7727725D01*
X6965128Y7792440D01*
X6926212Y7850682D01*
X6902894Y7874000D01*
X6926213Y7897319D01*
X6965129Y7955561D01*
X6991935Y8020276D01*
X7005600Y8088977D01*
X7005600Y8159024D01*
X7005600Y8559024D01*
X6991934Y8627725D01*
X6965128Y8692440D01*
X6926212Y8750682D01*
X6879527Y8797367D01*
X6958602Y8872669D01*
X7049049Y9000885D01*
X7112869Y9144227D01*
X7147631Y9297236D01*
X7150134Y9476454D01*
X7119657Y9630373D01*
X7059864Y9775442D01*
X6973033Y9906133D01*
X6862470Y10017470D01*
X6732388Y10105212D01*
X6587741Y10166016D01*
X6434038Y10197567D01*
X6277134Y10198662D01*
X6123006Y10169261D01*
X5977523Y10110482D01*
X5846229Y10024565D01*
X5734122Y9914783D01*
X5645475Y9785316D01*
X5583662Y9641097D01*
X5551039Y9487618D01*
X5548849Y9330725D01*
X5577173Y9176396D01*
X5634935Y9030507D01*
X5719933Y8898615D01*
X5819065Y8795960D01*
X5773787Y8750681D01*
X5734871Y8692439D01*
X5708065Y8627724D01*
X5694400Y8559023D01*
X5694400Y8488976D01*
X5694400Y8088976D01*
X5708066Y8020275D01*
X5734872Y7955560D01*
X5767585Y7906600D01*
X3614000Y7906600D01*
X3569674Y7902254D01*
X3525225Y7898365D01*
X3522785Y7897657D01*
X3520263Y7897409D01*
X3477599Y7884529D01*
X3434777Y7872087D01*
X3432524Y7870920D01*
X3430095Y7870186D01*
X3390705Y7849243D01*
X3351157Y7828742D01*
X3349176Y7827161D01*
X3346933Y7825968D01*
X3312375Y7797784D01*
X3277548Y7769981D01*
X3274012Y7766495D01*
X3273944Y7766439D01*
X3273891Y7766376D01*
X3272750Y7765250D01*
X3149600Y7642100D01*
X3149600Y10922000D01*
X3145249Y10966372D01*
X3141364Y11010775D01*
X3140656Y11013210D01*
X3140409Y11015737D01*
X3127515Y11058442D01*
X3115087Y11101223D01*
X3113919Y11103476D01*
X3113186Y11105905D01*
X3092242Y11145295D01*
X3071742Y11184843D01*
X3070160Y11186824D01*
X3068968Y11189067D01*
X3040783Y11223625D01*
X3012981Y11258452D01*
X3009498Y11261984D01*
X3009439Y11262056D01*
X3009371Y11262112D01*
X3008249Y11263250D01*
X2318600Y11952900D01*
X2318600Y12117586D01*
X2367561Y12084871D01*
X2432276Y12058065D01*
X2500977Y12044400D01*
X2571024Y12044400D01*
X2971024Y12044400D01*
X3039725Y12058066D01*
X3104440Y12084872D01*
X3162682Y12123788D01*
X3209201Y12170308D01*
X3288930Y12087745D01*
X3417775Y11998196D01*
X3561559Y11935378D01*
X3714807Y11901685D01*
X3871680Y11898399D01*
X4026204Y11925645D01*
X4172492Y11982387D01*
X4304974Y12066462D01*
X4418602Y12174669D01*
X4509049Y12302885D01*
X4572869Y12446227D01*
X4607631Y12599236D01*
X4610134Y12778454D01*
X4579657Y12932373D01*
X4519864Y13077442D01*
X4433033Y13208133D01*
X4322470Y13319470D01*
X4192388Y13407212D01*
X4047741Y13468016D01*
X3894038Y13499567D01*
X3737134Y13500662D01*
X3583006Y13471261D01*
X3437523Y13412482D01*
X3306229Y13326565D01*
X3208263Y13230631D01*
X3162681Y13276213D01*
X3104439Y13315129D01*
X3039724Y13341935D01*
X2971023Y13355600D01*
X2900976Y13355600D01*
X2500976Y13355600D01*
X2432275Y13341934D01*
X2367560Y13315128D01*
X2318600Y13282415D01*
X2318600Y13462000D01*
X2318600Y13894400D01*
X2535024Y13894400D01*
X2603725Y13908066D01*
X2668440Y13934872D01*
X2726682Y13973788D01*
X2776213Y14023319D01*
X2815129Y14081561D01*
X2841935Y14146276D01*
X2855600Y14214977D01*
X2855600Y14285024D01*
X2855600Y15204445D01*
X2888597Y15226493D01*
X2973507Y15311402D01*
X3040220Y15411246D01*
X3086173Y15522186D01*
X3109600Y15639959D01*
X3109600Y15760040D01*
X3109600Y15920200D01*
X2957200Y16072600D01*
X1952400Y16072600D01*
X1952400Y16052600D01*
X1647600Y16052600D01*
X1647600Y16072600D01*
X1627600Y16072600D01*
X1627600Y16377400D01*
X1647600Y16377400D01*
X1647600Y16397400D01*
X1952400Y16397400D01*
X1952400Y16377400D01*
X2957200Y16377400D01*
X3109600Y16529800D01*
X3109600Y16689960D01*
X3109600Y16810041D01*
X3086173Y16927814D01*
X3040220Y17038754D01*
X2973507Y17138598D01*
X2958845Y17153259D01*
X3350000Y17153259D01*
X3358163Y17154060D01*
X3366356Y17153630D01*
X3371384Y17153894D01*
X3489789Y17160928D01*
X3515256Y17164962D01*
X3540913Y17167658D01*
X3545838Y17168705D01*
X3736451Y17210614D01*
X3767504Y17220705D01*
X3798756Y17230378D01*
X3803383Y17232362D01*
X3803384Y17232362D01*
X3982226Y17310497D01*
X4010713Y17326419D01*
X4039505Y17341986D01*
X4043659Y17344831D01*
X4043660Y17344831D01*
X4203920Y17456215D01*
X4228795Y17477386D01*
X4253990Y17498229D01*
X4257513Y17501826D01*
X4257514Y17501828D01*
X4393087Y17642216D01*
X4413395Y17667840D01*
X4434045Y17693158D01*
X4436802Y17697371D01*
X4542525Y17861421D01*
X4557445Y17890454D01*
X4572809Y17919348D01*
X4574694Y17924016D01*
X4574695Y17924016D01*
X4646540Y18105477D01*
X4646909Y18106767D01*
X4705734Y18255341D01*
X4773149Y18359948D01*
X4859599Y18449470D01*
X4961796Y18520498D01*
X5075836Y18570322D01*
X5204202Y18598545D01*
X5283584Y18603260D01*
X6906503Y18603260D01*
X7436304Y18550921D01*
X7944456Y18397093D01*
X7974979Y18384173D01*
X7979306Y18382822D01*
X11415219Y16468181D01*
X14404839Y13930244D01*
X15396500Y12825856D01*
X15691698Y12389849D01*
X15892010Y11915645D01*
X15998043Y11403634D01*
X16013067Y11121670D01*
X16013067Y-9021340D01*
M02*
