%FSLAX46Y46*%
G04 Gerber Fmt 4.6, Leading zero omitted, Abs format (unit mm)*
G04 Created by KiCad (PCBNEW (2014-jul-16 BZR unknown)-product) date Fri 15 May 2015 05:11:27 PM EDT*
%MOMM*%
G01*
G04 APERTURE LIST*
%ADD10C,0.150000*%
%ADD11C,0.010000*%
%ADD12R,1.198880X1.198880*%
%ADD13C,20.000000*%
%ADD14C,0.889000*%
%ADD15C,0.254000*%
%ADD16C,0.203200*%
G04 APERTURE END LIST*
D10*
D11*
X-6279774Y17513859D02*
X3350000Y17513859D01*
X-7241037Y16789496D02*
G75*
G02X-6279774Y17513859I961263J-275638D01*
G74*
G01*
X-7356884Y15967105D02*
G75*
G02X-7241219Y16788858I2999998J-3246D01*
G74*
G01*
X-7356886Y15963859D02*
X-7356886Y15434116D01*
X-7356886Y15434116D02*
G75*
G02X-10756886Y12034116I-3400000J0D01*
G74*
G01*
X-10756886Y12034116D02*
X-13373666Y12034116D01*
X-16373661Y9039352D02*
G75*
G02X-13373666Y12034116I2999995J-5236D01*
G74*
G01*
X-16373667Y9034116D02*
X-16373667Y-11131265D01*
X-15681866Y-13047567D02*
G75*
G02X-16373667Y-11131265I2308197J1916302D01*
G74*
G01*
X-8143775Y-18703981D02*
G75*
G02X-15679470Y-13050448I8143775J18703983D01*
G74*
G01*
X-6924282Y-18963859D02*
G75*
G02X-8115544Y-18716248I2203J2999999D01*
G74*
G01*
X-6922082Y-18963860D02*
X-5272889Y-18963860D01*
X-4311626Y-18239497D02*
G75*
G02X-5272889Y-18963860I-961263J275638D01*
G74*
G01*
X-4311262Y-18238222D02*
G75*
G02X-3350000Y-17513859I961262J-275637D01*
G74*
G01*
X6279774Y-17513859D02*
X-3350000Y-17513859D01*
X7241037Y-16789496D02*
G75*
G02X6279774Y-17513859I-961263J275638D01*
G74*
G01*
X7356884Y-15967105D02*
G75*
G02X7241219Y-16788858I-2999998J3246D01*
G74*
G01*
X7356886Y-15963859D02*
X7356886Y-15434116D01*
X7356886Y-15434116D02*
G75*
G02X10756886Y-12034116I3400000J0D01*
G74*
G01*
X10756886Y-12034116D02*
X13373666Y-12034116D01*
X16373661Y-9039352D02*
G75*
G02X13373666Y-12034116I-2999995J5236D01*
G74*
G01*
X16373667Y-9034116D02*
X16373667Y11131265D01*
X15681866Y13047567D02*
G75*
G02X16373667Y11131265I-2308197J-1916302D01*
G74*
G01*
X8143775Y18703981D02*
G75*
G02X15679470Y13050448I-8143775J-18703983D01*
G74*
G01*
X6924282Y18963859D02*
G75*
G02X8115544Y18716248I-2203J-2999999D01*
G74*
G01*
X6922082Y18963860D02*
X5272889Y18963860D01*
X4311626Y18239497D02*
G75*
G02X5272889Y18963860I961263J-275638D01*
G74*
G01*
X4311262Y18238222D02*
G75*
G02X3350000Y17513859I-961262J275637D01*
G74*
G01*
D12*
X6330980Y-10700000D03*
X8429020Y-10700000D03*
X10460980Y-6040000D03*
X12559020Y-6040000D03*
X11950980Y0D03*
X14049020Y0D03*
X10560980Y6040000D03*
X12659020Y6040000D03*
X6330980Y10700000D03*
X8429020Y10700000D03*
X-3560980Y12160000D03*
X-5659020Y12160000D03*
X-8680980Y8620000D03*
X-10779020Y8620000D03*
X-11570980Y3110000D03*
X-13669020Y3110000D03*
X-11570980Y-3110000D03*
X-13669020Y-3110000D03*
X-8680980Y-8620000D03*
X-10779020Y-8620000D03*
X-3560980Y-12160000D03*
X-5659020Y-12160000D03*
D13*
X0Y0D03*
D14*
X2286000Y-11430000D03*
X3937000Y-13081000D03*
X1300000Y9400000D03*
X-9398000Y2286000D03*
X-10922000Y-4826000D03*
X-2286000Y-9144000D03*
X508000Y-10414000D03*
X6858000Y6096000D03*
X-1270000Y-1270000D03*
X-1270000Y1270000D03*
X1270000Y-1270000D03*
X0Y0D03*
X1270000Y1270000D03*
X13970000Y-4064000D03*
X3810000Y12700000D03*
X5715000Y-14732000D03*
X-13462000Y-11938000D03*
X0Y11430000D03*
X-762000Y-11049000D03*
X6350000Y-9144000D03*
X10414000Y-4318000D03*
X11938000Y1270000D03*
X9144000Y6350000D03*
X6350000Y9398000D03*
X-4572000Y13716000D03*
X-9652000Y7112000D03*
X-11684000Y762000D03*
X-11684000Y-762000D03*
X-9652000Y-7112000D03*
X-8128000Y-7112000D03*
D15*
X3937000Y-13081000D02*
X2286000Y-11430000D01*
X1300000Y9400000D02*
X0Y8100000D01*
X0Y8100000D02*
X0Y0D01*
X508000Y-10414000D02*
X508000Y-10392000D01*
X900000Y-10000000D02*
X900000Y-900000D01*
X508000Y-10392000D02*
X900000Y-10000000D01*
X900000Y-900000D02*
X0Y0D01*
X508000Y-10414000D02*
X508000Y-10192000D01*
X700000Y-10000000D02*
X700000Y-700000D01*
X508000Y-10192000D02*
X700000Y-10000000D01*
X700000Y-700000D02*
X0Y0D01*
X508000Y-10414000D02*
X508000Y-10208000D01*
X508000Y-10208000D02*
X0Y-9700000D01*
X0Y-9700000D02*
X0Y0D01*
X-9398000Y2286000D02*
X-7112000Y0D01*
X-7112000Y0D02*
X0Y0D01*
X-10922000Y-4826000D02*
X-6096000Y0D01*
X-6096000Y0D02*
X0Y0D01*
X-2286000Y-9144000D02*
X0Y-6858000D01*
X0Y-6858000D02*
X0Y0D01*
X508000Y-10414000D02*
X0Y-9906000D01*
X0Y-9906000D02*
X0Y0D01*
X6858000Y6096000D02*
X762000Y0D01*
X762000Y0D02*
X0Y0D01*
X-1270000Y-1270000D02*
X0Y0D01*
X-1270000Y1270000D02*
X0Y0D01*
X1270000Y-1270000D02*
X0Y0D01*
X1270000Y1270000D02*
X0Y0D01*
X-762000Y-11049000D02*
X-774000Y-11061000D01*
X6330980Y-9163020D02*
X6350000Y-9144000D01*
X6330980Y-10700000D02*
X6330980Y-9163020D01*
X10414000Y-4318000D02*
X10460980Y-4364980D01*
X10460980Y-4364980D02*
X10460980Y-6040000D01*
X11938000Y12980D02*
X11938000Y1270000D01*
X11950980Y0D02*
X11938000Y12980D01*
X10250980Y6350000D02*
X10560980Y6040000D01*
X9144000Y6350000D02*
X10250980Y6350000D01*
X6350000Y10680980D02*
X6350000Y9398000D01*
X6330980Y10700000D02*
X6350000Y10680980D01*
X-4572000Y13716000D02*
X-4572000Y13171020D01*
X-4572000Y13171020D02*
X-3560980Y12160000D01*
X-9652000Y7648980D02*
X-9652000Y7112000D01*
X-8680980Y8620000D02*
X-9652000Y7648980D01*
X-11684000Y762000D02*
X-11684000Y3048000D01*
X-11684000Y3048000D02*
X-11570980Y3110000D01*
X-11684000Y-762000D02*
X-11684000Y-3048000D01*
X-11684000Y-3048000D02*
X-11570980Y-3110000D01*
X-9652000Y-7648980D02*
X-8680980Y-8620000D01*
X-9652000Y-7112000D02*
X-9652000Y-7648980D01*
X-8128000Y-7112000D02*
X-7366000Y-7874000D01*
X-7366000Y-7874000D02*
X-7366000Y-10160000D01*
X-7366000Y-10160000D02*
X-6604000Y-10922000D01*
X-6604000Y-10922000D02*
X-4798980Y-10922000D01*
X-4798980Y-10922000D02*
X-3560980Y-12160000D01*
D16*
G36*
X15759067Y-9008697D02*
X15709934Y-9500949D01*
X15574765Y-9945841D01*
X15355757Y-10356005D01*
X15258060Y-10475367D01*
X15258060Y-659481D01*
X15258060Y-539400D01*
X15258060Y-304800D01*
X15258060Y304800D01*
X15258060Y539400D01*
X15258060Y659481D01*
X15234633Y777254D01*
X15188680Y888194D01*
X15121967Y988038D01*
X15037057Y1072947D01*
X14937214Y1139661D01*
X14826273Y1185613D01*
X14708500Y1209040D01*
X14353820Y1209040D01*
X14201420Y1056640D01*
X14201420Y152400D01*
X15105660Y152400D01*
X15258060Y304800D01*
X15258060Y-304800D01*
X15105660Y-152400D01*
X14201420Y-152400D01*
X14201420Y-1056640D01*
X14353820Y-1209040D01*
X14708500Y-1209040D01*
X14826273Y-1185613D01*
X14937214Y-1139661D01*
X15037057Y-1072947D01*
X15121967Y-988038D01*
X15188680Y-888194D01*
X15234633Y-777254D01*
X15258060Y-659481D01*
X15258060Y-10475367D01*
X15061251Y-10715821D01*
X14702468Y-11011580D01*
X14293066Y-11232019D01*
X13896620Y-11353982D01*
X13896620Y-1056640D01*
X13896620Y-152400D01*
X13876620Y-152400D01*
X13876620Y152400D01*
X13896620Y152400D01*
X13896620Y1056640D01*
X13868060Y1085200D01*
X13868060Y5380519D01*
X13868060Y5500600D01*
X13868060Y5735200D01*
X13868060Y6344800D01*
X13868060Y6579400D01*
X13868060Y6699481D01*
X13844633Y6817254D01*
X13798680Y6928194D01*
X13731967Y7028038D01*
X13647057Y7112947D01*
X13547214Y7179661D01*
X13436273Y7225613D01*
X13318500Y7249040D01*
X12963820Y7249040D01*
X12811420Y7096640D01*
X12811420Y6192400D01*
X13715660Y6192400D01*
X13868060Y6344800D01*
X13868060Y5735200D01*
X13715660Y5887600D01*
X12811420Y5887600D01*
X12811420Y4983360D01*
X12963820Y4830960D01*
X13318500Y4830960D01*
X13436273Y4854387D01*
X13547214Y4900339D01*
X13647057Y4967053D01*
X13731967Y5051962D01*
X13798680Y5151806D01*
X13844633Y5262746D01*
X13868060Y5380519D01*
X13868060Y1085200D01*
X13744220Y1209040D01*
X13389540Y1209040D01*
X13271767Y1185613D01*
X13160826Y1139661D01*
X13060983Y1072947D01*
X12999999Y1011965D01*
X12967718Y1044247D01*
X12988848Y1137247D01*
X12992145Y1373360D01*
X12951993Y1576142D01*
X12873218Y1767264D01*
X12758821Y1939445D01*
X12613159Y2086128D01*
X12506620Y2157990D01*
X12506620Y4983360D01*
X12506620Y5887600D01*
X12486620Y5887600D01*
X12486620Y6192400D01*
X12506620Y6192400D01*
X12506620Y7096640D01*
X12354220Y7249040D01*
X11999540Y7249040D01*
X11881767Y7225613D01*
X11770826Y7179661D01*
X11670983Y7112947D01*
X11609999Y7051965D01*
X11549018Y7112947D01*
X11449174Y7179660D01*
X11338234Y7225613D01*
X11220461Y7249040D01*
X11100380Y7249040D01*
X9901500Y7249040D01*
X9783727Y7225613D01*
X9751040Y7212075D01*
X9647781Y7281724D01*
X9638060Y7285811D01*
X9638060Y10040519D01*
X9638060Y10160600D01*
X9638060Y10395200D01*
X9638060Y11004800D01*
X9638060Y11239400D01*
X9638060Y11359481D01*
X9614633Y11477254D01*
X9568680Y11588194D01*
X9501967Y11688038D01*
X9417057Y11772947D01*
X9317214Y11839661D01*
X9206273Y11885613D01*
X9088500Y11909040D01*
X8733820Y11909040D01*
X8581420Y11756640D01*
X8581420Y10852400D01*
X9485660Y10852400D01*
X9638060Y11004800D01*
X9638060Y10395200D01*
X9485660Y10547600D01*
X8581420Y10547600D01*
X8581420Y9643360D01*
X8733820Y9490960D01*
X9088500Y9490960D01*
X9206273Y9514387D01*
X9317214Y9560339D01*
X9417057Y9627053D01*
X9501967Y9711962D01*
X9568680Y9811806D01*
X9614633Y9922746D01*
X9638060Y10040519D01*
X9638060Y7285811D01*
X9457214Y7361831D01*
X9254717Y7403398D01*
X9048002Y7404841D01*
X8844944Y7366105D01*
X8653277Y7288667D01*
X8480301Y7175475D01*
X8332606Y7030841D01*
X8215816Y6860273D01*
X8193029Y6807108D01*
X6795536Y8214392D01*
X6570156Y8366413D01*
X6634840Y8377818D01*
X6827569Y8452573D01*
X7002109Y8563339D01*
X7151809Y8705897D01*
X7270969Y8874817D01*
X7355049Y9063665D01*
X7400848Y9265247D01*
X7404145Y9501360D01*
X7369300Y9677337D01*
X7380000Y9688036D01*
X7440983Y9627053D01*
X7540826Y9560339D01*
X7651767Y9514387D01*
X7769540Y9490960D01*
X8124220Y9490960D01*
X8276620Y9643360D01*
X8276620Y10547600D01*
X8256620Y10547600D01*
X8256620Y10852400D01*
X8276620Y10852400D01*
X8276620Y11756640D01*
X8124220Y11909040D01*
X7769540Y11909040D01*
X7651767Y11885613D01*
X7540826Y11839661D01*
X7440983Y11772947D01*
X7379999Y11711965D01*
X7319018Y11772947D01*
X7219174Y11839660D01*
X7108234Y11885613D01*
X6990461Y11909040D01*
X6870380Y11909040D01*
X5671500Y11909040D01*
X5553727Y11885613D01*
X5442786Y11839661D01*
X5342943Y11772947D01*
X5258033Y11688038D01*
X5191320Y11588194D01*
X5145367Y11477254D01*
X5121940Y11359481D01*
X5121940Y11239400D01*
X5121940Y10040520D01*
X5145367Y9922747D01*
X5191319Y9811806D01*
X5258033Y9711963D01*
X5324839Y9645156D01*
X5297401Y9516068D01*
X5294515Y9309368D01*
X5311801Y9215184D01*
X5070599Y9377876D01*
X3152524Y10184161D01*
X1114371Y10602533D01*
X-966228Y10617059D01*
X-1146000Y10582766D01*
X-1146000Y10805210D01*
X-1494790Y11154000D01*
X-2505996Y11154000D01*
X-2488033Y11171962D01*
X-2421320Y11271806D01*
X-2375367Y11382746D01*
X-2351940Y11500519D01*
X-2351940Y11620600D01*
X-2351940Y12819480D01*
X-2375367Y12937253D01*
X-2421319Y13048194D01*
X-2488033Y13148037D01*
X-2572942Y13232947D01*
X-2672786Y13299660D01*
X-2783726Y13345613D01*
X-2901499Y13369040D01*
X-3021580Y13369040D01*
X-3572572Y13369040D01*
X-3566951Y13381665D01*
X-3521152Y13583247D01*
X-3517855Y13819360D01*
X-3558007Y14022142D01*
X-3636782Y14213264D01*
X-3751179Y14385445D01*
X-3896841Y14532128D01*
X-4068219Y14647724D01*
X-4258786Y14727831D01*
X-4461283Y14769398D01*
X-4667998Y14770841D01*
X-4871056Y14732105D01*
X-5062723Y14654667D01*
X-5235699Y14541475D01*
X-5383394Y14396841D01*
X-5500184Y14226273D01*
X-5581620Y14036270D01*
X-5624599Y13834068D01*
X-5627485Y13627368D01*
X-5590168Y13424045D01*
X-5514070Y13231842D01*
X-5505193Y13218068D01*
X-5506620Y13216640D01*
X-5506620Y12312400D01*
X-5486620Y12312400D01*
X-5486620Y12007600D01*
X-5506620Y12007600D01*
X-5506620Y11987600D01*
X-5811420Y11987600D01*
X-5811420Y12007600D01*
X-5811420Y12312400D01*
X-5811420Y13216640D01*
X-5963820Y13369040D01*
X-6318500Y13369040D01*
X-6436273Y13345613D01*
X-6547214Y13299661D01*
X-6647057Y13232947D01*
X-6731967Y13148038D01*
X-6798680Y13048194D01*
X-6844633Y12937254D01*
X-6868060Y12819481D01*
X-6868060Y12699400D01*
X-6868060Y12464800D01*
X-6715660Y12312400D01*
X-5811420Y12312400D01*
X-5811420Y12007600D01*
X-6715660Y12007600D01*
X-6868060Y11855200D01*
X-6868060Y11620600D01*
X-6868060Y11500519D01*
X-6844633Y11382746D01*
X-6798680Y11271806D01*
X-6731967Y11171962D01*
X-6647057Y11087053D01*
X-6602159Y11057052D01*
X-6605210Y11054000D01*
X-7505210Y11054000D01*
X-7754000Y10805210D01*
X-7754000Y9733745D01*
X-7792786Y9759660D01*
X-7903726Y9805613D01*
X-8021499Y9829040D01*
X-8141580Y9829040D01*
X-9340460Y9829040D01*
X-9458233Y9805613D01*
X-9569174Y9759661D01*
X-9669017Y9692947D01*
X-9730000Y9631965D01*
X-9790983Y9692947D01*
X-9890826Y9759661D01*
X-10001767Y9805613D01*
X-10119540Y9829040D01*
X-10474220Y9829040D01*
X-10626620Y9676640D01*
X-10626620Y8772400D01*
X-10606620Y8772400D01*
X-10606620Y8467600D01*
X-10626620Y8467600D01*
X-10626620Y7563360D01*
X-10611791Y7548531D01*
X-10661620Y7432270D01*
X-10704599Y7230068D01*
X-10707485Y7023368D01*
X-10670168Y6820045D01*
X-10594070Y6627842D01*
X-10482088Y6454080D01*
X-10338489Y6305379D01*
X-10168741Y6187401D01*
X-9979311Y6104641D01*
X-9777413Y6060251D01*
X-9570739Y6055922D01*
X-9367160Y6091818D01*
X-9174431Y6166573D01*
X-8999891Y6277339D01*
X-8850191Y6419897D01*
X-8731031Y6588817D01*
X-8646951Y6777665D01*
X-8601152Y6979247D01*
X-8597855Y7215360D01*
X-8636585Y7410960D01*
X-8021500Y7410960D01*
X-7903727Y7434387D01*
X-7792786Y7480339D01*
X-7754000Y7506256D01*
X-7754000Y7256912D01*
X-8166750Y6852717D01*
X-9342249Y5135945D01*
X-10161904Y3223546D01*
X-10219653Y2951859D01*
X-10326184Y2796273D01*
X-10361940Y2712849D01*
X-10361940Y3769480D01*
X-10385367Y3887253D01*
X-10431319Y3998194D01*
X-10498033Y4098037D01*
X-10582942Y4182947D01*
X-10682786Y4249660D01*
X-10793726Y4295613D01*
X-10911499Y4319040D01*
X-10931420Y4319040D01*
X-10931420Y7563360D01*
X-10931420Y8467600D01*
X-10931420Y8772400D01*
X-10931420Y9676640D01*
X-11083820Y9829040D01*
X-11438500Y9829040D01*
X-11556273Y9805613D01*
X-11667214Y9759661D01*
X-11767057Y9692947D01*
X-11851967Y9608038D01*
X-11918680Y9508194D01*
X-11964633Y9397254D01*
X-11988060Y9279481D01*
X-11988060Y9159400D01*
X-11988060Y8924800D01*
X-11835660Y8772400D01*
X-10931420Y8772400D01*
X-10931420Y8467600D01*
X-11835660Y8467600D01*
X-11988060Y8315200D01*
X-11988060Y8080600D01*
X-11988060Y7960519D01*
X-11964633Y7842746D01*
X-11918680Y7731806D01*
X-11851967Y7631962D01*
X-11767057Y7547053D01*
X-11667214Y7480339D01*
X-11556273Y7434387D01*
X-11438500Y7410960D01*
X-11083820Y7410960D01*
X-10931420Y7563360D01*
X-10931420Y4319040D01*
X-11031580Y4319040D01*
X-12230460Y4319040D01*
X-12348233Y4295613D01*
X-12459174Y4249661D01*
X-12559017Y4182947D01*
X-12620000Y4121965D01*
X-12680983Y4182947D01*
X-12780826Y4249661D01*
X-12891767Y4295613D01*
X-13009540Y4319040D01*
X-13364220Y4319040D01*
X-13516620Y4166640D01*
X-13516620Y3262400D01*
X-13496620Y3262400D01*
X-13496620Y2957600D01*
X-13516620Y2957600D01*
X-13516620Y2053360D01*
X-13364220Y1900960D01*
X-13009540Y1900960D01*
X-12891767Y1924387D01*
X-12780826Y1970339D01*
X-12680983Y2037053D01*
X-12620000Y2098036D01*
X-12559018Y2037053D01*
X-12459174Y1970340D01*
X-12420600Y1954363D01*
X-12420600Y1516085D01*
X-12495394Y1442841D01*
X-12612184Y1272273D01*
X-12693620Y1082270D01*
X-12736599Y880068D01*
X-12739485Y673368D01*
X-12702168Y470045D01*
X-12626070Y277842D01*
X-12514088Y104080D01*
X-12413064Y-534D01*
X-12495394Y-81159D01*
X-12612184Y-251727D01*
X-12693620Y-441730D01*
X-12736599Y-643932D01*
X-12739485Y-850632D01*
X-12702168Y-1053955D01*
X-12626070Y-1246158D01*
X-12514088Y-1419920D01*
X-12420600Y-1516729D01*
X-12420600Y-1954361D01*
X-12459174Y-1970339D01*
X-12559017Y-2037053D01*
X-12620000Y-2098035D01*
X-12680983Y-2037053D01*
X-12780826Y-1970339D01*
X-12891767Y-1924387D01*
X-13009540Y-1900960D01*
X-13364220Y-1900960D01*
X-13516620Y-2053360D01*
X-13516620Y-2957600D01*
X-13496620Y-2957600D01*
X-13496620Y-3262400D01*
X-13516620Y-3262400D01*
X-13516620Y-4166640D01*
X-13364220Y-4319040D01*
X-13009540Y-4319040D01*
X-12891767Y-4295613D01*
X-12780826Y-4249661D01*
X-12680983Y-4182947D01*
X-12620000Y-4121964D01*
X-12559018Y-4182947D01*
X-12459174Y-4249660D01*
X-12348234Y-4295613D01*
X-12293600Y-4306480D01*
X-12293600Y-5840505D01*
X-11428505Y-6705600D01*
X-10624705Y-6705600D01*
X-10661620Y-6791730D01*
X-10704599Y-6993932D01*
X-10707485Y-7200632D01*
X-10670168Y-7403955D01*
X-10612605Y-7549344D01*
X-10626620Y-7563360D01*
X-10626620Y-8467600D01*
X-10606620Y-8467600D01*
X-10606620Y-8772400D01*
X-10626620Y-8772400D01*
X-10626620Y-9676640D01*
X-10474220Y-9829040D01*
X-10119540Y-9829040D01*
X-10001767Y-9805613D01*
X-9890826Y-9759661D01*
X-9790983Y-9692947D01*
X-9730000Y-9631964D01*
X-9669018Y-9692947D01*
X-9569174Y-9759660D01*
X-9458234Y-9805613D01*
X-9340461Y-9829040D01*
X-9220380Y-9829040D01*
X-8102600Y-9829040D01*
X-8102600Y-10160000D01*
X-8095965Y-10227677D01*
X-8090031Y-10295499D01*
X-8088950Y-10299220D01*
X-8088572Y-10303073D01*
X-8068912Y-10368192D01*
X-8049923Y-10433549D01*
X-8048141Y-10436987D01*
X-8047021Y-10440696D01*
X-8015078Y-10500773D01*
X-7983765Y-10561181D01*
X-7981349Y-10564208D01*
X-7979530Y-10567628D01*
X-7936517Y-10620368D01*
X-7894077Y-10673531D01*
X-7888763Y-10678920D01*
X-7888670Y-10679034D01*
X-7888565Y-10679120D01*
X-7886855Y-10680855D01*
X-7124855Y-11442855D01*
X-7072284Y-11486038D01*
X-7020155Y-11529779D01*
X-7016761Y-11531645D01*
X-7013767Y-11534104D01*
X-6953789Y-11566264D01*
X-6894178Y-11599035D01*
X-6890488Y-11600205D01*
X-6887072Y-11602037D01*
X-6868060Y-11607849D01*
X-6868060Y-11620600D01*
X-6868060Y-11855200D01*
X-6715660Y-12007600D01*
X-5811420Y-12007600D01*
X-5811420Y-11987600D01*
X-5506620Y-11987600D01*
X-5506620Y-12007600D01*
X-5486620Y-12007600D01*
X-5486620Y-12312400D01*
X-5506620Y-12312400D01*
X-5506620Y-13216640D01*
X-5354220Y-13369040D01*
X-4999540Y-13369040D01*
X-4881767Y-13345613D01*
X-4770826Y-13299661D01*
X-4670983Y-13232947D01*
X-4610000Y-13171964D01*
X-4549018Y-13232947D01*
X-4449174Y-13299660D01*
X-4338234Y-13345613D01*
X-4220461Y-13369040D01*
X-4100380Y-13369040D01*
X-2901500Y-13369040D01*
X-2783727Y-13345613D01*
X-2672786Y-13299661D01*
X-2572943Y-13232947D01*
X-2488033Y-13148038D01*
X-2421320Y-13048194D01*
X-2375367Y-12937254D01*
X-2351940Y-12819481D01*
X-2351940Y-12699400D01*
X-2351940Y-11500520D01*
X-2375367Y-11382747D01*
X-2421319Y-11271806D01*
X-2488033Y-11171963D01*
X-2572942Y-11087053D01*
X-2672786Y-11020340D01*
X-2783726Y-10974387D01*
X-2901499Y-10950960D01*
X-3021580Y-10950960D01*
X-3728310Y-10950960D01*
X-4278125Y-10401145D01*
X-4330693Y-10357965D01*
X-4382825Y-10314221D01*
X-4386221Y-10312354D01*
X-4389212Y-10309897D01*
X-4449193Y-10277735D01*
X-4508802Y-10244965D01*
X-4512491Y-10243794D01*
X-4515907Y-10241963D01*
X-4580999Y-10222062D01*
X-4645832Y-10201496D01*
X-4649682Y-10201064D01*
X-4653385Y-10199932D01*
X-4721100Y-10193053D01*
X-4788695Y-10185472D01*
X-4796261Y-10185419D01*
X-4796409Y-10185404D01*
X-4796547Y-10185417D01*
X-4798980Y-10185400D01*
X-6298890Y-10185400D01*
X-6629400Y-9854890D01*
X-6629400Y-8313429D01*
X-5201040Y-9306166D01*
X-3294410Y-10139152D01*
X-1262297Y-10585941D01*
X-529378Y-10601293D01*
X-510168Y-10705955D01*
X-434070Y-10898158D01*
X-322088Y-11071920D01*
X-178489Y-11220621D01*
X-8741Y-11338599D01*
X180689Y-11421359D01*
X382587Y-11465749D01*
X589261Y-11470078D01*
X792840Y-11434182D01*
X985569Y-11359427D01*
X1160109Y-11248661D01*
X1268862Y-11145095D01*
X1233401Y-11311932D01*
X1230515Y-11518632D01*
X1267832Y-11721955D01*
X1343930Y-11914158D01*
X1455912Y-12087920D01*
X1599511Y-12236621D01*
X1769259Y-12354599D01*
X1958689Y-12437359D01*
X2160587Y-12481749D01*
X2298936Y-12484646D01*
X2882925Y-13068635D01*
X2881515Y-13169632D01*
X2918832Y-13372955D01*
X2994930Y-13565158D01*
X3106912Y-13738920D01*
X3250511Y-13887621D01*
X3420259Y-14005599D01*
X3609689Y-14088359D01*
X3811587Y-14132749D01*
X4018261Y-14137078D01*
X4221840Y-14101182D01*
X4414569Y-14026427D01*
X4589109Y-13915661D01*
X4738809Y-13773103D01*
X4857969Y-13604183D01*
X4942049Y-13415335D01*
X4987848Y-13213753D01*
X4991145Y-12977640D01*
X4950993Y-12774858D01*
X4872218Y-12583736D01*
X4757821Y-12411555D01*
X4612159Y-12264872D01*
X4440781Y-12149276D01*
X4250214Y-12069169D01*
X4047717Y-12027602D01*
X3924451Y-12026741D01*
X3338550Y-11440840D01*
X3340145Y-11326640D01*
X3299993Y-11123858D01*
X3221218Y-10932736D01*
X3106821Y-10760555D01*
X2961159Y-10613872D01*
X2789781Y-10498276D01*
X2599214Y-10418169D01*
X2396717Y-10376602D01*
X2257740Y-10375631D01*
X2866937Y-10268214D01*
X4806776Y-9515799D01*
X5294886Y-9206034D01*
X5294515Y-9232632D01*
X5331832Y-9435955D01*
X5393988Y-9592945D01*
X5342943Y-9627053D01*
X5258033Y-9711962D01*
X5191320Y-9811806D01*
X5145367Y-9922746D01*
X5121940Y-10040519D01*
X5121940Y-10160600D01*
X5121940Y-11359480D01*
X5145367Y-11477253D01*
X5191319Y-11588194D01*
X5258033Y-11688037D01*
X5342942Y-11772947D01*
X5442786Y-11839660D01*
X5553726Y-11885613D01*
X5671499Y-11909040D01*
X5791580Y-11909040D01*
X6990460Y-11909040D01*
X7108233Y-11885613D01*
X7219174Y-11839661D01*
X7319017Y-11772947D01*
X7380000Y-11711964D01*
X7440983Y-11772947D01*
X7540826Y-11839661D01*
X7651767Y-11885613D01*
X7769540Y-11909040D01*
X8124220Y-11909040D01*
X8276620Y-11756640D01*
X8276620Y-10852400D01*
X8256620Y-10852400D01*
X8256620Y-10547600D01*
X8276620Y-10547600D01*
X8276620Y-9643360D01*
X8124220Y-9490960D01*
X7769540Y-9490960D01*
X7651767Y-9514387D01*
X7540826Y-9560339D01*
X7440983Y-9627053D01*
X7379999Y-9688035D01*
X7319018Y-9627053D01*
X7295756Y-9611510D01*
X7355049Y-9478335D01*
X7400848Y-9276753D01*
X7404145Y-9040640D01*
X7363993Y-8837858D01*
X7285218Y-8646736D01*
X7170821Y-8474555D01*
X7025159Y-8327872D01*
X6853781Y-8212276D01*
X6789853Y-8185403D01*
X8070275Y-6966075D01*
X9269629Y-5265882D01*
X9474391Y-4805977D01*
X9546515Y-4917892D01*
X9472943Y-4967053D01*
X9388033Y-5051962D01*
X9321320Y-5151806D01*
X9275367Y-5262746D01*
X9251940Y-5380519D01*
X9251940Y-5500600D01*
X9251940Y-6699480D01*
X9275367Y-6817253D01*
X9321319Y-6928194D01*
X9388033Y-7028037D01*
X9472942Y-7112947D01*
X9572786Y-7179660D01*
X9683726Y-7225613D01*
X9801499Y-7249040D01*
X9921580Y-7249040D01*
X11120460Y-7249040D01*
X11238233Y-7225613D01*
X11349174Y-7179661D01*
X11449017Y-7112947D01*
X11510000Y-7051964D01*
X11570983Y-7112947D01*
X11670826Y-7179661D01*
X11781767Y-7225613D01*
X11899540Y-7249040D01*
X12254220Y-7249040D01*
X12406620Y-7096640D01*
X12406620Y-6192400D01*
X12386620Y-6192400D01*
X12386620Y-5887600D01*
X12406620Y-5887600D01*
X12406620Y-4983360D01*
X12254220Y-4830960D01*
X11899540Y-4830960D01*
X11781767Y-4854387D01*
X11670826Y-4900339D01*
X11570983Y-4967053D01*
X11509999Y-5028035D01*
X11449018Y-4967053D01*
X11349174Y-4900340D01*
X11305886Y-4882409D01*
X11334969Y-4841183D01*
X11419049Y-4652335D01*
X11464848Y-4450753D01*
X11468145Y-4214640D01*
X11427993Y-4011858D01*
X11349218Y-3820736D01*
X11234821Y-3648555D01*
X11089159Y-3501872D01*
X10917781Y-3386276D01*
X10727214Y-3306169D01*
X10524717Y-3264602D01*
X10318002Y-3263159D01*
X10130962Y-3298839D01*
X10576870Y-1336169D01*
X10610055Y1040325D01*
X10205921Y3081349D01*
X9413047Y5005006D01*
X9221032Y5294011D01*
X9225261Y5293922D01*
X9364289Y5318437D01*
X9375367Y5262747D01*
X9421319Y5151806D01*
X9488033Y5051963D01*
X9572942Y4967053D01*
X9672786Y4900340D01*
X9783726Y4854387D01*
X9901499Y4830960D01*
X10021580Y4830960D01*
X11220460Y4830960D01*
X11338233Y4854387D01*
X11449174Y4900339D01*
X11549017Y4967053D01*
X11610000Y5028036D01*
X11670983Y4967053D01*
X11770826Y4900339D01*
X11881767Y4854387D01*
X11999540Y4830960D01*
X12354220Y4830960D01*
X12506620Y4983360D01*
X12506620Y2157990D01*
X12441781Y2201724D01*
X12251214Y2281831D01*
X12048717Y2323398D01*
X11842002Y2324841D01*
X11638944Y2286105D01*
X11447277Y2208667D01*
X11274301Y2095475D01*
X11126606Y1950841D01*
X11009816Y1780273D01*
X10928380Y1590270D01*
X10885401Y1388068D01*
X10882515Y1181368D01*
X10911800Y1021806D01*
X10878033Y988038D01*
X10811320Y888194D01*
X10765367Y777254D01*
X10741940Y659481D01*
X10741940Y539400D01*
X10741940Y-659480D01*
X10765367Y-777253D01*
X10811319Y-888194D01*
X10878033Y-988037D01*
X10962942Y-1072947D01*
X11062786Y-1139660D01*
X11173726Y-1185613D01*
X11291499Y-1209040D01*
X11411580Y-1209040D01*
X12610460Y-1209040D01*
X12728233Y-1185613D01*
X12839174Y-1139661D01*
X12939017Y-1072947D01*
X13000000Y-1011964D01*
X13060983Y-1072947D01*
X13160826Y-1139661D01*
X13271767Y-1185613D01*
X13389540Y-1209040D01*
X13744220Y-1209040D01*
X13896620Y-1056640D01*
X13896620Y-11353982D01*
X13848651Y-11368740D01*
X13768060Y-11377068D01*
X13768060Y-6699481D01*
X13768060Y-6579400D01*
X13768060Y-6344800D01*
X13768060Y-5735200D01*
X13768060Y-5500600D01*
X13768060Y-5380519D01*
X13744633Y-5262746D01*
X13698680Y-5151806D01*
X13631967Y-5051962D01*
X13547057Y-4967053D01*
X13447214Y-4900339D01*
X13336273Y-4854387D01*
X13218500Y-4830960D01*
X12863820Y-4830960D01*
X12711420Y-4983360D01*
X12711420Y-5887600D01*
X13615660Y-5887600D01*
X13768060Y-5735200D01*
X13768060Y-6344800D01*
X13615660Y-6192400D01*
X12711420Y-6192400D01*
X12711420Y-7096640D01*
X12863820Y-7249040D01*
X13218500Y-7249040D01*
X13336273Y-7225613D01*
X13447214Y-7179661D01*
X13547057Y-7112947D01*
X13631967Y-7028038D01*
X13698680Y-6928194D01*
X13744633Y-6817254D01*
X13768060Y-6699481D01*
X13768060Y-11377068D01*
X13357300Y-11419516D01*
X10756886Y-11419516D01*
X10756772Y-11419527D01*
X10754737Y-11419520D01*
X10731001Y-11419603D01*
X10704292Y-11422316D01*
X10677447Y-11422129D01*
X10668907Y-11422966D01*
X10008978Y-11492327D01*
X9954424Y-11503525D01*
X9899694Y-11513966D01*
X9891479Y-11516446D01*
X9544945Y-11623716D01*
X9568680Y-11588194D01*
X9614633Y-11477254D01*
X9638060Y-11359481D01*
X9638060Y-11239400D01*
X9638060Y-11004800D01*
X9638060Y-10395200D01*
X9638060Y-10160600D01*
X9638060Y-10040519D01*
X9614633Y-9922746D01*
X9568680Y-9811806D01*
X9501967Y-9711962D01*
X9417057Y-9627053D01*
X9317214Y-9560339D01*
X9206273Y-9514387D01*
X9088500Y-9490960D01*
X8733820Y-9490960D01*
X8581420Y-9643360D01*
X8581420Y-10547600D01*
X9485660Y-10547600D01*
X9638060Y-10395200D01*
X9638060Y-11004800D01*
X9485660Y-10852400D01*
X8581420Y-10852400D01*
X8581420Y-11756640D01*
X8733820Y-11909040D01*
X8869796Y-11909040D01*
X8563311Y-12074756D01*
X8517136Y-12105901D01*
X8470519Y-12136407D01*
X8463871Y-12141829D01*
X8463870Y-12141830D01*
X8463869Y-12141830D01*
X8463869Y-12141831D01*
X7952584Y-12564803D01*
X7913338Y-12604323D01*
X7873534Y-12643303D01*
X7868064Y-12649915D01*
X7448673Y-13164140D01*
X7417852Y-13210527D01*
X7386376Y-13256499D01*
X7382296Y-13264044D01*
X7382294Y-13264048D01*
X7382292Y-13264051D01*
X7070770Y-13849939D01*
X7049544Y-13901435D01*
X7027598Y-13952641D01*
X7025060Y-13960838D01*
X6833269Y-14596080D01*
X6822451Y-14650712D01*
X6810868Y-14705211D01*
X6809971Y-14713742D01*
X6809971Y-14713744D01*
X6809971Y-14713745D01*
X6745219Y-15374142D01*
X6745219Y-15399920D01*
X6742346Y-15425535D01*
X6742286Y-15434116D01*
X6742286Y-15936696D01*
X6691730Y-16446615D01*
X6653869Y-16602968D01*
X6619936Y-16688675D01*
X6579501Y-16751417D01*
X6527650Y-16805111D01*
X6466359Y-16847709D01*
X6397957Y-16877593D01*
X6313441Y-16896175D01*
X6261540Y-16899259D01*
X828313Y-16899259D01*
X842773Y-16878762D01*
X919714Y-16705948D01*
X961624Y-16521481D01*
X964641Y-16305416D01*
X927898Y-16119851D01*
X855812Y-15944957D01*
X751128Y-15787395D01*
X617834Y-15653167D01*
X461007Y-15547386D01*
X347753Y-15499778D01*
X437021Y-15465154D01*
X596740Y-15363793D01*
X733730Y-15233339D01*
X842773Y-15078762D01*
X919714Y-14905948D01*
X961624Y-14721481D01*
X964641Y-14505416D01*
X927898Y-14319851D01*
X855812Y-14144957D01*
X751128Y-13987395D01*
X617834Y-13853167D01*
X461007Y-13747386D01*
X286620Y-13674080D01*
X101316Y-13636043D01*
X-87847Y-13634722D01*
X-273664Y-13670169D01*
X-449058Y-13741032D01*
X-607346Y-13844613D01*
X-742502Y-13976967D01*
X-849375Y-14133052D01*
X-923896Y-14306923D01*
X-963226Y-14491957D01*
X-965868Y-14681106D01*
X-931719Y-14867166D01*
X-862082Y-15043050D01*
X-759608Y-15202058D01*
X-628201Y-15338134D01*
X-472866Y-15446095D01*
X-348530Y-15500416D01*
X-449058Y-15541032D01*
X-607346Y-15644613D01*
X-742502Y-15776967D01*
X-849375Y-15933052D01*
X-923896Y-16106923D01*
X-963226Y-16291957D01*
X-965868Y-16481106D01*
X-931719Y-16667166D01*
X-862082Y-16843050D01*
X-825858Y-16899259D01*
X-3350000Y-16899259D01*
X-3363917Y-16900623D01*
X-3377877Y-16899892D01*
X-3386447Y-16900341D01*
X-3504851Y-16907375D01*
X-3548260Y-16914249D01*
X-3591986Y-16918846D01*
X-3600380Y-16920630D01*
X-3790993Y-16962539D01*
X-3843986Y-16979757D01*
X-3897186Y-16996226D01*
X-3905070Y-16999604D01*
X-3905071Y-16999605D01*
X-3905073Y-16999605D01*
X-3905073Y-16999606D01*
X-4083916Y-17077741D01*
X-4132510Y-17104898D01*
X-4181541Y-17131411D01*
X-4188621Y-17136259D01*
X-4348881Y-17247643D01*
X-4391279Y-17283725D01*
X-4434221Y-17319251D01*
X-4440225Y-17325382D01*
X-4440227Y-17325383D01*
X-4440227Y-17325384D01*
X-4440228Y-17325384D01*
X-4575799Y-17465772D01*
X-4610421Y-17509453D01*
X-4645607Y-17552597D01*
X-4650304Y-17559772D01*
X-4650305Y-17559775D01*
X-4650307Y-17559777D01*
X-4756029Y-17723827D01*
X-4781480Y-17773348D01*
X-4807644Y-17822557D01*
X-4810858Y-17830513D01*
X-4882703Y-18011974D01*
X-4883073Y-18013263D01*
X-4932727Y-18138676D01*
X-4973162Y-18201418D01*
X-5025013Y-18255112D01*
X-5086304Y-18297710D01*
X-5154706Y-18327594D01*
X-5239222Y-18346176D01*
X-5291123Y-18349260D01*
X-5811420Y-18349260D01*
X-5811420Y-13216640D01*
X-5811420Y-12312400D01*
X-6715660Y-12312400D01*
X-6868060Y-12464800D01*
X-6868060Y-12699400D01*
X-6868060Y-12819481D01*
X-6844633Y-12937254D01*
X-6798680Y-13048194D01*
X-6731967Y-13148038D01*
X-6647057Y-13232947D01*
X-6547214Y-13299661D01*
X-6436273Y-13345613D01*
X-6318500Y-13369040D01*
X-5963820Y-13369040D01*
X-5811420Y-13216640D01*
X-5811420Y-18349260D01*
X-6893984Y-18349260D01*
X-7386552Y-18300598D01*
X-7857914Y-18157908D01*
X-7871241Y-18152266D01*
X-10931420Y-16447000D01*
X-10931420Y-9676640D01*
X-10931420Y-8772400D01*
X-10931420Y-8467600D01*
X-10931420Y-7563360D01*
X-11083820Y-7410960D01*
X-11438500Y-7410960D01*
X-11556273Y-7434387D01*
X-11667214Y-7480339D01*
X-11767057Y-7547053D01*
X-11851967Y-7631962D01*
X-11918680Y-7731806D01*
X-11964633Y-7842746D01*
X-11988060Y-7960519D01*
X-11988060Y-8080600D01*
X-11988060Y-8315200D01*
X-11835660Y-8467600D01*
X-10931420Y-8467600D01*
X-10931420Y-8772400D01*
X-11835660Y-8772400D01*
X-11988060Y-8924800D01*
X-11988060Y-9159400D01*
X-11988060Y-9279481D01*
X-11964633Y-9397254D01*
X-11918680Y-9508194D01*
X-11851967Y-9608038D01*
X-11767057Y-9692947D01*
X-11667214Y-9759661D01*
X-11556273Y-9805613D01*
X-11438500Y-9829040D01*
X-11083820Y-9829040D01*
X-10931420Y-9676640D01*
X-10931420Y-16447000D01*
X-11269826Y-16258426D01*
X-13821420Y-14092335D01*
X-13821420Y-4166640D01*
X-13821420Y-3262400D01*
X-13821420Y-2957600D01*
X-13821420Y-2053360D01*
X-13821420Y2053360D01*
X-13821420Y2957600D01*
X-13821420Y3262400D01*
X-13821420Y4166640D01*
X-13973820Y4319040D01*
X-14328500Y4319040D01*
X-14446273Y4295613D01*
X-14557214Y4249661D01*
X-14657057Y4182947D01*
X-14741967Y4098038D01*
X-14808680Y3998194D01*
X-14854633Y3887254D01*
X-14878060Y3769481D01*
X-14878060Y3649400D01*
X-14878060Y3414800D01*
X-14725660Y3262400D01*
X-13821420Y3262400D01*
X-13821420Y2957600D01*
X-14725660Y2957600D01*
X-14878060Y2805200D01*
X-14878060Y2570600D01*
X-14878060Y2450519D01*
X-14854633Y2332746D01*
X-14808680Y2221806D01*
X-14741967Y2121962D01*
X-14657057Y2037053D01*
X-14557214Y1970339D01*
X-14446273Y1924387D01*
X-14328500Y1900960D01*
X-13973820Y1900960D01*
X-13821420Y2053360D01*
X-13821420Y-2053360D01*
X-13973820Y-1900960D01*
X-14328500Y-1900960D01*
X-14446273Y-1924387D01*
X-14557214Y-1970339D01*
X-14657057Y-2037053D01*
X-14741967Y-2121962D01*
X-14808680Y-2221806D01*
X-14854633Y-2332746D01*
X-14878060Y-2450519D01*
X-14878060Y-2570600D01*
X-14878060Y-2805200D01*
X-14725660Y-2957600D01*
X-13821420Y-2957600D01*
X-13821420Y-3262400D01*
X-14725660Y-3262400D01*
X-14878060Y-3414800D01*
X-14878060Y-3649400D01*
X-14878060Y-3769481D01*
X-14854633Y-3887254D01*
X-14808680Y-3998194D01*
X-14741967Y-4098038D01*
X-14657057Y-4182947D01*
X-14557214Y-4249661D01*
X-14446273Y-4295613D01*
X-14328500Y-4319040D01*
X-13973820Y-4319040D01*
X-13821420Y-4166640D01*
X-13821420Y-14092335D01*
X-14227343Y-13747741D01*
X-15195911Y-12669071D01*
X-15467405Y-12268075D01*
X-15648340Y-11839746D01*
X-15745426Y-11370937D01*
X-15759067Y-11114910D01*
X-15759067Y9008698D01*
X-15709935Y9500949D01*
X-15574764Y9945843D01*
X-15355758Y10356007D01*
X-15061252Y10715822D01*
X-14702469Y11011581D01*
X-14293066Y11232021D01*
X-13848651Y11368741D01*
X-13357301Y11419516D01*
X-10756886Y11419516D01*
X-10756773Y11419528D01*
X-10754737Y11419520D01*
X-10731001Y11419603D01*
X-10704293Y11422317D01*
X-10677447Y11422129D01*
X-10668907Y11422966D01*
X-10008978Y11492327D01*
X-9954425Y11503526D01*
X-9899694Y11513966D01*
X-9891480Y11516446D01*
X-9891479Y11516446D01*
X-9257591Y11712667D01*
X-9206283Y11734236D01*
X-9154591Y11755120D01*
X-9147015Y11759149D01*
X-9147014Y11759149D01*
X-8563311Y12074756D01*
X-8517121Y12105912D01*
X-8470519Y12136407D01*
X-8463877Y12141826D01*
X-8463869Y12141830D01*
X-8463869Y12141831D01*
X-8463864Y12141836D01*
X-7952584Y12564802D01*
X-7913320Y12604343D01*
X-7873534Y12643303D01*
X-7868065Y12649914D01*
X-7868064Y12649915D01*
X-7448673Y13164140D01*
X-7417869Y13210505D01*
X-7386376Y13256499D01*
X-7382295Y13264047D01*
X-7382295Y13264048D01*
X-7070770Y13849939D01*
X-7049550Y13901424D01*
X-7027598Y13952641D01*
X-7025061Y13960837D01*
X-7025060Y13960838D01*
X-6833270Y14596080D01*
X-6822460Y14650677D01*
X-6810868Y14705211D01*
X-6809972Y14713743D01*
X-6809971Y14713744D01*
X-6809971Y14713745D01*
X-6745219Y15374142D01*
X-6745219Y15399921D01*
X-6742346Y15425535D01*
X-6742286Y15434116D01*
X-6742286Y15936688D01*
X-6691731Y16446615D01*
X-6653870Y16602969D01*
X-6619937Y16688676D01*
X-6579500Y16751420D01*
X-6527651Y16805112D01*
X-6466359Y16847710D01*
X-6397960Y16877594D01*
X-6313441Y16896176D01*
X-6261541Y16899259D01*
X-827252Y16899259D01*
X-849375Y16866948D01*
X-923896Y16693077D01*
X-963226Y16508043D01*
X-965868Y16318894D01*
X-931719Y16132834D01*
X-862082Y15956950D01*
X-759608Y15797942D01*
X-628201Y15661866D01*
X-472866Y15553905D01*
X-348530Y15499584D01*
X-449058Y15458968D01*
X-607346Y15355387D01*
X-742502Y15223033D01*
X-849375Y15066948D01*
X-923896Y14893077D01*
X-963226Y14708043D01*
X-965868Y14518894D01*
X-931719Y14332834D01*
X-862082Y14156950D01*
X-759608Y13997942D01*
X-628201Y13861866D01*
X-472866Y13753905D01*
X-299520Y13678172D01*
X-114765Y13637551D01*
X74361Y13633590D01*
X260655Y13666438D01*
X437021Y13734846D01*
X596740Y13836207D01*
X733730Y13966661D01*
X842773Y14121238D01*
X919714Y14294052D01*
X961624Y14478519D01*
X964641Y14694584D01*
X927898Y14880149D01*
X855812Y15055043D01*
X751128Y15212605D01*
X617834Y15346833D01*
X461007Y15452614D01*
X347753Y15500222D01*
X437021Y15534846D01*
X596740Y15636207D01*
X733730Y15766661D01*
X842773Y15921238D01*
X919714Y16094052D01*
X961624Y16278519D01*
X964641Y16494584D01*
X927898Y16680149D01*
X855812Y16855043D01*
X826434Y16899259D01*
X3350000Y16899259D01*
X3363917Y16900624D01*
X3377878Y16899892D01*
X3386447Y16900341D01*
X3504851Y16907375D01*
X3548258Y16914250D01*
X3591987Y16918846D01*
X3600380Y16920630D01*
X3790994Y16962539D01*
X3844017Y16979768D01*
X3897185Y16996226D01*
X3905069Y16999605D01*
X3905071Y16999605D01*
X3905072Y16999606D01*
X3905073Y16999606D01*
X4083915Y17077741D01*
X4132518Y17104905D01*
X4181541Y17131411D01*
X4188621Y17136259D01*
X4348882Y17247643D01*
X4391297Y17283743D01*
X4434221Y17319251D01*
X4440225Y17325382D01*
X4440227Y17325385D01*
X4575799Y17465773D01*
X4610405Y17509435D01*
X4645607Y17552597D01*
X4650303Y17559773D01*
X4650305Y17559775D01*
X4650306Y17559777D01*
X4650306Y17559778D01*
X4756029Y17723827D01*
X4781479Y17773349D01*
X4807644Y17822557D01*
X4810857Y17830511D01*
X4810858Y17830513D01*
X4882703Y18011974D01*
X4883072Y18013264D01*
X4932726Y18138677D01*
X4973163Y18201421D01*
X5025012Y18255113D01*
X5086304Y18297711D01*
X5154703Y18327595D01*
X5239222Y18346177D01*
X5291122Y18349260D01*
X6893982Y18349260D01*
X7386551Y18300599D01*
X7857913Y18157909D01*
X7871240Y18152267D01*
X11269827Y16258426D01*
X14227342Y13747742D01*
X15195913Y12669068D01*
X15467407Y12268073D01*
X15648339Y11839747D01*
X15745425Y11370938D01*
X15759067Y11114911D01*
X15759067Y-9008697D01*
X15759067Y-9008697D01*
G37*
X15759067Y-9008697D02*
X15709934Y-9500949D01*
X15574765Y-9945841D01*
X15355757Y-10356005D01*
X15258060Y-10475367D01*
X15258060Y-659481D01*
X15258060Y-539400D01*
X15258060Y-304800D01*
X15258060Y304800D01*
X15258060Y539400D01*
X15258060Y659481D01*
X15234633Y777254D01*
X15188680Y888194D01*
X15121967Y988038D01*
X15037057Y1072947D01*
X14937214Y1139661D01*
X14826273Y1185613D01*
X14708500Y1209040D01*
X14353820Y1209040D01*
X14201420Y1056640D01*
X14201420Y152400D01*
X15105660Y152400D01*
X15258060Y304800D01*
X15258060Y-304800D01*
X15105660Y-152400D01*
X14201420Y-152400D01*
X14201420Y-1056640D01*
X14353820Y-1209040D01*
X14708500Y-1209040D01*
X14826273Y-1185613D01*
X14937214Y-1139661D01*
X15037057Y-1072947D01*
X15121967Y-988038D01*
X15188680Y-888194D01*
X15234633Y-777254D01*
X15258060Y-659481D01*
X15258060Y-10475367D01*
X15061251Y-10715821D01*
X14702468Y-11011580D01*
X14293066Y-11232019D01*
X13896620Y-11353982D01*
X13896620Y-1056640D01*
X13896620Y-152400D01*
X13876620Y-152400D01*
X13876620Y152400D01*
X13896620Y152400D01*
X13896620Y1056640D01*
X13868060Y1085200D01*
X13868060Y5380519D01*
X13868060Y5500600D01*
X13868060Y5735200D01*
X13868060Y6344800D01*
X13868060Y6579400D01*
X13868060Y6699481D01*
X13844633Y6817254D01*
X13798680Y6928194D01*
X13731967Y7028038D01*
X13647057Y7112947D01*
X13547214Y7179661D01*
X13436273Y7225613D01*
X13318500Y7249040D01*
X12963820Y7249040D01*
X12811420Y7096640D01*
X12811420Y6192400D01*
X13715660Y6192400D01*
X13868060Y6344800D01*
X13868060Y5735200D01*
X13715660Y5887600D01*
X12811420Y5887600D01*
X12811420Y4983360D01*
X12963820Y4830960D01*
X13318500Y4830960D01*
X13436273Y4854387D01*
X13547214Y4900339D01*
X13647057Y4967053D01*
X13731967Y5051962D01*
X13798680Y5151806D01*
X13844633Y5262746D01*
X13868060Y5380519D01*
X13868060Y1085200D01*
X13744220Y1209040D01*
X13389540Y1209040D01*
X13271767Y1185613D01*
X13160826Y1139661D01*
X13060983Y1072947D01*
X12999999Y1011965D01*
X12967718Y1044247D01*
X12988848Y1137247D01*
X12992145Y1373360D01*
X12951993Y1576142D01*
X12873218Y1767264D01*
X12758821Y1939445D01*
X12613159Y2086128D01*
X12506620Y2157990D01*
X12506620Y4983360D01*
X12506620Y5887600D01*
X12486620Y5887600D01*
X12486620Y6192400D01*
X12506620Y6192400D01*
X12506620Y7096640D01*
X12354220Y7249040D01*
X11999540Y7249040D01*
X11881767Y7225613D01*
X11770826Y7179661D01*
X11670983Y7112947D01*
X11609999Y7051965D01*
X11549018Y7112947D01*
X11449174Y7179660D01*
X11338234Y7225613D01*
X11220461Y7249040D01*
X11100380Y7249040D01*
X9901500Y7249040D01*
X9783727Y7225613D01*
X9751040Y7212075D01*
X9647781Y7281724D01*
X9638060Y7285811D01*
X9638060Y10040519D01*
X9638060Y10160600D01*
X9638060Y10395200D01*
X9638060Y11004800D01*
X9638060Y11239400D01*
X9638060Y11359481D01*
X9614633Y11477254D01*
X9568680Y11588194D01*
X9501967Y11688038D01*
X9417057Y11772947D01*
X9317214Y11839661D01*
X9206273Y11885613D01*
X9088500Y11909040D01*
X8733820Y11909040D01*
X8581420Y11756640D01*
X8581420Y10852400D01*
X9485660Y10852400D01*
X9638060Y11004800D01*
X9638060Y10395200D01*
X9485660Y10547600D01*
X8581420Y10547600D01*
X8581420Y9643360D01*
X8733820Y9490960D01*
X9088500Y9490960D01*
X9206273Y9514387D01*
X9317214Y9560339D01*
X9417057Y9627053D01*
X9501967Y9711962D01*
X9568680Y9811806D01*
X9614633Y9922746D01*
X9638060Y10040519D01*
X9638060Y7285811D01*
X9457214Y7361831D01*
X9254717Y7403398D01*
X9048002Y7404841D01*
X8844944Y7366105D01*
X8653277Y7288667D01*
X8480301Y7175475D01*
X8332606Y7030841D01*
X8215816Y6860273D01*
X8193029Y6807108D01*
X6795536Y8214392D01*
X6570156Y8366413D01*
X6634840Y8377818D01*
X6827569Y8452573D01*
X7002109Y8563339D01*
X7151809Y8705897D01*
X7270969Y8874817D01*
X7355049Y9063665D01*
X7400848Y9265247D01*
X7404145Y9501360D01*
X7369300Y9677337D01*
X7380000Y9688036D01*
X7440983Y9627053D01*
X7540826Y9560339D01*
X7651767Y9514387D01*
X7769540Y9490960D01*
X8124220Y9490960D01*
X8276620Y9643360D01*
X8276620Y10547600D01*
X8256620Y10547600D01*
X8256620Y10852400D01*
X8276620Y10852400D01*
X8276620Y11756640D01*
X8124220Y11909040D01*
X7769540Y11909040D01*
X7651767Y11885613D01*
X7540826Y11839661D01*
X7440983Y11772947D01*
X7379999Y11711965D01*
X7319018Y11772947D01*
X7219174Y11839660D01*
X7108234Y11885613D01*
X6990461Y11909040D01*
X6870380Y11909040D01*
X5671500Y11909040D01*
X5553727Y11885613D01*
X5442786Y11839661D01*
X5342943Y11772947D01*
X5258033Y11688038D01*
X5191320Y11588194D01*
X5145367Y11477254D01*
X5121940Y11359481D01*
X5121940Y11239400D01*
X5121940Y10040520D01*
X5145367Y9922747D01*
X5191319Y9811806D01*
X5258033Y9711963D01*
X5324839Y9645156D01*
X5297401Y9516068D01*
X5294515Y9309368D01*
X5311801Y9215184D01*
X5070599Y9377876D01*
X3152524Y10184161D01*
X1114371Y10602533D01*
X-966228Y10617059D01*
X-1146000Y10582766D01*
X-1146000Y10805210D01*
X-1494790Y11154000D01*
X-2505996Y11154000D01*
X-2488033Y11171962D01*
X-2421320Y11271806D01*
X-2375367Y11382746D01*
X-2351940Y11500519D01*
X-2351940Y11620600D01*
X-2351940Y12819480D01*
X-2375367Y12937253D01*
X-2421319Y13048194D01*
X-2488033Y13148037D01*
X-2572942Y13232947D01*
X-2672786Y13299660D01*
X-2783726Y13345613D01*
X-2901499Y13369040D01*
X-3021580Y13369040D01*
X-3572572Y13369040D01*
X-3566951Y13381665D01*
X-3521152Y13583247D01*
X-3517855Y13819360D01*
X-3558007Y14022142D01*
X-3636782Y14213264D01*
X-3751179Y14385445D01*
X-3896841Y14532128D01*
X-4068219Y14647724D01*
X-4258786Y14727831D01*
X-4461283Y14769398D01*
X-4667998Y14770841D01*
X-4871056Y14732105D01*
X-5062723Y14654667D01*
X-5235699Y14541475D01*
X-5383394Y14396841D01*
X-5500184Y14226273D01*
X-5581620Y14036270D01*
X-5624599Y13834068D01*
X-5627485Y13627368D01*
X-5590168Y13424045D01*
X-5514070Y13231842D01*
X-5505193Y13218068D01*
X-5506620Y13216640D01*
X-5506620Y12312400D01*
X-5486620Y12312400D01*
X-5486620Y12007600D01*
X-5506620Y12007600D01*
X-5506620Y11987600D01*
X-5811420Y11987600D01*
X-5811420Y12007600D01*
X-5811420Y12312400D01*
X-5811420Y13216640D01*
X-5963820Y13369040D01*
X-6318500Y13369040D01*
X-6436273Y13345613D01*
X-6547214Y13299661D01*
X-6647057Y13232947D01*
X-6731967Y13148038D01*
X-6798680Y13048194D01*
X-6844633Y12937254D01*
X-6868060Y12819481D01*
X-6868060Y12699400D01*
X-6868060Y12464800D01*
X-6715660Y12312400D01*
X-5811420Y12312400D01*
X-5811420Y12007600D01*
X-6715660Y12007600D01*
X-6868060Y11855200D01*
X-6868060Y11620600D01*
X-6868060Y11500519D01*
X-6844633Y11382746D01*
X-6798680Y11271806D01*
X-6731967Y11171962D01*
X-6647057Y11087053D01*
X-6602159Y11057052D01*
X-6605210Y11054000D01*
X-7505210Y11054000D01*
X-7754000Y10805210D01*
X-7754000Y9733745D01*
X-7792786Y9759660D01*
X-7903726Y9805613D01*
X-8021499Y9829040D01*
X-8141580Y9829040D01*
X-9340460Y9829040D01*
X-9458233Y9805613D01*
X-9569174Y9759661D01*
X-9669017Y9692947D01*
X-9730000Y9631965D01*
X-9790983Y9692947D01*
X-9890826Y9759661D01*
X-10001767Y9805613D01*
X-10119540Y9829040D01*
X-10474220Y9829040D01*
X-10626620Y9676640D01*
X-10626620Y8772400D01*
X-10606620Y8772400D01*
X-10606620Y8467600D01*
X-10626620Y8467600D01*
X-10626620Y7563360D01*
X-10611791Y7548531D01*
X-10661620Y7432270D01*
X-10704599Y7230068D01*
X-10707485Y7023368D01*
X-10670168Y6820045D01*
X-10594070Y6627842D01*
X-10482088Y6454080D01*
X-10338489Y6305379D01*
X-10168741Y6187401D01*
X-9979311Y6104641D01*
X-9777413Y6060251D01*
X-9570739Y6055922D01*
X-9367160Y6091818D01*
X-9174431Y6166573D01*
X-8999891Y6277339D01*
X-8850191Y6419897D01*
X-8731031Y6588817D01*
X-8646951Y6777665D01*
X-8601152Y6979247D01*
X-8597855Y7215360D01*
X-8636585Y7410960D01*
X-8021500Y7410960D01*
X-7903727Y7434387D01*
X-7792786Y7480339D01*
X-7754000Y7506256D01*
X-7754000Y7256912D01*
X-8166750Y6852717D01*
X-9342249Y5135945D01*
X-10161904Y3223546D01*
X-10219653Y2951859D01*
X-10326184Y2796273D01*
X-10361940Y2712849D01*
X-10361940Y3769480D01*
X-10385367Y3887253D01*
X-10431319Y3998194D01*
X-10498033Y4098037D01*
X-10582942Y4182947D01*
X-10682786Y4249660D01*
X-10793726Y4295613D01*
X-10911499Y4319040D01*
X-10931420Y4319040D01*
X-10931420Y7563360D01*
X-10931420Y8467600D01*
X-10931420Y8772400D01*
X-10931420Y9676640D01*
X-11083820Y9829040D01*
X-11438500Y9829040D01*
X-11556273Y9805613D01*
X-11667214Y9759661D01*
X-11767057Y9692947D01*
X-11851967Y9608038D01*
X-11918680Y9508194D01*
X-11964633Y9397254D01*
X-11988060Y9279481D01*
X-11988060Y9159400D01*
X-11988060Y8924800D01*
X-11835660Y8772400D01*
X-10931420Y8772400D01*
X-10931420Y8467600D01*
X-11835660Y8467600D01*
X-11988060Y8315200D01*
X-11988060Y8080600D01*
X-11988060Y7960519D01*
X-11964633Y7842746D01*
X-11918680Y7731806D01*
X-11851967Y7631962D01*
X-11767057Y7547053D01*
X-11667214Y7480339D01*
X-11556273Y7434387D01*
X-11438500Y7410960D01*
X-11083820Y7410960D01*
X-10931420Y7563360D01*
X-10931420Y4319040D01*
X-11031580Y4319040D01*
X-12230460Y4319040D01*
X-12348233Y4295613D01*
X-12459174Y4249661D01*
X-12559017Y4182947D01*
X-12620000Y4121965D01*
X-12680983Y4182947D01*
X-12780826Y4249661D01*
X-12891767Y4295613D01*
X-13009540Y4319040D01*
X-13364220Y4319040D01*
X-13516620Y4166640D01*
X-13516620Y3262400D01*
X-13496620Y3262400D01*
X-13496620Y2957600D01*
X-13516620Y2957600D01*
X-13516620Y2053360D01*
X-13364220Y1900960D01*
X-13009540Y1900960D01*
X-12891767Y1924387D01*
X-12780826Y1970339D01*
X-12680983Y2037053D01*
X-12620000Y2098036D01*
X-12559018Y2037053D01*
X-12459174Y1970340D01*
X-12420600Y1954363D01*
X-12420600Y1516085D01*
X-12495394Y1442841D01*
X-12612184Y1272273D01*
X-12693620Y1082270D01*
X-12736599Y880068D01*
X-12739485Y673368D01*
X-12702168Y470045D01*
X-12626070Y277842D01*
X-12514088Y104080D01*
X-12413064Y-534D01*
X-12495394Y-81159D01*
X-12612184Y-251727D01*
X-12693620Y-441730D01*
X-12736599Y-643932D01*
X-12739485Y-850632D01*
X-12702168Y-1053955D01*
X-12626070Y-1246158D01*
X-12514088Y-1419920D01*
X-12420600Y-1516729D01*
X-12420600Y-1954361D01*
X-12459174Y-1970339D01*
X-12559017Y-2037053D01*
X-12620000Y-2098035D01*
X-12680983Y-2037053D01*
X-12780826Y-1970339D01*
X-12891767Y-1924387D01*
X-13009540Y-1900960D01*
X-13364220Y-1900960D01*
X-13516620Y-2053360D01*
X-13516620Y-2957600D01*
X-13496620Y-2957600D01*
X-13496620Y-3262400D01*
X-13516620Y-3262400D01*
X-13516620Y-4166640D01*
X-13364220Y-4319040D01*
X-13009540Y-4319040D01*
X-12891767Y-4295613D01*
X-12780826Y-4249661D01*
X-12680983Y-4182947D01*
X-12620000Y-4121964D01*
X-12559018Y-4182947D01*
X-12459174Y-4249660D01*
X-12348234Y-4295613D01*
X-12293600Y-4306480D01*
X-12293600Y-5840505D01*
X-11428505Y-6705600D01*
X-10624705Y-6705600D01*
X-10661620Y-6791730D01*
X-10704599Y-6993932D01*
X-10707485Y-7200632D01*
X-10670168Y-7403955D01*
X-10612605Y-7549344D01*
X-10626620Y-7563360D01*
X-10626620Y-8467600D01*
X-10606620Y-8467600D01*
X-10606620Y-8772400D01*
X-10626620Y-8772400D01*
X-10626620Y-9676640D01*
X-10474220Y-9829040D01*
X-10119540Y-9829040D01*
X-10001767Y-9805613D01*
X-9890826Y-9759661D01*
X-9790983Y-9692947D01*
X-9730000Y-9631964D01*
X-9669018Y-9692947D01*
X-9569174Y-9759660D01*
X-9458234Y-9805613D01*
X-9340461Y-9829040D01*
X-9220380Y-9829040D01*
X-8102600Y-9829040D01*
X-8102600Y-10160000D01*
X-8095965Y-10227677D01*
X-8090031Y-10295499D01*
X-8088950Y-10299220D01*
X-8088572Y-10303073D01*
X-8068912Y-10368192D01*
X-8049923Y-10433549D01*
X-8048141Y-10436987D01*
X-8047021Y-10440696D01*
X-8015078Y-10500773D01*
X-7983765Y-10561181D01*
X-7981349Y-10564208D01*
X-7979530Y-10567628D01*
X-7936517Y-10620368D01*
X-7894077Y-10673531D01*
X-7888763Y-10678920D01*
X-7888670Y-10679034D01*
X-7888565Y-10679120D01*
X-7886855Y-10680855D01*
X-7124855Y-11442855D01*
X-7072284Y-11486038D01*
X-7020155Y-11529779D01*
X-7016761Y-11531645D01*
X-7013767Y-11534104D01*
X-6953789Y-11566264D01*
X-6894178Y-11599035D01*
X-6890488Y-11600205D01*
X-6887072Y-11602037D01*
X-6868060Y-11607849D01*
X-6868060Y-11620600D01*
X-6868060Y-11855200D01*
X-6715660Y-12007600D01*
X-5811420Y-12007600D01*
X-5811420Y-11987600D01*
X-5506620Y-11987600D01*
X-5506620Y-12007600D01*
X-5486620Y-12007600D01*
X-5486620Y-12312400D01*
X-5506620Y-12312400D01*
X-5506620Y-13216640D01*
X-5354220Y-13369040D01*
X-4999540Y-13369040D01*
X-4881767Y-13345613D01*
X-4770826Y-13299661D01*
X-4670983Y-13232947D01*
X-4610000Y-13171964D01*
X-4549018Y-13232947D01*
X-4449174Y-13299660D01*
X-4338234Y-13345613D01*
X-4220461Y-13369040D01*
X-4100380Y-13369040D01*
X-2901500Y-13369040D01*
X-2783727Y-13345613D01*
X-2672786Y-13299661D01*
X-2572943Y-13232947D01*
X-2488033Y-13148038D01*
X-2421320Y-13048194D01*
X-2375367Y-12937254D01*
X-2351940Y-12819481D01*
X-2351940Y-12699400D01*
X-2351940Y-11500520D01*
X-2375367Y-11382747D01*
X-2421319Y-11271806D01*
X-2488033Y-11171963D01*
X-2572942Y-11087053D01*
X-2672786Y-11020340D01*
X-2783726Y-10974387D01*
X-2901499Y-10950960D01*
X-3021580Y-10950960D01*
X-3728310Y-10950960D01*
X-4278125Y-10401145D01*
X-4330693Y-10357965D01*
X-4382825Y-10314221D01*
X-4386221Y-10312354D01*
X-4389212Y-10309897D01*
X-4449193Y-10277735D01*
X-4508802Y-10244965D01*
X-4512491Y-10243794D01*
X-4515907Y-10241963D01*
X-4580999Y-10222062D01*
X-4645832Y-10201496D01*
X-4649682Y-10201064D01*
X-4653385Y-10199932D01*
X-4721100Y-10193053D01*
X-4788695Y-10185472D01*
X-4796261Y-10185419D01*
X-4796409Y-10185404D01*
X-4796547Y-10185417D01*
X-4798980Y-10185400D01*
X-6298890Y-10185400D01*
X-6629400Y-9854890D01*
X-6629400Y-8313429D01*
X-5201040Y-9306166D01*
X-3294410Y-10139152D01*
X-1262297Y-10585941D01*
X-529378Y-10601293D01*
X-510168Y-10705955D01*
X-434070Y-10898158D01*
X-322088Y-11071920D01*
X-178489Y-11220621D01*
X-8741Y-11338599D01*
X180689Y-11421359D01*
X382587Y-11465749D01*
X589261Y-11470078D01*
X792840Y-11434182D01*
X985569Y-11359427D01*
X1160109Y-11248661D01*
X1268862Y-11145095D01*
X1233401Y-11311932D01*
X1230515Y-11518632D01*
X1267832Y-11721955D01*
X1343930Y-11914158D01*
X1455912Y-12087920D01*
X1599511Y-12236621D01*
X1769259Y-12354599D01*
X1958689Y-12437359D01*
X2160587Y-12481749D01*
X2298936Y-12484646D01*
X2882925Y-13068635D01*
X2881515Y-13169632D01*
X2918832Y-13372955D01*
X2994930Y-13565158D01*
X3106912Y-13738920D01*
X3250511Y-13887621D01*
X3420259Y-14005599D01*
X3609689Y-14088359D01*
X3811587Y-14132749D01*
X4018261Y-14137078D01*
X4221840Y-14101182D01*
X4414569Y-14026427D01*
X4589109Y-13915661D01*
X4738809Y-13773103D01*
X4857969Y-13604183D01*
X4942049Y-13415335D01*
X4987848Y-13213753D01*
X4991145Y-12977640D01*
X4950993Y-12774858D01*
X4872218Y-12583736D01*
X4757821Y-12411555D01*
X4612159Y-12264872D01*
X4440781Y-12149276D01*
X4250214Y-12069169D01*
X4047717Y-12027602D01*
X3924451Y-12026741D01*
X3338550Y-11440840D01*
X3340145Y-11326640D01*
X3299993Y-11123858D01*
X3221218Y-10932736D01*
X3106821Y-10760555D01*
X2961159Y-10613872D01*
X2789781Y-10498276D01*
X2599214Y-10418169D01*
X2396717Y-10376602D01*
X2257740Y-10375631D01*
X2866937Y-10268214D01*
X4806776Y-9515799D01*
X5294886Y-9206034D01*
X5294515Y-9232632D01*
X5331832Y-9435955D01*
X5393988Y-9592945D01*
X5342943Y-9627053D01*
X5258033Y-9711962D01*
X5191320Y-9811806D01*
X5145367Y-9922746D01*
X5121940Y-10040519D01*
X5121940Y-10160600D01*
X5121940Y-11359480D01*
X5145367Y-11477253D01*
X5191319Y-11588194D01*
X5258033Y-11688037D01*
X5342942Y-11772947D01*
X5442786Y-11839660D01*
X5553726Y-11885613D01*
X5671499Y-11909040D01*
X5791580Y-11909040D01*
X6990460Y-11909040D01*
X7108233Y-11885613D01*
X7219174Y-11839661D01*
X7319017Y-11772947D01*
X7380000Y-11711964D01*
X7440983Y-11772947D01*
X7540826Y-11839661D01*
X7651767Y-11885613D01*
X7769540Y-11909040D01*
X8124220Y-11909040D01*
X8276620Y-11756640D01*
X8276620Y-10852400D01*
X8256620Y-10852400D01*
X8256620Y-10547600D01*
X8276620Y-10547600D01*
X8276620Y-9643360D01*
X8124220Y-9490960D01*
X7769540Y-9490960D01*
X7651767Y-9514387D01*
X7540826Y-9560339D01*
X7440983Y-9627053D01*
X7379999Y-9688035D01*
X7319018Y-9627053D01*
X7295756Y-9611510D01*
X7355049Y-9478335D01*
X7400848Y-9276753D01*
X7404145Y-9040640D01*
X7363993Y-8837858D01*
X7285218Y-8646736D01*
X7170821Y-8474555D01*
X7025159Y-8327872D01*
X6853781Y-8212276D01*
X6789853Y-8185403D01*
X8070275Y-6966075D01*
X9269629Y-5265882D01*
X9474391Y-4805977D01*
X9546515Y-4917892D01*
X9472943Y-4967053D01*
X9388033Y-5051962D01*
X9321320Y-5151806D01*
X9275367Y-5262746D01*
X9251940Y-5380519D01*
X9251940Y-5500600D01*
X9251940Y-6699480D01*
X9275367Y-6817253D01*
X9321319Y-6928194D01*
X9388033Y-7028037D01*
X9472942Y-7112947D01*
X9572786Y-7179660D01*
X9683726Y-7225613D01*
X9801499Y-7249040D01*
X9921580Y-7249040D01*
X11120460Y-7249040D01*
X11238233Y-7225613D01*
X11349174Y-7179661D01*
X11449017Y-7112947D01*
X11510000Y-7051964D01*
X11570983Y-7112947D01*
X11670826Y-7179661D01*
X11781767Y-7225613D01*
X11899540Y-7249040D01*
X12254220Y-7249040D01*
X12406620Y-7096640D01*
X12406620Y-6192400D01*
X12386620Y-6192400D01*
X12386620Y-5887600D01*
X12406620Y-5887600D01*
X12406620Y-4983360D01*
X12254220Y-4830960D01*
X11899540Y-4830960D01*
X11781767Y-4854387D01*
X11670826Y-4900339D01*
X11570983Y-4967053D01*
X11509999Y-5028035D01*
X11449018Y-4967053D01*
X11349174Y-4900340D01*
X11305886Y-4882409D01*
X11334969Y-4841183D01*
X11419049Y-4652335D01*
X11464848Y-4450753D01*
X11468145Y-4214640D01*
X11427993Y-4011858D01*
X11349218Y-3820736D01*
X11234821Y-3648555D01*
X11089159Y-3501872D01*
X10917781Y-3386276D01*
X10727214Y-3306169D01*
X10524717Y-3264602D01*
X10318002Y-3263159D01*
X10130962Y-3298839D01*
X10576870Y-1336169D01*
X10610055Y1040325D01*
X10205921Y3081349D01*
X9413047Y5005006D01*
X9221032Y5294011D01*
X9225261Y5293922D01*
X9364289Y5318437D01*
X9375367Y5262747D01*
X9421319Y5151806D01*
X9488033Y5051963D01*
X9572942Y4967053D01*
X9672786Y4900340D01*
X9783726Y4854387D01*
X9901499Y4830960D01*
X10021580Y4830960D01*
X11220460Y4830960D01*
X11338233Y4854387D01*
X11449174Y4900339D01*
X11549017Y4967053D01*
X11610000Y5028036D01*
X11670983Y4967053D01*
X11770826Y4900339D01*
X11881767Y4854387D01*
X11999540Y4830960D01*
X12354220Y4830960D01*
X12506620Y4983360D01*
X12506620Y2157990D01*
X12441781Y2201724D01*
X12251214Y2281831D01*
X12048717Y2323398D01*
X11842002Y2324841D01*
X11638944Y2286105D01*
X11447277Y2208667D01*
X11274301Y2095475D01*
X11126606Y1950841D01*
X11009816Y1780273D01*
X10928380Y1590270D01*
X10885401Y1388068D01*
X10882515Y1181368D01*
X10911800Y1021806D01*
X10878033Y988038D01*
X10811320Y888194D01*
X10765367Y777254D01*
X10741940Y659481D01*
X10741940Y539400D01*
X10741940Y-659480D01*
X10765367Y-777253D01*
X10811319Y-888194D01*
X10878033Y-988037D01*
X10962942Y-1072947D01*
X11062786Y-1139660D01*
X11173726Y-1185613D01*
X11291499Y-1209040D01*
X11411580Y-1209040D01*
X12610460Y-1209040D01*
X12728233Y-1185613D01*
X12839174Y-1139661D01*
X12939017Y-1072947D01*
X13000000Y-1011964D01*
X13060983Y-1072947D01*
X13160826Y-1139661D01*
X13271767Y-1185613D01*
X13389540Y-1209040D01*
X13744220Y-1209040D01*
X13896620Y-1056640D01*
X13896620Y-11353982D01*
X13848651Y-11368740D01*
X13768060Y-11377068D01*
X13768060Y-6699481D01*
X13768060Y-6579400D01*
X13768060Y-6344800D01*
X13768060Y-5735200D01*
X13768060Y-5500600D01*
X13768060Y-5380519D01*
X13744633Y-5262746D01*
X13698680Y-5151806D01*
X13631967Y-5051962D01*
X13547057Y-4967053D01*
X13447214Y-4900339D01*
X13336273Y-4854387D01*
X13218500Y-4830960D01*
X12863820Y-4830960D01*
X12711420Y-4983360D01*
X12711420Y-5887600D01*
X13615660Y-5887600D01*
X13768060Y-5735200D01*
X13768060Y-6344800D01*
X13615660Y-6192400D01*
X12711420Y-6192400D01*
X12711420Y-7096640D01*
X12863820Y-7249040D01*
X13218500Y-7249040D01*
X13336273Y-7225613D01*
X13447214Y-7179661D01*
X13547057Y-7112947D01*
X13631967Y-7028038D01*
X13698680Y-6928194D01*
X13744633Y-6817254D01*
X13768060Y-6699481D01*
X13768060Y-11377068D01*
X13357300Y-11419516D01*
X10756886Y-11419516D01*
X10756772Y-11419527D01*
X10754737Y-11419520D01*
X10731001Y-11419603D01*
X10704292Y-11422316D01*
X10677447Y-11422129D01*
X10668907Y-11422966D01*
X10008978Y-11492327D01*
X9954424Y-11503525D01*
X9899694Y-11513966D01*
X9891479Y-11516446D01*
X9544945Y-11623716D01*
X9568680Y-11588194D01*
X9614633Y-11477254D01*
X9638060Y-11359481D01*
X9638060Y-11239400D01*
X9638060Y-11004800D01*
X9638060Y-10395200D01*
X9638060Y-10160600D01*
X9638060Y-10040519D01*
X9614633Y-9922746D01*
X9568680Y-9811806D01*
X9501967Y-9711962D01*
X9417057Y-9627053D01*
X9317214Y-9560339D01*
X9206273Y-9514387D01*
X9088500Y-9490960D01*
X8733820Y-9490960D01*
X8581420Y-9643360D01*
X8581420Y-10547600D01*
X9485660Y-10547600D01*
X9638060Y-10395200D01*
X9638060Y-11004800D01*
X9485660Y-10852400D01*
X8581420Y-10852400D01*
X8581420Y-11756640D01*
X8733820Y-11909040D01*
X8869796Y-11909040D01*
X8563311Y-12074756D01*
X8517136Y-12105901D01*
X8470519Y-12136407D01*
X8463871Y-12141829D01*
X8463870Y-12141830D01*
X8463869Y-12141830D01*
X8463869Y-12141831D01*
X7952584Y-12564803D01*
X7913338Y-12604323D01*
X7873534Y-12643303D01*
X7868064Y-12649915D01*
X7448673Y-13164140D01*
X7417852Y-13210527D01*
X7386376Y-13256499D01*
X7382296Y-13264044D01*
X7382294Y-13264048D01*
X7382292Y-13264051D01*
X7070770Y-13849939D01*
X7049544Y-13901435D01*
X7027598Y-13952641D01*
X7025060Y-13960838D01*
X6833269Y-14596080D01*
X6822451Y-14650712D01*
X6810868Y-14705211D01*
X6809971Y-14713742D01*
X6809971Y-14713744D01*
X6809971Y-14713745D01*
X6745219Y-15374142D01*
X6745219Y-15399920D01*
X6742346Y-15425535D01*
X6742286Y-15434116D01*
X6742286Y-15936696D01*
X6691730Y-16446615D01*
X6653869Y-16602968D01*
X6619936Y-16688675D01*
X6579501Y-16751417D01*
X6527650Y-16805111D01*
X6466359Y-16847709D01*
X6397957Y-16877593D01*
X6313441Y-16896175D01*
X6261540Y-16899259D01*
X828313Y-16899259D01*
X842773Y-16878762D01*
X919714Y-16705948D01*
X961624Y-16521481D01*
X964641Y-16305416D01*
X927898Y-16119851D01*
X855812Y-15944957D01*
X751128Y-15787395D01*
X617834Y-15653167D01*
X461007Y-15547386D01*
X347753Y-15499778D01*
X437021Y-15465154D01*
X596740Y-15363793D01*
X733730Y-15233339D01*
X842773Y-15078762D01*
X919714Y-14905948D01*
X961624Y-14721481D01*
X964641Y-14505416D01*
X927898Y-14319851D01*
X855812Y-14144957D01*
X751128Y-13987395D01*
X617834Y-13853167D01*
X461007Y-13747386D01*
X286620Y-13674080D01*
X101316Y-13636043D01*
X-87847Y-13634722D01*
X-273664Y-13670169D01*
X-449058Y-13741032D01*
X-607346Y-13844613D01*
X-742502Y-13976967D01*
X-849375Y-14133052D01*
X-923896Y-14306923D01*
X-963226Y-14491957D01*
X-965868Y-14681106D01*
X-931719Y-14867166D01*
X-862082Y-15043050D01*
X-759608Y-15202058D01*
X-628201Y-15338134D01*
X-472866Y-15446095D01*
X-348530Y-15500416D01*
X-449058Y-15541032D01*
X-607346Y-15644613D01*
X-742502Y-15776967D01*
X-849375Y-15933052D01*
X-923896Y-16106923D01*
X-963226Y-16291957D01*
X-965868Y-16481106D01*
X-931719Y-16667166D01*
X-862082Y-16843050D01*
X-825858Y-16899259D01*
X-3350000Y-16899259D01*
X-3363917Y-16900623D01*
X-3377877Y-16899892D01*
X-3386447Y-16900341D01*
X-3504851Y-16907375D01*
X-3548260Y-16914249D01*
X-3591986Y-16918846D01*
X-3600380Y-16920630D01*
X-3790993Y-16962539D01*
X-3843986Y-16979757D01*
X-3897186Y-16996226D01*
X-3905070Y-16999604D01*
X-3905071Y-16999605D01*
X-3905073Y-16999605D01*
X-3905073Y-16999606D01*
X-4083916Y-17077741D01*
X-4132510Y-17104898D01*
X-4181541Y-17131411D01*
X-4188621Y-17136259D01*
X-4348881Y-17247643D01*
X-4391279Y-17283725D01*
X-4434221Y-17319251D01*
X-4440225Y-17325382D01*
X-4440227Y-17325383D01*
X-4440227Y-17325384D01*
X-4440228Y-17325384D01*
X-4575799Y-17465772D01*
X-4610421Y-17509453D01*
X-4645607Y-17552597D01*
X-4650304Y-17559772D01*
X-4650305Y-17559775D01*
X-4650307Y-17559777D01*
X-4756029Y-17723827D01*
X-4781480Y-17773348D01*
X-4807644Y-17822557D01*
X-4810858Y-17830513D01*
X-4882703Y-18011974D01*
X-4883073Y-18013263D01*
X-4932727Y-18138676D01*
X-4973162Y-18201418D01*
X-5025013Y-18255112D01*
X-5086304Y-18297710D01*
X-5154706Y-18327594D01*
X-5239222Y-18346176D01*
X-5291123Y-18349260D01*
X-5811420Y-18349260D01*
X-5811420Y-13216640D01*
X-5811420Y-12312400D01*
X-6715660Y-12312400D01*
X-6868060Y-12464800D01*
X-6868060Y-12699400D01*
X-6868060Y-12819481D01*
X-6844633Y-12937254D01*
X-6798680Y-13048194D01*
X-6731967Y-13148038D01*
X-6647057Y-13232947D01*
X-6547214Y-13299661D01*
X-6436273Y-13345613D01*
X-6318500Y-13369040D01*
X-5963820Y-13369040D01*
X-5811420Y-13216640D01*
X-5811420Y-18349260D01*
X-6893984Y-18349260D01*
X-7386552Y-18300598D01*
X-7857914Y-18157908D01*
X-7871241Y-18152266D01*
X-10931420Y-16447000D01*
X-10931420Y-9676640D01*
X-10931420Y-8772400D01*
X-10931420Y-8467600D01*
X-10931420Y-7563360D01*
X-11083820Y-7410960D01*
X-11438500Y-7410960D01*
X-11556273Y-7434387D01*
X-11667214Y-7480339D01*
X-11767057Y-7547053D01*
X-11851967Y-7631962D01*
X-11918680Y-7731806D01*
X-11964633Y-7842746D01*
X-11988060Y-7960519D01*
X-11988060Y-8080600D01*
X-11988060Y-8315200D01*
X-11835660Y-8467600D01*
X-10931420Y-8467600D01*
X-10931420Y-8772400D01*
X-11835660Y-8772400D01*
X-11988060Y-8924800D01*
X-11988060Y-9159400D01*
X-11988060Y-9279481D01*
X-11964633Y-9397254D01*
X-11918680Y-9508194D01*
X-11851967Y-9608038D01*
X-11767057Y-9692947D01*
X-11667214Y-9759661D01*
X-11556273Y-9805613D01*
X-11438500Y-9829040D01*
X-11083820Y-9829040D01*
X-10931420Y-9676640D01*
X-10931420Y-16447000D01*
X-11269826Y-16258426D01*
X-13821420Y-14092335D01*
X-13821420Y-4166640D01*
X-13821420Y-3262400D01*
X-13821420Y-2957600D01*
X-13821420Y-2053360D01*
X-13821420Y2053360D01*
X-13821420Y2957600D01*
X-13821420Y3262400D01*
X-13821420Y4166640D01*
X-13973820Y4319040D01*
X-14328500Y4319040D01*
X-14446273Y4295613D01*
X-14557214Y4249661D01*
X-14657057Y4182947D01*
X-14741967Y4098038D01*
X-14808680Y3998194D01*
X-14854633Y3887254D01*
X-14878060Y3769481D01*
X-14878060Y3649400D01*
X-14878060Y3414800D01*
X-14725660Y3262400D01*
X-13821420Y3262400D01*
X-13821420Y2957600D01*
X-14725660Y2957600D01*
X-14878060Y2805200D01*
X-14878060Y2570600D01*
X-14878060Y2450519D01*
X-14854633Y2332746D01*
X-14808680Y2221806D01*
X-14741967Y2121962D01*
X-14657057Y2037053D01*
X-14557214Y1970339D01*
X-14446273Y1924387D01*
X-14328500Y1900960D01*
X-13973820Y1900960D01*
X-13821420Y2053360D01*
X-13821420Y-2053360D01*
X-13973820Y-1900960D01*
X-14328500Y-1900960D01*
X-14446273Y-1924387D01*
X-14557214Y-1970339D01*
X-14657057Y-2037053D01*
X-14741967Y-2121962D01*
X-14808680Y-2221806D01*
X-14854633Y-2332746D01*
X-14878060Y-2450519D01*
X-14878060Y-2570600D01*
X-14878060Y-2805200D01*
X-14725660Y-2957600D01*
X-13821420Y-2957600D01*
X-13821420Y-3262400D01*
X-14725660Y-3262400D01*
X-14878060Y-3414800D01*
X-14878060Y-3649400D01*
X-14878060Y-3769481D01*
X-14854633Y-3887254D01*
X-14808680Y-3998194D01*
X-14741967Y-4098038D01*
X-14657057Y-4182947D01*
X-14557214Y-4249661D01*
X-14446273Y-4295613D01*
X-14328500Y-4319040D01*
X-13973820Y-4319040D01*
X-13821420Y-4166640D01*
X-13821420Y-14092335D01*
X-14227343Y-13747741D01*
X-15195911Y-12669071D01*
X-15467405Y-12268075D01*
X-15648340Y-11839746D01*
X-15745426Y-11370937D01*
X-15759067Y-11114910D01*
X-15759067Y9008698D01*
X-15709935Y9500949D01*
X-15574764Y9945843D01*
X-15355758Y10356007D01*
X-15061252Y10715822D01*
X-14702469Y11011581D01*
X-14293066Y11232021D01*
X-13848651Y11368741D01*
X-13357301Y11419516D01*
X-10756886Y11419516D01*
X-10756773Y11419528D01*
X-10754737Y11419520D01*
X-10731001Y11419603D01*
X-10704293Y11422317D01*
X-10677447Y11422129D01*
X-10668907Y11422966D01*
X-10008978Y11492327D01*
X-9954425Y11503526D01*
X-9899694Y11513966D01*
X-9891480Y11516446D01*
X-9891479Y11516446D01*
X-9257591Y11712667D01*
X-9206283Y11734236D01*
X-9154591Y11755120D01*
X-9147015Y11759149D01*
X-9147014Y11759149D01*
X-8563311Y12074756D01*
X-8517121Y12105912D01*
X-8470519Y12136407D01*
X-8463877Y12141826D01*
X-8463869Y12141830D01*
X-8463869Y12141831D01*
X-8463864Y12141836D01*
X-7952584Y12564802D01*
X-7913320Y12604343D01*
X-7873534Y12643303D01*
X-7868065Y12649914D01*
X-7868064Y12649915D01*
X-7448673Y13164140D01*
X-7417869Y13210505D01*
X-7386376Y13256499D01*
X-7382295Y13264047D01*
X-7382295Y13264048D01*
X-7070770Y13849939D01*
X-7049550Y13901424D01*
X-7027598Y13952641D01*
X-7025061Y13960837D01*
X-7025060Y13960838D01*
X-6833270Y14596080D01*
X-6822460Y14650677D01*
X-6810868Y14705211D01*
X-6809972Y14713743D01*
X-6809971Y14713744D01*
X-6809971Y14713745D01*
X-6745219Y15374142D01*
X-6745219Y15399921D01*
X-6742346Y15425535D01*
X-6742286Y15434116D01*
X-6742286Y15936688D01*
X-6691731Y16446615D01*
X-6653870Y16602969D01*
X-6619937Y16688676D01*
X-6579500Y16751420D01*
X-6527651Y16805112D01*
X-6466359Y16847710D01*
X-6397960Y16877594D01*
X-6313441Y16896176D01*
X-6261541Y16899259D01*
X-827252Y16899259D01*
X-849375Y16866948D01*
X-923896Y16693077D01*
X-963226Y16508043D01*
X-965868Y16318894D01*
X-931719Y16132834D01*
X-862082Y15956950D01*
X-759608Y15797942D01*
X-628201Y15661866D01*
X-472866Y15553905D01*
X-348530Y15499584D01*
X-449058Y15458968D01*
X-607346Y15355387D01*
X-742502Y15223033D01*
X-849375Y15066948D01*
X-923896Y14893077D01*
X-963226Y14708043D01*
X-965868Y14518894D01*
X-931719Y14332834D01*
X-862082Y14156950D01*
X-759608Y13997942D01*
X-628201Y13861866D01*
X-472866Y13753905D01*
X-299520Y13678172D01*
X-114765Y13637551D01*
X74361Y13633590D01*
X260655Y13666438D01*
X437021Y13734846D01*
X596740Y13836207D01*
X733730Y13966661D01*
X842773Y14121238D01*
X919714Y14294052D01*
X961624Y14478519D01*
X964641Y14694584D01*
X927898Y14880149D01*
X855812Y15055043D01*
X751128Y15212605D01*
X617834Y15346833D01*
X461007Y15452614D01*
X347753Y15500222D01*
X437021Y15534846D01*
X596740Y15636207D01*
X733730Y15766661D01*
X842773Y15921238D01*
X919714Y16094052D01*
X961624Y16278519D01*
X964641Y16494584D01*
X927898Y16680149D01*
X855812Y16855043D01*
X826434Y16899259D01*
X3350000Y16899259D01*
X3363917Y16900624D01*
X3377878Y16899892D01*
X3386447Y16900341D01*
X3504851Y16907375D01*
X3548258Y16914250D01*
X3591987Y16918846D01*
X3600380Y16920630D01*
X3790994Y16962539D01*
X3844017Y16979768D01*
X3897185Y16996226D01*
X3905069Y16999605D01*
X3905071Y16999605D01*
X3905072Y16999606D01*
X3905073Y16999606D01*
X4083915Y17077741D01*
X4132518Y17104905D01*
X4181541Y17131411D01*
X4188621Y17136259D01*
X4348882Y17247643D01*
X4391297Y17283743D01*
X4434221Y17319251D01*
X4440225Y17325382D01*
X4440227Y17325385D01*
X4575799Y17465773D01*
X4610405Y17509435D01*
X4645607Y17552597D01*
X4650303Y17559773D01*
X4650305Y17559775D01*
X4650306Y17559777D01*
X4650306Y17559778D01*
X4756029Y17723827D01*
X4781479Y17773349D01*
X4807644Y17822557D01*
X4810857Y17830511D01*
X4810858Y17830513D01*
X4882703Y18011974D01*
X4883072Y18013264D01*
X4932726Y18138677D01*
X4973163Y18201421D01*
X5025012Y18255113D01*
X5086304Y18297711D01*
X5154703Y18327595D01*
X5239222Y18346177D01*
X5291122Y18349260D01*
X6893982Y18349260D01*
X7386551Y18300599D01*
X7857913Y18157909D01*
X7871240Y18152267D01*
X11269827Y16258426D01*
X14227342Y13747742D01*
X15195913Y12669068D01*
X15467407Y12268073D01*
X15648339Y11839747D01*
X15745425Y11370938D01*
X15759067Y11114911D01*
X15759067Y-9008697D01*
G36*
X-7467600Y-5994400D02*
X-11133916Y-5994400D01*
X-11582400Y-5545916D01*
X-11582400Y-4065040D01*
X-10936516Y-4065040D01*
X-10867815Y-4051374D01*
X-10803100Y-4024568D01*
X-10744858Y-3985652D01*
X-10695327Y-3936121D01*
X-10656411Y-3877879D01*
X-10629605Y-3813164D01*
X-10615940Y-3744463D01*
X-10615940Y-3674416D01*
X-10615940Y-2475536D01*
X-10629606Y-2406835D01*
X-10656412Y-2342120D01*
X-10695328Y-2283878D01*
X-10744859Y-2234347D01*
X-10803101Y-2195431D01*
X-10867816Y-2168625D01*
X-10907123Y-2160806D01*
X-9499600Y-753284D01*
X-9499600Y-2387600D01*
X-7467600Y-2387600D01*
X-7467600Y-5994400D01*
X-7467600Y-5994400D01*
G37*
X-7467600Y-5994400D02*
X-11133916Y-5994400D01*
X-11582400Y-5545916D01*
X-11582400Y-4065040D01*
X-10936516Y-4065040D01*
X-10867815Y-4051374D01*
X-10803100Y-4024568D01*
X-10744858Y-3985652D01*
X-10695327Y-3936121D01*
X-10656411Y-3877879D01*
X-10629605Y-3813164D01*
X-10615940Y-3744463D01*
X-10615940Y-3674416D01*
X-10615940Y-2475536D01*
X-10629606Y-2406835D01*
X-10656412Y-2342120D01*
X-10695328Y-2283878D01*
X-10744859Y-2234347D01*
X-10803101Y-2195431D01*
X-10867816Y-2168625D01*
X-10907123Y-2160806D01*
X-9499600Y-753284D01*
X-9499600Y-2387600D01*
X-7467600Y-2387600D01*
X-7467600Y-5994400D01*
M02*
