%FSLAX46Y46*%
G04 Gerber Fmt 4.6, Leading zero omitted, Abs format (unit mm)*
G04 Created by KiCad (PCBNEW (2014-jul-16 BZR unknown)-product) date Fri 15 May 2015 05:11:27 PM EDT*
%MOMM*%
G01*
G04 APERTURE LIST*
%ADD10C,0.150000*%
%ADD11C,0.010000*%
G04 APERTURE END LIST*
D10*
D11*
X-6279774Y17513859D02*
X3350000Y17513859D01*
X-7241037Y16789496D02*
G75*
G02X-6279774Y17513859I961263J-275638D01*
G74*
G01*
X-7356884Y15967105D02*
G75*
G02X-7241219Y16788858I2999998J-3246D01*
G74*
G01*
X-7356886Y15963859D02*
X-7356886Y15434116D01*
X-7356886Y15434116D02*
G75*
G02X-10756886Y12034116I-3400000J0D01*
G74*
G01*
X-10756886Y12034116D02*
X-13373666Y12034116D01*
X-16373661Y9039352D02*
G75*
G02X-13373666Y12034116I2999995J-5236D01*
G74*
G01*
X-16373667Y9034116D02*
X-16373667Y-11131265D01*
X-15681866Y-13047567D02*
G75*
G02X-16373667Y-11131265I2308197J1916302D01*
G74*
G01*
X-8143775Y-18703981D02*
G75*
G02X-15679470Y-13050448I8143775J18703983D01*
G74*
G01*
X-6924282Y-18963859D02*
G75*
G02X-8115544Y-18716248I2203J2999999D01*
G74*
G01*
X-6922082Y-18963860D02*
X-5272889Y-18963860D01*
X-4311626Y-18239497D02*
G75*
G02X-5272889Y-18963860I-961263J275638D01*
G74*
G01*
X-4311262Y-18238222D02*
G75*
G02X-3350000Y-17513859I961262J-275637D01*
G74*
G01*
X6279774Y-17513859D02*
X-3350000Y-17513859D01*
X7241037Y-16789496D02*
G75*
G02X6279774Y-17513859I-961263J275638D01*
G74*
G01*
X7356884Y-15967105D02*
G75*
G02X7241219Y-16788858I-2999998J3246D01*
G74*
G01*
X7356886Y-15963859D02*
X7356886Y-15434116D01*
X7356886Y-15434116D02*
G75*
G02X10756886Y-12034116I3400000J0D01*
G74*
G01*
X10756886Y-12034116D02*
X13373666Y-12034116D01*
X16373661Y-9039352D02*
G75*
G02X13373666Y-12034116I-2999995J5236D01*
G74*
G01*
X16373667Y-9034116D02*
X16373667Y11131265D01*
X15681866Y13047567D02*
G75*
G02X16373667Y11131265I-2308197J-1916302D01*
G74*
G01*
X8143775Y18703981D02*
G75*
G02X15679470Y13050448I-8143775J-18703983D01*
G74*
G01*
X6924282Y18963859D02*
G75*
G02X8115544Y18716248I-2203J-2999999D01*
G74*
G01*
X6922082Y18963860D02*
X5272889Y18963860D01*
X4311626Y18239497D02*
G75*
G02X5272889Y18963860I961263J-275638D01*
G74*
G01*
X4311262Y18238222D02*
G75*
G02X3350000Y17513859I-961262J275637D01*
G74*
G01*
M02*
