%FSLAX46Y46*%
G04 Gerber Fmt 4.6, Leading zero omitted, Abs format (unit mm)*
G04 Created by KiCad (PCBNEW (2014-jul-16 BZR unknown)-product) date Fri 15 May 2015 05:11:27 PM EDT*
%MOMM*%
G01*
G04 APERTURE LIST*
%ADD10C,0.150000*%
%ADD11C,0.010000*%
%ADD12R,1.198880X1.198880*%
%ADD13C,0.710000*%
%ADD14C,20.000000*%
%ADD15C,0.889000*%
%ADD16C,0.203200*%
G04 APERTURE END LIST*
D10*
D11*
X-6279774Y17513859D02*
X3350000Y17513859D01*
X-7241037Y16789496D02*
G75*
G02X-6279774Y17513859I961263J-275638D01*
G74*
G01*
X-7356884Y15967105D02*
G75*
G02X-7241219Y16788858I2999998J-3246D01*
G74*
G01*
X-7356886Y15963859D02*
X-7356886Y15434116D01*
X-7356886Y15434116D02*
G75*
G02X-10756886Y12034116I-3400000J0D01*
G74*
G01*
X-10756886Y12034116D02*
X-13373666Y12034116D01*
X-16373661Y9039352D02*
G75*
G02X-13373666Y12034116I2999995J-5236D01*
G74*
G01*
X-16373667Y9034116D02*
X-16373667Y-11131265D01*
X-15681866Y-13047567D02*
G75*
G02X-16373667Y-11131265I2308197J1916302D01*
G74*
G01*
X-8143775Y-18703981D02*
G75*
G02X-15679470Y-13050448I8143775J18703983D01*
G74*
G01*
X-6924282Y-18963859D02*
G75*
G02X-8115544Y-18716248I2203J2999999D01*
G74*
G01*
X-6922082Y-18963860D02*
X-5272889Y-18963860D01*
X-4311626Y-18239497D02*
G75*
G02X-5272889Y-18963860I-961263J275638D01*
G74*
G01*
X-4311262Y-18238222D02*
G75*
G02X-3350000Y-17513859I961262J-275637D01*
G74*
G01*
X6279774Y-17513859D02*
X-3350000Y-17513859D01*
X7241037Y-16789496D02*
G75*
G02X6279774Y-17513859I-961263J275638D01*
G74*
G01*
X7356884Y-15967105D02*
G75*
G02X7241219Y-16788858I-2999998J3246D01*
G74*
G01*
X7356886Y-15963859D02*
X7356886Y-15434116D01*
X7356886Y-15434116D02*
G75*
G02X10756886Y-12034116I3400000J0D01*
G74*
G01*
X10756886Y-12034116D02*
X13373666Y-12034116D01*
X16373661Y-9039352D02*
G75*
G02X13373666Y-12034116I-2999995J5236D01*
G74*
G01*
X16373667Y-9034116D02*
X16373667Y11131265D01*
X15681866Y13047567D02*
G75*
G02X16373667Y11131265I-2308197J-1916302D01*
G74*
G01*
X8143775Y18703981D02*
G75*
G02X15679470Y13050448I-8143775J-18703983D01*
G74*
G01*
X6924282Y18963859D02*
G75*
G02X8115544Y18716248I-2203J-2999999D01*
G74*
G01*
X6922082Y18963860D02*
X5272889Y18963860D01*
X4311626Y18239497D02*
G75*
G02X5272889Y18963860I961263J-275638D01*
G74*
G01*
X4311262Y18238222D02*
G75*
G02X3350000Y17513859I-961262J275637D01*
G74*
G01*
D10*
X7877840Y-10999720D02*
X7877840Y-11324840D01*
X7877840Y-11324840D02*
X8378220Y-11324840D01*
X8378220Y-10999720D02*
X8378220Y-11324840D01*
X7877840Y-10999720D02*
X8378220Y-10999720D01*
X7877840Y-10377420D02*
X7877840Y-10527280D01*
X7877840Y-10527280D02*
X8129300Y-10527280D01*
X8129300Y-10377420D02*
X8129300Y-10527280D01*
X7877840Y-10377420D02*
X8129300Y-10377420D01*
X7877840Y-10872720D02*
X7877840Y-11022580D01*
X7877840Y-11022580D02*
X8129300Y-11022580D01*
X8129300Y-10872720D02*
X8129300Y-11022580D01*
X7877840Y-10872720D02*
X8129300Y-10872720D01*
X7877840Y-10501880D02*
X7877840Y-10898120D01*
X7877840Y-10898120D02*
X8053100Y-10898120D01*
X8053100Y-10501880D02*
X8053100Y-10898120D01*
X7877840Y-10501880D02*
X8053100Y-10501880D01*
X6381780Y-10999720D02*
X6381780Y-11324840D01*
X6381780Y-11324840D02*
X6882160Y-11324840D01*
X6882160Y-10999720D02*
X6882160Y-11324840D01*
X6381780Y-10999720D02*
X6882160Y-10999720D01*
X6381780Y-10075160D02*
X6381780Y-10400280D01*
X6381780Y-10400280D02*
X6882160Y-10400280D01*
X6882160Y-10075160D02*
X6882160Y-10400280D01*
X6381780Y-10075160D02*
X6882160Y-10075160D01*
X6630700Y-10872720D02*
X6630700Y-11022580D01*
X6630700Y-11022580D02*
X6882160Y-11022580D01*
X6882160Y-10872720D02*
X6882160Y-11022580D01*
X6630700Y-10872720D02*
X6882160Y-10872720D01*
X6630700Y-10377420D02*
X6630700Y-10527280D01*
X6630700Y-10527280D02*
X6882160Y-10527280D01*
X6882160Y-10377420D02*
X6882160Y-10527280D01*
X6630700Y-10377420D02*
X6882160Y-10377420D01*
X6706900Y-10501880D02*
X6706900Y-10898120D01*
X6706900Y-10898120D02*
X6882160Y-10898120D01*
X6882160Y-10501880D02*
X6882160Y-10898120D01*
X6706900Y-10501880D02*
X6882160Y-10501880D01*
X7380000Y-10600940D02*
X7380000Y-10799060D01*
X7380000Y-10799060D02*
X7578120Y-10799060D01*
X7578120Y-10600940D02*
X7578120Y-10799060D01*
X7380000Y-10600940D02*
X7578120Y-10600940D01*
X7877840Y-10100560D02*
X7877840Y-10400280D01*
X7877840Y-10400280D02*
X8177560Y-10400280D01*
X8177560Y-10100560D02*
X8177560Y-10400280D01*
X7877840Y-10100560D02*
X8177560Y-10100560D01*
X8304560Y-10075160D02*
X8304560Y-10301220D01*
X8304560Y-10301220D02*
X8378220Y-10301220D01*
X8378220Y-10075160D02*
X8378220Y-10301220D01*
X8304560Y-10075160D02*
X8378220Y-10075160D01*
X7903240Y-11274040D02*
X6856760Y-11274040D01*
X6882160Y-10125960D02*
X8304560Y-10125960D01*
X8300202Y-10250420D02*
G75*
G03X8300202Y-10250420I-71842J0D01*
G74*
G01*
X8378220Y-10352020D02*
G75*
G03X8378220Y-11047980I0J-347980D01*
G74*
G01*
X6381780Y-11047980D02*
G75*
G03X6381780Y-10352020I0J347980D01*
G74*
G01*
X12007840Y-6339720D02*
X12007840Y-6664840D01*
X12007840Y-6664840D02*
X12508220Y-6664840D01*
X12508220Y-6339720D02*
X12508220Y-6664840D01*
X12007840Y-6339720D02*
X12508220Y-6339720D01*
X12007840Y-5717420D02*
X12007840Y-5867280D01*
X12007840Y-5867280D02*
X12259300Y-5867280D01*
X12259300Y-5717420D02*
X12259300Y-5867280D01*
X12007840Y-5717420D02*
X12259300Y-5717420D01*
X12007840Y-6212720D02*
X12007840Y-6362580D01*
X12007840Y-6362580D02*
X12259300Y-6362580D01*
X12259300Y-6212720D02*
X12259300Y-6362580D01*
X12007840Y-6212720D02*
X12259300Y-6212720D01*
X12007840Y-5841880D02*
X12007840Y-6238120D01*
X12007840Y-6238120D02*
X12183100Y-6238120D01*
X12183100Y-5841880D02*
X12183100Y-6238120D01*
X12007840Y-5841880D02*
X12183100Y-5841880D01*
X10511780Y-6339720D02*
X10511780Y-6664840D01*
X10511780Y-6664840D02*
X11012160Y-6664840D01*
X11012160Y-6339720D02*
X11012160Y-6664840D01*
X10511780Y-6339720D02*
X11012160Y-6339720D01*
X10511780Y-5415160D02*
X10511780Y-5740280D01*
X10511780Y-5740280D02*
X11012160Y-5740280D01*
X11012160Y-5415160D02*
X11012160Y-5740280D01*
X10511780Y-5415160D02*
X11012160Y-5415160D01*
X10760700Y-6212720D02*
X10760700Y-6362580D01*
X10760700Y-6362580D02*
X11012160Y-6362580D01*
X11012160Y-6212720D02*
X11012160Y-6362580D01*
X10760700Y-6212720D02*
X11012160Y-6212720D01*
X10760700Y-5717420D02*
X10760700Y-5867280D01*
X10760700Y-5867280D02*
X11012160Y-5867280D01*
X11012160Y-5717420D02*
X11012160Y-5867280D01*
X10760700Y-5717420D02*
X11012160Y-5717420D01*
X10836900Y-5841880D02*
X10836900Y-6238120D01*
X10836900Y-6238120D02*
X11012160Y-6238120D01*
X11012160Y-5841880D02*
X11012160Y-6238120D01*
X10836900Y-5841880D02*
X11012160Y-5841880D01*
X11510000Y-5940940D02*
X11510000Y-6139060D01*
X11510000Y-6139060D02*
X11708120Y-6139060D01*
X11708120Y-5940940D02*
X11708120Y-6139060D01*
X11510000Y-5940940D02*
X11708120Y-5940940D01*
X12007840Y-5440560D02*
X12007840Y-5740280D01*
X12007840Y-5740280D02*
X12307560Y-5740280D01*
X12307560Y-5440560D02*
X12307560Y-5740280D01*
X12007840Y-5440560D02*
X12307560Y-5440560D01*
X12434560Y-5415160D02*
X12434560Y-5641220D01*
X12434560Y-5641220D02*
X12508220Y-5641220D01*
X12508220Y-5415160D02*
X12508220Y-5641220D01*
X12434560Y-5415160D02*
X12508220Y-5415160D01*
X12033240Y-6614040D02*
X10986760Y-6614040D01*
X11012160Y-5465960D02*
X12434560Y-5465960D01*
X12430202Y-5590420D02*
G75*
G03X12430202Y-5590420I-71842J0D01*
G74*
G01*
X12508220Y-5692020D02*
G75*
G03X12508220Y-6387980I0J-347980D01*
G74*
G01*
X10511780Y-6387980D02*
G75*
G03X10511780Y-5692020I0J347980D01*
G74*
G01*
X13497840Y-299720D02*
X13497840Y-624840D01*
X13497840Y-624840D02*
X13998220Y-624840D01*
X13998220Y-299720D02*
X13998220Y-624840D01*
X13497840Y-299720D02*
X13998220Y-299720D01*
X13497840Y322580D02*
X13497840Y172720D01*
X13497840Y172720D02*
X13749300Y172720D01*
X13749300Y322580D02*
X13749300Y172720D01*
X13497840Y322580D02*
X13749300Y322580D01*
X13497840Y-172720D02*
X13497840Y-322580D01*
X13497840Y-322580D02*
X13749300Y-322580D01*
X13749300Y-172720D02*
X13749300Y-322580D01*
X13497840Y-172720D02*
X13749300Y-172720D01*
X13497840Y198120D02*
X13497840Y-198120D01*
X13497840Y-198120D02*
X13673100Y-198120D01*
X13673100Y198120D02*
X13673100Y-198120D01*
X13497840Y198120D02*
X13673100Y198120D01*
X12001780Y-299720D02*
X12001780Y-624840D01*
X12001780Y-624840D02*
X12502160Y-624840D01*
X12502160Y-299720D02*
X12502160Y-624840D01*
X12001780Y-299720D02*
X12502160Y-299720D01*
X12001780Y624840D02*
X12001780Y299720D01*
X12001780Y299720D02*
X12502160Y299720D01*
X12502160Y624840D02*
X12502160Y299720D01*
X12001780Y624840D02*
X12502160Y624840D01*
X12250700Y-172720D02*
X12250700Y-322580D01*
X12250700Y-322580D02*
X12502160Y-322580D01*
X12502160Y-172720D02*
X12502160Y-322580D01*
X12250700Y-172720D02*
X12502160Y-172720D01*
X12250700Y322580D02*
X12250700Y172720D01*
X12250700Y172720D02*
X12502160Y172720D01*
X12502160Y322580D02*
X12502160Y172720D01*
X12250700Y322580D02*
X12502160Y322580D01*
X12326900Y198120D02*
X12326900Y-198120D01*
X12326900Y-198120D02*
X12502160Y-198120D01*
X12502160Y198120D02*
X12502160Y-198120D01*
X12326900Y198120D02*
X12502160Y198120D01*
X13000000Y99060D02*
X13000000Y-99060D01*
X13000000Y-99060D02*
X13198120Y-99060D01*
X13198120Y99060D02*
X13198120Y-99060D01*
X13000000Y99060D02*
X13198120Y99060D01*
X13497840Y599440D02*
X13497840Y299720D01*
X13497840Y299720D02*
X13797560Y299720D01*
X13797560Y599440D02*
X13797560Y299720D01*
X13497840Y599440D02*
X13797560Y599440D01*
X13924560Y624840D02*
X13924560Y398780D01*
X13924560Y398780D02*
X13998220Y398780D01*
X13998220Y624840D02*
X13998220Y398780D01*
X13924560Y624840D02*
X13998220Y624840D01*
X13523240Y-574040D02*
X12476760Y-574040D01*
X12502160Y574040D02*
X13924560Y574040D01*
X13920202Y449580D02*
G75*
G03X13920202Y449580I-71842J0D01*
G74*
G01*
X13998220Y347980D02*
G75*
G03X13998220Y-347980I0J-347980D01*
G74*
G01*
X12001780Y-347980D02*
G75*
G03X12001780Y347980I0J347980D01*
G74*
G01*
X12107840Y5740280D02*
X12107840Y5415160D01*
X12107840Y5415160D02*
X12608220Y5415160D01*
X12608220Y5740280D02*
X12608220Y5415160D01*
X12107840Y5740280D02*
X12608220Y5740280D01*
X12107840Y6362580D02*
X12107840Y6212720D01*
X12107840Y6212720D02*
X12359300Y6212720D01*
X12359300Y6362580D02*
X12359300Y6212720D01*
X12107840Y6362580D02*
X12359300Y6362580D01*
X12107840Y5867280D02*
X12107840Y5717420D01*
X12107840Y5717420D02*
X12359300Y5717420D01*
X12359300Y5867280D02*
X12359300Y5717420D01*
X12107840Y5867280D02*
X12359300Y5867280D01*
X12107840Y6238120D02*
X12107840Y5841880D01*
X12107840Y5841880D02*
X12283100Y5841880D01*
X12283100Y6238120D02*
X12283100Y5841880D01*
X12107840Y6238120D02*
X12283100Y6238120D01*
X10611780Y5740280D02*
X10611780Y5415160D01*
X10611780Y5415160D02*
X11112160Y5415160D01*
X11112160Y5740280D02*
X11112160Y5415160D01*
X10611780Y5740280D02*
X11112160Y5740280D01*
X10611780Y6664840D02*
X10611780Y6339720D01*
X10611780Y6339720D02*
X11112160Y6339720D01*
X11112160Y6664840D02*
X11112160Y6339720D01*
X10611780Y6664840D02*
X11112160Y6664840D01*
X10860700Y5867280D02*
X10860700Y5717420D01*
X10860700Y5717420D02*
X11112160Y5717420D01*
X11112160Y5867280D02*
X11112160Y5717420D01*
X10860700Y5867280D02*
X11112160Y5867280D01*
X10860700Y6362580D02*
X10860700Y6212720D01*
X10860700Y6212720D02*
X11112160Y6212720D01*
X11112160Y6362580D02*
X11112160Y6212720D01*
X10860700Y6362580D02*
X11112160Y6362580D01*
X10936900Y6238120D02*
X10936900Y5841880D01*
X10936900Y5841880D02*
X11112160Y5841880D01*
X11112160Y6238120D02*
X11112160Y5841880D01*
X10936900Y6238120D02*
X11112160Y6238120D01*
X11610000Y6139060D02*
X11610000Y5940940D01*
X11610000Y5940940D02*
X11808120Y5940940D01*
X11808120Y6139060D02*
X11808120Y5940940D01*
X11610000Y6139060D02*
X11808120Y6139060D01*
X12107840Y6639440D02*
X12107840Y6339720D01*
X12107840Y6339720D02*
X12407560Y6339720D01*
X12407560Y6639440D02*
X12407560Y6339720D01*
X12107840Y6639440D02*
X12407560Y6639440D01*
X12534560Y6664840D02*
X12534560Y6438780D01*
X12534560Y6438780D02*
X12608220Y6438780D01*
X12608220Y6664840D02*
X12608220Y6438780D01*
X12534560Y6664840D02*
X12608220Y6664840D01*
X12133240Y5465960D02*
X11086760Y5465960D01*
X11112160Y6614040D02*
X12534560Y6614040D01*
X12530202Y6489580D02*
G75*
G03X12530202Y6489580I-71842J0D01*
G74*
G01*
X12608220Y6387980D02*
G75*
G03X12608220Y5692020I0J-347980D01*
G74*
G01*
X10611780Y5692020D02*
G75*
G03X10611780Y6387980I0J347980D01*
G74*
G01*
X7877840Y10400280D02*
X7877840Y10075160D01*
X7877840Y10075160D02*
X8378220Y10075160D01*
X8378220Y10400280D02*
X8378220Y10075160D01*
X7877840Y10400280D02*
X8378220Y10400280D01*
X7877840Y11022580D02*
X7877840Y10872720D01*
X7877840Y10872720D02*
X8129300Y10872720D01*
X8129300Y11022580D02*
X8129300Y10872720D01*
X7877840Y11022580D02*
X8129300Y11022580D01*
X7877840Y10527280D02*
X7877840Y10377420D01*
X7877840Y10377420D02*
X8129300Y10377420D01*
X8129300Y10527280D02*
X8129300Y10377420D01*
X7877840Y10527280D02*
X8129300Y10527280D01*
X7877840Y10898120D02*
X7877840Y10501880D01*
X7877840Y10501880D02*
X8053100Y10501880D01*
X8053100Y10898120D02*
X8053100Y10501880D01*
X7877840Y10898120D02*
X8053100Y10898120D01*
X6381780Y10400280D02*
X6381780Y10075160D01*
X6381780Y10075160D02*
X6882160Y10075160D01*
X6882160Y10400280D02*
X6882160Y10075160D01*
X6381780Y10400280D02*
X6882160Y10400280D01*
X6381780Y11324840D02*
X6381780Y10999720D01*
X6381780Y10999720D02*
X6882160Y10999720D01*
X6882160Y11324840D02*
X6882160Y10999720D01*
X6381780Y11324840D02*
X6882160Y11324840D01*
X6630700Y10527280D02*
X6630700Y10377420D01*
X6630700Y10377420D02*
X6882160Y10377420D01*
X6882160Y10527280D02*
X6882160Y10377420D01*
X6630700Y10527280D02*
X6882160Y10527280D01*
X6630700Y11022580D02*
X6630700Y10872720D01*
X6630700Y10872720D02*
X6882160Y10872720D01*
X6882160Y11022580D02*
X6882160Y10872720D01*
X6630700Y11022580D02*
X6882160Y11022580D01*
X6706900Y10898120D02*
X6706900Y10501880D01*
X6706900Y10501880D02*
X6882160Y10501880D01*
X6882160Y10898120D02*
X6882160Y10501880D01*
X6706900Y10898120D02*
X6882160Y10898120D01*
X7380000Y10799060D02*
X7380000Y10600940D01*
X7380000Y10600940D02*
X7578120Y10600940D01*
X7578120Y10799060D02*
X7578120Y10600940D01*
X7380000Y10799060D02*
X7578120Y10799060D01*
X7877840Y11299440D02*
X7877840Y10999720D01*
X7877840Y10999720D02*
X8177560Y10999720D01*
X8177560Y11299440D02*
X8177560Y10999720D01*
X7877840Y11299440D02*
X8177560Y11299440D01*
X8304560Y11324840D02*
X8304560Y11098780D01*
X8304560Y11098780D02*
X8378220Y11098780D01*
X8378220Y11324840D02*
X8378220Y11098780D01*
X8304560Y11324840D02*
X8378220Y11324840D01*
X7903240Y10125960D02*
X6856760Y10125960D01*
X6882160Y11274040D02*
X8304560Y11274040D01*
X8300202Y11149580D02*
G75*
G03X8300202Y11149580I-71842J0D01*
G74*
G01*
X8378220Y11047980D02*
G75*
G03X8378220Y10352020I0J-347980D01*
G74*
G01*
X6381780Y10352020D02*
G75*
G03X6381780Y11047980I0J347980D01*
G74*
G01*
X-5107840Y12459720D02*
X-5107840Y12784840D01*
X-5107840Y12784840D02*
X-5608220Y12784840D01*
X-5608220Y12459720D02*
X-5608220Y12784840D01*
X-5107840Y12459720D02*
X-5608220Y12459720D01*
X-5107840Y11837420D02*
X-5107840Y11987280D01*
X-5107840Y11987280D02*
X-5359300Y11987280D01*
X-5359300Y11837420D02*
X-5359300Y11987280D01*
X-5107840Y11837420D02*
X-5359300Y11837420D01*
X-5107840Y12332720D02*
X-5107840Y12482580D01*
X-5107840Y12482580D02*
X-5359300Y12482580D01*
X-5359300Y12332720D02*
X-5359300Y12482580D01*
X-5107840Y12332720D02*
X-5359300Y12332720D01*
X-5107840Y11961880D02*
X-5107840Y12358120D01*
X-5107840Y12358120D02*
X-5283100Y12358120D01*
X-5283100Y11961880D02*
X-5283100Y12358120D01*
X-5107840Y11961880D02*
X-5283100Y11961880D01*
X-3611780Y12459720D02*
X-3611780Y12784840D01*
X-3611780Y12784840D02*
X-4112160Y12784840D01*
X-4112160Y12459720D02*
X-4112160Y12784840D01*
X-3611780Y12459720D02*
X-4112160Y12459720D01*
X-3611780Y11535160D02*
X-3611780Y11860280D01*
X-3611780Y11860280D02*
X-4112160Y11860280D01*
X-4112160Y11535160D02*
X-4112160Y11860280D01*
X-3611780Y11535160D02*
X-4112160Y11535160D01*
X-3860700Y12332720D02*
X-3860700Y12482580D01*
X-3860700Y12482580D02*
X-4112160Y12482580D01*
X-4112160Y12332720D02*
X-4112160Y12482580D01*
X-3860700Y12332720D02*
X-4112160Y12332720D01*
X-3860700Y11837420D02*
X-3860700Y11987280D01*
X-3860700Y11987280D02*
X-4112160Y11987280D01*
X-4112160Y11837420D02*
X-4112160Y11987280D01*
X-3860700Y11837420D02*
X-4112160Y11837420D01*
X-3936900Y11961880D02*
X-3936900Y12358120D01*
X-3936900Y12358120D02*
X-4112160Y12358120D01*
X-4112160Y11961880D02*
X-4112160Y12358120D01*
X-3936900Y11961880D02*
X-4112160Y11961880D01*
X-4610000Y12060940D02*
X-4610000Y12259060D01*
X-4610000Y12259060D02*
X-4808120Y12259060D01*
X-4808120Y12060940D02*
X-4808120Y12259060D01*
X-4610000Y12060940D02*
X-4808120Y12060940D01*
X-5107840Y11560560D02*
X-5107840Y11860280D01*
X-5107840Y11860280D02*
X-5407560Y11860280D01*
X-5407560Y11560560D02*
X-5407560Y11860280D01*
X-5107840Y11560560D02*
X-5407560Y11560560D01*
X-5534560Y11535160D02*
X-5534560Y11761220D01*
X-5534560Y11761220D02*
X-5608220Y11761220D01*
X-5608220Y11535160D02*
X-5608220Y11761220D01*
X-5534560Y11535160D02*
X-5608220Y11535160D01*
X-5133240Y12734040D02*
X-4086760Y12734040D01*
X-4112160Y11585960D02*
X-5534560Y11585960D01*
X-5386518Y11710420D02*
G75*
G03X-5386518Y11710420I-71842J0D01*
G74*
G01*
X-5608220Y11812020D02*
G75*
G03X-5608220Y12507980I0J347980D01*
G74*
G01*
X-3611780Y12507980D02*
G75*
G03X-3611780Y11812020I0J-347980D01*
G74*
G01*
X-10227840Y8919720D02*
X-10227840Y9244840D01*
X-10227840Y9244840D02*
X-10728220Y9244840D01*
X-10728220Y8919720D02*
X-10728220Y9244840D01*
X-10227840Y8919720D02*
X-10728220Y8919720D01*
X-10227840Y8297420D02*
X-10227840Y8447280D01*
X-10227840Y8447280D02*
X-10479300Y8447280D01*
X-10479300Y8297420D02*
X-10479300Y8447280D01*
X-10227840Y8297420D02*
X-10479300Y8297420D01*
X-10227840Y8792720D02*
X-10227840Y8942580D01*
X-10227840Y8942580D02*
X-10479300Y8942580D01*
X-10479300Y8792720D02*
X-10479300Y8942580D01*
X-10227840Y8792720D02*
X-10479300Y8792720D01*
X-10227840Y8421880D02*
X-10227840Y8818120D01*
X-10227840Y8818120D02*
X-10403100Y8818120D01*
X-10403100Y8421880D02*
X-10403100Y8818120D01*
X-10227840Y8421880D02*
X-10403100Y8421880D01*
X-8731780Y8919720D02*
X-8731780Y9244840D01*
X-8731780Y9244840D02*
X-9232160Y9244840D01*
X-9232160Y8919720D02*
X-9232160Y9244840D01*
X-8731780Y8919720D02*
X-9232160Y8919720D01*
X-8731780Y7995160D02*
X-8731780Y8320280D01*
X-8731780Y8320280D02*
X-9232160Y8320280D01*
X-9232160Y7995160D02*
X-9232160Y8320280D01*
X-8731780Y7995160D02*
X-9232160Y7995160D01*
X-8980700Y8792720D02*
X-8980700Y8942580D01*
X-8980700Y8942580D02*
X-9232160Y8942580D01*
X-9232160Y8792720D02*
X-9232160Y8942580D01*
X-8980700Y8792720D02*
X-9232160Y8792720D01*
X-8980700Y8297420D02*
X-8980700Y8447280D01*
X-8980700Y8447280D02*
X-9232160Y8447280D01*
X-9232160Y8297420D02*
X-9232160Y8447280D01*
X-8980700Y8297420D02*
X-9232160Y8297420D01*
X-9056900Y8421880D02*
X-9056900Y8818120D01*
X-9056900Y8818120D02*
X-9232160Y8818120D01*
X-9232160Y8421880D02*
X-9232160Y8818120D01*
X-9056900Y8421880D02*
X-9232160Y8421880D01*
X-9730000Y8520940D02*
X-9730000Y8719060D01*
X-9730000Y8719060D02*
X-9928120Y8719060D01*
X-9928120Y8520940D02*
X-9928120Y8719060D01*
X-9730000Y8520940D02*
X-9928120Y8520940D01*
X-10227840Y8020560D02*
X-10227840Y8320280D01*
X-10227840Y8320280D02*
X-10527560Y8320280D01*
X-10527560Y8020560D02*
X-10527560Y8320280D01*
X-10227840Y8020560D02*
X-10527560Y8020560D01*
X-10654560Y7995160D02*
X-10654560Y8221220D01*
X-10654560Y8221220D02*
X-10728220Y8221220D01*
X-10728220Y7995160D02*
X-10728220Y8221220D01*
X-10654560Y7995160D02*
X-10728220Y7995160D01*
X-10253240Y9194040D02*
X-9206760Y9194040D01*
X-9232160Y8045960D02*
X-10654560Y8045960D01*
X-10506518Y8170420D02*
G75*
G03X-10506518Y8170420I-71842J0D01*
G74*
G01*
X-10728220Y8272020D02*
G75*
G03X-10728220Y8967980I0J347980D01*
G74*
G01*
X-8731780Y8967980D02*
G75*
G03X-8731780Y8272020I0J-347980D01*
G74*
G01*
X-13117840Y3409720D02*
X-13117840Y3734840D01*
X-13117840Y3734840D02*
X-13618220Y3734840D01*
X-13618220Y3409720D02*
X-13618220Y3734840D01*
X-13117840Y3409720D02*
X-13618220Y3409720D01*
X-13117840Y2787420D02*
X-13117840Y2937280D01*
X-13117840Y2937280D02*
X-13369300Y2937280D01*
X-13369300Y2787420D02*
X-13369300Y2937280D01*
X-13117840Y2787420D02*
X-13369300Y2787420D01*
X-13117840Y3282720D02*
X-13117840Y3432580D01*
X-13117840Y3432580D02*
X-13369300Y3432580D01*
X-13369300Y3282720D02*
X-13369300Y3432580D01*
X-13117840Y3282720D02*
X-13369300Y3282720D01*
X-13117840Y2911880D02*
X-13117840Y3308120D01*
X-13117840Y3308120D02*
X-13293100Y3308120D01*
X-13293100Y2911880D02*
X-13293100Y3308120D01*
X-13117840Y2911880D02*
X-13293100Y2911880D01*
X-11621780Y3409720D02*
X-11621780Y3734840D01*
X-11621780Y3734840D02*
X-12122160Y3734840D01*
X-12122160Y3409720D02*
X-12122160Y3734840D01*
X-11621780Y3409720D02*
X-12122160Y3409720D01*
X-11621780Y2485160D02*
X-11621780Y2810280D01*
X-11621780Y2810280D02*
X-12122160Y2810280D01*
X-12122160Y2485160D02*
X-12122160Y2810280D01*
X-11621780Y2485160D02*
X-12122160Y2485160D01*
X-11870700Y3282720D02*
X-11870700Y3432580D01*
X-11870700Y3432580D02*
X-12122160Y3432580D01*
X-12122160Y3282720D02*
X-12122160Y3432580D01*
X-11870700Y3282720D02*
X-12122160Y3282720D01*
X-11870700Y2787420D02*
X-11870700Y2937280D01*
X-11870700Y2937280D02*
X-12122160Y2937280D01*
X-12122160Y2787420D02*
X-12122160Y2937280D01*
X-11870700Y2787420D02*
X-12122160Y2787420D01*
X-11946900Y2911880D02*
X-11946900Y3308120D01*
X-11946900Y3308120D02*
X-12122160Y3308120D01*
X-12122160Y2911880D02*
X-12122160Y3308120D01*
X-11946900Y2911880D02*
X-12122160Y2911880D01*
X-12620000Y3010940D02*
X-12620000Y3209060D01*
X-12620000Y3209060D02*
X-12818120Y3209060D01*
X-12818120Y3010940D02*
X-12818120Y3209060D01*
X-12620000Y3010940D02*
X-12818120Y3010940D01*
X-13117840Y2510560D02*
X-13117840Y2810280D01*
X-13117840Y2810280D02*
X-13417560Y2810280D01*
X-13417560Y2510560D02*
X-13417560Y2810280D01*
X-13117840Y2510560D02*
X-13417560Y2510560D01*
X-13544560Y2485160D02*
X-13544560Y2711220D01*
X-13544560Y2711220D02*
X-13618220Y2711220D01*
X-13618220Y2485160D02*
X-13618220Y2711220D01*
X-13544560Y2485160D02*
X-13618220Y2485160D01*
X-13143240Y3684040D02*
X-12096760Y3684040D01*
X-12122160Y2535960D02*
X-13544560Y2535960D01*
X-13396518Y2660420D02*
G75*
G03X-13396518Y2660420I-71842J0D01*
G74*
G01*
X-13618220Y2762020D02*
G75*
G03X-13618220Y3457980I0J347980D01*
G74*
G01*
X-11621780Y3457980D02*
G75*
G03X-11621780Y2762020I0J-347980D01*
G74*
G01*
X-13117840Y-2810280D02*
X-13117840Y-2485160D01*
X-13117840Y-2485160D02*
X-13618220Y-2485160D01*
X-13618220Y-2810280D02*
X-13618220Y-2485160D01*
X-13117840Y-2810280D02*
X-13618220Y-2810280D01*
X-13117840Y-3432580D02*
X-13117840Y-3282720D01*
X-13117840Y-3282720D02*
X-13369300Y-3282720D01*
X-13369300Y-3432580D02*
X-13369300Y-3282720D01*
X-13117840Y-3432580D02*
X-13369300Y-3432580D01*
X-13117840Y-2937280D02*
X-13117840Y-2787420D01*
X-13117840Y-2787420D02*
X-13369300Y-2787420D01*
X-13369300Y-2937280D02*
X-13369300Y-2787420D01*
X-13117840Y-2937280D02*
X-13369300Y-2937280D01*
X-13117840Y-3308120D02*
X-13117840Y-2911880D01*
X-13117840Y-2911880D02*
X-13293100Y-2911880D01*
X-13293100Y-3308120D02*
X-13293100Y-2911880D01*
X-13117840Y-3308120D02*
X-13293100Y-3308120D01*
X-11621780Y-2810280D02*
X-11621780Y-2485160D01*
X-11621780Y-2485160D02*
X-12122160Y-2485160D01*
X-12122160Y-2810280D02*
X-12122160Y-2485160D01*
X-11621780Y-2810280D02*
X-12122160Y-2810280D01*
X-11621780Y-3734840D02*
X-11621780Y-3409720D01*
X-11621780Y-3409720D02*
X-12122160Y-3409720D01*
X-12122160Y-3734840D02*
X-12122160Y-3409720D01*
X-11621780Y-3734840D02*
X-12122160Y-3734840D01*
X-11870700Y-2937280D02*
X-11870700Y-2787420D01*
X-11870700Y-2787420D02*
X-12122160Y-2787420D01*
X-12122160Y-2937280D02*
X-12122160Y-2787420D01*
X-11870700Y-2937280D02*
X-12122160Y-2937280D01*
X-11870700Y-3432580D02*
X-11870700Y-3282720D01*
X-11870700Y-3282720D02*
X-12122160Y-3282720D01*
X-12122160Y-3432580D02*
X-12122160Y-3282720D01*
X-11870700Y-3432580D02*
X-12122160Y-3432580D01*
X-11946900Y-3308120D02*
X-11946900Y-2911880D01*
X-11946900Y-2911880D02*
X-12122160Y-2911880D01*
X-12122160Y-3308120D02*
X-12122160Y-2911880D01*
X-11946900Y-3308120D02*
X-12122160Y-3308120D01*
X-12620000Y-3209060D02*
X-12620000Y-3010940D01*
X-12620000Y-3010940D02*
X-12818120Y-3010940D01*
X-12818120Y-3209060D02*
X-12818120Y-3010940D01*
X-12620000Y-3209060D02*
X-12818120Y-3209060D01*
X-13117840Y-3709440D02*
X-13117840Y-3409720D01*
X-13117840Y-3409720D02*
X-13417560Y-3409720D01*
X-13417560Y-3709440D02*
X-13417560Y-3409720D01*
X-13117840Y-3709440D02*
X-13417560Y-3709440D01*
X-13544560Y-3734840D02*
X-13544560Y-3508780D01*
X-13544560Y-3508780D02*
X-13618220Y-3508780D01*
X-13618220Y-3734840D02*
X-13618220Y-3508780D01*
X-13544560Y-3734840D02*
X-13618220Y-3734840D01*
X-13143240Y-2535960D02*
X-12096760Y-2535960D01*
X-12122160Y-3684040D02*
X-13544560Y-3684040D01*
X-13396518Y-3559580D02*
G75*
G03X-13396518Y-3559580I-71842J0D01*
G74*
G01*
X-13618220Y-3457980D02*
G75*
G03X-13618220Y-2762020I0J347980D01*
G74*
G01*
X-11621780Y-2762020D02*
G75*
G03X-11621780Y-3457980I0J-347980D01*
G74*
G01*
X-10227840Y-8320280D02*
X-10227840Y-7995160D01*
X-10227840Y-7995160D02*
X-10728220Y-7995160D01*
X-10728220Y-8320280D02*
X-10728220Y-7995160D01*
X-10227840Y-8320280D02*
X-10728220Y-8320280D01*
X-10227840Y-8942580D02*
X-10227840Y-8792720D01*
X-10227840Y-8792720D02*
X-10479300Y-8792720D01*
X-10479300Y-8942580D02*
X-10479300Y-8792720D01*
X-10227840Y-8942580D02*
X-10479300Y-8942580D01*
X-10227840Y-8447280D02*
X-10227840Y-8297420D01*
X-10227840Y-8297420D02*
X-10479300Y-8297420D01*
X-10479300Y-8447280D02*
X-10479300Y-8297420D01*
X-10227840Y-8447280D02*
X-10479300Y-8447280D01*
X-10227840Y-8818120D02*
X-10227840Y-8421880D01*
X-10227840Y-8421880D02*
X-10403100Y-8421880D01*
X-10403100Y-8818120D02*
X-10403100Y-8421880D01*
X-10227840Y-8818120D02*
X-10403100Y-8818120D01*
X-8731780Y-8320280D02*
X-8731780Y-7995160D01*
X-8731780Y-7995160D02*
X-9232160Y-7995160D01*
X-9232160Y-8320280D02*
X-9232160Y-7995160D01*
X-8731780Y-8320280D02*
X-9232160Y-8320280D01*
X-8731780Y-9244840D02*
X-8731780Y-8919720D01*
X-8731780Y-8919720D02*
X-9232160Y-8919720D01*
X-9232160Y-9244840D02*
X-9232160Y-8919720D01*
X-8731780Y-9244840D02*
X-9232160Y-9244840D01*
X-8980700Y-8447280D02*
X-8980700Y-8297420D01*
X-8980700Y-8297420D02*
X-9232160Y-8297420D01*
X-9232160Y-8447280D02*
X-9232160Y-8297420D01*
X-8980700Y-8447280D02*
X-9232160Y-8447280D01*
X-8980700Y-8942580D02*
X-8980700Y-8792720D01*
X-8980700Y-8792720D02*
X-9232160Y-8792720D01*
X-9232160Y-8942580D02*
X-9232160Y-8792720D01*
X-8980700Y-8942580D02*
X-9232160Y-8942580D01*
X-9056900Y-8818120D02*
X-9056900Y-8421880D01*
X-9056900Y-8421880D02*
X-9232160Y-8421880D01*
X-9232160Y-8818120D02*
X-9232160Y-8421880D01*
X-9056900Y-8818120D02*
X-9232160Y-8818120D01*
X-9730000Y-8719060D02*
X-9730000Y-8520940D01*
X-9730000Y-8520940D02*
X-9928120Y-8520940D01*
X-9928120Y-8719060D02*
X-9928120Y-8520940D01*
X-9730000Y-8719060D02*
X-9928120Y-8719060D01*
X-10227840Y-9219440D02*
X-10227840Y-8919720D01*
X-10227840Y-8919720D02*
X-10527560Y-8919720D01*
X-10527560Y-9219440D02*
X-10527560Y-8919720D01*
X-10227840Y-9219440D02*
X-10527560Y-9219440D01*
X-10654560Y-9244840D02*
X-10654560Y-9018780D01*
X-10654560Y-9018780D02*
X-10728220Y-9018780D01*
X-10728220Y-9244840D02*
X-10728220Y-9018780D01*
X-10654560Y-9244840D02*
X-10728220Y-9244840D01*
X-10253240Y-8045960D02*
X-9206760Y-8045960D01*
X-9232160Y-9194040D02*
X-10654560Y-9194040D01*
X-10506518Y-9069580D02*
G75*
G03X-10506518Y-9069580I-71842J0D01*
G74*
G01*
X-10728220Y-8967980D02*
G75*
G03X-10728220Y-8272020I0J347980D01*
G74*
G01*
X-8731780Y-8272020D02*
G75*
G03X-8731780Y-8967980I0J-347980D01*
G74*
G01*
X-5107840Y-11860280D02*
X-5107840Y-11535160D01*
X-5107840Y-11535160D02*
X-5608220Y-11535160D01*
X-5608220Y-11860280D02*
X-5608220Y-11535160D01*
X-5107840Y-11860280D02*
X-5608220Y-11860280D01*
X-5107840Y-12482580D02*
X-5107840Y-12332720D01*
X-5107840Y-12332720D02*
X-5359300Y-12332720D01*
X-5359300Y-12482580D02*
X-5359300Y-12332720D01*
X-5107840Y-12482580D02*
X-5359300Y-12482580D01*
X-5107840Y-11987280D02*
X-5107840Y-11837420D01*
X-5107840Y-11837420D02*
X-5359300Y-11837420D01*
X-5359300Y-11987280D02*
X-5359300Y-11837420D01*
X-5107840Y-11987280D02*
X-5359300Y-11987280D01*
X-5107840Y-12358120D02*
X-5107840Y-11961880D01*
X-5107840Y-11961880D02*
X-5283100Y-11961880D01*
X-5283100Y-12358120D02*
X-5283100Y-11961880D01*
X-5107840Y-12358120D02*
X-5283100Y-12358120D01*
X-3611780Y-11860280D02*
X-3611780Y-11535160D01*
X-3611780Y-11535160D02*
X-4112160Y-11535160D01*
X-4112160Y-11860280D02*
X-4112160Y-11535160D01*
X-3611780Y-11860280D02*
X-4112160Y-11860280D01*
X-3611780Y-12784840D02*
X-3611780Y-12459720D01*
X-3611780Y-12459720D02*
X-4112160Y-12459720D01*
X-4112160Y-12784840D02*
X-4112160Y-12459720D01*
X-3611780Y-12784840D02*
X-4112160Y-12784840D01*
X-3860700Y-11987280D02*
X-3860700Y-11837420D01*
X-3860700Y-11837420D02*
X-4112160Y-11837420D01*
X-4112160Y-11987280D02*
X-4112160Y-11837420D01*
X-3860700Y-11987280D02*
X-4112160Y-11987280D01*
X-3860700Y-12482580D02*
X-3860700Y-12332720D01*
X-3860700Y-12332720D02*
X-4112160Y-12332720D01*
X-4112160Y-12482580D02*
X-4112160Y-12332720D01*
X-3860700Y-12482580D02*
X-4112160Y-12482580D01*
X-3936900Y-12358120D02*
X-3936900Y-11961880D01*
X-3936900Y-11961880D02*
X-4112160Y-11961880D01*
X-4112160Y-12358120D02*
X-4112160Y-11961880D01*
X-3936900Y-12358120D02*
X-4112160Y-12358120D01*
X-4610000Y-12259060D02*
X-4610000Y-12060940D01*
X-4610000Y-12060940D02*
X-4808120Y-12060940D01*
X-4808120Y-12259060D02*
X-4808120Y-12060940D01*
X-4610000Y-12259060D02*
X-4808120Y-12259060D01*
X-5107840Y-12759440D02*
X-5107840Y-12459720D01*
X-5107840Y-12459720D02*
X-5407560Y-12459720D01*
X-5407560Y-12759440D02*
X-5407560Y-12459720D01*
X-5107840Y-12759440D02*
X-5407560Y-12759440D01*
X-5534560Y-12784840D02*
X-5534560Y-12558780D01*
X-5534560Y-12558780D02*
X-5608220Y-12558780D01*
X-5608220Y-12784840D02*
X-5608220Y-12558780D01*
X-5534560Y-12784840D02*
X-5608220Y-12784840D01*
X-5133240Y-11585960D02*
X-4086760Y-11585960D01*
X-4112160Y-12734040D02*
X-5534560Y-12734040D01*
X-5386518Y-12609580D02*
G75*
G03X-5386518Y-12609580I-71842J0D01*
G74*
G01*
X-5608220Y-12507980D02*
G75*
G03X-5608220Y-11812020I0J347980D01*
G74*
G01*
X-3611780Y-11812020D02*
G75*
G03X-3611780Y-12507980I0J-347980D01*
G74*
G01*
X9770905Y-9469381D02*
X9770905Y-8469381D01*
X9532810Y-8469381D01*
X9389952Y-8517000D01*
X9294714Y-8612238D01*
X9247095Y-8707476D01*
X9199476Y-8897952D01*
X9199476Y-9040810D01*
X9247095Y-9231286D01*
X9294714Y-9326524D01*
X9389952Y-9421762D01*
X9532810Y-9469381D01*
X9770905Y-9469381D01*
X8770905Y-9469381D02*
X8770905Y-8469381D01*
X8770905Y-8945571D02*
X8199476Y-8945571D01*
X8199476Y-9469381D02*
X8199476Y-8469381D01*
X7818524Y-8469381D02*
X7151857Y-8469381D01*
X7580429Y-9469381D01*
X12818905Y-8326381D02*
X12818905Y-7326381D01*
X12580810Y-7326381D01*
X12437952Y-7374000D01*
X12342714Y-7469238D01*
X12295095Y-7564476D01*
X12247476Y-7754952D01*
X12247476Y-7897810D01*
X12295095Y-8088286D01*
X12342714Y-8183524D01*
X12437952Y-8278762D01*
X12580810Y-8326381D01*
X12818905Y-8326381D01*
X11818905Y-8326381D02*
X11818905Y-7326381D01*
X11818905Y-7802571D02*
X11247476Y-7802571D01*
X11247476Y-8326381D02*
X11247476Y-7326381D01*
X10628429Y-7754952D02*
X10723667Y-7707333D01*
X10771286Y-7659714D01*
X10818905Y-7564476D01*
X10818905Y-7516857D01*
X10771286Y-7421619D01*
X10723667Y-7374000D01*
X10628429Y-7326381D01*
X10437952Y-7326381D01*
X10342714Y-7374000D01*
X10295095Y-7421619D01*
X10247476Y-7516857D01*
X10247476Y-7564476D01*
X10295095Y-7659714D01*
X10342714Y-7707333D01*
X10437952Y-7754952D01*
X10628429Y-7754952D01*
X10723667Y-7802571D01*
X10771286Y-7850190D01*
X10818905Y-7945429D01*
X10818905Y-8135905D01*
X10771286Y-8231143D01*
X10723667Y-8278762D01*
X10628429Y-8326381D01*
X10437952Y-8326381D01*
X10342714Y-8278762D01*
X10295095Y-8231143D01*
X10247476Y-8135905D01*
X10247476Y-7945429D01*
X10295095Y-7850190D01*
X10342714Y-7802571D01*
X10437952Y-7754952D01*
X14215905Y-2357381D02*
X14215905Y-1357381D01*
X13977810Y-1357381D01*
X13834952Y-1405000D01*
X13739714Y-1500238D01*
X13692095Y-1595476D01*
X13644476Y-1785952D01*
X13644476Y-1928810D01*
X13692095Y-2119286D01*
X13739714Y-2214524D01*
X13834952Y-2309762D01*
X13977810Y-2357381D01*
X14215905Y-2357381D01*
X13215905Y-2357381D02*
X13215905Y-1357381D01*
X13215905Y-1833571D02*
X12644476Y-1833571D01*
X12644476Y-2357381D02*
X12644476Y-1357381D01*
X12120667Y-2357381D02*
X11930191Y-2357381D01*
X11834952Y-2309762D01*
X11787333Y-2262143D01*
X11692095Y-2119286D01*
X11644476Y-1928810D01*
X11644476Y-1547857D01*
X11692095Y-1452619D01*
X11739714Y-1405000D01*
X11834952Y-1357381D01*
X12025429Y-1357381D01*
X12120667Y-1405000D01*
X12168286Y-1452619D01*
X12215905Y-1547857D01*
X12215905Y-1785952D01*
X12168286Y-1881190D01*
X12120667Y-1928810D01*
X12025429Y-1976429D01*
X11834952Y-1976429D01*
X11739714Y-1928810D01*
X11692095Y-1881190D01*
X11644476Y-1785952D01*
X13422095Y3738619D02*
X13422095Y4738619D01*
X13184000Y4738619D01*
X13041142Y4691000D01*
X12945904Y4595762D01*
X12898285Y4500524D01*
X12850666Y4310048D01*
X12850666Y4167190D01*
X12898285Y3976714D01*
X12945904Y3881476D01*
X13041142Y3786238D01*
X13184000Y3738619D01*
X13422095Y3738619D01*
X12422095Y3738619D02*
X12422095Y4738619D01*
X12422095Y4262429D02*
X11850666Y4262429D01*
X11850666Y3738619D02*
X11850666Y4738619D01*
X10850666Y3738619D02*
X11422095Y3738619D01*
X11136381Y3738619D02*
X11136381Y4738619D01*
X11231619Y4595762D01*
X11326857Y4500524D01*
X11422095Y4452905D01*
X10231619Y4738619D02*
X10136380Y4738619D01*
X10041142Y4691000D01*
X9993523Y4643381D01*
X9945904Y4548143D01*
X9898285Y4357667D01*
X9898285Y4119571D01*
X9945904Y3929095D01*
X9993523Y3833857D01*
X10041142Y3786238D01*
X10136380Y3738619D01*
X10231619Y3738619D01*
X10326857Y3786238D01*
X10374476Y3833857D01*
X10422095Y3929095D01*
X10469714Y4119571D01*
X10469714Y4357667D01*
X10422095Y4548143D01*
X10374476Y4643381D01*
X10326857Y4691000D01*
X10231619Y4738619D01*
X10755095Y8564619D02*
X10755095Y9564619D01*
X10517000Y9564619D01*
X10374142Y9517000D01*
X10278904Y9421762D01*
X10231285Y9326524D01*
X10183666Y9136048D01*
X10183666Y8993190D01*
X10231285Y8802714D01*
X10278904Y8707476D01*
X10374142Y8612238D01*
X10517000Y8564619D01*
X10755095Y8564619D01*
X9755095Y8564619D02*
X9755095Y9564619D01*
X9755095Y9088429D02*
X9183666Y9088429D01*
X9183666Y8564619D02*
X9183666Y9564619D01*
X8183666Y8564619D02*
X8755095Y8564619D01*
X8469381Y8564619D02*
X8469381Y9564619D01*
X8564619Y9421762D01*
X8659857Y9326524D01*
X8755095Y9278905D01*
X7231285Y8564619D02*
X7802714Y8564619D01*
X7517000Y8564619D02*
X7517000Y9564619D01*
X7612238Y9421762D01*
X7707476Y9326524D01*
X7802714Y9278905D01*
X-1103476Y13390619D02*
X-1103476Y14390619D01*
X-1341571Y14390619D01*
X-1484429Y14343000D01*
X-1579667Y14247762D01*
X-1627286Y14152524D01*
X-1674905Y13962048D01*
X-1674905Y13819190D01*
X-1627286Y13628714D01*
X-1579667Y13533476D01*
X-1484429Y13438238D01*
X-1341571Y13390619D01*
X-1103476Y13390619D01*
X-2103476Y13390619D02*
X-2103476Y14390619D01*
X-2436810Y13676333D01*
X-2770143Y14390619D01*
X-2770143Y13390619D01*
X-3770143Y13390619D02*
X-3198714Y13390619D01*
X-3484428Y13390619D02*
X-3484428Y14390619D01*
X-3389190Y14247762D01*
X-3293952Y14152524D01*
X-3198714Y14104905D01*
X-8469476Y9834619D02*
X-8469476Y10834619D01*
X-8707571Y10834619D01*
X-8850429Y10787000D01*
X-8945667Y10691762D01*
X-8993286Y10596524D01*
X-9040905Y10406048D01*
X-9040905Y10263190D01*
X-8993286Y10072714D01*
X-8945667Y9977476D01*
X-8850429Y9882238D01*
X-8707571Y9834619D01*
X-8469476Y9834619D01*
X-9469476Y9834619D02*
X-9469476Y10834619D01*
X-9802810Y10120333D01*
X-10136143Y10834619D01*
X-10136143Y9834619D01*
X-10564714Y10739381D02*
X-10612333Y10787000D01*
X-10707571Y10834619D01*
X-10945667Y10834619D01*
X-11040905Y10787000D01*
X-11088524Y10739381D01*
X-11136143Y10644143D01*
X-11136143Y10548905D01*
X-11088524Y10406048D01*
X-10517095Y9834619D01*
X-11136143Y9834619D01*
X-11390476Y4500619D02*
X-11390476Y5500619D01*
X-11628571Y5500619D01*
X-11771429Y5453000D01*
X-11866667Y5357762D01*
X-11914286Y5262524D01*
X-11961905Y5072048D01*
X-11961905Y4929190D01*
X-11914286Y4738714D01*
X-11866667Y4643476D01*
X-11771429Y4548238D01*
X-11628571Y4500619D01*
X-11390476Y4500619D01*
X-12390476Y4500619D02*
X-12390476Y5500619D01*
X-12723810Y4786333D01*
X-13057143Y5500619D01*
X-13057143Y4500619D01*
X-13438095Y5500619D02*
X-14057143Y5500619D01*
X-13723809Y5119667D01*
X-13866667Y5119667D01*
X-13961905Y5072048D01*
X-14009524Y5024429D01*
X-14057143Y4929190D01*
X-14057143Y4691095D01*
X-14009524Y4595857D01*
X-13961905Y4548238D01*
X-13866667Y4500619D01*
X-13580952Y4500619D01*
X-13485714Y4548238D01*
X-13438095Y4595857D01*
X-12406476Y-5278381D02*
X-12406476Y-4278381D01*
X-12644571Y-4278381D01*
X-12787429Y-4326000D01*
X-12882667Y-4421238D01*
X-12930286Y-4516476D01*
X-12977905Y-4706952D01*
X-12977905Y-4849810D01*
X-12930286Y-5040286D01*
X-12882667Y-5135524D01*
X-12787429Y-5230762D01*
X-12644571Y-5278381D01*
X-12406476Y-5278381D01*
X-13406476Y-5278381D02*
X-13406476Y-4278381D01*
X-13739810Y-4992667D01*
X-14073143Y-4278381D01*
X-14073143Y-5278381D01*
X-14977905Y-4611714D02*
X-14977905Y-5278381D01*
X-14739809Y-4230762D02*
X-14501714Y-4945048D01*
X-15120762Y-4945048D01*
X-10690476Y-7452381D02*
X-10690476Y-6452381D01*
X-10928571Y-6452381D01*
X-11071429Y-6500000D01*
X-11166667Y-6595238D01*
X-11214286Y-6690476D01*
X-11261905Y-6880952D01*
X-11261905Y-7023810D01*
X-11214286Y-7214286D01*
X-11166667Y-7309524D01*
X-11071429Y-7404762D01*
X-10928571Y-7452381D01*
X-10690476Y-7452381D01*
X-11690476Y-7452381D02*
X-11690476Y-6452381D01*
X-12023810Y-7166667D01*
X-12357143Y-6452381D01*
X-12357143Y-7452381D01*
X-13309524Y-6452381D02*
X-12833333Y-6452381D01*
X-12785714Y-6928571D01*
X-12833333Y-6880952D01*
X-12928571Y-6833333D01*
X-13166667Y-6833333D01*
X-13261905Y-6880952D01*
X-13309524Y-6928571D01*
X-13357143Y-7023810D01*
X-13357143Y-7261905D01*
X-13309524Y-7357143D01*
X-13261905Y-7404762D01*
X-13166667Y-7452381D01*
X-12928571Y-7452381D01*
X-12833333Y-7404762D01*
X-12785714Y-7357143D01*
X-2119476Y-14295381D02*
X-2119476Y-13295381D01*
X-2357571Y-13295381D01*
X-2500429Y-13343000D01*
X-2595667Y-13438238D01*
X-2643286Y-13533476D01*
X-2690905Y-13723952D01*
X-2690905Y-13866810D01*
X-2643286Y-14057286D01*
X-2595667Y-14152524D01*
X-2500429Y-14247762D01*
X-2357571Y-14295381D01*
X-2119476Y-14295381D01*
X-3119476Y-14295381D02*
X-3119476Y-13295381D01*
X-3452810Y-14009667D01*
X-3786143Y-13295381D01*
X-3786143Y-14295381D01*
X-4690905Y-13295381D02*
X-4500428Y-13295381D01*
X-4405190Y-13343000D01*
X-4357571Y-13390619D01*
X-4262333Y-13533476D01*
X-4214714Y-13723952D01*
X-4214714Y-14104905D01*
X-4262333Y-14200143D01*
X-4309952Y-14247762D01*
X-4405190Y-14295381D01*
X-4595667Y-14295381D01*
X-4690905Y-14247762D01*
X-4738524Y-14200143D01*
X-4786143Y-14104905D01*
X-4786143Y-13866810D01*
X-4738524Y-13771571D01*
X-4690905Y-13723952D01*
X-4595667Y-13676333D01*
X-4405190Y-13676333D01*
X-4309952Y-13723952D01*
X-4262333Y-13771571D01*
X-4214714Y-13866810D01*
%LPC*%
D12*
X6330980Y-10700000D03*
X8429020Y-10700000D03*
X10460980Y-6040000D03*
X12559020Y-6040000D03*
X11950980Y0D03*
X14049020Y0D03*
X10560980Y6040000D03*
X12659020Y6040000D03*
X6330980Y10700000D03*
X8429020Y10700000D03*
X-3560980Y12160000D03*
X-5659020Y12160000D03*
X-8680980Y8620000D03*
X-10779020Y8620000D03*
X-11570980Y3110000D03*
X-13669020Y3110000D03*
X-11570980Y-3110000D03*
X-13669020Y-3110000D03*
X-8680980Y-8620000D03*
X-10779020Y-8620000D03*
X-3560980Y-12160000D03*
X-5659020Y-12160000D03*
D13*
X0Y-14600000D03*
X0Y-16400000D03*
X0Y14600000D03*
X0Y16400000D03*
D14*
X0Y0D03*
D15*
X2286000Y-11430000D03*
X3937000Y-13081000D03*
X1300000Y9400000D03*
X-9398000Y2286000D03*
X-10922000Y-4826000D03*
X-2286000Y-9144000D03*
X508000Y-10414000D03*
X6858000Y6096000D03*
X-1270000Y-1270000D03*
X-1270000Y1270000D03*
X1270000Y-1270000D03*
X0Y0D03*
X1270000Y1270000D03*
X13970000Y-4064000D03*
X3810000Y12700000D03*
X5715000Y-14732000D03*
X-13462000Y-11938000D03*
X0Y11430000D03*
X-762000Y-11049000D03*
X6350000Y-9144000D03*
X10414000Y-4318000D03*
X11938000Y1270000D03*
X9144000Y6350000D03*
X6350000Y9398000D03*
X-4572000Y13716000D03*
X-9652000Y7112000D03*
X-11684000Y762000D03*
X-11684000Y-762000D03*
X-9652000Y-7112000D03*
X-8128000Y-7112000D03*
D16*
G36*
X-4101600Y-19898400D02*
X-16898400Y-19898400D01*
X-16898400Y-10101600D01*
X-10042084Y-10101600D01*
X-4101600Y-16042084D01*
X-4101600Y-19898400D01*
X-4101600Y-19898400D01*
G37*
X-4101600Y-19898400D02*
X-16898400Y-19898400D01*
X-16898400Y-10101600D01*
X-10042084Y-10101600D01*
X-4101600Y-16042084D01*
X-4101600Y-19898400D01*
G36*
X16898400Y10101600D02*
X10542084Y10101600D01*
X10101600Y10542084D01*
X10101600Y11542084D01*
X9542084Y12101600D01*
X8042084Y12101600D01*
X4101600Y16042084D01*
X4101600Y19898400D01*
X16898400Y19898400D01*
X16898400Y10101600D01*
X16898400Y10101600D01*
G37*
X16898400Y10101600D02*
X10542084Y10101600D01*
X10101600Y10542084D01*
X10101600Y11542084D01*
X9542084Y12101600D01*
X8042084Y12101600D01*
X4101600Y16042084D01*
X4101600Y19898400D01*
X16898400Y19898400D01*
X16898400Y10101600D01*
M02*
