M48
;DRILL file {kicad (2014-jul-16 BZR unknown)-product} date Thu 06 Nov 2014 11:15:45 PM PST
;FORMAT={-:-/ absolute / metric / decimal}
FMAT,2
METRIC,TZ
T1C0.381
T2C1.016
T3C1.200
T4C1.501
T5C3.500
%
G90
G05
M71
T1
X7.6Y27.2
X9.6Y3.8
X10.Y44.8
X11.8Y1.2
X12.1Y45.7
X12.7Y12.4
X12.7Y7.6
X13.3Y49.
X13.8Y25.8
X13.9Y29.8
X14.6Y27.
X14.8Y25.8
X17.Y44.9
X17.Y22.2
X17.2Y23.2
X18.Y21.4
X18.2Y1.2
X20.Y29.
X21.8Y1.2
X22.4Y44.7
X22.4Y43.6
X22.7Y12.4
X22.7Y7.6
X23.Y34.5
X25.Y28.1
X25.4Y22.1
X25.6Y40.9
X26.Y28.1
X27.Y40.9
X27.4Y32.5
X27.8Y44.2
X28.Y25.4
X28.2Y1.2
X28.8Y44.2
X29.Y21.1
X29.Y19.4
X29.4Y3.8
X30.8Y43.8
X32.3Y22.9
X32.3Y21.1
X32.7Y12.4
X32.7Y7.6
X33.6Y20.6
X34.4Y44.
X34.6Y27.8
X35.6Y44.
X38.Y26.6
X38.6Y33.
X38.6Y30.2
X45.Y40.
X45.Y34.2
X46.Y36.4
X46.Y29.
T2
X2.54Y36.83
X2.54Y34.29
X2.54Y31.75
X5.08Y36.83
X5.08Y34.29
X5.08Y31.75
X39.Y48.54
X39.Y46.
X39.Y43.46
X48.26Y39.37
X48.26Y36.83
X48.26Y31.75
X48.26Y29.21
T3
X28.7Y48.5
X35.3Y48.5
T4
X12.5Y17.5
X37.5Y17.5
T5
X5.Y45.
X5.Y5.
X45.Y45.
X45.Y5.
T0
M30
