%FSLAX46Y46*%
G04 Gerber Fmt 4.6, Leading zero omitted, Abs format (unit mm)*
G04 Created by KiCad (PCBNEW (2014-jul-16 BZR unknown)-product) date Thu 06 Nov 2014 11:15:42 PM PST*
%MOMM*%
G01*
G04 APERTURE LIST*
%ADD10C,0.100000*%
%ADD11C,0.150000*%
%ADD12R,3.600000X4.600000*%
%ADD13R,2.032000X1.727200*%
%ADD14O,2.032000X1.727200*%
%ADD15C,6.000000*%
%ADD16R,1.727200X1.727200*%
%ADD17O,1.727200X1.727200*%
%ADD18C,1.600000*%
%ADD19R,2.032000X2.032000*%
%ADD20O,2.032000X2.032000*%
%ADD21C,2.999740*%
%ADD22C,0.635000*%
%ADD23C,0.508000*%
%ADD24C,0.304800*%
%ADD25C,0.762000*%
%ADD26C,0.406400*%
%ADD27C,0.203200*%
G04 APERTURE END LIST*
D10*
D11*
X0Y0D02*
X0Y50000000D01*
X50000000Y0D02*
X0Y0D01*
X50000000Y50000000D02*
X0Y50000000D01*
X50000000Y0D02*
X50000000Y50000000D01*
D12*
X10350000Y38000000D03*
X39650000Y38000000D03*
D13*
X39000000Y48540000D03*
D14*
X39000000Y46000000D03*
X39000000Y43460000D03*
D15*
X45000000Y5000000D03*
X5000000Y5000000D03*
X5000000Y45000000D03*
X45000000Y45000000D03*
D16*
X5080000Y31750000D03*
D17*
X2540000Y31750000D03*
X5080000Y34290000D03*
X2540000Y34290000D03*
X5080000Y36830000D03*
X2540000Y36830000D03*
D18*
X28700000Y48500000D03*
X35300000Y48500000D03*
D19*
X48260000Y39370000D03*
D20*
X48260000Y36830000D03*
D19*
X48260000Y31750000D03*
D20*
X48260000Y29210000D03*
D21*
X37500000Y17500000D03*
X12500000Y17500000D03*
D22*
X28200000Y1200000D03*
X21800000Y1200000D03*
X11800000Y1200000D03*
X18200000Y1200000D03*
X30800000Y43800000D03*
X46000000Y36400000D03*
X46000000Y29000000D03*
X25400000Y22100000D03*
X38000000Y26600000D03*
X7600000Y27200000D03*
X28800000Y44200000D03*
X27800000Y44200000D03*
X25600000Y40900000D03*
X27000000Y40900000D03*
X10000000Y44800000D03*
X13300000Y49000000D03*
X35600000Y44000000D03*
X34400000Y44000000D03*
X13900000Y29800000D03*
X23000000Y34500000D03*
X26000000Y28100000D03*
X25000000Y28100000D03*
X27400000Y32500000D03*
X22400000Y44700000D03*
X22400000Y43600000D03*
X12700000Y12400000D03*
X12700000Y7600000D03*
X22700000Y12400000D03*
X22700000Y7600000D03*
X32700000Y12400000D03*
X32700000Y7600000D03*
X33600000Y20600000D03*
X34600000Y27800000D03*
X45000000Y40000000D03*
X45000000Y34200000D03*
X12100000Y45700000D03*
X29400000Y3800000D03*
X9600000Y3800000D03*
X38600000Y33000000D03*
X38600000Y30200000D03*
X17000000Y44900000D03*
X17000000Y22200000D03*
X13800000Y25800000D03*
X14600000Y27000000D03*
X18000000Y21400000D03*
X14800000Y25800000D03*
X17200000Y23200000D03*
X20000000Y29000000D03*
X28000000Y25400000D03*
X32300000Y22900000D03*
X32300000Y21100000D03*
X29000000Y19400000D03*
X29000000Y21100000D03*
D23*
X18200000Y1200000D02*
X19000000Y1200000D01*
X26000000Y28100000D02*
X27700000Y28100000D01*
X26900000Y22100000D02*
X25400000Y22100000D01*
X29800000Y25000000D02*
X26900000Y22100000D01*
X29800000Y26000000D02*
X29800000Y25000000D01*
X27700000Y28100000D02*
X29800000Y26000000D01*
X26200000Y29800000D02*
X26200000Y28300000D01*
X26200000Y28300000D02*
X26000000Y28100000D01*
X25400000Y20200000D02*
X25400000Y22100000D01*
D24*
X30800000Y43800000D02*
X31600000Y43800000D01*
D23*
X46000000Y36400000D02*
X46000000Y36800000D01*
X46000000Y29000000D02*
X46000000Y29400000D01*
X25400000Y22100000D02*
X25400000Y22500000D01*
X38000000Y26600000D02*
X37400000Y26600000D01*
X7600000Y27200000D02*
X8300000Y27200000D01*
X28800000Y44200000D02*
X27800000Y44200000D01*
X25600000Y40900000D02*
X27000000Y40900000D01*
X10000000Y44800000D02*
X10800000Y44800000D01*
X13300000Y49000000D02*
X13800000Y49000000D01*
X35600000Y44000000D02*
X34400000Y44000000D01*
X13900000Y29800000D02*
X13200000Y29800000D01*
X23000000Y34500000D02*
X23000000Y35000000D01*
X26000000Y28100000D02*
X25000000Y28100000D01*
X27400000Y32500000D02*
X27400000Y31900000D01*
X22400000Y44700000D02*
X22400000Y43600000D01*
X12700000Y12400000D02*
X12700000Y11900000D01*
X12700000Y7600000D02*
X12700000Y8100000D01*
X22700000Y12400000D02*
X22700000Y12100000D01*
X22700000Y7600000D02*
X22700000Y8100000D01*
X32700000Y12400000D02*
X32700000Y12100000D01*
X32700000Y7600000D02*
X32700000Y7900000D01*
D25*
X39650000Y40650000D02*
X40900000Y41900000D01*
X40900000Y41900000D02*
X40900000Y46640000D01*
X40900000Y46640000D02*
X39000000Y48540000D01*
X39650000Y38000000D02*
X39650000Y40650000D01*
D26*
X33600000Y20600000D02*
X33600000Y26800000D01*
X33600000Y26800000D02*
X34600000Y27800000D01*
D25*
X45000000Y34200000D02*
X45000000Y40000000D01*
D27*
X36800000Y46000000D02*
X35900000Y46900000D01*
X35900000Y46900000D02*
X13300000Y46900000D01*
X13300000Y46900000D02*
X12100000Y45700000D01*
X39000000Y46000000D02*
X36800000Y46000000D01*
D25*
X29400000Y3800000D02*
X9600000Y3800000D01*
X38600000Y30200000D02*
X38600000Y33000000D01*
X18100000Y46000000D02*
X17000000Y44900000D01*
X35400000Y46000000D02*
X18100000Y46000000D01*
X37940000Y43460000D02*
X35400000Y46000000D01*
X39000000Y43460000D02*
X37940000Y43460000D01*
D27*
X17000000Y22200000D02*
X13800000Y25400000D01*
X13800000Y25400000D02*
X13800000Y25800000D01*
X18000000Y23600000D02*
X14600000Y27000000D01*
X18000000Y21400000D02*
X18000000Y23600000D01*
X14800000Y25600000D02*
X14800000Y25800000D01*
X17200000Y23200000D02*
X14800000Y25600000D01*
X22000000Y27000000D02*
X20000000Y29000000D01*
X26400000Y27000000D02*
X22000000Y27000000D01*
X28000000Y25400000D02*
X26400000Y27000000D01*
X32300000Y21100000D02*
X32300000Y22900000D01*
X29000000Y21100000D02*
X29000000Y19400000D01*
G36*
X49569400Y430600D02*
X48611135Y430600D01*
X48611135Y4289773D01*
X48608046Y5725758D01*
X48064462Y7038085D01*
X47600048Y7384522D01*
X47384522Y7168996D01*
X47384522Y7600048D01*
X47038085Y8064462D01*
X45736600Y8600278D01*
X45736600Y34200000D01*
X45736600Y40000000D01*
X45680530Y40281885D01*
X45520855Y40520855D01*
X45281885Y40680530D01*
X45000000Y40736600D01*
X44718115Y40680530D01*
X44479145Y40520855D01*
X44319470Y40281885D01*
X44263400Y40000000D01*
X44263400Y34200000D01*
X44319470Y33918115D01*
X44479145Y33679145D01*
X44718115Y33519470D01*
X45000000Y33463400D01*
X45281885Y33519470D01*
X45520855Y33679145D01*
X45680530Y33918115D01*
X45736600Y34200000D01*
X45736600Y8600278D01*
X45710227Y8611135D01*
X44274242Y8608046D01*
X42961915Y8064462D01*
X42615478Y7600048D01*
X45000000Y5215526D01*
X47384522Y7600048D01*
X47384522Y7168996D01*
X45215526Y5000000D01*
X47600048Y2615478D01*
X48064462Y2961915D01*
X48611135Y4289773D01*
X48611135Y430600D01*
X47384522Y430600D01*
X47384522Y2399952D01*
X45000000Y4784474D01*
X44784474Y4568948D01*
X44784474Y5000000D01*
X42399952Y7384522D01*
X41935538Y7038085D01*
X41388865Y5710227D01*
X41391954Y4274242D01*
X41935538Y2961915D01*
X42399952Y2615478D01*
X44784474Y5000000D01*
X44784474Y4568948D01*
X42615478Y2399952D01*
X42961915Y1935538D01*
X44289773Y1388865D01*
X45725758Y1391954D01*
X47038085Y1935538D01*
X47384522Y2399952D01*
X47384522Y430600D01*
X39621691Y430600D01*
X39621691Y17147357D01*
X39595137Y17986137D01*
X39336600Y18610300D01*
X39336600Y30200000D01*
X39336600Y33000000D01*
X39280530Y33281885D01*
X39120855Y33520855D01*
X38881885Y33680530D01*
X38600000Y33736600D01*
X38318115Y33680530D01*
X38079145Y33520855D01*
X37919470Y33281885D01*
X37863400Y33000000D01*
X37863400Y30200000D01*
X37919470Y29918115D01*
X38079145Y29679145D01*
X38318115Y29519470D01*
X38600000Y29463400D01*
X38881885Y29519470D01*
X39120855Y29679145D01*
X39280530Y29918115D01*
X39336600Y30200000D01*
X39336600Y18610300D01*
X39325236Y18637735D01*
X39016728Y18801202D01*
X38801202Y18585676D01*
X38801202Y19016728D01*
X38637735Y19325236D01*
X37852643Y19621691D01*
X37013863Y19595137D01*
X36362265Y19325236D01*
X36198798Y19016728D01*
X37500000Y17715526D01*
X38801202Y19016728D01*
X38801202Y18585676D01*
X37715526Y17500000D01*
X39016728Y16198798D01*
X39325236Y16362265D01*
X39621691Y17147357D01*
X39621691Y430600D01*
X38801202Y430600D01*
X38801202Y15983272D01*
X37500000Y17284474D01*
X37284474Y17068948D01*
X37284474Y17500000D01*
X35983272Y18801202D01*
X35674764Y18637735D01*
X35378309Y17852643D01*
X35404863Y17013863D01*
X35674764Y16362265D01*
X35983272Y16198798D01*
X37284474Y17500000D01*
X37284474Y17068948D01*
X36198798Y15983272D01*
X36362265Y15674764D01*
X37147357Y15378309D01*
X37986137Y15404863D01*
X38637735Y15674764D01*
X38801202Y15983272D01*
X38801202Y430600D01*
X35273217Y430600D01*
X35273217Y27933301D01*
X35170959Y28180783D01*
X34981778Y28370294D01*
X34734475Y28472983D01*
X34466699Y28473217D01*
X34219217Y28370959D01*
X34029706Y28181778D01*
X33927017Y27934475D01*
X33927001Y27917265D01*
X33204869Y27195131D01*
X33083736Y27013844D01*
X33041200Y26800000D01*
X33041200Y20993252D01*
X33029706Y20981778D01*
X32973217Y20845738D01*
X32973217Y21233301D01*
X32870959Y21480783D01*
X32757200Y21594741D01*
X32757200Y22405325D01*
X32870294Y22518222D01*
X32972983Y22765525D01*
X32973217Y23033301D01*
X32870959Y23280783D01*
X32681778Y23470294D01*
X32434475Y23572983D01*
X32166699Y23573217D01*
X31919217Y23470959D01*
X31729706Y23281778D01*
X31627017Y23034475D01*
X31626783Y22766699D01*
X31729041Y22519217D01*
X31842800Y22405260D01*
X31842800Y21594676D01*
X31729706Y21481778D01*
X31627017Y21234475D01*
X31626783Y20966699D01*
X31729041Y20719217D01*
X31918222Y20529706D01*
X32165525Y20427017D01*
X32433301Y20426783D01*
X32680783Y20529041D01*
X32870294Y20718222D01*
X32972983Y20965525D01*
X32973217Y21233301D01*
X32973217Y20845738D01*
X32927017Y20734475D01*
X32926783Y20466699D01*
X33029041Y20219217D01*
X33218222Y20029706D01*
X33465525Y19927017D01*
X33733301Y19926783D01*
X33980783Y20029041D01*
X34170294Y20218222D01*
X34272983Y20465525D01*
X34273217Y20733301D01*
X34170959Y20980783D01*
X34158800Y20992964D01*
X34158800Y26568538D01*
X34717059Y27126798D01*
X34733301Y27126783D01*
X34980783Y27229041D01*
X35170294Y27418222D01*
X35272983Y27665525D01*
X35273217Y27933301D01*
X35273217Y430600D01*
X30136600Y430600D01*
X30136600Y3800000D01*
X30080530Y4081885D01*
X29920855Y4320855D01*
X29681885Y4480530D01*
X29673217Y4482255D01*
X29673217Y19533301D01*
X29570959Y19780783D01*
X29457200Y19894741D01*
X29457200Y20605325D01*
X29570294Y20718222D01*
X29672983Y20965525D01*
X29673217Y21233301D01*
X29570959Y21480783D01*
X29381778Y21670294D01*
X29134475Y21772983D01*
X28866699Y21773217D01*
X28673217Y21693272D01*
X28673217Y25533301D01*
X28570959Y25780783D01*
X28381778Y25970294D01*
X28134475Y26072983D01*
X27973454Y26073124D01*
X26723289Y27323289D01*
X26574963Y27422398D01*
X26400000Y27457200D01*
X22189378Y27457200D01*
X21500578Y28146000D01*
X22905210Y28146000D01*
X23379605Y28620395D01*
X23654000Y28894790D01*
X23654000Y33705210D01*
X23105210Y34254000D01*
X15294790Y34254000D01*
X14746000Y33705210D01*
X14746000Y29694790D01*
X15494790Y28946000D01*
X19305210Y28946000D01*
X19326871Y28967662D01*
X19326783Y28866699D01*
X19429041Y28619217D01*
X19618222Y28429706D01*
X19865525Y28327017D01*
X20026545Y28326877D01*
X21676711Y26676711D01*
X21825037Y26577602D01*
X22000000Y26542800D01*
X26210622Y26542800D01*
X27326922Y25426500D01*
X27326783Y25266699D01*
X27429041Y25019217D01*
X27618222Y24829706D01*
X27865525Y24727017D01*
X28133301Y24726783D01*
X28380783Y24829041D01*
X28570294Y25018222D01*
X28672983Y25265525D01*
X28673217Y25533301D01*
X28673217Y21693272D01*
X28619217Y21670959D01*
X28429706Y21481778D01*
X28327017Y21234475D01*
X28326783Y20966699D01*
X28429041Y20719217D01*
X28542800Y20605260D01*
X28542800Y19894676D01*
X28429706Y19781778D01*
X28327017Y19534475D01*
X28326783Y19266699D01*
X28429041Y19019217D01*
X28618222Y18829706D01*
X28865525Y18727017D01*
X29133301Y18726783D01*
X29380783Y18829041D01*
X29570294Y19018222D01*
X29672983Y19265525D01*
X29673217Y19533301D01*
X29673217Y4482255D01*
X29400000Y4536600D01*
X18673217Y4536600D01*
X18673217Y21533301D01*
X18570959Y21780783D01*
X18457200Y21894741D01*
X18457200Y23600000D01*
X18422398Y23774963D01*
X18323289Y23923289D01*
X15273077Y26973501D01*
X15273217Y27133301D01*
X15170959Y27380783D01*
X14981778Y27570294D01*
X14734475Y27672983D01*
X14466699Y27673217D01*
X14219217Y27570959D01*
X14029706Y27381778D01*
X13927017Y27134475D01*
X13926783Y26866699D01*
X14029041Y26619217D01*
X14218222Y26429706D01*
X14401733Y26353506D01*
X14299958Y26251908D01*
X14181778Y26370294D01*
X13934475Y26472983D01*
X13666699Y26473217D01*
X13419217Y26370959D01*
X13229706Y26181778D01*
X13127017Y25934475D01*
X13126783Y25666699D01*
X13229041Y25419217D01*
X13366334Y25281685D01*
X13377602Y25225037D01*
X13476711Y25076711D01*
X16326922Y22226499D01*
X16326783Y22066699D01*
X16429041Y21819217D01*
X16618222Y21629706D01*
X16865525Y21527017D01*
X17133301Y21526783D01*
X17363281Y21621810D01*
X17327017Y21534475D01*
X17326783Y21266699D01*
X17429041Y21019217D01*
X17618222Y20829706D01*
X17865525Y20727017D01*
X18133301Y20726783D01*
X18380783Y20829041D01*
X18570294Y21018222D01*
X18672983Y21265525D01*
X18673217Y21533301D01*
X18673217Y4536600D01*
X14621691Y4536600D01*
X14621691Y17147357D01*
X14595137Y17986137D01*
X14325236Y18637735D01*
X14016728Y18801202D01*
X13801202Y18585676D01*
X13801202Y19016728D01*
X13637735Y19325236D01*
X12852643Y19621691D01*
X12759600Y19618746D01*
X12759600Y35578743D01*
X12759600Y35821257D01*
X12759600Y37695200D01*
X12759600Y38304800D01*
X12759600Y40178743D01*
X12759600Y40421257D01*
X12666794Y40645311D01*
X12495311Y40816794D01*
X12271257Y40909600D01*
X10654800Y40909600D01*
X10502400Y40757200D01*
X10502400Y38152400D01*
X12607200Y38152400D01*
X12759600Y38304800D01*
X12759600Y37695200D01*
X12607200Y37847600D01*
X10502400Y37847600D01*
X10502400Y35242800D01*
X10654800Y35090400D01*
X12271257Y35090400D01*
X12495311Y35183206D01*
X12666794Y35354689D01*
X12759600Y35578743D01*
X12759600Y19618746D01*
X12013863Y19595137D01*
X11362265Y19325236D01*
X11198798Y19016728D01*
X12500000Y17715526D01*
X13801202Y19016728D01*
X13801202Y18585676D01*
X12715526Y17500000D01*
X14016728Y16198798D01*
X14325236Y16362265D01*
X14621691Y17147357D01*
X14621691Y4536600D01*
X13801202Y4536600D01*
X13801202Y15983272D01*
X12500000Y17284474D01*
X12284474Y17068948D01*
X12284474Y17500000D01*
X10983272Y18801202D01*
X10674764Y18637735D01*
X10378309Y17852643D01*
X10404863Y17013863D01*
X10674764Y16362265D01*
X10983272Y16198798D01*
X12284474Y17500000D01*
X12284474Y17068948D01*
X11198798Y15983272D01*
X11362265Y15674764D01*
X12147357Y15378309D01*
X12986137Y15404863D01*
X13637735Y15674764D01*
X13801202Y15983272D01*
X13801202Y4536600D01*
X10197600Y4536600D01*
X10197600Y35242800D01*
X10197600Y37847600D01*
X10197600Y38152400D01*
X10197600Y40757200D01*
X10045200Y40909600D01*
X8611135Y40909600D01*
X8611135Y44289773D01*
X8608046Y45725758D01*
X8064462Y47038085D01*
X7600048Y47384522D01*
X7384522Y47168996D01*
X7384522Y47600048D01*
X7038085Y48064462D01*
X5710227Y48611135D01*
X4274242Y48608046D01*
X2961915Y48064462D01*
X2615478Y47600048D01*
X5000000Y45215526D01*
X7384522Y47600048D01*
X7384522Y47168996D01*
X5215526Y45000000D01*
X7600048Y42615478D01*
X8064462Y42961915D01*
X8611135Y44289773D01*
X8611135Y40909600D01*
X8428743Y40909600D01*
X8204689Y40816794D01*
X8033206Y40645311D01*
X7940400Y40421257D01*
X7940400Y40178743D01*
X7940400Y38304800D01*
X8092800Y38152400D01*
X10197600Y38152400D01*
X10197600Y37847600D01*
X8092800Y37847600D01*
X7940400Y37695200D01*
X7940400Y35821257D01*
X7940400Y35578743D01*
X8033206Y35354689D01*
X8204689Y35183206D01*
X8428743Y35090400D01*
X10045200Y35090400D01*
X10197600Y35242800D01*
X10197600Y4536600D01*
X9600000Y4536600D01*
X9318115Y4480530D01*
X9079145Y4320855D01*
X8919470Y4081885D01*
X8863400Y3800000D01*
X8919470Y3518115D01*
X9079145Y3279145D01*
X9318115Y3119470D01*
X9600000Y3063400D01*
X14381470Y3063400D01*
X14289524Y2841967D01*
X14289277Y2559273D01*
X14397232Y2298004D01*
X14596952Y2097934D01*
X14858033Y1989524D01*
X15140727Y1989277D01*
X15401996Y2097232D01*
X15602066Y2296952D01*
X15710476Y2558033D01*
X15710723Y2840727D01*
X15618715Y3063400D01*
X24381470Y3063400D01*
X24289524Y2841967D01*
X24289277Y2559273D01*
X24397232Y2298004D01*
X24596952Y2097934D01*
X24858033Y1989524D01*
X25140727Y1989277D01*
X25401996Y2097232D01*
X25602066Y2296952D01*
X25710476Y2558033D01*
X25710723Y2840727D01*
X25618715Y3063400D01*
X29400000Y3063400D01*
X29681885Y3119470D01*
X29920855Y3279145D01*
X30080530Y3518115D01*
X30136600Y3800000D01*
X30136600Y430600D01*
X25535597Y430600D01*
X25602066Y496952D01*
X25710476Y758033D01*
X25710723Y1040727D01*
X25602768Y1301996D01*
X25403048Y1502066D01*
X25141967Y1610476D01*
X24859273Y1610723D01*
X24598004Y1502768D01*
X24397934Y1303048D01*
X24289524Y1041967D01*
X24289277Y759273D01*
X24397232Y498004D01*
X24464518Y430600D01*
X15535597Y430600D01*
X15602066Y496952D01*
X15710476Y758033D01*
X15710723Y1040727D01*
X15602768Y1301996D01*
X15403048Y1502066D01*
X15141967Y1610476D01*
X14859273Y1610723D01*
X14598004Y1502768D01*
X14397934Y1303048D01*
X14289524Y1041967D01*
X14289277Y759273D01*
X14397232Y498004D01*
X14464518Y430600D01*
X8611135Y430600D01*
X8611135Y4289773D01*
X8608046Y5725758D01*
X8064462Y7038085D01*
X7600048Y7384522D01*
X7384522Y7168996D01*
X7384522Y7600048D01*
X7384522Y42399952D01*
X5000000Y44784474D01*
X4784474Y44568948D01*
X4784474Y45000000D01*
X2399952Y47384522D01*
X1935538Y47038085D01*
X1388865Y45710227D01*
X1391954Y44274242D01*
X1935538Y42961915D01*
X2399952Y42615478D01*
X4784474Y45000000D01*
X4784474Y44568948D01*
X2615478Y42399952D01*
X2961915Y41935538D01*
X4289773Y41388865D01*
X5725758Y41391954D01*
X7038085Y41935538D01*
X7384522Y42399952D01*
X7384522Y7600048D01*
X7038085Y8064462D01*
X6299200Y8368658D01*
X6299200Y30815667D01*
X6299200Y30957133D01*
X6299200Y32684333D01*
X6299200Y34266114D01*
X6299200Y34313886D01*
X6299200Y36806114D01*
X6299200Y36853886D01*
X6206394Y37320454D01*
X5942105Y37715991D01*
X5546568Y37980280D01*
X5080000Y38073086D01*
X4613432Y37980280D01*
X4217895Y37715991D01*
X3953606Y37320454D01*
X3940755Y37255849D01*
X3709752Y37725563D01*
X3277993Y38105037D01*
X2919746Y38253415D01*
X2692400Y38141978D01*
X2692400Y36982400D01*
X2712400Y36982400D01*
X2712400Y36677600D01*
X2692400Y36677600D01*
X2692400Y36657600D01*
X2387600Y36657600D01*
X2387600Y36677600D01*
X2387600Y36982400D01*
X2387600Y38141978D01*
X2160254Y38253415D01*
X1802007Y38105037D01*
X1370248Y37725563D01*
X1116573Y37209748D01*
X1227092Y36982400D01*
X2387600Y36982400D01*
X2387600Y36677600D01*
X1227092Y36677600D01*
X1116573Y36450252D01*
X1370248Y35934437D01*
X1802007Y35554963D01*
X2077126Y35441015D01*
X2073432Y35440280D01*
X1677895Y35175991D01*
X1413606Y34780454D01*
X1320800Y34313886D01*
X1320800Y34266114D01*
X1413606Y33799546D01*
X1677895Y33404009D01*
X2073432Y33139720D01*
X2540000Y33046914D01*
X3006568Y33139720D01*
X3402105Y33404009D01*
X3666394Y33799546D01*
X3759200Y34266114D01*
X3759200Y34313886D01*
X3666394Y34780454D01*
X3402105Y35175991D01*
X3006568Y35440280D01*
X3002873Y35441015D01*
X3277993Y35554963D01*
X3709752Y35934437D01*
X3940755Y36404152D01*
X3953606Y36339546D01*
X4217895Y35944009D01*
X4613432Y35679720D01*
X5080000Y35586914D01*
X5546568Y35679720D01*
X5942105Y35944009D01*
X6206394Y36339546D01*
X6299200Y36806114D01*
X6299200Y34313886D01*
X6206394Y34780454D01*
X5942105Y35175991D01*
X5546568Y35440280D01*
X5080000Y35533086D01*
X4613432Y35440280D01*
X4217895Y35175991D01*
X3953606Y34780454D01*
X3860800Y34313886D01*
X3860800Y34266114D01*
X3953606Y33799546D01*
X4217895Y33404009D01*
X4613432Y33139720D01*
X5080000Y33046914D01*
X5546568Y33139720D01*
X5942105Y33404009D01*
X6206394Y33799546D01*
X6299200Y34266114D01*
X6299200Y32684333D01*
X6245063Y32815031D01*
X6145031Y32915063D01*
X6014333Y32969200D01*
X5872867Y32969200D01*
X4145667Y32969200D01*
X4014969Y32915063D01*
X3914937Y32815031D01*
X3860800Y32684333D01*
X3860800Y32542867D01*
X3860800Y30815667D01*
X3914937Y30684969D01*
X4014969Y30584937D01*
X4145667Y30530800D01*
X4287133Y30530800D01*
X6014333Y30530800D01*
X6145031Y30584937D01*
X6245063Y30684969D01*
X6299200Y30815667D01*
X6299200Y8368658D01*
X5710227Y8611135D01*
X4274242Y8608046D01*
X3759200Y8394709D01*
X3759200Y31726114D01*
X3759200Y31773886D01*
X3666394Y32240454D01*
X3402105Y32635991D01*
X3006568Y32900280D01*
X2540000Y32993086D01*
X2073432Y32900280D01*
X1677895Y32635991D01*
X1413606Y32240454D01*
X1320800Y31773886D01*
X1320800Y31726114D01*
X1413606Y31259546D01*
X1677895Y30864009D01*
X2073432Y30599720D01*
X2540000Y30506914D01*
X3006568Y30599720D01*
X3402105Y30864009D01*
X3666394Y31259546D01*
X3759200Y31726114D01*
X3759200Y8394709D01*
X2961915Y8064462D01*
X2615478Y7600048D01*
X5000000Y5215526D01*
X7384522Y7600048D01*
X7384522Y7168996D01*
X5215526Y5000000D01*
X7600048Y2615478D01*
X8064462Y2961915D01*
X8611135Y4289773D01*
X8611135Y430600D01*
X7384522Y430600D01*
X7384522Y2399952D01*
X5000000Y4784474D01*
X4784474Y4568948D01*
X4784474Y5000000D01*
X2399952Y7384522D01*
X1935538Y7038085D01*
X1388865Y5710227D01*
X1391954Y4274242D01*
X1935538Y2961915D01*
X2399952Y2615478D01*
X4784474Y5000000D01*
X4784474Y4568948D01*
X2615478Y2399952D01*
X2961915Y1935538D01*
X4289773Y1388865D01*
X5725758Y1391954D01*
X7038085Y1935538D01*
X7384522Y2399952D01*
X7384522Y430600D01*
X430600Y430600D01*
X430600Y49569400D01*
X27925265Y49569400D01*
X27905675Y49509851D01*
X28700000Y48715526D01*
X29494325Y49509851D01*
X29474734Y49569400D01*
X34525265Y49569400D01*
X34505675Y49509851D01*
X35300000Y48715526D01*
X36094325Y49509851D01*
X36074734Y49569400D01*
X37667778Y49569400D01*
X37628400Y49474333D01*
X37628400Y49332867D01*
X37628400Y47605667D01*
X37682537Y47474969D01*
X37782569Y47374937D01*
X37913267Y47320800D01*
X38054733Y47320800D01*
X39177490Y47320800D01*
X39303875Y47194415D01*
X39179271Y47219200D01*
X38820729Y47219200D01*
X38354161Y47126394D01*
X37958624Y46862105D01*
X37694335Y46466568D01*
X37692471Y46457200D01*
X36989378Y46457200D01*
X36725204Y46721374D01*
X36725204Y48314569D01*
X36687679Y48874086D01*
X36545755Y49216718D01*
X36309851Y49294325D01*
X35515526Y48500000D01*
X36309851Y47705675D01*
X36545755Y47783282D01*
X36725204Y48314569D01*
X36725204Y46721374D01*
X36223289Y47223289D01*
X36074963Y47322398D01*
X36041339Y47329087D01*
X36094325Y47490149D01*
X35300000Y48284474D01*
X35084474Y48068948D01*
X35084474Y48500000D01*
X34290149Y49294325D01*
X34054245Y49216718D01*
X33874796Y48685431D01*
X33912321Y48125914D01*
X34054245Y47783282D01*
X34290149Y47705675D01*
X35084474Y48500000D01*
X35084474Y48068948D01*
X34505675Y47490149D01*
X34549412Y47357200D01*
X30125204Y47357200D01*
X30125204Y48314569D01*
X30087679Y48874086D01*
X29945755Y49216718D01*
X29709851Y49294325D01*
X28915526Y48500000D01*
X29709851Y47705675D01*
X29945755Y47783282D01*
X30125204Y48314569D01*
X30125204Y47357200D01*
X29450587Y47357200D01*
X29494325Y47490149D01*
X28700000Y48284474D01*
X28484474Y48068948D01*
X28484474Y48500000D01*
X27690149Y49294325D01*
X27454245Y49216718D01*
X27274796Y48685431D01*
X27312321Y48125914D01*
X27454245Y47783282D01*
X27690149Y47705675D01*
X28484474Y48500000D01*
X28484474Y48068948D01*
X27905675Y47490149D01*
X27949412Y47357200D01*
X13300000Y47357200D01*
X13125037Y47322398D01*
X12976711Y47223289D01*
X12126499Y46373078D01*
X11966699Y46373217D01*
X11719217Y46270959D01*
X11529706Y46081778D01*
X11427017Y45834475D01*
X11426783Y45566699D01*
X11529041Y45319217D01*
X11718222Y45129706D01*
X11965525Y45027017D01*
X12233301Y45026783D01*
X12480783Y45129041D01*
X12670294Y45318222D01*
X12772983Y45565525D01*
X12773123Y45726546D01*
X13489378Y46442800D01*
X17501090Y46442800D01*
X16479145Y45420855D01*
X16319470Y45181885D01*
X16263400Y44900000D01*
X16319470Y44618115D01*
X16479145Y44379145D01*
X16718115Y44219470D01*
X17000000Y44163400D01*
X17281885Y44219470D01*
X17520855Y44379145D01*
X18405110Y45263400D01*
X35094890Y45263400D01*
X37419145Y42939145D01*
X37658115Y42779470D01*
X37864765Y42738366D01*
X37958624Y42597895D01*
X38354161Y42333606D01*
X38820729Y42240800D01*
X39179271Y42240800D01*
X39645839Y42333606D01*
X40041376Y42597895D01*
X40163400Y42780518D01*
X40163400Y42205110D01*
X39129145Y41170855D01*
X38969470Y40931885D01*
X38914513Y40655600D01*
X37779267Y40655600D01*
X37648569Y40601463D01*
X37548537Y40501431D01*
X37494400Y40370733D01*
X37494400Y40229267D01*
X37494400Y35629267D01*
X37548537Y35498569D01*
X37648569Y35398537D01*
X37779267Y35344400D01*
X37920733Y35344400D01*
X41520733Y35344400D01*
X41651431Y35398537D01*
X41751463Y35498569D01*
X41805600Y35629267D01*
X41805600Y35770733D01*
X41805600Y40370733D01*
X41751463Y40501431D01*
X41651431Y40601463D01*
X41520733Y40655600D01*
X41379267Y40655600D01*
X40697310Y40655600D01*
X41420855Y41379145D01*
X41580530Y41618115D01*
X41636600Y41900000D01*
X41636600Y43683615D01*
X41935538Y42961915D01*
X42399952Y42615478D01*
X44784474Y45000000D01*
X42399952Y47384522D01*
X41935538Y47038085D01*
X41636600Y46311971D01*
X41636600Y46640000D01*
X41580530Y46921884D01*
X41580530Y46921885D01*
X41420855Y47160855D01*
X40371600Y48210110D01*
X40371600Y49474333D01*
X40332221Y49569400D01*
X49569400Y49569400D01*
X49569400Y40924297D01*
X49397257Y40995600D01*
X49154743Y40995600D01*
X48611135Y40995600D01*
X48611135Y44289773D01*
X48608046Y45725758D01*
X48064462Y47038085D01*
X47600048Y47384522D01*
X47384522Y47168996D01*
X47384522Y47600048D01*
X47038085Y48064462D01*
X45710227Y48611135D01*
X44274242Y48608046D01*
X42961915Y48064462D01*
X42615478Y47600048D01*
X45000000Y45215526D01*
X47384522Y47600048D01*
X47384522Y47168996D01*
X45215526Y45000000D01*
X47600048Y42615478D01*
X48064462Y42961915D01*
X48611135Y44289773D01*
X48611135Y40995600D01*
X48564800Y40995600D01*
X48412400Y40843200D01*
X48412400Y39522400D01*
X48432400Y39522400D01*
X48432400Y39217600D01*
X48412400Y39217600D01*
X48412400Y39197600D01*
X48107600Y39197600D01*
X48107600Y39217600D01*
X48107600Y39522400D01*
X48107600Y40843200D01*
X47955200Y40995600D01*
X47384522Y40995600D01*
X47384522Y42399952D01*
X45000000Y44784474D01*
X42615478Y42399952D01*
X42961915Y41935538D01*
X44289773Y41388865D01*
X45725758Y41391954D01*
X47038085Y41935538D01*
X47384522Y42399952D01*
X47384522Y40995600D01*
X47365257Y40995600D01*
X47122743Y40995600D01*
X46898689Y40902794D01*
X46727206Y40731311D01*
X46634400Y40507257D01*
X46634400Y39674800D01*
X46786800Y39522400D01*
X48107600Y39522400D01*
X48107600Y39217600D01*
X46786800Y39217600D01*
X46634400Y39065200D01*
X46634400Y38232743D01*
X46727206Y38008689D01*
X46898689Y37837206D01*
X47122743Y37744400D01*
X47235114Y37744400D01*
X46992807Y37381760D01*
X46888400Y36856871D01*
X46888400Y36803129D01*
X46992807Y36278240D01*
X47290132Y35833261D01*
X47735111Y35535936D01*
X48260000Y35431529D01*
X48784889Y35535936D01*
X49229868Y35833261D01*
X49527193Y36278240D01*
X49569400Y36490429D01*
X49569400Y33304297D01*
X49397257Y33375600D01*
X49154743Y33375600D01*
X48564800Y33375600D01*
X48412400Y33223200D01*
X48412400Y31902400D01*
X48432400Y31902400D01*
X48432400Y31597600D01*
X48412400Y31597600D01*
X48412400Y31577600D01*
X48107600Y31577600D01*
X48107600Y31597600D01*
X48107600Y31902400D01*
X48107600Y33223200D01*
X47955200Y33375600D01*
X47365257Y33375600D01*
X47122743Y33375600D01*
X46898689Y33282794D01*
X46727206Y33111311D01*
X46634400Y32887257D01*
X46634400Y32054800D01*
X46786800Y31902400D01*
X48107600Y31902400D01*
X48107600Y31597600D01*
X46786800Y31597600D01*
X46634400Y31445200D01*
X46634400Y30612743D01*
X46727206Y30388689D01*
X46898689Y30217206D01*
X47122743Y30124400D01*
X47235114Y30124400D01*
X46992807Y29761760D01*
X46888400Y29236871D01*
X46888400Y29183129D01*
X46992807Y28658240D01*
X47290132Y28213261D01*
X47735111Y27915936D01*
X48260000Y27811529D01*
X48784889Y27915936D01*
X49229868Y28213261D01*
X49527193Y28658240D01*
X49569400Y28870429D01*
X49569400Y430600D01*
X49569400Y430600D01*
G37*
X49569400Y430600D02*
X48611135Y430600D01*
X48611135Y4289773D01*
X48608046Y5725758D01*
X48064462Y7038085D01*
X47600048Y7384522D01*
X47384522Y7168996D01*
X47384522Y7600048D01*
X47038085Y8064462D01*
X45736600Y8600278D01*
X45736600Y34200000D01*
X45736600Y40000000D01*
X45680530Y40281885D01*
X45520855Y40520855D01*
X45281885Y40680530D01*
X45000000Y40736600D01*
X44718115Y40680530D01*
X44479145Y40520855D01*
X44319470Y40281885D01*
X44263400Y40000000D01*
X44263400Y34200000D01*
X44319470Y33918115D01*
X44479145Y33679145D01*
X44718115Y33519470D01*
X45000000Y33463400D01*
X45281885Y33519470D01*
X45520855Y33679145D01*
X45680530Y33918115D01*
X45736600Y34200000D01*
X45736600Y8600278D01*
X45710227Y8611135D01*
X44274242Y8608046D01*
X42961915Y8064462D01*
X42615478Y7600048D01*
X45000000Y5215526D01*
X47384522Y7600048D01*
X47384522Y7168996D01*
X45215526Y5000000D01*
X47600048Y2615478D01*
X48064462Y2961915D01*
X48611135Y4289773D01*
X48611135Y430600D01*
X47384522Y430600D01*
X47384522Y2399952D01*
X45000000Y4784474D01*
X44784474Y4568948D01*
X44784474Y5000000D01*
X42399952Y7384522D01*
X41935538Y7038085D01*
X41388865Y5710227D01*
X41391954Y4274242D01*
X41935538Y2961915D01*
X42399952Y2615478D01*
X44784474Y5000000D01*
X44784474Y4568948D01*
X42615478Y2399952D01*
X42961915Y1935538D01*
X44289773Y1388865D01*
X45725758Y1391954D01*
X47038085Y1935538D01*
X47384522Y2399952D01*
X47384522Y430600D01*
X39621691Y430600D01*
X39621691Y17147357D01*
X39595137Y17986137D01*
X39336600Y18610300D01*
X39336600Y30200000D01*
X39336600Y33000000D01*
X39280530Y33281885D01*
X39120855Y33520855D01*
X38881885Y33680530D01*
X38600000Y33736600D01*
X38318115Y33680530D01*
X38079145Y33520855D01*
X37919470Y33281885D01*
X37863400Y33000000D01*
X37863400Y30200000D01*
X37919470Y29918115D01*
X38079145Y29679145D01*
X38318115Y29519470D01*
X38600000Y29463400D01*
X38881885Y29519470D01*
X39120855Y29679145D01*
X39280530Y29918115D01*
X39336600Y30200000D01*
X39336600Y18610300D01*
X39325236Y18637735D01*
X39016728Y18801202D01*
X38801202Y18585676D01*
X38801202Y19016728D01*
X38637735Y19325236D01*
X37852643Y19621691D01*
X37013863Y19595137D01*
X36362265Y19325236D01*
X36198798Y19016728D01*
X37500000Y17715526D01*
X38801202Y19016728D01*
X38801202Y18585676D01*
X37715526Y17500000D01*
X39016728Y16198798D01*
X39325236Y16362265D01*
X39621691Y17147357D01*
X39621691Y430600D01*
X38801202Y430600D01*
X38801202Y15983272D01*
X37500000Y17284474D01*
X37284474Y17068948D01*
X37284474Y17500000D01*
X35983272Y18801202D01*
X35674764Y18637735D01*
X35378309Y17852643D01*
X35404863Y17013863D01*
X35674764Y16362265D01*
X35983272Y16198798D01*
X37284474Y17500000D01*
X37284474Y17068948D01*
X36198798Y15983272D01*
X36362265Y15674764D01*
X37147357Y15378309D01*
X37986137Y15404863D01*
X38637735Y15674764D01*
X38801202Y15983272D01*
X38801202Y430600D01*
X35273217Y430600D01*
X35273217Y27933301D01*
X35170959Y28180783D01*
X34981778Y28370294D01*
X34734475Y28472983D01*
X34466699Y28473217D01*
X34219217Y28370959D01*
X34029706Y28181778D01*
X33927017Y27934475D01*
X33927001Y27917265D01*
X33204869Y27195131D01*
X33083736Y27013844D01*
X33041200Y26800000D01*
X33041200Y20993252D01*
X33029706Y20981778D01*
X32973217Y20845738D01*
X32973217Y21233301D01*
X32870959Y21480783D01*
X32757200Y21594741D01*
X32757200Y22405325D01*
X32870294Y22518222D01*
X32972983Y22765525D01*
X32973217Y23033301D01*
X32870959Y23280783D01*
X32681778Y23470294D01*
X32434475Y23572983D01*
X32166699Y23573217D01*
X31919217Y23470959D01*
X31729706Y23281778D01*
X31627017Y23034475D01*
X31626783Y22766699D01*
X31729041Y22519217D01*
X31842800Y22405260D01*
X31842800Y21594676D01*
X31729706Y21481778D01*
X31627017Y21234475D01*
X31626783Y20966699D01*
X31729041Y20719217D01*
X31918222Y20529706D01*
X32165525Y20427017D01*
X32433301Y20426783D01*
X32680783Y20529041D01*
X32870294Y20718222D01*
X32972983Y20965525D01*
X32973217Y21233301D01*
X32973217Y20845738D01*
X32927017Y20734475D01*
X32926783Y20466699D01*
X33029041Y20219217D01*
X33218222Y20029706D01*
X33465525Y19927017D01*
X33733301Y19926783D01*
X33980783Y20029041D01*
X34170294Y20218222D01*
X34272983Y20465525D01*
X34273217Y20733301D01*
X34170959Y20980783D01*
X34158800Y20992964D01*
X34158800Y26568538D01*
X34717059Y27126798D01*
X34733301Y27126783D01*
X34980783Y27229041D01*
X35170294Y27418222D01*
X35272983Y27665525D01*
X35273217Y27933301D01*
X35273217Y430600D01*
X30136600Y430600D01*
X30136600Y3800000D01*
X30080530Y4081885D01*
X29920855Y4320855D01*
X29681885Y4480530D01*
X29673217Y4482255D01*
X29673217Y19533301D01*
X29570959Y19780783D01*
X29457200Y19894741D01*
X29457200Y20605325D01*
X29570294Y20718222D01*
X29672983Y20965525D01*
X29673217Y21233301D01*
X29570959Y21480783D01*
X29381778Y21670294D01*
X29134475Y21772983D01*
X28866699Y21773217D01*
X28673217Y21693272D01*
X28673217Y25533301D01*
X28570959Y25780783D01*
X28381778Y25970294D01*
X28134475Y26072983D01*
X27973454Y26073124D01*
X26723289Y27323289D01*
X26574963Y27422398D01*
X26400000Y27457200D01*
X22189378Y27457200D01*
X21500578Y28146000D01*
X22905210Y28146000D01*
X23379605Y28620395D01*
X23654000Y28894790D01*
X23654000Y33705210D01*
X23105210Y34254000D01*
X15294790Y34254000D01*
X14746000Y33705210D01*
X14746000Y29694790D01*
X15494790Y28946000D01*
X19305210Y28946000D01*
X19326871Y28967662D01*
X19326783Y28866699D01*
X19429041Y28619217D01*
X19618222Y28429706D01*
X19865525Y28327017D01*
X20026545Y28326877D01*
X21676711Y26676711D01*
X21825037Y26577602D01*
X22000000Y26542800D01*
X26210622Y26542800D01*
X27326922Y25426500D01*
X27326783Y25266699D01*
X27429041Y25019217D01*
X27618222Y24829706D01*
X27865525Y24727017D01*
X28133301Y24726783D01*
X28380783Y24829041D01*
X28570294Y25018222D01*
X28672983Y25265525D01*
X28673217Y25533301D01*
X28673217Y21693272D01*
X28619217Y21670959D01*
X28429706Y21481778D01*
X28327017Y21234475D01*
X28326783Y20966699D01*
X28429041Y20719217D01*
X28542800Y20605260D01*
X28542800Y19894676D01*
X28429706Y19781778D01*
X28327017Y19534475D01*
X28326783Y19266699D01*
X28429041Y19019217D01*
X28618222Y18829706D01*
X28865525Y18727017D01*
X29133301Y18726783D01*
X29380783Y18829041D01*
X29570294Y19018222D01*
X29672983Y19265525D01*
X29673217Y19533301D01*
X29673217Y4482255D01*
X29400000Y4536600D01*
X18673217Y4536600D01*
X18673217Y21533301D01*
X18570959Y21780783D01*
X18457200Y21894741D01*
X18457200Y23600000D01*
X18422398Y23774963D01*
X18323289Y23923289D01*
X15273077Y26973501D01*
X15273217Y27133301D01*
X15170959Y27380783D01*
X14981778Y27570294D01*
X14734475Y27672983D01*
X14466699Y27673217D01*
X14219217Y27570959D01*
X14029706Y27381778D01*
X13927017Y27134475D01*
X13926783Y26866699D01*
X14029041Y26619217D01*
X14218222Y26429706D01*
X14401733Y26353506D01*
X14299958Y26251908D01*
X14181778Y26370294D01*
X13934475Y26472983D01*
X13666699Y26473217D01*
X13419217Y26370959D01*
X13229706Y26181778D01*
X13127017Y25934475D01*
X13126783Y25666699D01*
X13229041Y25419217D01*
X13366334Y25281685D01*
X13377602Y25225037D01*
X13476711Y25076711D01*
X16326922Y22226499D01*
X16326783Y22066699D01*
X16429041Y21819217D01*
X16618222Y21629706D01*
X16865525Y21527017D01*
X17133301Y21526783D01*
X17363281Y21621810D01*
X17327017Y21534475D01*
X17326783Y21266699D01*
X17429041Y21019217D01*
X17618222Y20829706D01*
X17865525Y20727017D01*
X18133301Y20726783D01*
X18380783Y20829041D01*
X18570294Y21018222D01*
X18672983Y21265525D01*
X18673217Y21533301D01*
X18673217Y4536600D01*
X14621691Y4536600D01*
X14621691Y17147357D01*
X14595137Y17986137D01*
X14325236Y18637735D01*
X14016728Y18801202D01*
X13801202Y18585676D01*
X13801202Y19016728D01*
X13637735Y19325236D01*
X12852643Y19621691D01*
X12759600Y19618746D01*
X12759600Y35578743D01*
X12759600Y35821257D01*
X12759600Y37695200D01*
X12759600Y38304800D01*
X12759600Y40178743D01*
X12759600Y40421257D01*
X12666794Y40645311D01*
X12495311Y40816794D01*
X12271257Y40909600D01*
X10654800Y40909600D01*
X10502400Y40757200D01*
X10502400Y38152400D01*
X12607200Y38152400D01*
X12759600Y38304800D01*
X12759600Y37695200D01*
X12607200Y37847600D01*
X10502400Y37847600D01*
X10502400Y35242800D01*
X10654800Y35090400D01*
X12271257Y35090400D01*
X12495311Y35183206D01*
X12666794Y35354689D01*
X12759600Y35578743D01*
X12759600Y19618746D01*
X12013863Y19595137D01*
X11362265Y19325236D01*
X11198798Y19016728D01*
X12500000Y17715526D01*
X13801202Y19016728D01*
X13801202Y18585676D01*
X12715526Y17500000D01*
X14016728Y16198798D01*
X14325236Y16362265D01*
X14621691Y17147357D01*
X14621691Y4536600D01*
X13801202Y4536600D01*
X13801202Y15983272D01*
X12500000Y17284474D01*
X12284474Y17068948D01*
X12284474Y17500000D01*
X10983272Y18801202D01*
X10674764Y18637735D01*
X10378309Y17852643D01*
X10404863Y17013863D01*
X10674764Y16362265D01*
X10983272Y16198798D01*
X12284474Y17500000D01*
X12284474Y17068948D01*
X11198798Y15983272D01*
X11362265Y15674764D01*
X12147357Y15378309D01*
X12986137Y15404863D01*
X13637735Y15674764D01*
X13801202Y15983272D01*
X13801202Y4536600D01*
X10197600Y4536600D01*
X10197600Y35242800D01*
X10197600Y37847600D01*
X10197600Y38152400D01*
X10197600Y40757200D01*
X10045200Y40909600D01*
X8611135Y40909600D01*
X8611135Y44289773D01*
X8608046Y45725758D01*
X8064462Y47038085D01*
X7600048Y47384522D01*
X7384522Y47168996D01*
X7384522Y47600048D01*
X7038085Y48064462D01*
X5710227Y48611135D01*
X4274242Y48608046D01*
X2961915Y48064462D01*
X2615478Y47600048D01*
X5000000Y45215526D01*
X7384522Y47600048D01*
X7384522Y47168996D01*
X5215526Y45000000D01*
X7600048Y42615478D01*
X8064462Y42961915D01*
X8611135Y44289773D01*
X8611135Y40909600D01*
X8428743Y40909600D01*
X8204689Y40816794D01*
X8033206Y40645311D01*
X7940400Y40421257D01*
X7940400Y40178743D01*
X7940400Y38304800D01*
X8092800Y38152400D01*
X10197600Y38152400D01*
X10197600Y37847600D01*
X8092800Y37847600D01*
X7940400Y37695200D01*
X7940400Y35821257D01*
X7940400Y35578743D01*
X8033206Y35354689D01*
X8204689Y35183206D01*
X8428743Y35090400D01*
X10045200Y35090400D01*
X10197600Y35242800D01*
X10197600Y4536600D01*
X9600000Y4536600D01*
X9318115Y4480530D01*
X9079145Y4320855D01*
X8919470Y4081885D01*
X8863400Y3800000D01*
X8919470Y3518115D01*
X9079145Y3279145D01*
X9318115Y3119470D01*
X9600000Y3063400D01*
X14381470Y3063400D01*
X14289524Y2841967D01*
X14289277Y2559273D01*
X14397232Y2298004D01*
X14596952Y2097934D01*
X14858033Y1989524D01*
X15140727Y1989277D01*
X15401996Y2097232D01*
X15602066Y2296952D01*
X15710476Y2558033D01*
X15710723Y2840727D01*
X15618715Y3063400D01*
X24381470Y3063400D01*
X24289524Y2841967D01*
X24289277Y2559273D01*
X24397232Y2298004D01*
X24596952Y2097934D01*
X24858033Y1989524D01*
X25140727Y1989277D01*
X25401996Y2097232D01*
X25602066Y2296952D01*
X25710476Y2558033D01*
X25710723Y2840727D01*
X25618715Y3063400D01*
X29400000Y3063400D01*
X29681885Y3119470D01*
X29920855Y3279145D01*
X30080530Y3518115D01*
X30136600Y3800000D01*
X30136600Y430600D01*
X25535597Y430600D01*
X25602066Y496952D01*
X25710476Y758033D01*
X25710723Y1040727D01*
X25602768Y1301996D01*
X25403048Y1502066D01*
X25141967Y1610476D01*
X24859273Y1610723D01*
X24598004Y1502768D01*
X24397934Y1303048D01*
X24289524Y1041967D01*
X24289277Y759273D01*
X24397232Y498004D01*
X24464518Y430600D01*
X15535597Y430600D01*
X15602066Y496952D01*
X15710476Y758033D01*
X15710723Y1040727D01*
X15602768Y1301996D01*
X15403048Y1502066D01*
X15141967Y1610476D01*
X14859273Y1610723D01*
X14598004Y1502768D01*
X14397934Y1303048D01*
X14289524Y1041967D01*
X14289277Y759273D01*
X14397232Y498004D01*
X14464518Y430600D01*
X8611135Y430600D01*
X8611135Y4289773D01*
X8608046Y5725758D01*
X8064462Y7038085D01*
X7600048Y7384522D01*
X7384522Y7168996D01*
X7384522Y7600048D01*
X7384522Y42399952D01*
X5000000Y44784474D01*
X4784474Y44568948D01*
X4784474Y45000000D01*
X2399952Y47384522D01*
X1935538Y47038085D01*
X1388865Y45710227D01*
X1391954Y44274242D01*
X1935538Y42961915D01*
X2399952Y42615478D01*
X4784474Y45000000D01*
X4784474Y44568948D01*
X2615478Y42399952D01*
X2961915Y41935538D01*
X4289773Y41388865D01*
X5725758Y41391954D01*
X7038085Y41935538D01*
X7384522Y42399952D01*
X7384522Y7600048D01*
X7038085Y8064462D01*
X6299200Y8368658D01*
X6299200Y30815667D01*
X6299200Y30957133D01*
X6299200Y32684333D01*
X6299200Y34266114D01*
X6299200Y34313886D01*
X6299200Y36806114D01*
X6299200Y36853886D01*
X6206394Y37320454D01*
X5942105Y37715991D01*
X5546568Y37980280D01*
X5080000Y38073086D01*
X4613432Y37980280D01*
X4217895Y37715991D01*
X3953606Y37320454D01*
X3940755Y37255849D01*
X3709752Y37725563D01*
X3277993Y38105037D01*
X2919746Y38253415D01*
X2692400Y38141978D01*
X2692400Y36982400D01*
X2712400Y36982400D01*
X2712400Y36677600D01*
X2692400Y36677600D01*
X2692400Y36657600D01*
X2387600Y36657600D01*
X2387600Y36677600D01*
X2387600Y36982400D01*
X2387600Y38141978D01*
X2160254Y38253415D01*
X1802007Y38105037D01*
X1370248Y37725563D01*
X1116573Y37209748D01*
X1227092Y36982400D01*
X2387600Y36982400D01*
X2387600Y36677600D01*
X1227092Y36677600D01*
X1116573Y36450252D01*
X1370248Y35934437D01*
X1802007Y35554963D01*
X2077126Y35441015D01*
X2073432Y35440280D01*
X1677895Y35175991D01*
X1413606Y34780454D01*
X1320800Y34313886D01*
X1320800Y34266114D01*
X1413606Y33799546D01*
X1677895Y33404009D01*
X2073432Y33139720D01*
X2540000Y33046914D01*
X3006568Y33139720D01*
X3402105Y33404009D01*
X3666394Y33799546D01*
X3759200Y34266114D01*
X3759200Y34313886D01*
X3666394Y34780454D01*
X3402105Y35175991D01*
X3006568Y35440280D01*
X3002873Y35441015D01*
X3277993Y35554963D01*
X3709752Y35934437D01*
X3940755Y36404152D01*
X3953606Y36339546D01*
X4217895Y35944009D01*
X4613432Y35679720D01*
X5080000Y35586914D01*
X5546568Y35679720D01*
X5942105Y35944009D01*
X6206394Y36339546D01*
X6299200Y36806114D01*
X6299200Y34313886D01*
X6206394Y34780454D01*
X5942105Y35175991D01*
X5546568Y35440280D01*
X5080000Y35533086D01*
X4613432Y35440280D01*
X4217895Y35175991D01*
X3953606Y34780454D01*
X3860800Y34313886D01*
X3860800Y34266114D01*
X3953606Y33799546D01*
X4217895Y33404009D01*
X4613432Y33139720D01*
X5080000Y33046914D01*
X5546568Y33139720D01*
X5942105Y33404009D01*
X6206394Y33799546D01*
X6299200Y34266114D01*
X6299200Y32684333D01*
X6245063Y32815031D01*
X6145031Y32915063D01*
X6014333Y32969200D01*
X5872867Y32969200D01*
X4145667Y32969200D01*
X4014969Y32915063D01*
X3914937Y32815031D01*
X3860800Y32684333D01*
X3860800Y32542867D01*
X3860800Y30815667D01*
X3914937Y30684969D01*
X4014969Y30584937D01*
X4145667Y30530800D01*
X4287133Y30530800D01*
X6014333Y30530800D01*
X6145031Y30584937D01*
X6245063Y30684969D01*
X6299200Y30815667D01*
X6299200Y8368658D01*
X5710227Y8611135D01*
X4274242Y8608046D01*
X3759200Y8394709D01*
X3759200Y31726114D01*
X3759200Y31773886D01*
X3666394Y32240454D01*
X3402105Y32635991D01*
X3006568Y32900280D01*
X2540000Y32993086D01*
X2073432Y32900280D01*
X1677895Y32635991D01*
X1413606Y32240454D01*
X1320800Y31773886D01*
X1320800Y31726114D01*
X1413606Y31259546D01*
X1677895Y30864009D01*
X2073432Y30599720D01*
X2540000Y30506914D01*
X3006568Y30599720D01*
X3402105Y30864009D01*
X3666394Y31259546D01*
X3759200Y31726114D01*
X3759200Y8394709D01*
X2961915Y8064462D01*
X2615478Y7600048D01*
X5000000Y5215526D01*
X7384522Y7600048D01*
X7384522Y7168996D01*
X5215526Y5000000D01*
X7600048Y2615478D01*
X8064462Y2961915D01*
X8611135Y4289773D01*
X8611135Y430600D01*
X7384522Y430600D01*
X7384522Y2399952D01*
X5000000Y4784474D01*
X4784474Y4568948D01*
X4784474Y5000000D01*
X2399952Y7384522D01*
X1935538Y7038085D01*
X1388865Y5710227D01*
X1391954Y4274242D01*
X1935538Y2961915D01*
X2399952Y2615478D01*
X4784474Y5000000D01*
X4784474Y4568948D01*
X2615478Y2399952D01*
X2961915Y1935538D01*
X4289773Y1388865D01*
X5725758Y1391954D01*
X7038085Y1935538D01*
X7384522Y2399952D01*
X7384522Y430600D01*
X430600Y430600D01*
X430600Y49569400D01*
X27925265Y49569400D01*
X27905675Y49509851D01*
X28700000Y48715526D01*
X29494325Y49509851D01*
X29474734Y49569400D01*
X34525265Y49569400D01*
X34505675Y49509851D01*
X35300000Y48715526D01*
X36094325Y49509851D01*
X36074734Y49569400D01*
X37667778Y49569400D01*
X37628400Y49474333D01*
X37628400Y49332867D01*
X37628400Y47605667D01*
X37682537Y47474969D01*
X37782569Y47374937D01*
X37913267Y47320800D01*
X38054733Y47320800D01*
X39177490Y47320800D01*
X39303875Y47194415D01*
X39179271Y47219200D01*
X38820729Y47219200D01*
X38354161Y47126394D01*
X37958624Y46862105D01*
X37694335Y46466568D01*
X37692471Y46457200D01*
X36989378Y46457200D01*
X36725204Y46721374D01*
X36725204Y48314569D01*
X36687679Y48874086D01*
X36545755Y49216718D01*
X36309851Y49294325D01*
X35515526Y48500000D01*
X36309851Y47705675D01*
X36545755Y47783282D01*
X36725204Y48314569D01*
X36725204Y46721374D01*
X36223289Y47223289D01*
X36074963Y47322398D01*
X36041339Y47329087D01*
X36094325Y47490149D01*
X35300000Y48284474D01*
X35084474Y48068948D01*
X35084474Y48500000D01*
X34290149Y49294325D01*
X34054245Y49216718D01*
X33874796Y48685431D01*
X33912321Y48125914D01*
X34054245Y47783282D01*
X34290149Y47705675D01*
X35084474Y48500000D01*
X35084474Y48068948D01*
X34505675Y47490149D01*
X34549412Y47357200D01*
X30125204Y47357200D01*
X30125204Y48314569D01*
X30087679Y48874086D01*
X29945755Y49216718D01*
X29709851Y49294325D01*
X28915526Y48500000D01*
X29709851Y47705675D01*
X29945755Y47783282D01*
X30125204Y48314569D01*
X30125204Y47357200D01*
X29450587Y47357200D01*
X29494325Y47490149D01*
X28700000Y48284474D01*
X28484474Y48068948D01*
X28484474Y48500000D01*
X27690149Y49294325D01*
X27454245Y49216718D01*
X27274796Y48685431D01*
X27312321Y48125914D01*
X27454245Y47783282D01*
X27690149Y47705675D01*
X28484474Y48500000D01*
X28484474Y48068948D01*
X27905675Y47490149D01*
X27949412Y47357200D01*
X13300000Y47357200D01*
X13125037Y47322398D01*
X12976711Y47223289D01*
X12126499Y46373078D01*
X11966699Y46373217D01*
X11719217Y46270959D01*
X11529706Y46081778D01*
X11427017Y45834475D01*
X11426783Y45566699D01*
X11529041Y45319217D01*
X11718222Y45129706D01*
X11965525Y45027017D01*
X12233301Y45026783D01*
X12480783Y45129041D01*
X12670294Y45318222D01*
X12772983Y45565525D01*
X12773123Y45726546D01*
X13489378Y46442800D01*
X17501090Y46442800D01*
X16479145Y45420855D01*
X16319470Y45181885D01*
X16263400Y44900000D01*
X16319470Y44618115D01*
X16479145Y44379145D01*
X16718115Y44219470D01*
X17000000Y44163400D01*
X17281885Y44219470D01*
X17520855Y44379145D01*
X18405110Y45263400D01*
X35094890Y45263400D01*
X37419145Y42939145D01*
X37658115Y42779470D01*
X37864765Y42738366D01*
X37958624Y42597895D01*
X38354161Y42333606D01*
X38820729Y42240800D01*
X39179271Y42240800D01*
X39645839Y42333606D01*
X40041376Y42597895D01*
X40163400Y42780518D01*
X40163400Y42205110D01*
X39129145Y41170855D01*
X38969470Y40931885D01*
X38914513Y40655600D01*
X37779267Y40655600D01*
X37648569Y40601463D01*
X37548537Y40501431D01*
X37494400Y40370733D01*
X37494400Y40229267D01*
X37494400Y35629267D01*
X37548537Y35498569D01*
X37648569Y35398537D01*
X37779267Y35344400D01*
X37920733Y35344400D01*
X41520733Y35344400D01*
X41651431Y35398537D01*
X41751463Y35498569D01*
X41805600Y35629267D01*
X41805600Y35770733D01*
X41805600Y40370733D01*
X41751463Y40501431D01*
X41651431Y40601463D01*
X41520733Y40655600D01*
X41379267Y40655600D01*
X40697310Y40655600D01*
X41420855Y41379145D01*
X41580530Y41618115D01*
X41636600Y41900000D01*
X41636600Y43683615D01*
X41935538Y42961915D01*
X42399952Y42615478D01*
X44784474Y45000000D01*
X42399952Y47384522D01*
X41935538Y47038085D01*
X41636600Y46311971D01*
X41636600Y46640000D01*
X41580530Y46921884D01*
X41580530Y46921885D01*
X41420855Y47160855D01*
X40371600Y48210110D01*
X40371600Y49474333D01*
X40332221Y49569400D01*
X49569400Y49569400D01*
X49569400Y40924297D01*
X49397257Y40995600D01*
X49154743Y40995600D01*
X48611135Y40995600D01*
X48611135Y44289773D01*
X48608046Y45725758D01*
X48064462Y47038085D01*
X47600048Y47384522D01*
X47384522Y47168996D01*
X47384522Y47600048D01*
X47038085Y48064462D01*
X45710227Y48611135D01*
X44274242Y48608046D01*
X42961915Y48064462D01*
X42615478Y47600048D01*
X45000000Y45215526D01*
X47384522Y47600048D01*
X47384522Y47168996D01*
X45215526Y45000000D01*
X47600048Y42615478D01*
X48064462Y42961915D01*
X48611135Y44289773D01*
X48611135Y40995600D01*
X48564800Y40995600D01*
X48412400Y40843200D01*
X48412400Y39522400D01*
X48432400Y39522400D01*
X48432400Y39217600D01*
X48412400Y39217600D01*
X48412400Y39197600D01*
X48107600Y39197600D01*
X48107600Y39217600D01*
X48107600Y39522400D01*
X48107600Y40843200D01*
X47955200Y40995600D01*
X47384522Y40995600D01*
X47384522Y42399952D01*
X45000000Y44784474D01*
X42615478Y42399952D01*
X42961915Y41935538D01*
X44289773Y41388865D01*
X45725758Y41391954D01*
X47038085Y41935538D01*
X47384522Y42399952D01*
X47384522Y40995600D01*
X47365257Y40995600D01*
X47122743Y40995600D01*
X46898689Y40902794D01*
X46727206Y40731311D01*
X46634400Y40507257D01*
X46634400Y39674800D01*
X46786800Y39522400D01*
X48107600Y39522400D01*
X48107600Y39217600D01*
X46786800Y39217600D01*
X46634400Y39065200D01*
X46634400Y38232743D01*
X46727206Y38008689D01*
X46898689Y37837206D01*
X47122743Y37744400D01*
X47235114Y37744400D01*
X46992807Y37381760D01*
X46888400Y36856871D01*
X46888400Y36803129D01*
X46992807Y36278240D01*
X47290132Y35833261D01*
X47735111Y35535936D01*
X48260000Y35431529D01*
X48784889Y35535936D01*
X49229868Y35833261D01*
X49527193Y36278240D01*
X49569400Y36490429D01*
X49569400Y33304297D01*
X49397257Y33375600D01*
X49154743Y33375600D01*
X48564800Y33375600D01*
X48412400Y33223200D01*
X48412400Y31902400D01*
X48432400Y31902400D01*
X48432400Y31597600D01*
X48412400Y31597600D01*
X48412400Y31577600D01*
X48107600Y31577600D01*
X48107600Y31597600D01*
X48107600Y31902400D01*
X48107600Y33223200D01*
X47955200Y33375600D01*
X47365257Y33375600D01*
X47122743Y33375600D01*
X46898689Y33282794D01*
X46727206Y33111311D01*
X46634400Y32887257D01*
X46634400Y32054800D01*
X46786800Y31902400D01*
X48107600Y31902400D01*
X48107600Y31597600D01*
X46786800Y31597600D01*
X46634400Y31445200D01*
X46634400Y30612743D01*
X46727206Y30388689D01*
X46898689Y30217206D01*
X47122743Y30124400D01*
X47235114Y30124400D01*
X46992807Y29761760D01*
X46888400Y29236871D01*
X46888400Y29183129D01*
X46992807Y28658240D01*
X47290132Y28213261D01*
X47735111Y27915936D01*
X48260000Y27811529D01*
X48784889Y27915936D01*
X49229868Y28213261D01*
X49527193Y28658240D01*
X49569400Y28870429D01*
X49569400Y430600D01*
M02*
