%FSLAX46Y46*%
G04 Gerber Fmt 4.6, Leading zero omitted, Abs format (unit mm)*
G04 Created by KiCad (PCBNEW (2014-jul-16 BZR unknown)-product) date Thu 06 Nov 2014 11:15:42 PM PST*
%MOMM*%
G01*
G04 APERTURE LIST*
%ADD10C,0.100000*%
%ADD11C,0.150000*%
%ADD12C,0.200000*%
%ADD13C,0.127000*%
%ADD14C,0.066040*%
%ADD15C,0.101600*%
%ADD16C,0.050800*%
%ADD17C,0.152400*%
%ADD18C,0.203200*%
%ADD19C,0.381000*%
%ADD20C,0.130000*%
%ADD21R,1.600000X1.150000*%
%ADD22R,1.150000X1.600000*%
%ADD23R,1.200000X1.150000*%
%ADD24R,3.000960X2.000200*%
%ADD25R,2.000200X3.000960*%
%ADD26R,1.598880X1.598880*%
%ADD27R,2.400000X2.100000*%
%ADD28R,2.432000X2.127200*%
%ADD29O,2.432000X2.127200*%
%ADD30C,6.400000*%
%ADD31R,2.127200X2.127200*%
%ADD32O,2.127200X2.127200*%
%ADD33C,2.000000*%
%ADD34R,0.800000X2.150000*%
%ADD35R,2.200000X2.000000*%
%ADD36R,2.432000X2.432000*%
%ADD37O,2.432000X2.432000*%
%ADD38C,3.399740*%
%ADD39R,0.800000X1.000000*%
%ADD40R,1.000000X0.800000*%
%ADD41R,1.600000X1.300000*%
%ADD42R,1.700000X1.900000*%
%ADD43R,1.300000X1.600000*%
%ADD44R,0.849580X2.398980*%
%ADD45R,2.398980X0.849580*%
%ADD46R,1.060400X0.806400*%
%ADD47R,2.100000X2.300000*%
%ADD48R,1.900000X2.400000*%
%ADD49R,1.000000X0.900000*%
%ADD50R,0.900000X1.000000*%
%ADD51C,1.110000*%
%ADD52R,1.800000X1.450000*%
%ADD53R,4.057600X2.432000*%
%ADD54R,1.416000X2.432000*%
G04 APERTURE END LIST*
D10*
D11*
X35119046Y19547619D02*
X35119046Y20547619D01*
X35357141Y20547619D01*
X35499999Y20500000D01*
X35595237Y20404762D01*
X35642856Y20309524D01*
X35690475Y20119048D01*
X35690475Y19976190D01*
X35642856Y19785714D01*
X35595237Y19690476D01*
X35499999Y19595238D01*
X35357141Y19547619D01*
X35119046Y19547619D01*
X36499999Y19595238D02*
X36404761Y19547619D01*
X36214284Y19547619D01*
X36119046Y19595238D01*
X36071427Y19690476D01*
X36071427Y20071429D01*
X36119046Y20166667D01*
X36214284Y20214286D01*
X36404761Y20214286D01*
X36499999Y20166667D01*
X36547618Y20071429D01*
X36547618Y19976190D01*
X36071427Y19880952D01*
X36880951Y20214286D02*
X37119046Y19547619D01*
X37357142Y20214286D01*
X39071428Y19547619D02*
X38738094Y20023810D01*
X38499999Y19547619D02*
X38499999Y20547619D01*
X38880952Y20547619D01*
X38976190Y20500000D01*
X39023809Y20452381D01*
X39071428Y20357143D01*
X39071428Y20214286D01*
X39023809Y20119048D01*
X38976190Y20071429D01*
X38880952Y20023810D01*
X38499999Y20023810D01*
X39880952Y19595238D02*
X39785714Y19547619D01*
X39595237Y19547619D01*
X39499999Y19595238D01*
X39452380Y19690476D01*
X39452380Y20071429D01*
X39499999Y20166667D01*
X39595237Y20214286D01*
X39785714Y20214286D01*
X39880952Y20166667D01*
X39928571Y20071429D01*
X39928571Y19976190D01*
X39452380Y19880952D01*
X40261904Y20214286D02*
X40499999Y19547619D01*
X40738095Y20214286D01*
X41833333Y19833333D02*
X42309524Y19833333D01*
X41738095Y19547619D02*
X42071428Y20547619D01*
X42404762Y19547619D01*
X33261904Y24571429D02*
X33404761Y24523810D01*
X33452380Y24476190D01*
X33499999Y24380952D01*
X33499999Y24238095D01*
X33452380Y24142857D01*
X33404761Y24095238D01*
X33309523Y24047619D01*
X32928570Y24047619D01*
X32928570Y25047619D01*
X33261904Y25047619D01*
X33357142Y25000000D01*
X33404761Y24952381D01*
X33452380Y24857143D01*
X33452380Y24761905D01*
X33404761Y24666667D01*
X33357142Y24619048D01*
X33261904Y24571429D01*
X32928570Y24571429D01*
X33928570Y24047619D02*
X33928570Y24714286D01*
X33928570Y25047619D02*
X33880951Y25000000D01*
X33928570Y24952381D01*
X33976189Y25000000D01*
X33928570Y25047619D01*
X33928570Y24952381D01*
X34404760Y24714286D02*
X34404760Y24047619D01*
X34404760Y24619048D02*
X34452379Y24666667D01*
X34547617Y24714286D01*
X34690475Y24714286D01*
X34785713Y24666667D01*
X34833332Y24571429D01*
X34833332Y24047619D01*
X35738094Y24047619D02*
X35738094Y24571429D01*
X35690475Y24666667D01*
X35595237Y24714286D01*
X35404760Y24714286D01*
X35309522Y24666667D01*
X35738094Y24095238D02*
X35642856Y24047619D01*
X35404760Y24047619D01*
X35309522Y24095238D01*
X35261903Y24190476D01*
X35261903Y24285714D01*
X35309522Y24380952D01*
X35404760Y24428571D01*
X35642856Y24428571D01*
X35738094Y24476190D01*
X36214284Y24047619D02*
X36214284Y24714286D01*
X36214284Y24523810D02*
X36261903Y24619048D01*
X36309522Y24666667D01*
X36404760Y24714286D01*
X36499999Y24714286D01*
X36738094Y24714286D02*
X36976189Y24047619D01*
X37214285Y24714286D02*
X36976189Y24047619D01*
X36880951Y23809524D01*
X36833332Y23761905D01*
X36738094Y23714286D01*
X38261904Y25047619D02*
X38499999Y24047619D01*
X38690476Y24761905D01*
X38880952Y24047619D01*
X39119047Y25047619D01*
X39928571Y24047619D02*
X39928571Y24571429D01*
X39880952Y24666667D01*
X39785714Y24714286D01*
X39595237Y24714286D01*
X39499999Y24666667D01*
X39928571Y24095238D02*
X39833333Y24047619D01*
X39595237Y24047619D01*
X39499999Y24095238D01*
X39452380Y24190476D01*
X39452380Y24285714D01*
X39499999Y24380952D01*
X39595237Y24428571D01*
X39833333Y24428571D01*
X39928571Y24476190D01*
X40261904Y24714286D02*
X40642856Y24714286D01*
X40404761Y25047619D02*
X40404761Y24190476D01*
X40452380Y24095238D01*
X40547618Y24047619D01*
X40642856Y24047619D01*
X41404762Y24095238D02*
X41309524Y24047619D01*
X41119047Y24047619D01*
X41023809Y24095238D01*
X40976190Y24142857D01*
X40928571Y24238095D01*
X40928571Y24523810D01*
X40976190Y24619048D01*
X41023809Y24666667D01*
X41119047Y24714286D01*
X41309524Y24714286D01*
X41404762Y24666667D01*
X41833333Y24047619D02*
X41833333Y25047619D01*
X42261905Y24047619D02*
X42261905Y24571429D01*
X42214286Y24666667D01*
X42119048Y24714286D01*
X41976190Y24714286D01*
X41880952Y24666667D01*
X41833333Y24619048D01*
X35452380Y21047619D02*
X35452380Y22047619D01*
X36023809Y21047619D01*
X36023809Y22047619D01*
X36642856Y21047619D02*
X36547618Y21095238D01*
X36499999Y21142857D01*
X36452380Y21238095D01*
X36452380Y21523810D01*
X36499999Y21619048D01*
X36547618Y21666667D01*
X36642856Y21714286D01*
X36785714Y21714286D01*
X36880952Y21666667D01*
X36928571Y21619048D01*
X36976190Y21523810D01*
X36976190Y21238095D01*
X36928571Y21142857D01*
X36880952Y21095238D01*
X36785714Y21047619D01*
X36642856Y21047619D01*
X37309523Y21714286D02*
X37547618Y21047619D01*
X37785714Y21714286D01*
X38880952Y21952381D02*
X38928571Y22000000D01*
X39023809Y22047619D01*
X39261905Y22047619D01*
X39357143Y22000000D01*
X39404762Y21952381D01*
X39452381Y21857143D01*
X39452381Y21761905D01*
X39404762Y21619048D01*
X38833333Y21047619D01*
X39452381Y21047619D01*
X40071428Y22047619D02*
X40166667Y22047619D01*
X40261905Y22000000D01*
X40309524Y21952381D01*
X40357143Y21857143D01*
X40404762Y21666667D01*
X40404762Y21428571D01*
X40357143Y21238095D01*
X40309524Y21142857D01*
X40261905Y21095238D01*
X40166667Y21047619D01*
X40071428Y21047619D01*
X39976190Y21095238D01*
X39928571Y21142857D01*
X39880952Y21238095D01*
X39833333Y21428571D01*
X39833333Y21666667D01*
X39880952Y21857143D01*
X39928571Y21952381D01*
X39976190Y22000000D01*
X40071428Y22047619D01*
X41357143Y21047619D02*
X40785714Y21047619D01*
X41071428Y21047619D02*
X41071428Y22047619D01*
X40976190Y21904762D01*
X40880952Y21809524D01*
X40785714Y21761905D01*
X42214286Y21714286D02*
X42214286Y21047619D01*
X41976190Y22095238D02*
X41738095Y21380952D01*
X42357143Y21380952D01*
X35452380Y22547619D02*
X34976189Y22547619D01*
X34976189Y23547619D01*
X36166666Y22595238D02*
X36071428Y22547619D01*
X35880951Y22547619D01*
X35785713Y22595238D01*
X35738094Y22690476D01*
X35738094Y23071429D01*
X35785713Y23166667D01*
X35880951Y23214286D01*
X36071428Y23214286D01*
X36166666Y23166667D01*
X36214285Y23071429D01*
X36214285Y22976190D01*
X35738094Y22880952D01*
X37023809Y22595238D02*
X36928571Y22547619D01*
X36738094Y22547619D01*
X36642856Y22595238D01*
X36595237Y22690476D01*
X36595237Y23071429D01*
X36642856Y23166667D01*
X36738094Y23214286D01*
X36928571Y23214286D01*
X37023809Y23166667D01*
X37071428Y23071429D01*
X37071428Y22976190D01*
X36595237Y22880952D01*
X38214285Y22595238D02*
X38357142Y22547619D01*
X38595238Y22547619D01*
X38690476Y22595238D01*
X38738095Y22642857D01*
X38785714Y22738095D01*
X38785714Y22833333D01*
X38738095Y22928571D01*
X38690476Y22976190D01*
X38595238Y23023810D01*
X38404761Y23071429D01*
X38309523Y23119048D01*
X38261904Y23166667D01*
X38214285Y23261905D01*
X38214285Y23357143D01*
X38261904Y23452381D01*
X38309523Y23500000D01*
X38404761Y23547619D01*
X38642857Y23547619D01*
X38785714Y23500000D01*
X39119047Y23214286D02*
X39642857Y23214286D01*
X39119047Y22547619D01*
X39642857Y22547619D01*
X40452381Y23214286D02*
X40452381Y22547619D01*
X40023809Y23214286D02*
X40023809Y22690476D01*
X40071428Y22595238D01*
X40166666Y22547619D01*
X40309524Y22547619D01*
X40404762Y22595238D01*
X40452381Y22642857D01*
X40928571Y22547619D02*
X40928571Y23547619D01*
X40928571Y23166667D02*
X41023809Y23214286D01*
X41214286Y23214286D01*
X41309524Y23166667D01*
X41357143Y23119048D01*
X41404762Y23023810D01*
X41404762Y22738095D01*
X41357143Y22642857D01*
X41309524Y22595238D01*
X41214286Y22547619D01*
X41023809Y22547619D01*
X40928571Y22595238D01*
X42261905Y22547619D02*
X42261905Y23071429D01*
X42214286Y23166667D01*
X42119048Y23214286D01*
X41928571Y23214286D01*
X41833333Y23166667D01*
X42261905Y22595238D02*
X42166667Y22547619D01*
X41928571Y22547619D01*
X41833333Y22595238D01*
X41785714Y22690476D01*
X41785714Y22785714D01*
X41833333Y22880952D01*
X41928571Y22928571D01*
X42166667Y22928571D01*
X42261905Y22976190D01*
D12*
X8678571Y32735715D02*
X7178571Y32735715D01*
X8607143Y33378572D02*
X8678571Y33592858D01*
X8678571Y33950001D01*
X8607143Y34092858D01*
X8535714Y34164287D01*
X8392857Y34235715D01*
X8250000Y34235715D01*
X8107143Y34164287D01*
X8035714Y34092858D01*
X7964286Y33950001D01*
X7892857Y33664287D01*
X7821429Y33521429D01*
X7750000Y33450001D01*
X7607143Y33378572D01*
X7464286Y33378572D01*
X7321429Y33450001D01*
X7250000Y33521429D01*
X7178571Y33664287D01*
X7178571Y34021429D01*
X7250000Y34235715D01*
X8678571Y34878572D02*
X7178571Y34878572D01*
X7178571Y35450000D01*
X7250000Y35592858D01*
X7321429Y35664286D01*
X7464286Y35735715D01*
X7678571Y35735715D01*
X7821429Y35664286D01*
X7892857Y35592858D01*
X7964286Y35450000D01*
X7964286Y34878572D01*
X36828572Y36721429D02*
X36114286Y36721429D01*
X36114286Y38221429D01*
X37328572Y37507143D02*
X37828572Y37507143D01*
X38042858Y36721429D02*
X37328572Y36721429D01*
X37328572Y38221429D01*
X38042858Y38221429D01*
X38685715Y36721429D02*
X38685715Y38221429D01*
X39042858Y38221429D01*
X39257143Y38150000D01*
X39400001Y38007143D01*
X39471429Y37864286D01*
X39542858Y37578571D01*
X39542858Y37364286D01*
X39471429Y37078571D01*
X39400001Y36935714D01*
X39257143Y36792857D01*
X39042858Y36721429D01*
X38685715Y36721429D01*
X40114286Y36792857D02*
X40257143Y36721429D01*
X40542858Y36721429D01*
X40685715Y36792857D01*
X40757143Y36935714D01*
X40757143Y37007143D01*
X40685715Y37150000D01*
X40542858Y37221429D01*
X40328572Y37221429D01*
X40185715Y37292857D01*
X40114286Y37435714D01*
X40114286Y37507143D01*
X40185715Y37650000D01*
X40328572Y37721429D01*
X40542858Y37721429D01*
X40685715Y37650000D01*
X36364286Y29121429D02*
X36364286Y30621429D01*
X36864286Y29550000D01*
X37364286Y30621429D01*
X37364286Y29121429D01*
X38935715Y29264286D02*
X38864286Y29192857D01*
X38650000Y29121429D01*
X38507143Y29121429D01*
X38292858Y29192857D01*
X38150000Y29335714D01*
X38078572Y29478571D01*
X38007143Y29764286D01*
X38007143Y29978571D01*
X38078572Y30264286D01*
X38150000Y30407143D01*
X38292858Y30550000D01*
X38507143Y30621429D01*
X38650000Y30621429D01*
X38864286Y30550000D01*
X38935715Y30478571D01*
X39578572Y30621429D02*
X39578572Y29407143D01*
X39650000Y29264286D01*
X39721429Y29192857D01*
X39864286Y29121429D01*
X40150000Y29121429D01*
X40292858Y29192857D01*
X40364286Y29264286D01*
X40435715Y29407143D01*
X40435715Y30621429D01*
X37107143Y41821429D02*
X37107143Y40607143D01*
X37178571Y40464286D01*
X37250000Y40392857D01*
X37392857Y40321429D01*
X37678571Y40321429D01*
X37821429Y40392857D01*
X37892857Y40464286D01*
X37964286Y40607143D01*
X37964286Y41821429D01*
X38607143Y40392857D02*
X38821429Y40321429D01*
X39178572Y40321429D01*
X39321429Y40392857D01*
X39392858Y40464286D01*
X39464286Y40607143D01*
X39464286Y40750000D01*
X39392858Y40892857D01*
X39321429Y40964286D01*
X39178572Y41035714D01*
X38892858Y41107143D01*
X38750000Y41178571D01*
X38678572Y41250000D01*
X38607143Y41392857D01*
X38607143Y41535714D01*
X38678572Y41678571D01*
X38750000Y41750000D01*
X38892858Y41821429D01*
X39250000Y41821429D01*
X39464286Y41750000D01*
X40607143Y41107143D02*
X40821429Y41035714D01*
X40892857Y40964286D01*
X40964286Y40821429D01*
X40964286Y40607143D01*
X40892857Y40464286D01*
X40821429Y40392857D01*
X40678571Y40321429D01*
X40107143Y40321429D01*
X40107143Y41821429D01*
X40607143Y41821429D01*
X40750000Y41750000D01*
X40821429Y41678571D01*
X40892857Y41535714D01*
X40892857Y41392857D01*
X40821429Y41250000D01*
X40750000Y41178571D01*
X40607143Y41107143D01*
X40107143Y41107143D01*
X25107143Y4507143D02*
X25321429Y4435714D01*
X25392857Y4364286D01*
X25464286Y4221429D01*
X25464286Y4007143D01*
X25392857Y3864286D01*
X25321429Y3792857D01*
X25178571Y3721429D01*
X24607143Y3721429D01*
X24607143Y5221429D01*
X25107143Y5221429D01*
X25250000Y5150000D01*
X25321429Y5078571D01*
X25392857Y4935714D01*
X25392857Y4792857D01*
X25321429Y4650000D01*
X25250000Y4578571D01*
X25107143Y4507143D01*
X24607143Y4507143D01*
X14642857Y4150000D02*
X15357143Y4150000D01*
X14500000Y3721429D02*
X15000000Y5221429D01*
X15500000Y3721429D01*
X32821429Y2921429D02*
X32321429Y3635714D01*
X31964286Y2921429D02*
X31964286Y4421429D01*
X32535714Y4421429D01*
X32678572Y4350000D01*
X32750000Y4278571D01*
X32821429Y4135714D01*
X32821429Y3921429D01*
X32750000Y3778571D01*
X32678572Y3707143D01*
X32535714Y3635714D01*
X31964286Y3635714D01*
X33464286Y3707143D02*
X33964286Y3707143D01*
X34178572Y2921429D02*
X33464286Y2921429D01*
X33464286Y4421429D01*
X34178572Y4421429D01*
X34750000Y2992857D02*
X34964286Y2921429D01*
X35321429Y2921429D01*
X35464286Y2992857D01*
X35535715Y3064286D01*
X35607143Y3207143D01*
X35607143Y3350000D01*
X35535715Y3492857D01*
X35464286Y3564286D01*
X35321429Y3635714D01*
X35035715Y3707143D01*
X34892857Y3778571D01*
X34821429Y3850000D01*
X34750000Y3992857D01*
X34750000Y4135714D01*
X34821429Y4278571D01*
X34892857Y4350000D01*
X35035715Y4421429D01*
X35392857Y4421429D01*
X35607143Y4350000D01*
X36250000Y3707143D02*
X36750000Y3707143D01*
X36964286Y2921429D02*
X36250000Y2921429D01*
X36250000Y4421429D01*
X36964286Y4421429D01*
X37392857Y4421429D02*
X38250000Y4421429D01*
X37821429Y2921429D02*
X37821429Y4421429D01*
D11*
X0Y0D02*
X0Y50000000D01*
X50000000Y0D02*
X0Y0D01*
X50000000Y50000000D02*
X0Y50000000D01*
X50000000Y0D02*
X50000000Y50000000D01*
X40550000Y26000000D02*
X39850000Y26000000D01*
X39850000Y27200000D02*
X40550000Y27200000D01*
X45600000Y30350000D02*
X45600000Y29650000D01*
X44400000Y29650000D02*
X44400000Y30350000D01*
X25150000Y33100000D02*
X25850000Y33100000D01*
X25850000Y31900000D02*
X25150000Y31900000D01*
X24650000Y17100000D02*
X25350000Y17100000D01*
X25350000Y15900000D02*
X24650000Y15900000D01*
X24650000Y18600000D02*
X25350000Y18600000D01*
X25350000Y17400000D02*
X24650000Y17400000D01*
X4850000Y27800000D02*
X5550000Y27800000D01*
X5550000Y26600000D02*
X4850000Y26600000D01*
D13*
X22849000Y39500000D02*
X23611000Y39500000D01*
X23230000Y39119000D02*
X23230000Y39881000D01*
X22976000Y41786000D02*
X26786000Y41786000D01*
X22214000Y37976000D02*
X22214000Y41024000D01*
X22976000Y41786000D02*
X22214000Y41024000D01*
X22976000Y37214000D02*
X26786000Y37214000D01*
X22976000Y37214000D02*
X22214000Y37976000D01*
X26532000Y39627000D02*
X26532000Y39373000D01*
X26405000Y38865000D02*
X26405000Y40135000D01*
X26278000Y40389000D02*
X26278000Y38611000D01*
X26151000Y40643000D02*
X26151000Y38357000D01*
X26024000Y38230000D02*
X26024000Y40770000D01*
X25897000Y40897000D02*
X25897000Y38103000D01*
X25770000Y37976000D02*
X25770000Y41024000D01*
X25643000Y37849000D02*
X25643000Y41151000D01*
X26532000Y39500000D02*
G75*
G03X26532000Y39500000I-2032000J0D01*
G74*
G01*
X26786000Y37214000D02*
X26786000Y41786000D01*
D11*
X9400000Y42150000D02*
X9400000Y42850000D01*
X10600000Y42850000D02*
X10600000Y42150000D01*
X45600000Y37850000D02*
X45600000Y37150000D01*
X44400000Y37150000D02*
X44400000Y37850000D01*
D13*
X24000000Y47651000D02*
X24000000Y46889000D01*
X23619000Y47270000D02*
X24381000Y47270000D01*
X26286000Y47524000D02*
X26286000Y43714000D01*
X22476000Y48286000D02*
X25524000Y48286000D01*
X26286000Y47524000D02*
X25524000Y48286000D01*
X21714000Y47524000D02*
X21714000Y43714000D01*
X21714000Y47524000D02*
X22476000Y48286000D01*
X24127000Y43968000D02*
X23873000Y43968000D01*
X23365000Y44095000D02*
X24635000Y44095000D01*
X24889000Y44222000D02*
X23111000Y44222000D01*
X25143000Y44349000D02*
X22857000Y44349000D01*
X22730000Y44476000D02*
X25270000Y44476000D01*
X25397000Y44603000D02*
X22603000Y44603000D01*
X22476000Y44730000D02*
X25524000Y44730000D01*
X22349000Y44857000D02*
X25651000Y44857000D01*
X26032000Y46000000D02*
G75*
G03X26032000Y46000000I-2032000J0D01*
G74*
G01*
X21714000Y43714000D02*
X26286000Y43714000D01*
D14*
X11497840Y48700280D02*
X11497840Y48375160D01*
X11497840Y48375160D02*
X11998220Y48375160D01*
X11998220Y48700280D02*
X11998220Y48375160D01*
X11497840Y48700280D02*
X11998220Y48700280D01*
X11497840Y49322580D02*
X11497840Y49172720D01*
X11497840Y49172720D02*
X11749300Y49172720D01*
X11749300Y49322580D02*
X11749300Y49172720D01*
X11497840Y49322580D02*
X11749300Y49322580D01*
X11497840Y48827280D02*
X11497840Y48677420D01*
X11497840Y48677420D02*
X11749300Y48677420D01*
X11749300Y48827280D02*
X11749300Y48677420D01*
X11497840Y48827280D02*
X11749300Y48827280D01*
X11497840Y49198120D02*
X11497840Y48801880D01*
X11497840Y48801880D02*
X11673100Y48801880D01*
X11673100Y49198120D02*
X11673100Y48801880D01*
X11497840Y49198120D02*
X11673100Y49198120D01*
X10001780Y48700280D02*
X10001780Y48375160D01*
X10001780Y48375160D02*
X10502160Y48375160D01*
X10502160Y48700280D02*
X10502160Y48375160D01*
X10001780Y48700280D02*
X10502160Y48700280D01*
X10001780Y49624840D02*
X10001780Y49299720D01*
X10001780Y49299720D02*
X10502160Y49299720D01*
X10502160Y49624840D02*
X10502160Y49299720D01*
X10001780Y49624840D02*
X10502160Y49624840D01*
X10250700Y48827280D02*
X10250700Y48677420D01*
X10250700Y48677420D02*
X10502160Y48677420D01*
X10502160Y48827280D02*
X10502160Y48677420D01*
X10250700Y48827280D02*
X10502160Y48827280D01*
X10250700Y49322580D02*
X10250700Y49172720D01*
X10250700Y49172720D02*
X10502160Y49172720D01*
X10502160Y49322580D02*
X10502160Y49172720D01*
X10250700Y49322580D02*
X10502160Y49322580D01*
X10326900Y49198120D02*
X10326900Y48801880D01*
X10326900Y48801880D02*
X10502160Y48801880D01*
X10502160Y49198120D02*
X10502160Y48801880D01*
X10326900Y49198120D02*
X10502160Y49198120D01*
X11000000Y49099060D02*
X11000000Y48900940D01*
X11000000Y48900940D02*
X11198120Y48900940D01*
X11198120Y49099060D02*
X11198120Y48900940D01*
X11000000Y49099060D02*
X11198120Y49099060D01*
X11497840Y49599440D02*
X11497840Y49299720D01*
X11497840Y49299720D02*
X11797560Y49299720D01*
X11797560Y49599440D02*
X11797560Y49299720D01*
X11497840Y49599440D02*
X11797560Y49599440D01*
X11924560Y49624840D02*
X11924560Y49398780D01*
X11924560Y49398780D02*
X11998220Y49398780D01*
X11998220Y49624840D02*
X11998220Y49398780D01*
X11924560Y49624840D02*
X11998220Y49624840D01*
D15*
X11523240Y48425960D02*
X10476760Y48425960D01*
X10502160Y49574040D02*
X11924560Y49574040D01*
D16*
X11920202Y49449580D02*
G75*
G03X11920202Y49449580I-71842J0D01*
G74*
G01*
D15*
X11998220Y49347980D02*
G75*
G03X11998220Y48652020I0J-347980D01*
G74*
G01*
X10001780Y48652020D02*
G75*
G03X10001780Y49347980I0J347980D01*
G74*
G01*
D14*
X47002160Y15299720D02*
X47002160Y15624840D01*
X47002160Y15624840D02*
X46501780Y15624840D01*
X46501780Y15299720D02*
X46501780Y15624840D01*
X47002160Y15299720D02*
X46501780Y15299720D01*
X47002160Y14677420D02*
X47002160Y14827280D01*
X47002160Y14827280D02*
X46750700Y14827280D01*
X46750700Y14677420D02*
X46750700Y14827280D01*
X47002160Y14677420D02*
X46750700Y14677420D01*
X47002160Y15172720D02*
X47002160Y15322580D01*
X47002160Y15322580D02*
X46750700Y15322580D01*
X46750700Y15172720D02*
X46750700Y15322580D01*
X47002160Y15172720D02*
X46750700Y15172720D01*
X47002160Y14801880D02*
X47002160Y15198120D01*
X47002160Y15198120D02*
X46826900Y15198120D01*
X46826900Y14801880D02*
X46826900Y15198120D01*
X47002160Y14801880D02*
X46826900Y14801880D01*
X48498220Y15299720D02*
X48498220Y15624840D01*
X48498220Y15624840D02*
X47997840Y15624840D01*
X47997840Y15299720D02*
X47997840Y15624840D01*
X48498220Y15299720D02*
X47997840Y15299720D01*
X48498220Y14375160D02*
X48498220Y14700280D01*
X48498220Y14700280D02*
X47997840Y14700280D01*
X47997840Y14375160D02*
X47997840Y14700280D01*
X48498220Y14375160D02*
X47997840Y14375160D01*
X48249300Y15172720D02*
X48249300Y15322580D01*
X48249300Y15322580D02*
X47997840Y15322580D01*
X47997840Y15172720D02*
X47997840Y15322580D01*
X48249300Y15172720D02*
X47997840Y15172720D01*
X48249300Y14677420D02*
X48249300Y14827280D01*
X48249300Y14827280D02*
X47997840Y14827280D01*
X47997840Y14677420D02*
X47997840Y14827280D01*
X48249300Y14677420D02*
X47997840Y14677420D01*
X48173100Y14801880D02*
X48173100Y15198120D01*
X48173100Y15198120D02*
X47997840Y15198120D01*
X47997840Y14801880D02*
X47997840Y15198120D01*
X48173100Y14801880D02*
X47997840Y14801880D01*
X47500000Y14900940D02*
X47500000Y15099060D01*
X47500000Y15099060D02*
X47301880Y15099060D01*
X47301880Y14900940D02*
X47301880Y15099060D01*
X47500000Y14900940D02*
X47301880Y14900940D01*
X47002160Y14400560D02*
X47002160Y14700280D01*
X47002160Y14700280D02*
X46702440Y14700280D01*
X46702440Y14400560D02*
X46702440Y14700280D01*
X47002160Y14400560D02*
X46702440Y14400560D01*
X46575440Y14375160D02*
X46575440Y14601220D01*
X46575440Y14601220D02*
X46501780Y14601220D01*
X46501780Y14375160D02*
X46501780Y14601220D01*
X46575440Y14375160D02*
X46501780Y14375160D01*
D15*
X46976760Y15574040D02*
X48023240Y15574040D01*
X47997840Y14425960D02*
X46575440Y14425960D01*
D16*
X46723482Y14550420D02*
G75*
G03X46723482Y14550420I-71842J0D01*
G74*
G01*
D15*
X46501780Y14652020D02*
G75*
G03X46501780Y15347980I0J347980D01*
G74*
G01*
X48498220Y15347980D02*
G75*
G03X48498220Y14652020I0J-347980D01*
G74*
G01*
D14*
X47002160Y17799720D02*
X47002160Y18124840D01*
X47002160Y18124840D02*
X46501780Y18124840D01*
X46501780Y17799720D02*
X46501780Y18124840D01*
X47002160Y17799720D02*
X46501780Y17799720D01*
X47002160Y17177420D02*
X47002160Y17327280D01*
X47002160Y17327280D02*
X46750700Y17327280D01*
X46750700Y17177420D02*
X46750700Y17327280D01*
X47002160Y17177420D02*
X46750700Y17177420D01*
X47002160Y17672720D02*
X47002160Y17822580D01*
X47002160Y17822580D02*
X46750700Y17822580D01*
X46750700Y17672720D02*
X46750700Y17822580D01*
X47002160Y17672720D02*
X46750700Y17672720D01*
X47002160Y17301880D02*
X47002160Y17698120D01*
X47002160Y17698120D02*
X46826900Y17698120D01*
X46826900Y17301880D02*
X46826900Y17698120D01*
X47002160Y17301880D02*
X46826900Y17301880D01*
X48498220Y17799720D02*
X48498220Y18124840D01*
X48498220Y18124840D02*
X47997840Y18124840D01*
X47997840Y17799720D02*
X47997840Y18124840D01*
X48498220Y17799720D02*
X47997840Y17799720D01*
X48498220Y16875160D02*
X48498220Y17200280D01*
X48498220Y17200280D02*
X47997840Y17200280D01*
X47997840Y16875160D02*
X47997840Y17200280D01*
X48498220Y16875160D02*
X47997840Y16875160D01*
X48249300Y17672720D02*
X48249300Y17822580D01*
X48249300Y17822580D02*
X47997840Y17822580D01*
X47997840Y17672720D02*
X47997840Y17822580D01*
X48249300Y17672720D02*
X47997840Y17672720D01*
X48249300Y17177420D02*
X48249300Y17327280D01*
X48249300Y17327280D02*
X47997840Y17327280D01*
X47997840Y17177420D02*
X47997840Y17327280D01*
X48249300Y17177420D02*
X47997840Y17177420D01*
X48173100Y17301880D02*
X48173100Y17698120D01*
X48173100Y17698120D02*
X47997840Y17698120D01*
X47997840Y17301880D02*
X47997840Y17698120D01*
X48173100Y17301880D02*
X47997840Y17301880D01*
X47500000Y17400940D02*
X47500000Y17599060D01*
X47500000Y17599060D02*
X47301880Y17599060D01*
X47301880Y17400940D02*
X47301880Y17599060D01*
X47500000Y17400940D02*
X47301880Y17400940D01*
X47002160Y16900560D02*
X47002160Y17200280D01*
X47002160Y17200280D02*
X46702440Y17200280D01*
X46702440Y16900560D02*
X46702440Y17200280D01*
X47002160Y16900560D02*
X46702440Y16900560D01*
X46575440Y16875160D02*
X46575440Y17101220D01*
X46575440Y17101220D02*
X46501780Y17101220D01*
X46501780Y16875160D02*
X46501780Y17101220D01*
X46575440Y16875160D02*
X46501780Y16875160D01*
D15*
X46976760Y18074040D02*
X48023240Y18074040D01*
X47997840Y16925960D02*
X46575440Y16925960D01*
D16*
X46723482Y17050420D02*
G75*
G03X46723482Y17050420I-71842J0D01*
G74*
G01*
D15*
X46501780Y17152020D02*
G75*
G03X46501780Y17847980I0J347980D01*
G74*
G01*
X48498220Y17847980D02*
G75*
G03X48498220Y17152020I0J-347980D01*
G74*
G01*
D14*
X47002160Y20299720D02*
X47002160Y20624840D01*
X47002160Y20624840D02*
X46501780Y20624840D01*
X46501780Y20299720D02*
X46501780Y20624840D01*
X47002160Y20299720D02*
X46501780Y20299720D01*
X47002160Y19677420D02*
X47002160Y19827280D01*
X47002160Y19827280D02*
X46750700Y19827280D01*
X46750700Y19677420D02*
X46750700Y19827280D01*
X47002160Y19677420D02*
X46750700Y19677420D01*
X47002160Y20172720D02*
X47002160Y20322580D01*
X47002160Y20322580D02*
X46750700Y20322580D01*
X46750700Y20172720D02*
X46750700Y20322580D01*
X47002160Y20172720D02*
X46750700Y20172720D01*
X47002160Y19801880D02*
X47002160Y20198120D01*
X47002160Y20198120D02*
X46826900Y20198120D01*
X46826900Y19801880D02*
X46826900Y20198120D01*
X47002160Y19801880D02*
X46826900Y19801880D01*
X48498220Y20299720D02*
X48498220Y20624840D01*
X48498220Y20624840D02*
X47997840Y20624840D01*
X47997840Y20299720D02*
X47997840Y20624840D01*
X48498220Y20299720D02*
X47997840Y20299720D01*
X48498220Y19375160D02*
X48498220Y19700280D01*
X48498220Y19700280D02*
X47997840Y19700280D01*
X47997840Y19375160D02*
X47997840Y19700280D01*
X48498220Y19375160D02*
X47997840Y19375160D01*
X48249300Y20172720D02*
X48249300Y20322580D01*
X48249300Y20322580D02*
X47997840Y20322580D01*
X47997840Y20172720D02*
X47997840Y20322580D01*
X48249300Y20172720D02*
X47997840Y20172720D01*
X48249300Y19677420D02*
X48249300Y19827280D01*
X48249300Y19827280D02*
X47997840Y19827280D01*
X47997840Y19677420D02*
X47997840Y19827280D01*
X48249300Y19677420D02*
X47997840Y19677420D01*
X48173100Y19801880D02*
X48173100Y20198120D01*
X48173100Y20198120D02*
X47997840Y20198120D01*
X47997840Y19801880D02*
X47997840Y20198120D01*
X48173100Y19801880D02*
X47997840Y19801880D01*
X47500000Y19900940D02*
X47500000Y20099060D01*
X47500000Y20099060D02*
X47301880Y20099060D01*
X47301880Y19900940D02*
X47301880Y20099060D01*
X47500000Y19900940D02*
X47301880Y19900940D01*
X47002160Y19400560D02*
X47002160Y19700280D01*
X47002160Y19700280D02*
X46702440Y19700280D01*
X46702440Y19400560D02*
X46702440Y19700280D01*
X47002160Y19400560D02*
X46702440Y19400560D01*
X46575440Y19375160D02*
X46575440Y19601220D01*
X46575440Y19601220D02*
X46501780Y19601220D01*
X46501780Y19375160D02*
X46501780Y19601220D01*
X46575440Y19375160D02*
X46501780Y19375160D01*
D15*
X46976760Y20574040D02*
X48023240Y20574040D01*
X47997840Y19425960D02*
X46575440Y19425960D01*
D16*
X46723482Y19550420D02*
G75*
G03X46723482Y19550420I-71842J0D01*
G74*
G01*
D15*
X46501780Y19652020D02*
G75*
G03X46501780Y20347980I0J347980D01*
G74*
G01*
X48498220Y20347980D02*
G75*
G03X48498220Y19652020I0J-347980D01*
G74*
G01*
D14*
X47002160Y22799720D02*
X47002160Y23124840D01*
X47002160Y23124840D02*
X46501780Y23124840D01*
X46501780Y22799720D02*
X46501780Y23124840D01*
X47002160Y22799720D02*
X46501780Y22799720D01*
X47002160Y22177420D02*
X47002160Y22327280D01*
X47002160Y22327280D02*
X46750700Y22327280D01*
X46750700Y22177420D02*
X46750700Y22327280D01*
X47002160Y22177420D02*
X46750700Y22177420D01*
X47002160Y22672720D02*
X47002160Y22822580D01*
X47002160Y22822580D02*
X46750700Y22822580D01*
X46750700Y22672720D02*
X46750700Y22822580D01*
X47002160Y22672720D02*
X46750700Y22672720D01*
X47002160Y22301880D02*
X47002160Y22698120D01*
X47002160Y22698120D02*
X46826900Y22698120D01*
X46826900Y22301880D02*
X46826900Y22698120D01*
X47002160Y22301880D02*
X46826900Y22301880D01*
X48498220Y22799720D02*
X48498220Y23124840D01*
X48498220Y23124840D02*
X47997840Y23124840D01*
X47997840Y22799720D02*
X47997840Y23124840D01*
X48498220Y22799720D02*
X47997840Y22799720D01*
X48498220Y21875160D02*
X48498220Y22200280D01*
X48498220Y22200280D02*
X47997840Y22200280D01*
X47997840Y21875160D02*
X47997840Y22200280D01*
X48498220Y21875160D02*
X47997840Y21875160D01*
X48249300Y22672720D02*
X48249300Y22822580D01*
X48249300Y22822580D02*
X47997840Y22822580D01*
X47997840Y22672720D02*
X47997840Y22822580D01*
X48249300Y22672720D02*
X47997840Y22672720D01*
X48249300Y22177420D02*
X48249300Y22327280D01*
X48249300Y22327280D02*
X47997840Y22327280D01*
X47997840Y22177420D02*
X47997840Y22327280D01*
X48249300Y22177420D02*
X47997840Y22177420D01*
X48173100Y22301880D02*
X48173100Y22698120D01*
X48173100Y22698120D02*
X47997840Y22698120D01*
X47997840Y22301880D02*
X47997840Y22698120D01*
X48173100Y22301880D02*
X47997840Y22301880D01*
X47500000Y22400940D02*
X47500000Y22599060D01*
X47500000Y22599060D02*
X47301880Y22599060D01*
X47301880Y22400940D02*
X47301880Y22599060D01*
X47500000Y22400940D02*
X47301880Y22400940D01*
X47002160Y21900560D02*
X47002160Y22200280D01*
X47002160Y22200280D02*
X46702440Y22200280D01*
X46702440Y21900560D02*
X46702440Y22200280D01*
X47002160Y21900560D02*
X46702440Y21900560D01*
X46575440Y21875160D02*
X46575440Y22101220D01*
X46575440Y22101220D02*
X46501780Y22101220D01*
X46501780Y21875160D02*
X46501780Y22101220D01*
X46575440Y21875160D02*
X46501780Y21875160D01*
D15*
X46976760Y23074040D02*
X48023240Y23074040D01*
X47997840Y21925960D02*
X46575440Y21925960D01*
D16*
X46723482Y22050420D02*
G75*
G03X46723482Y22050420I-71842J0D01*
G74*
G01*
D15*
X46501780Y22152020D02*
G75*
G03X46501780Y22847980I0J347980D01*
G74*
G01*
X48498220Y22847980D02*
G75*
G03X48498220Y22152020I0J-347980D01*
G74*
G01*
D14*
X47002160Y25299720D02*
X47002160Y25624840D01*
X47002160Y25624840D02*
X46501780Y25624840D01*
X46501780Y25299720D02*
X46501780Y25624840D01*
X47002160Y25299720D02*
X46501780Y25299720D01*
X47002160Y24677420D02*
X47002160Y24827280D01*
X47002160Y24827280D02*
X46750700Y24827280D01*
X46750700Y24677420D02*
X46750700Y24827280D01*
X47002160Y24677420D02*
X46750700Y24677420D01*
X47002160Y25172720D02*
X47002160Y25322580D01*
X47002160Y25322580D02*
X46750700Y25322580D01*
X46750700Y25172720D02*
X46750700Y25322580D01*
X47002160Y25172720D02*
X46750700Y25172720D01*
X47002160Y24801880D02*
X47002160Y25198120D01*
X47002160Y25198120D02*
X46826900Y25198120D01*
X46826900Y24801880D02*
X46826900Y25198120D01*
X47002160Y24801880D02*
X46826900Y24801880D01*
X48498220Y25299720D02*
X48498220Y25624840D01*
X48498220Y25624840D02*
X47997840Y25624840D01*
X47997840Y25299720D02*
X47997840Y25624840D01*
X48498220Y25299720D02*
X47997840Y25299720D01*
X48498220Y24375160D02*
X48498220Y24700280D01*
X48498220Y24700280D02*
X47997840Y24700280D01*
X47997840Y24375160D02*
X47997840Y24700280D01*
X48498220Y24375160D02*
X47997840Y24375160D01*
X48249300Y25172720D02*
X48249300Y25322580D01*
X48249300Y25322580D02*
X47997840Y25322580D01*
X47997840Y25172720D02*
X47997840Y25322580D01*
X48249300Y25172720D02*
X47997840Y25172720D01*
X48249300Y24677420D02*
X48249300Y24827280D01*
X48249300Y24827280D02*
X47997840Y24827280D01*
X47997840Y24677420D02*
X47997840Y24827280D01*
X48249300Y24677420D02*
X47997840Y24677420D01*
X48173100Y24801880D02*
X48173100Y25198120D01*
X48173100Y25198120D02*
X47997840Y25198120D01*
X47997840Y24801880D02*
X47997840Y25198120D01*
X48173100Y24801880D02*
X47997840Y24801880D01*
X47500000Y24900940D02*
X47500000Y25099060D01*
X47500000Y25099060D02*
X47301880Y25099060D01*
X47301880Y24900940D02*
X47301880Y25099060D01*
X47500000Y24900940D02*
X47301880Y24900940D01*
X47002160Y24400560D02*
X47002160Y24700280D01*
X47002160Y24700280D02*
X46702440Y24700280D01*
X46702440Y24400560D02*
X46702440Y24700280D01*
X47002160Y24400560D02*
X46702440Y24400560D01*
X46575440Y24375160D02*
X46575440Y24601220D01*
X46575440Y24601220D02*
X46501780Y24601220D01*
X46501780Y24375160D02*
X46501780Y24601220D01*
X46575440Y24375160D02*
X46501780Y24375160D01*
D15*
X46976760Y25574040D02*
X48023240Y25574040D01*
X47997840Y24425960D02*
X46575440Y24425960D01*
D16*
X46723482Y24550420D02*
G75*
G03X46723482Y24550420I-71842J0D01*
G74*
G01*
D15*
X46501780Y24652020D02*
G75*
G03X46501780Y25347980I0J347980D01*
G74*
G01*
X48498220Y25347980D02*
G75*
G03X48498220Y24652020I0J-347980D01*
G74*
G01*
D14*
X2997840Y24700280D02*
X2997840Y24375160D01*
X2997840Y24375160D02*
X3498220Y24375160D01*
X3498220Y24700280D02*
X3498220Y24375160D01*
X2997840Y24700280D02*
X3498220Y24700280D01*
X2997840Y25322580D02*
X2997840Y25172720D01*
X2997840Y25172720D02*
X3249300Y25172720D01*
X3249300Y25322580D02*
X3249300Y25172720D01*
X2997840Y25322580D02*
X3249300Y25322580D01*
X2997840Y24827280D02*
X2997840Y24677420D01*
X2997840Y24677420D02*
X3249300Y24677420D01*
X3249300Y24827280D02*
X3249300Y24677420D01*
X2997840Y24827280D02*
X3249300Y24827280D01*
X2997840Y25198120D02*
X2997840Y24801880D01*
X2997840Y24801880D02*
X3173100Y24801880D01*
X3173100Y25198120D02*
X3173100Y24801880D01*
X2997840Y25198120D02*
X3173100Y25198120D01*
X1501780Y24700280D02*
X1501780Y24375160D01*
X1501780Y24375160D02*
X2002160Y24375160D01*
X2002160Y24700280D02*
X2002160Y24375160D01*
X1501780Y24700280D02*
X2002160Y24700280D01*
X1501780Y25624840D02*
X1501780Y25299720D01*
X1501780Y25299720D02*
X2002160Y25299720D01*
X2002160Y25624840D02*
X2002160Y25299720D01*
X1501780Y25624840D02*
X2002160Y25624840D01*
X1750700Y24827280D02*
X1750700Y24677420D01*
X1750700Y24677420D02*
X2002160Y24677420D01*
X2002160Y24827280D02*
X2002160Y24677420D01*
X1750700Y24827280D02*
X2002160Y24827280D01*
X1750700Y25322580D02*
X1750700Y25172720D01*
X1750700Y25172720D02*
X2002160Y25172720D01*
X2002160Y25322580D02*
X2002160Y25172720D01*
X1750700Y25322580D02*
X2002160Y25322580D01*
X1826900Y25198120D02*
X1826900Y24801880D01*
X1826900Y24801880D02*
X2002160Y24801880D01*
X2002160Y25198120D02*
X2002160Y24801880D01*
X1826900Y25198120D02*
X2002160Y25198120D01*
X2500000Y25099060D02*
X2500000Y24900940D01*
X2500000Y24900940D02*
X2698120Y24900940D01*
X2698120Y25099060D02*
X2698120Y24900940D01*
X2500000Y25099060D02*
X2698120Y25099060D01*
X2997840Y25599440D02*
X2997840Y25299720D01*
X2997840Y25299720D02*
X3297560Y25299720D01*
X3297560Y25599440D02*
X3297560Y25299720D01*
X2997840Y25599440D02*
X3297560Y25599440D01*
X3424560Y25624840D02*
X3424560Y25398780D01*
X3424560Y25398780D02*
X3498220Y25398780D01*
X3498220Y25624840D02*
X3498220Y25398780D01*
X3424560Y25624840D02*
X3498220Y25624840D01*
D15*
X3023240Y24425960D02*
X1976760Y24425960D01*
X2002160Y25574040D02*
X3424560Y25574040D01*
D16*
X3420202Y25449580D02*
G75*
G03X3420202Y25449580I-71842J0D01*
G74*
G01*
D15*
X3498220Y25347980D02*
G75*
G03X3498220Y24652020I0J-347980D01*
G74*
G01*
X1501780Y24652020D02*
G75*
G03X1501780Y25347980I0J347980D01*
G74*
G01*
D14*
X2997840Y22200280D02*
X2997840Y21875160D01*
X2997840Y21875160D02*
X3498220Y21875160D01*
X3498220Y22200280D02*
X3498220Y21875160D01*
X2997840Y22200280D02*
X3498220Y22200280D01*
X2997840Y22822580D02*
X2997840Y22672720D01*
X2997840Y22672720D02*
X3249300Y22672720D01*
X3249300Y22822580D02*
X3249300Y22672720D01*
X2997840Y22822580D02*
X3249300Y22822580D01*
X2997840Y22327280D02*
X2997840Y22177420D01*
X2997840Y22177420D02*
X3249300Y22177420D01*
X3249300Y22327280D02*
X3249300Y22177420D01*
X2997840Y22327280D02*
X3249300Y22327280D01*
X2997840Y22698120D02*
X2997840Y22301880D01*
X2997840Y22301880D02*
X3173100Y22301880D01*
X3173100Y22698120D02*
X3173100Y22301880D01*
X2997840Y22698120D02*
X3173100Y22698120D01*
X1501780Y22200280D02*
X1501780Y21875160D01*
X1501780Y21875160D02*
X2002160Y21875160D01*
X2002160Y22200280D02*
X2002160Y21875160D01*
X1501780Y22200280D02*
X2002160Y22200280D01*
X1501780Y23124840D02*
X1501780Y22799720D01*
X1501780Y22799720D02*
X2002160Y22799720D01*
X2002160Y23124840D02*
X2002160Y22799720D01*
X1501780Y23124840D02*
X2002160Y23124840D01*
X1750700Y22327280D02*
X1750700Y22177420D01*
X1750700Y22177420D02*
X2002160Y22177420D01*
X2002160Y22327280D02*
X2002160Y22177420D01*
X1750700Y22327280D02*
X2002160Y22327280D01*
X1750700Y22822580D02*
X1750700Y22672720D01*
X1750700Y22672720D02*
X2002160Y22672720D01*
X2002160Y22822580D02*
X2002160Y22672720D01*
X1750700Y22822580D02*
X2002160Y22822580D01*
X1826900Y22698120D02*
X1826900Y22301880D01*
X1826900Y22301880D02*
X2002160Y22301880D01*
X2002160Y22698120D02*
X2002160Y22301880D01*
X1826900Y22698120D02*
X2002160Y22698120D01*
X2500000Y22599060D02*
X2500000Y22400940D01*
X2500000Y22400940D02*
X2698120Y22400940D01*
X2698120Y22599060D02*
X2698120Y22400940D01*
X2500000Y22599060D02*
X2698120Y22599060D01*
X2997840Y23099440D02*
X2997840Y22799720D01*
X2997840Y22799720D02*
X3297560Y22799720D01*
X3297560Y23099440D02*
X3297560Y22799720D01*
X2997840Y23099440D02*
X3297560Y23099440D01*
X3424560Y23124840D02*
X3424560Y22898780D01*
X3424560Y22898780D02*
X3498220Y22898780D01*
X3498220Y23124840D02*
X3498220Y22898780D01*
X3424560Y23124840D02*
X3498220Y23124840D01*
D15*
X3023240Y21925960D02*
X1976760Y21925960D01*
X2002160Y23074040D02*
X3424560Y23074040D01*
D16*
X3420202Y22949580D02*
G75*
G03X3420202Y22949580I-71842J0D01*
G74*
G01*
D15*
X3498220Y22847980D02*
G75*
G03X3498220Y22152020I0J-347980D01*
G74*
G01*
X1501780Y22152020D02*
G75*
G03X1501780Y22847980I0J347980D01*
G74*
G01*
D14*
X2997840Y19700280D02*
X2997840Y19375160D01*
X2997840Y19375160D02*
X3498220Y19375160D01*
X3498220Y19700280D02*
X3498220Y19375160D01*
X2997840Y19700280D02*
X3498220Y19700280D01*
X2997840Y20322580D02*
X2997840Y20172720D01*
X2997840Y20172720D02*
X3249300Y20172720D01*
X3249300Y20322580D02*
X3249300Y20172720D01*
X2997840Y20322580D02*
X3249300Y20322580D01*
X2997840Y19827280D02*
X2997840Y19677420D01*
X2997840Y19677420D02*
X3249300Y19677420D01*
X3249300Y19827280D02*
X3249300Y19677420D01*
X2997840Y19827280D02*
X3249300Y19827280D01*
X2997840Y20198120D02*
X2997840Y19801880D01*
X2997840Y19801880D02*
X3173100Y19801880D01*
X3173100Y20198120D02*
X3173100Y19801880D01*
X2997840Y20198120D02*
X3173100Y20198120D01*
X1501780Y19700280D02*
X1501780Y19375160D01*
X1501780Y19375160D02*
X2002160Y19375160D01*
X2002160Y19700280D02*
X2002160Y19375160D01*
X1501780Y19700280D02*
X2002160Y19700280D01*
X1501780Y20624840D02*
X1501780Y20299720D01*
X1501780Y20299720D02*
X2002160Y20299720D01*
X2002160Y20624840D02*
X2002160Y20299720D01*
X1501780Y20624840D02*
X2002160Y20624840D01*
X1750700Y19827280D02*
X1750700Y19677420D01*
X1750700Y19677420D02*
X2002160Y19677420D01*
X2002160Y19827280D02*
X2002160Y19677420D01*
X1750700Y19827280D02*
X2002160Y19827280D01*
X1750700Y20322580D02*
X1750700Y20172720D01*
X1750700Y20172720D02*
X2002160Y20172720D01*
X2002160Y20322580D02*
X2002160Y20172720D01*
X1750700Y20322580D02*
X2002160Y20322580D01*
X1826900Y20198120D02*
X1826900Y19801880D01*
X1826900Y19801880D02*
X2002160Y19801880D01*
X2002160Y20198120D02*
X2002160Y19801880D01*
X1826900Y20198120D02*
X2002160Y20198120D01*
X2500000Y20099060D02*
X2500000Y19900940D01*
X2500000Y19900940D02*
X2698120Y19900940D01*
X2698120Y20099060D02*
X2698120Y19900940D01*
X2500000Y20099060D02*
X2698120Y20099060D01*
X2997840Y20599440D02*
X2997840Y20299720D01*
X2997840Y20299720D02*
X3297560Y20299720D01*
X3297560Y20599440D02*
X3297560Y20299720D01*
X2997840Y20599440D02*
X3297560Y20599440D01*
X3424560Y20624840D02*
X3424560Y20398780D01*
X3424560Y20398780D02*
X3498220Y20398780D01*
X3498220Y20624840D02*
X3498220Y20398780D01*
X3424560Y20624840D02*
X3498220Y20624840D01*
D15*
X3023240Y19425960D02*
X1976760Y19425960D01*
X2002160Y20574040D02*
X3424560Y20574040D01*
D16*
X3420202Y20449580D02*
G75*
G03X3420202Y20449580I-71842J0D01*
G74*
G01*
D15*
X3498220Y20347980D02*
G75*
G03X3498220Y19652020I0J-347980D01*
G74*
G01*
X1501780Y19652020D02*
G75*
G03X1501780Y20347980I0J347980D01*
G74*
G01*
D14*
X2997840Y17200280D02*
X2997840Y16875160D01*
X2997840Y16875160D02*
X3498220Y16875160D01*
X3498220Y17200280D02*
X3498220Y16875160D01*
X2997840Y17200280D02*
X3498220Y17200280D01*
X2997840Y17822580D02*
X2997840Y17672720D01*
X2997840Y17672720D02*
X3249300Y17672720D01*
X3249300Y17822580D02*
X3249300Y17672720D01*
X2997840Y17822580D02*
X3249300Y17822580D01*
X2997840Y17327280D02*
X2997840Y17177420D01*
X2997840Y17177420D02*
X3249300Y17177420D01*
X3249300Y17327280D02*
X3249300Y17177420D01*
X2997840Y17327280D02*
X3249300Y17327280D01*
X2997840Y17698120D02*
X2997840Y17301880D01*
X2997840Y17301880D02*
X3173100Y17301880D01*
X3173100Y17698120D02*
X3173100Y17301880D01*
X2997840Y17698120D02*
X3173100Y17698120D01*
X1501780Y17200280D02*
X1501780Y16875160D01*
X1501780Y16875160D02*
X2002160Y16875160D01*
X2002160Y17200280D02*
X2002160Y16875160D01*
X1501780Y17200280D02*
X2002160Y17200280D01*
X1501780Y18124840D02*
X1501780Y17799720D01*
X1501780Y17799720D02*
X2002160Y17799720D01*
X2002160Y18124840D02*
X2002160Y17799720D01*
X1501780Y18124840D02*
X2002160Y18124840D01*
X1750700Y17327280D02*
X1750700Y17177420D01*
X1750700Y17177420D02*
X2002160Y17177420D01*
X2002160Y17327280D02*
X2002160Y17177420D01*
X1750700Y17327280D02*
X2002160Y17327280D01*
X1750700Y17822580D02*
X1750700Y17672720D01*
X1750700Y17672720D02*
X2002160Y17672720D01*
X2002160Y17822580D02*
X2002160Y17672720D01*
X1750700Y17822580D02*
X2002160Y17822580D01*
X1826900Y17698120D02*
X1826900Y17301880D01*
X1826900Y17301880D02*
X2002160Y17301880D01*
X2002160Y17698120D02*
X2002160Y17301880D01*
X1826900Y17698120D02*
X2002160Y17698120D01*
X2500000Y17599060D02*
X2500000Y17400940D01*
X2500000Y17400940D02*
X2698120Y17400940D01*
X2698120Y17599060D02*
X2698120Y17400940D01*
X2500000Y17599060D02*
X2698120Y17599060D01*
X2997840Y18099440D02*
X2997840Y17799720D01*
X2997840Y17799720D02*
X3297560Y17799720D01*
X3297560Y18099440D02*
X3297560Y17799720D01*
X2997840Y18099440D02*
X3297560Y18099440D01*
X3424560Y18124840D02*
X3424560Y17898780D01*
X3424560Y17898780D02*
X3498220Y17898780D01*
X3498220Y18124840D02*
X3498220Y17898780D01*
X3424560Y18124840D02*
X3498220Y18124840D01*
D15*
X3023240Y16925960D02*
X1976760Y16925960D01*
X2002160Y18074040D02*
X3424560Y18074040D01*
D16*
X3420202Y17949580D02*
G75*
G03X3420202Y17949580I-71842J0D01*
G74*
G01*
D15*
X3498220Y17847980D02*
G75*
G03X3498220Y17152020I0J-347980D01*
G74*
G01*
X1501780Y17152020D02*
G75*
G03X1501780Y17847980I0J347980D01*
G74*
G01*
D14*
X2997840Y14700280D02*
X2997840Y14375160D01*
X2997840Y14375160D02*
X3498220Y14375160D01*
X3498220Y14700280D02*
X3498220Y14375160D01*
X2997840Y14700280D02*
X3498220Y14700280D01*
X2997840Y15322580D02*
X2997840Y15172720D01*
X2997840Y15172720D02*
X3249300Y15172720D01*
X3249300Y15322580D02*
X3249300Y15172720D01*
X2997840Y15322580D02*
X3249300Y15322580D01*
X2997840Y14827280D02*
X2997840Y14677420D01*
X2997840Y14677420D02*
X3249300Y14677420D01*
X3249300Y14827280D02*
X3249300Y14677420D01*
X2997840Y14827280D02*
X3249300Y14827280D01*
X2997840Y15198120D02*
X2997840Y14801880D01*
X2997840Y14801880D02*
X3173100Y14801880D01*
X3173100Y15198120D02*
X3173100Y14801880D01*
X2997840Y15198120D02*
X3173100Y15198120D01*
X1501780Y14700280D02*
X1501780Y14375160D01*
X1501780Y14375160D02*
X2002160Y14375160D01*
X2002160Y14700280D02*
X2002160Y14375160D01*
X1501780Y14700280D02*
X2002160Y14700280D01*
X1501780Y15624840D02*
X1501780Y15299720D01*
X1501780Y15299720D02*
X2002160Y15299720D01*
X2002160Y15624840D02*
X2002160Y15299720D01*
X1501780Y15624840D02*
X2002160Y15624840D01*
X1750700Y14827280D02*
X1750700Y14677420D01*
X1750700Y14677420D02*
X2002160Y14677420D01*
X2002160Y14827280D02*
X2002160Y14677420D01*
X1750700Y14827280D02*
X2002160Y14827280D01*
X1750700Y15322580D02*
X1750700Y15172720D01*
X1750700Y15172720D02*
X2002160Y15172720D01*
X2002160Y15322580D02*
X2002160Y15172720D01*
X1750700Y15322580D02*
X2002160Y15322580D01*
X1826900Y15198120D02*
X1826900Y14801880D01*
X1826900Y14801880D02*
X2002160Y14801880D01*
X2002160Y15198120D02*
X2002160Y14801880D01*
X1826900Y15198120D02*
X2002160Y15198120D01*
X2500000Y15099060D02*
X2500000Y14900940D01*
X2500000Y14900940D02*
X2698120Y14900940D01*
X2698120Y15099060D02*
X2698120Y14900940D01*
X2500000Y15099060D02*
X2698120Y15099060D01*
X2997840Y15599440D02*
X2997840Y15299720D01*
X2997840Y15299720D02*
X3297560Y15299720D01*
X3297560Y15599440D02*
X3297560Y15299720D01*
X2997840Y15599440D02*
X3297560Y15599440D01*
X3424560Y15624840D02*
X3424560Y15398780D01*
X3424560Y15398780D02*
X3498220Y15398780D01*
X3498220Y15624840D02*
X3498220Y15398780D01*
X3424560Y15624840D02*
X3498220Y15624840D01*
D15*
X3023240Y14425960D02*
X1976760Y14425960D01*
X2002160Y15574040D02*
X3424560Y15574040D01*
D16*
X3420202Y15449580D02*
G75*
G03X3420202Y15449580I-71842J0D01*
G74*
G01*
D15*
X3498220Y15347980D02*
G75*
G03X3498220Y14652020I0J-347980D01*
G74*
G01*
X1501780Y14652020D02*
G75*
G03X1501780Y15347980I0J347980D01*
G74*
G01*
D14*
X2997840Y12200280D02*
X2997840Y11875160D01*
X2997840Y11875160D02*
X3498220Y11875160D01*
X3498220Y12200280D02*
X3498220Y11875160D01*
X2997840Y12200280D02*
X3498220Y12200280D01*
X2997840Y12822580D02*
X2997840Y12672720D01*
X2997840Y12672720D02*
X3249300Y12672720D01*
X3249300Y12822580D02*
X3249300Y12672720D01*
X2997840Y12822580D02*
X3249300Y12822580D01*
X2997840Y12327280D02*
X2997840Y12177420D01*
X2997840Y12177420D02*
X3249300Y12177420D01*
X3249300Y12327280D02*
X3249300Y12177420D01*
X2997840Y12327280D02*
X3249300Y12327280D01*
X2997840Y12698120D02*
X2997840Y12301880D01*
X2997840Y12301880D02*
X3173100Y12301880D01*
X3173100Y12698120D02*
X3173100Y12301880D01*
X2997840Y12698120D02*
X3173100Y12698120D01*
X1501780Y12200280D02*
X1501780Y11875160D01*
X1501780Y11875160D02*
X2002160Y11875160D01*
X2002160Y12200280D02*
X2002160Y11875160D01*
X1501780Y12200280D02*
X2002160Y12200280D01*
X1501780Y13124840D02*
X1501780Y12799720D01*
X1501780Y12799720D02*
X2002160Y12799720D01*
X2002160Y13124840D02*
X2002160Y12799720D01*
X1501780Y13124840D02*
X2002160Y13124840D01*
X1750700Y12327280D02*
X1750700Y12177420D01*
X1750700Y12177420D02*
X2002160Y12177420D01*
X2002160Y12327280D02*
X2002160Y12177420D01*
X1750700Y12327280D02*
X2002160Y12327280D01*
X1750700Y12822580D02*
X1750700Y12672720D01*
X1750700Y12672720D02*
X2002160Y12672720D01*
X2002160Y12822580D02*
X2002160Y12672720D01*
X1750700Y12822580D02*
X2002160Y12822580D01*
X1826900Y12698120D02*
X1826900Y12301880D01*
X1826900Y12301880D02*
X2002160Y12301880D01*
X2002160Y12698120D02*
X2002160Y12301880D01*
X1826900Y12698120D02*
X2002160Y12698120D01*
X2500000Y12599060D02*
X2500000Y12400940D01*
X2500000Y12400940D02*
X2698120Y12400940D01*
X2698120Y12599060D02*
X2698120Y12400940D01*
X2500000Y12599060D02*
X2698120Y12599060D01*
X2997840Y13099440D02*
X2997840Y12799720D01*
X2997840Y12799720D02*
X3297560Y12799720D01*
X3297560Y13099440D02*
X3297560Y12799720D01*
X2997840Y13099440D02*
X3297560Y13099440D01*
X3424560Y13124840D02*
X3424560Y12898780D01*
X3424560Y12898780D02*
X3498220Y12898780D01*
X3498220Y13124840D02*
X3498220Y12898780D01*
X3424560Y13124840D02*
X3498220Y13124840D01*
D15*
X3023240Y11925960D02*
X1976760Y11925960D01*
X2002160Y13074040D02*
X3424560Y13074040D01*
D16*
X3420202Y12949580D02*
G75*
G03X3420202Y12949580I-71842J0D01*
G74*
G01*
D15*
X3498220Y12847980D02*
G75*
G03X3498220Y12152020I0J-347980D01*
G74*
G01*
X1501780Y12152020D02*
G75*
G03X1501780Y12847980I0J347980D01*
G74*
G01*
D11*
X31000000Y43075000D02*
X33000000Y43075000D01*
X33000000Y40925000D02*
X31000000Y40925000D01*
X37730000Y47270000D02*
X37730000Y42190000D01*
X37730000Y42190000D02*
X40270000Y42190000D01*
X40270000Y42190000D02*
X40270000Y47270000D01*
X40270000Y49810000D02*
X40270000Y47270000D01*
X40270000Y47270000D02*
X37730000Y47270000D01*
X40270000Y49810000D02*
X37730000Y49810000D01*
X37730000Y49810000D02*
X37730000Y47270000D01*
X48535534Y5000000D02*
G75*
G03X48535534Y5000000I-3535534J0D01*
G74*
G01*
X8535534Y5000000D02*
G75*
G03X8535534Y5000000I-3535534J0D01*
G74*
G01*
X8535534Y45000000D02*
G75*
G03X8535534Y45000000I-3535534J0D01*
G74*
G01*
X48535534Y45000000D02*
G75*
G03X48535534Y45000000I-3535534J0D01*
G74*
G01*
X3810000Y30480000D02*
X3810000Y33020000D01*
X3810000Y33020000D02*
X6350000Y33020000D01*
X6350000Y30480000D02*
X6350000Y38100000D01*
X6350000Y38100000D02*
X1270000Y38100000D01*
X1270000Y38100000D02*
X1270000Y33020000D01*
X6350000Y30480000D02*
X3810000Y30480000D01*
X1270000Y30480000D02*
X3810000Y30480000D01*
X1270000Y33020000D02*
X1270000Y30480000D01*
X35500000Y49950000D02*
X28500000Y49950000D01*
X49530000Y38100000D02*
X46990000Y38100000D01*
X49530000Y40640000D02*
X46990000Y40640000D01*
X46990000Y40640000D02*
X46990000Y38100000D01*
X46990000Y38100000D02*
X46990000Y35560000D01*
X46990000Y35560000D02*
X49530000Y35560000D01*
X49530000Y35560000D02*
X49530000Y40640000D01*
X49530000Y30480000D02*
X46990000Y30480000D01*
X49530000Y33020000D02*
X46990000Y33020000D01*
X46990000Y33020000D02*
X46990000Y30480000D01*
X46990000Y30480000D02*
X46990000Y27940000D01*
X46990000Y27940000D02*
X49530000Y27940000D01*
X49530000Y27940000D02*
X49530000Y33020000D01*
X5750000Y24475000D02*
X6250000Y24475000D01*
X6250000Y25525000D02*
X5750000Y25525000D01*
X5750000Y21975000D02*
X6250000Y21975000D01*
X6250000Y23025000D02*
X5750000Y23025000D01*
X5750000Y19475000D02*
X6250000Y19475000D01*
X6250000Y20525000D02*
X5750000Y20525000D01*
X5750000Y16975000D02*
X6250000Y16975000D01*
X6250000Y18025000D02*
X5750000Y18025000D01*
X5750000Y14475000D02*
X6250000Y14475000D01*
X6250000Y15525000D02*
X5750000Y15525000D01*
X5750000Y11975000D02*
X6250000Y11975000D01*
X6250000Y13025000D02*
X5750000Y13025000D01*
X44250000Y15525000D02*
X43750000Y15525000D01*
X43750000Y14475000D02*
X44250000Y14475000D01*
X44250000Y18025000D02*
X43750000Y18025000D01*
X43750000Y16975000D02*
X44250000Y16975000D01*
X44250000Y20525000D02*
X43750000Y20525000D01*
X43750000Y19475000D02*
X44250000Y19475000D01*
X44250000Y23025000D02*
X43750000Y23025000D01*
X43750000Y21975000D02*
X44250000Y21975000D01*
X43750000Y24475000D02*
X44250000Y24475000D01*
X44250000Y25525000D02*
X43750000Y25525000D01*
X29650000Y17525000D02*
X29150000Y17525000D01*
X29150000Y16475000D02*
X29650000Y16475000D01*
X21075000Y17250000D02*
X21075000Y16750000D01*
X22125000Y16750000D02*
X22125000Y17250000D01*
X10500000Y47675000D02*
X11500000Y47675000D01*
X11500000Y46325000D02*
X10500000Y46325000D01*
X30325000Y33900000D02*
X30325000Y35100000D01*
X32075000Y35100000D02*
X32075000Y33900000D01*
X34125000Y33900000D02*
X34125000Y35100000D01*
X35875000Y35100000D02*
X35875000Y33900000D01*
X15500000Y39675000D02*
X16500000Y39675000D01*
X16500000Y38325000D02*
X15500000Y38325000D01*
X12675000Y43000000D02*
X12675000Y42000000D01*
X11325000Y42000000D02*
X11325000Y43000000D01*
X31625000Y17600000D02*
X31625000Y18600000D01*
X32975000Y18600000D02*
X32975000Y17600000D01*
X40175000Y12500000D02*
X40175000Y11500000D01*
X38825000Y11500000D02*
X38825000Y12500000D01*
D17*
X22231400Y19970800D02*
X22231400Y21113800D01*
X27768600Y19970800D02*
X27768600Y21088400D01*
X22231400Y19970800D02*
X27768600Y19970800D01*
X21037600Y22206000D02*
X19945400Y22206000D01*
X21012200Y27819400D02*
X19945400Y27819400D01*
X19945400Y27844800D02*
X19920000Y22206000D01*
X30029200Y27794000D02*
X30054600Y22282200D01*
X28276600Y28886200D02*
X21088400Y28886200D01*
X30029200Y22256800D02*
X28987800Y22256800D01*
X28886200Y28251200D02*
X28886200Y21190000D01*
X21063000Y21139200D02*
X28784600Y21139200D01*
X21063000Y28886200D02*
X21063000Y21266200D01*
X27844800Y30029200D02*
X22206000Y30029200D01*
X22206000Y30029200D02*
X22206000Y28886200D01*
X28302000Y28876040D02*
X28886200Y28291840D01*
X27844800Y30024120D02*
X27844800Y28876040D01*
X28886200Y27794000D02*
X30034280Y27794000D01*
X28339286Y27839720D02*
G75*
G03X28339286Y27839720I-479246J0D01*
G74*
G01*
D11*
X42800000Y36400000D02*
X42800000Y36700000D01*
X42800000Y36700000D02*
X43100000Y36700000D01*
X43100000Y38600000D02*
X41900000Y38600000D01*
X41900000Y36400000D02*
X43100000Y36400000D01*
X43100000Y36400000D02*
X43100000Y38600000D01*
X41900000Y38600000D02*
X41900000Y36400000D01*
X42800000Y28900000D02*
X42800000Y29200000D01*
X42800000Y29200000D02*
X43100000Y29200000D01*
X43100000Y31100000D02*
X41900000Y31100000D01*
X41900000Y28900000D02*
X43100000Y28900000D01*
X43100000Y28900000D02*
X43100000Y31100000D01*
X41900000Y31100000D02*
X41900000Y28900000D01*
X17700000Y32500000D02*
X18000000Y32500000D01*
X17300000Y32500000D02*
X17000000Y32500000D01*
X17700000Y32200000D02*
X17700000Y32800000D01*
X17300000Y32200000D02*
X17300000Y32800000D01*
X20500000Y34000000D02*
X14500000Y34000000D01*
X14500000Y34000000D02*
X14500000Y31000000D01*
X14500000Y31000000D02*
X20500000Y31000000D01*
X20500000Y31000000D02*
X20500000Y34000000D01*
X18000000Y12500000D02*
X12000000Y12500000D01*
X18000000Y7500000D02*
X12000000Y7500000D01*
X12000000Y12500000D02*
X12000000Y7500000D01*
X18000000Y12500000D02*
X18000000Y7500000D01*
X16500000Y10000000D02*
G75*
G03X16500000Y10000000I-1500000J0D01*
G74*
G01*
X28000000Y12500000D02*
X22000000Y12500000D01*
X28000000Y7500000D02*
X22000000Y7500000D01*
X22000000Y12500000D02*
X22000000Y7500000D01*
X28000000Y12500000D02*
X28000000Y7500000D01*
X26500000Y10000000D02*
G75*
G03X26500000Y10000000I-1500000J0D01*
G74*
G01*
X38000000Y12500000D02*
X32000000Y12500000D01*
X38000000Y7500000D02*
X32000000Y7500000D01*
X32000000Y12500000D02*
X32000000Y7500000D01*
X38000000Y12500000D02*
X38000000Y7500000D01*
X36500000Y10000000D02*
G75*
G03X36500000Y10000000I-1500000J0D01*
G74*
G01*
X15150000Y29325000D02*
X15650000Y29325000D01*
X15650000Y30275000D02*
X15150000Y30275000D01*
X22525000Y33250000D02*
X22525000Y32750000D01*
X23475000Y32750000D02*
X23475000Y33250000D01*
X14150000Y250000D02*
X15850000Y250000D01*
X14150000Y-350000D02*
X15850000Y-350000D01*
X14150000Y-350000D02*
X14150000Y300000D01*
X15850000Y-350000D02*
X15850000Y300000D01*
X16750000Y300000D02*
X13250000Y300000D01*
X16750000Y3300000D02*
X13250000Y3300000D01*
X24150000Y250000D02*
X25850000Y250000D01*
X24150000Y-350000D02*
X25850000Y-350000D01*
X24150000Y-350000D02*
X24150000Y300000D01*
X25850000Y-350000D02*
X25850000Y300000D01*
X26750000Y300000D02*
X23250000Y300000D01*
X26750000Y3300000D02*
X23250000Y3300000D01*
D18*
X13444000Y43476000D02*
X13444000Y40428000D01*
X13444000Y40428000D02*
X20556000Y40428000D01*
X20556000Y40428000D02*
X20556000Y43476000D01*
X13444000Y46524000D02*
X13444000Y47286000D01*
X13444000Y47286000D02*
X14968000Y49572000D01*
X14968000Y49572000D02*
X19032000Y49572000D01*
X19032000Y49572000D02*
X20556000Y47286000D01*
X20556000Y47286000D02*
X20556000Y46524000D01*
D19*
X12818780Y21310140D02*
X13179460Y19839480D01*
X13179460Y19839480D02*
X13458860Y20901200D01*
X13458860Y20901200D02*
X13768740Y19829320D01*
X13768740Y19829320D02*
X14109100Y21279660D01*
X11398920Y20619260D02*
X12188860Y20629420D01*
X12188860Y20629420D02*
X12199020Y20619260D01*
X12199020Y20619260D02*
X12199020Y20629420D01*
X12239660Y21340620D02*
X12239660Y19798840D01*
X11350660Y21350780D02*
X11350660Y19781060D01*
X11350660Y19781060D02*
X11360820Y19791220D01*
X10799480Y21249180D02*
X10448960Y21330460D01*
X10448960Y21330460D02*
X10128920Y21340620D01*
X10128920Y21340620D02*
X9890160Y21139960D01*
X9890160Y21139960D02*
X9859680Y20870720D01*
X9859680Y20870720D02*
X10100980Y20629420D01*
X10100980Y20629420D02*
X10489600Y20499880D01*
X10489600Y20499880D02*
X10669940Y20339860D01*
X10669940Y20339860D02*
X10710580Y20040140D01*
X10710580Y20040140D02*
X10479440Y19819160D01*
X10479440Y19819160D02*
X10159400Y19791220D01*
X10159400Y19791220D02*
X9808880Y19900440D01*
X8770020Y21350780D02*
X8521100Y21330460D01*
X8521100Y21330460D02*
X8279800Y21089160D01*
X8279800Y21089160D02*
X8190900Y20598940D01*
X8190900Y20598940D02*
X8218840Y20250960D01*
X8218840Y20250960D02*
X8419500Y19930920D01*
X8419500Y19930920D02*
X8670960Y19809000D01*
X8670960Y19809000D02*
X8980840Y19880120D01*
X8980840Y19880120D02*
X9199280Y20060460D01*
X9199280Y20060460D02*
X9270400Y20520200D01*
X9270400Y20520200D02*
X9219600Y20929140D01*
X9219600Y20929140D02*
X9110380Y21211080D01*
X9110380Y21211080D02*
X8749700Y21340620D01*
X9369460Y23070360D02*
X9110380Y22509020D01*
X9110380Y22509020D02*
X9648860Y21990860D01*
X9648860Y21990860D02*
X10169560Y22260100D01*
X10169560Y22260100D02*
X10448960Y22100080D01*
X11889140Y22120400D02*
X12219340Y22310900D01*
X12219340Y22310900D02*
X12658760Y21980700D01*
X12658760Y21980700D02*
X13131200Y22470920D01*
X13131200Y22470920D02*
X12849260Y22950980D01*
X12849260Y22950980D02*
X13039760Y23420880D01*
X13039760Y23420880D02*
X13649360Y23608840D01*
X13649360Y23608840D02*
X13649360Y24289560D01*
X13649360Y24289560D02*
X13090560Y24429260D01*
X13090560Y24429260D02*
X12889900Y25000760D01*
X12889900Y25000760D02*
X13159140Y25470660D01*
X13159140Y25470660D02*
X12689240Y25981200D01*
X12689240Y25981200D02*
X12171080Y25719580D01*
X12171080Y25719580D02*
X11701180Y25920240D01*
X11701180Y25920240D02*
X11531000Y26461260D01*
X11531000Y26461260D02*
X10840120Y26479040D01*
X10840120Y26479040D02*
X10629300Y25930400D01*
X10629300Y25930400D02*
X10210200Y25760220D01*
X10210200Y25760220D02*
X9659020Y26029460D01*
X9659020Y26029460D02*
X9140860Y25501140D01*
X9140860Y25501140D02*
X9389780Y24960120D01*
X9389780Y24960120D02*
X9219600Y24480060D01*
X9219600Y24480060D02*
X8670960Y24381000D01*
X8670960Y24381000D02*
X8660800Y23679960D01*
X8660800Y23679960D02*
X9219600Y23479300D01*
X9219600Y23479300D02*
X9359300Y23080520D01*
X11500520Y23100840D02*
X11800240Y23250700D01*
X11800240Y23250700D02*
X12000900Y23448820D01*
X12000900Y23448820D02*
X12150760Y23850140D01*
X12150760Y23850140D02*
X12150760Y24248920D01*
X12150760Y24248920D02*
X12000900Y24599440D01*
X12000900Y24599440D02*
X11548780Y24949960D01*
X11548780Y24949960D02*
X11099200Y25000760D01*
X11099200Y25000760D02*
X10700420Y24899160D01*
X10700420Y24899160D02*
X10299100Y24551180D01*
X10299100Y24551180D02*
X10149240Y24099060D01*
X10149240Y24099060D02*
X10200040Y23601220D01*
X10200040Y23601220D02*
X10448960Y23298960D01*
X10448960Y23298960D02*
X10799480Y23100840D01*
X10799480Y23100840D02*
X10448960Y22100080D01*
X11500520Y23100840D02*
X11899300Y22100080D01*
D11*
X36633334Y26242857D02*
X36585715Y26195238D01*
X36442858Y26147619D01*
X36347620Y26147619D01*
X36204762Y26195238D01*
X36109524Y26290476D01*
X36061905Y26385714D01*
X36014286Y26576190D01*
X36014286Y26719048D01*
X36061905Y26909524D01*
X36109524Y27004762D01*
X36204762Y27100000D01*
X36347620Y27147619D01*
X36442858Y27147619D01*
X36585715Y27100000D01*
X36633334Y27052381D01*
X37585715Y26147619D02*
X37014286Y26147619D01*
X37300000Y26147619D02*
X37300000Y27147619D01*
X37204762Y27004762D01*
X37109524Y26909524D01*
X37014286Y26861905D01*
X44833334Y27042857D02*
X44785715Y26995238D01*
X44642858Y26947619D01*
X44547620Y26947619D01*
X44404762Y26995238D01*
X44309524Y27090476D01*
X44261905Y27185714D01*
X44214286Y27376190D01*
X44214286Y27519048D01*
X44261905Y27709524D01*
X44309524Y27804762D01*
X44404762Y27900000D01*
X44547620Y27947619D01*
X44642858Y27947619D01*
X44785715Y27900000D01*
X44833334Y27852381D01*
X45214286Y27852381D02*
X45261905Y27900000D01*
X45357143Y27947619D01*
X45595239Y27947619D01*
X45690477Y27900000D01*
X45738096Y27852381D01*
X45785715Y27757143D01*
X45785715Y27661905D01*
X45738096Y27519048D01*
X45166667Y26947619D01*
X45785715Y26947619D01*
X25233334Y33642857D02*
X25185715Y33595238D01*
X25042858Y33547619D01*
X24947620Y33547619D01*
X24804762Y33595238D01*
X24709524Y33690476D01*
X24661905Y33785714D01*
X24614286Y33976190D01*
X24614286Y34119048D01*
X24661905Y34309524D01*
X24709524Y34404762D01*
X24804762Y34500000D01*
X24947620Y34547619D01*
X25042858Y34547619D01*
X25185715Y34500000D01*
X25233334Y34452381D01*
X25566667Y34547619D02*
X26185715Y34547619D01*
X25852381Y34166667D01*
X25995239Y34166667D01*
X26090477Y34119048D01*
X26138096Y34071429D01*
X26185715Y33976190D01*
X26185715Y33738095D01*
X26138096Y33642857D01*
X26090477Y33595238D01*
X25995239Y33547619D01*
X25709524Y33547619D01*
X25614286Y33595238D01*
X25566667Y33642857D01*
X27233334Y16042857D02*
X27185715Y15995238D01*
X27042858Y15947619D01*
X26947620Y15947619D01*
X26804762Y15995238D01*
X26709524Y16090476D01*
X26661905Y16185714D01*
X26614286Y16376190D01*
X26614286Y16519048D01*
X26661905Y16709524D01*
X26709524Y16804762D01*
X26804762Y16900000D01*
X26947620Y16947619D01*
X27042858Y16947619D01*
X27185715Y16900000D01*
X27233334Y16852381D01*
X28090477Y16614286D02*
X28090477Y15947619D01*
X27852381Y16995238D02*
X27614286Y16280952D01*
X28233334Y16280952D01*
X27233334Y17442857D02*
X27185715Y17395238D01*
X27042858Y17347619D01*
X26947620Y17347619D01*
X26804762Y17395238D01*
X26709524Y17490476D01*
X26661905Y17585714D01*
X26614286Y17776190D01*
X26614286Y17919048D01*
X26661905Y18109524D01*
X26709524Y18204762D01*
X26804762Y18300000D01*
X26947620Y18347619D01*
X27042858Y18347619D01*
X27185715Y18300000D01*
X27233334Y18252381D01*
X28138096Y18347619D02*
X27661905Y18347619D01*
X27614286Y17871429D01*
X27661905Y17919048D01*
X27757143Y17966667D01*
X27995239Y17966667D01*
X28090477Y17919048D01*
X28138096Y17871429D01*
X28185715Y17776190D01*
X28185715Y17538095D01*
X28138096Y17442857D01*
X28090477Y17395238D01*
X27995239Y17347619D01*
X27757143Y17347619D01*
X27661905Y17395238D01*
X27614286Y17442857D01*
X2033334Y26742857D02*
X1985715Y26695238D01*
X1842858Y26647619D01*
X1747620Y26647619D01*
X1604762Y26695238D01*
X1509524Y26790476D01*
X1461905Y26885714D01*
X1414286Y27076190D01*
X1414286Y27219048D01*
X1461905Y27409524D01*
X1509524Y27504762D01*
X1604762Y27600000D01*
X1747620Y27647619D01*
X1842858Y27647619D01*
X1985715Y27600000D01*
X2033334Y27552381D01*
X2604762Y27219048D02*
X2509524Y27266667D01*
X2461905Y27314286D01*
X2414286Y27409524D01*
X2414286Y27457143D01*
X2461905Y27552381D01*
X2509524Y27600000D01*
X2604762Y27647619D01*
X2795239Y27647619D01*
X2890477Y27600000D01*
X2938096Y27552381D01*
X2985715Y27457143D01*
X2985715Y27409524D01*
X2938096Y27314286D01*
X2890477Y27266667D01*
X2795239Y27219048D01*
X2604762Y27219048D01*
X2509524Y27171429D01*
X2461905Y27123810D01*
X2414286Y27028571D01*
X2414286Y26838095D01*
X2461905Y26742857D01*
X2509524Y26695238D01*
X2604762Y26647619D01*
X2795239Y26647619D01*
X2890477Y26695238D01*
X2938096Y26742857D01*
X2985715Y26838095D01*
X2985715Y27028571D01*
X2938096Y27123810D01*
X2890477Y27171429D01*
X2795239Y27219048D01*
X24433334Y35842857D02*
X24385715Y35795238D01*
X24242858Y35747619D01*
X24147620Y35747619D01*
X24004762Y35795238D01*
X23909524Y35890476D01*
X23861905Y35985714D01*
X23814286Y36176190D01*
X23814286Y36319048D01*
X23861905Y36509524D01*
X23909524Y36604762D01*
X24004762Y36700000D01*
X24147620Y36747619D01*
X24242858Y36747619D01*
X24385715Y36700000D01*
X24433334Y36652381D01*
X24909524Y35747619D02*
X25100000Y35747619D01*
X25195239Y35795238D01*
X25242858Y35842857D01*
X25338096Y35985714D01*
X25385715Y36176190D01*
X25385715Y36557143D01*
X25338096Y36652381D01*
X25290477Y36700000D01*
X25195239Y36747619D01*
X25004762Y36747619D01*
X24909524Y36700000D01*
X24861905Y36652381D01*
X24814286Y36557143D01*
X24814286Y36319048D01*
X24861905Y36223810D01*
X24909524Y36176190D01*
X25004762Y36128571D01*
X25195239Y36128571D01*
X25290477Y36176190D01*
X25338096Y36223810D01*
X25385715Y36319048D01*
X10357143Y38157143D02*
X10404762Y38109524D01*
X10452381Y37966667D01*
X10452381Y37871429D01*
X10404762Y37728571D01*
X10309524Y37633333D01*
X10214286Y37585714D01*
X10023810Y37538095D01*
X9880952Y37538095D01*
X9690476Y37585714D01*
X9595238Y37633333D01*
X9500000Y37728571D01*
X9452381Y37871429D01*
X9452381Y37966667D01*
X9500000Y38109524D01*
X9547619Y38157143D01*
X10452381Y39109524D02*
X10452381Y38538095D01*
X10452381Y38823809D02*
X9452381Y38823809D01*
X9595238Y38728571D01*
X9690476Y38633333D01*
X9738095Y38538095D01*
X9452381Y39728571D02*
X9452381Y39823810D01*
X9500000Y39919048D01*
X9547619Y39966667D01*
X9642857Y40014286D01*
X9833333Y40061905D01*
X10071429Y40061905D01*
X10261905Y40014286D01*
X10357143Y39966667D01*
X10404762Y39919048D01*
X10452381Y39823810D01*
X10452381Y39728571D01*
X10404762Y39633333D01*
X10357143Y39585714D01*
X10261905Y39538095D01*
X10071429Y39490476D01*
X9833333Y39490476D01*
X9642857Y39538095D01*
X9547619Y39585714D01*
X9500000Y39633333D01*
X9452381Y39728571D01*
X43757143Y34842857D02*
X43709524Y34795238D01*
X43566667Y34747619D01*
X43471429Y34747619D01*
X43328571Y34795238D01*
X43233333Y34890476D01*
X43185714Y34985714D01*
X43138095Y35176190D01*
X43138095Y35319048D01*
X43185714Y35509524D01*
X43233333Y35604762D01*
X43328571Y35700000D01*
X43471429Y35747619D01*
X43566667Y35747619D01*
X43709524Y35700000D01*
X43757143Y35652381D01*
X44709524Y34747619D02*
X44138095Y34747619D01*
X44423809Y34747619D02*
X44423809Y35747619D01*
X44328571Y35604762D01*
X44233333Y35509524D01*
X44138095Y35461905D01*
X45661905Y34747619D02*
X45090476Y34747619D01*
X45376190Y34747619D02*
X45376190Y35747619D01*
X45280952Y35604762D01*
X45185714Y35509524D01*
X45090476Y35461905D01*
X20757143Y48642857D02*
X20709524Y48595238D01*
X20566667Y48547619D01*
X20471429Y48547619D01*
X20328571Y48595238D01*
X20233333Y48690476D01*
X20185714Y48785714D01*
X20138095Y48976190D01*
X20138095Y49119048D01*
X20185714Y49309524D01*
X20233333Y49404762D01*
X20328571Y49500000D01*
X20471429Y49547619D01*
X20566667Y49547619D01*
X20709524Y49500000D01*
X20757143Y49452381D01*
X21709524Y48547619D02*
X21138095Y48547619D01*
X21423809Y48547619D02*
X21423809Y49547619D01*
X21328571Y49404762D01*
X21233333Y49309524D01*
X21138095Y49261905D01*
X22090476Y49452381D02*
X22138095Y49500000D01*
X22233333Y49547619D01*
X22471429Y49547619D01*
X22566667Y49500000D01*
X22614286Y49452381D01*
X22661905Y49357143D01*
X22661905Y49261905D01*
X22614286Y49119048D01*
X22042857Y48547619D01*
X22661905Y48547619D01*
X7461905Y48547619D02*
X7461905Y49547619D01*
X7700000Y49547619D01*
X7842858Y49500000D01*
X7938096Y49404762D01*
X7985715Y49309524D01*
X8033334Y49119048D01*
X8033334Y48976190D01*
X7985715Y48785714D01*
X7938096Y48690476D01*
X7842858Y48595238D01*
X7700000Y48547619D01*
X7461905Y48547619D01*
X8985715Y48547619D02*
X8414286Y48547619D01*
X8700000Y48547619D02*
X8700000Y49547619D01*
X8604762Y49404762D01*
X8509524Y49309524D01*
X8414286Y49261905D01*
D20*
X46490476Y13338095D02*
X46490476Y14138095D01*
X46680952Y14138095D01*
X46795238Y14100000D01*
X46871429Y14023810D01*
X46909524Y13947619D01*
X46947619Y13795238D01*
X46947619Y13680952D01*
X46909524Y13528571D01*
X46871429Y13452381D01*
X46795238Y13376190D01*
X46680952Y13338095D01*
X46490476Y13338095D01*
X47290476Y13338095D02*
X47290476Y14138095D01*
X47290476Y13757143D02*
X47747619Y13757143D01*
X47747619Y13338095D02*
X47747619Y14138095D01*
X48052381Y14138095D02*
X48585714Y14138095D01*
X48242857Y13338095D01*
X46490476Y15868095D02*
X46490476Y16668095D01*
X46680952Y16668095D01*
X46795238Y16630000D01*
X46871429Y16553810D01*
X46909524Y16477619D01*
X46947619Y16325238D01*
X46947619Y16210952D01*
X46909524Y16058571D01*
X46871429Y15982381D01*
X46795238Y15906190D01*
X46680952Y15868095D01*
X46490476Y15868095D01*
X47290476Y15868095D02*
X47290476Y16668095D01*
X47290476Y16287143D02*
X47747619Y16287143D01*
X47747619Y15868095D02*
X47747619Y16668095D01*
X48242857Y16325238D02*
X48166666Y16363333D01*
X48128571Y16401429D01*
X48090476Y16477619D01*
X48090476Y16515714D01*
X48128571Y16591905D01*
X48166666Y16630000D01*
X48242857Y16668095D01*
X48395238Y16668095D01*
X48471428Y16630000D01*
X48509524Y16591905D01*
X48547619Y16515714D01*
X48547619Y16477619D01*
X48509524Y16401429D01*
X48471428Y16363333D01*
X48395238Y16325238D01*
X48242857Y16325238D01*
X48166666Y16287143D01*
X48128571Y16249048D01*
X48090476Y16172857D01*
X48090476Y16020476D01*
X48128571Y15944286D01*
X48166666Y15906190D01*
X48242857Y15868095D01*
X48395238Y15868095D01*
X48471428Y15906190D01*
X48509524Y15944286D01*
X48547619Y16020476D01*
X48547619Y16172857D01*
X48509524Y16249048D01*
X48471428Y16287143D01*
X48395238Y16325238D01*
X46490476Y18368095D02*
X46490476Y19168095D01*
X46680952Y19168095D01*
X46795238Y19130000D01*
X46871429Y19053810D01*
X46909524Y18977619D01*
X46947619Y18825238D01*
X46947619Y18710952D01*
X46909524Y18558571D01*
X46871429Y18482381D01*
X46795238Y18406190D01*
X46680952Y18368095D01*
X46490476Y18368095D01*
X47290476Y18368095D02*
X47290476Y19168095D01*
X47290476Y18787143D02*
X47747619Y18787143D01*
X47747619Y18368095D02*
X47747619Y19168095D01*
X48166666Y18368095D02*
X48319047Y18368095D01*
X48395238Y18406190D01*
X48433333Y18444286D01*
X48509524Y18558571D01*
X48547619Y18710952D01*
X48547619Y19015714D01*
X48509524Y19091905D01*
X48471428Y19130000D01*
X48395238Y19168095D01*
X48242857Y19168095D01*
X48166666Y19130000D01*
X48128571Y19091905D01*
X48090476Y19015714D01*
X48090476Y18825238D01*
X48128571Y18749048D01*
X48166666Y18710952D01*
X48242857Y18672857D01*
X48395238Y18672857D01*
X48471428Y18710952D01*
X48509524Y18749048D01*
X48547619Y18825238D01*
X46109524Y20868095D02*
X46109524Y21668095D01*
X46300000Y21668095D01*
X46414286Y21630000D01*
X46490477Y21553810D01*
X46528572Y21477619D01*
X46566667Y21325238D01*
X46566667Y21210952D01*
X46528572Y21058571D01*
X46490477Y20982381D01*
X46414286Y20906190D01*
X46300000Y20868095D01*
X46109524Y20868095D01*
X46909524Y20868095D02*
X46909524Y21668095D01*
X46909524Y21287143D02*
X47366667Y21287143D01*
X47366667Y20868095D02*
X47366667Y21668095D01*
X48166667Y20868095D02*
X47709524Y20868095D01*
X47938095Y20868095D02*
X47938095Y21668095D01*
X47861905Y21553810D01*
X47785714Y21477619D01*
X47709524Y21439524D01*
X48661905Y21668095D02*
X48738096Y21668095D01*
X48814286Y21630000D01*
X48852381Y21591905D01*
X48890477Y21515714D01*
X48928572Y21363333D01*
X48928572Y21172857D01*
X48890477Y21020476D01*
X48852381Y20944286D01*
X48814286Y20906190D01*
X48738096Y20868095D01*
X48661905Y20868095D01*
X48585715Y20906190D01*
X48547619Y20944286D01*
X48509524Y21020476D01*
X48471429Y21172857D01*
X48471429Y21363333D01*
X48509524Y21515714D01*
X48547619Y21591905D01*
X48585715Y21630000D01*
X48661905Y21668095D01*
X46109524Y23368095D02*
X46109524Y24168095D01*
X46300000Y24168095D01*
X46414286Y24130000D01*
X46490477Y24053810D01*
X46528572Y23977619D01*
X46566667Y23825238D01*
X46566667Y23710952D01*
X46528572Y23558571D01*
X46490477Y23482381D01*
X46414286Y23406190D01*
X46300000Y23368095D01*
X46109524Y23368095D01*
X46909524Y23368095D02*
X46909524Y24168095D01*
X46909524Y23787143D02*
X47366667Y23787143D01*
X47366667Y23368095D02*
X47366667Y24168095D01*
X48166667Y23368095D02*
X47709524Y23368095D01*
X47938095Y23368095D02*
X47938095Y24168095D01*
X47861905Y24053810D01*
X47785714Y23977619D01*
X47709524Y23939524D01*
X48928572Y23368095D02*
X48471429Y23368095D01*
X48700000Y23368095D02*
X48700000Y24168095D01*
X48623810Y24053810D01*
X48547619Y23977619D01*
X48471429Y23939524D01*
X1452381Y23338095D02*
X1452381Y24138095D01*
X1642857Y24138095D01*
X1757143Y24100000D01*
X1833334Y24023810D01*
X1871429Y23947619D01*
X1909524Y23795238D01*
X1909524Y23680952D01*
X1871429Y23528571D01*
X1833334Y23452381D01*
X1757143Y23376190D01*
X1642857Y23338095D01*
X1452381Y23338095D01*
X2252381Y23338095D02*
X2252381Y24138095D01*
X2519048Y23566667D01*
X2785715Y24138095D01*
X2785715Y23338095D01*
X3585715Y23338095D02*
X3128572Y23338095D01*
X3357143Y23338095D02*
X3357143Y24138095D01*
X3280953Y24023810D01*
X3204762Y23947619D01*
X3128572Y23909524D01*
X1452381Y20838095D02*
X1452381Y21638095D01*
X1642857Y21638095D01*
X1757143Y21600000D01*
X1833334Y21523810D01*
X1871429Y21447619D01*
X1909524Y21295238D01*
X1909524Y21180952D01*
X1871429Y21028571D01*
X1833334Y20952381D01*
X1757143Y20876190D01*
X1642857Y20838095D01*
X1452381Y20838095D01*
X2252381Y20838095D02*
X2252381Y21638095D01*
X2519048Y21066667D01*
X2785715Y21638095D01*
X2785715Y20838095D01*
X3128572Y21561905D02*
X3166667Y21600000D01*
X3242858Y21638095D01*
X3433334Y21638095D01*
X3509524Y21600000D01*
X3547620Y21561905D01*
X3585715Y21485714D01*
X3585715Y21409524D01*
X3547620Y21295238D01*
X3090477Y20838095D01*
X3585715Y20838095D01*
X1452381Y18338095D02*
X1452381Y19138095D01*
X1642857Y19138095D01*
X1757143Y19100000D01*
X1833334Y19023810D01*
X1871429Y18947619D01*
X1909524Y18795238D01*
X1909524Y18680952D01*
X1871429Y18528571D01*
X1833334Y18452381D01*
X1757143Y18376190D01*
X1642857Y18338095D01*
X1452381Y18338095D01*
X2252381Y18338095D02*
X2252381Y19138095D01*
X2519048Y18566667D01*
X2785715Y19138095D01*
X2785715Y18338095D01*
X3090477Y19138095D02*
X3585715Y19138095D01*
X3319048Y18833333D01*
X3433334Y18833333D01*
X3509524Y18795238D01*
X3547620Y18757143D01*
X3585715Y18680952D01*
X3585715Y18490476D01*
X3547620Y18414286D01*
X3509524Y18376190D01*
X3433334Y18338095D01*
X3204762Y18338095D01*
X3128572Y18376190D01*
X3090477Y18414286D01*
X1452381Y15838095D02*
X1452381Y16638095D01*
X1642857Y16638095D01*
X1757143Y16600000D01*
X1833334Y16523810D01*
X1871429Y16447619D01*
X1909524Y16295238D01*
X1909524Y16180952D01*
X1871429Y16028571D01*
X1833334Y15952381D01*
X1757143Y15876190D01*
X1642857Y15838095D01*
X1452381Y15838095D01*
X2252381Y15838095D02*
X2252381Y16638095D01*
X2519048Y16066667D01*
X2785715Y16638095D01*
X2785715Y15838095D01*
X3509524Y16371429D02*
X3509524Y15838095D01*
X3319048Y16676190D02*
X3128572Y16104762D01*
X3623810Y16104762D01*
X1452381Y13338095D02*
X1452381Y14138095D01*
X1642857Y14138095D01*
X1757143Y14100000D01*
X1833334Y14023810D01*
X1871429Y13947619D01*
X1909524Y13795238D01*
X1909524Y13680952D01*
X1871429Y13528571D01*
X1833334Y13452381D01*
X1757143Y13376190D01*
X1642857Y13338095D01*
X1452381Y13338095D01*
X2252381Y13338095D02*
X2252381Y14138095D01*
X2519048Y13566667D01*
X2785715Y14138095D01*
X2785715Y13338095D01*
X3547620Y14138095D02*
X3166667Y14138095D01*
X3128572Y13757143D01*
X3166667Y13795238D01*
X3242858Y13833333D01*
X3433334Y13833333D01*
X3509524Y13795238D01*
X3547620Y13757143D01*
X3585715Y13680952D01*
X3585715Y13490476D01*
X3547620Y13414286D01*
X3509524Y13376190D01*
X3433334Y13338095D01*
X3242858Y13338095D01*
X3166667Y13376190D01*
X3128572Y13414286D01*
X1452381Y10838095D02*
X1452381Y11638095D01*
X1642857Y11638095D01*
X1757143Y11600000D01*
X1833334Y11523810D01*
X1871429Y11447619D01*
X1909524Y11295238D01*
X1909524Y11180952D01*
X1871429Y11028571D01*
X1833334Y10952381D01*
X1757143Y10876190D01*
X1642857Y10838095D01*
X1452381Y10838095D01*
X2252381Y10838095D02*
X2252381Y11638095D01*
X2519048Y11066667D01*
X2785715Y11638095D01*
X2785715Y10838095D01*
X3509524Y11638095D02*
X3357143Y11638095D01*
X3280953Y11600000D01*
X3242858Y11561905D01*
X3166667Y11447619D01*
X3128572Y11295238D01*
X3128572Y10990476D01*
X3166667Y10914286D01*
X3204762Y10876190D01*
X3280953Y10838095D01*
X3433334Y10838095D01*
X3509524Y10876190D01*
X3547620Y10914286D01*
X3585715Y10990476D01*
X3585715Y11180952D01*
X3547620Y11257143D01*
X3509524Y11295238D01*
X3433334Y11333333D01*
X3280953Y11333333D01*
X3204762Y11295238D01*
X3166667Y11257143D01*
X3128572Y11180952D01*
D11*
X31666667Y39771429D02*
X31333333Y39771429D01*
X31333333Y39247619D02*
X31333333Y40247619D01*
X31809524Y40247619D01*
X32714286Y39247619D02*
X32142857Y39247619D01*
X32428571Y39247619D02*
X32428571Y40247619D01*
X32333333Y40104762D01*
X32238095Y40009524D01*
X32142857Y39961905D01*
D18*
X40862619Y48225476D02*
X40862619Y49495476D01*
X41588333Y48225476D02*
X41044048Y48951190D01*
X41588333Y49495476D02*
X40862619Y48769762D01*
X42797857Y48225476D02*
X42072143Y48225476D01*
X42435000Y48225476D02*
X42435000Y49495476D01*
X42314048Y49314048D01*
X42193095Y49193095D01*
X42072143Y49132619D01*
X2862619Y38625476D02*
X2862619Y39895476D01*
X3346428Y39895476D01*
X3467381Y39835000D01*
X3527857Y39774524D01*
X3588333Y39653571D01*
X3588333Y39472143D01*
X3527857Y39351190D01*
X3467381Y39290714D01*
X3346428Y39230238D01*
X2862619Y39230238D01*
X4797857Y38625476D02*
X4072143Y38625476D01*
X4435000Y38625476D02*
X4435000Y39895476D01*
X4314048Y39714048D01*
X4193095Y39593095D01*
X4072143Y39532619D01*
D11*
X30892858Y47521429D02*
X30892858Y49021429D01*
X31464286Y49021429D01*
X31607144Y48950000D01*
X31678572Y48878571D01*
X31750001Y48735714D01*
X31750001Y48521429D01*
X31678572Y48378571D01*
X31607144Y48307143D01*
X31464286Y48235714D01*
X30892858Y48235714D01*
X32321429Y48878571D02*
X32392858Y48950000D01*
X32535715Y49021429D01*
X32892858Y49021429D01*
X33035715Y48950000D01*
X33107144Y48878571D01*
X33178572Y48735714D01*
X33178572Y48592857D01*
X33107144Y48378571D01*
X32250001Y47521429D01*
X33178572Y47521429D01*
X47461905Y40947619D02*
X47461905Y41947619D01*
X47842858Y41947619D01*
X47938096Y41900000D01*
X47985715Y41852381D01*
X48033334Y41757143D01*
X48033334Y41614286D01*
X47985715Y41519048D01*
X47938096Y41471429D01*
X47842858Y41423810D01*
X47461905Y41423810D01*
X48366667Y41947619D02*
X48985715Y41947619D01*
X48652381Y41566667D01*
X48795239Y41566667D01*
X48890477Y41519048D01*
X48938096Y41471429D01*
X48985715Y41376190D01*
X48985715Y41138095D01*
X48938096Y41042857D01*
X48890477Y40995238D01*
X48795239Y40947619D01*
X48509524Y40947619D01*
X48414286Y40995238D01*
X48366667Y41042857D01*
X47561905Y33347619D02*
X47561905Y34347619D01*
X47942858Y34347619D01*
X48038096Y34300000D01*
X48085715Y34252381D01*
X48133334Y34157143D01*
X48133334Y34014286D01*
X48085715Y33919048D01*
X48038096Y33871429D01*
X47942858Y33823810D01*
X47561905Y33823810D01*
X48466667Y34347619D02*
X49133334Y34347619D01*
X48704762Y33347619D01*
D20*
X5866667Y23338095D02*
X5600000Y23719048D01*
X5409524Y23338095D02*
X5409524Y24138095D01*
X5714286Y24138095D01*
X5790477Y24100000D01*
X5828572Y24061905D01*
X5866667Y23985714D01*
X5866667Y23871429D01*
X5828572Y23795238D01*
X5790477Y23757143D01*
X5714286Y23719048D01*
X5409524Y23719048D01*
X6628572Y23338095D02*
X6171429Y23338095D01*
X6400000Y23338095D02*
X6400000Y24138095D01*
X6323810Y24023810D01*
X6247619Y23947619D01*
X6171429Y23909524D01*
X5866667Y20838095D02*
X5600000Y21219048D01*
X5409524Y20838095D02*
X5409524Y21638095D01*
X5714286Y21638095D01*
X5790477Y21600000D01*
X5828572Y21561905D01*
X5866667Y21485714D01*
X5866667Y21371429D01*
X5828572Y21295238D01*
X5790477Y21257143D01*
X5714286Y21219048D01*
X5409524Y21219048D01*
X6171429Y21561905D02*
X6209524Y21600000D01*
X6285715Y21638095D01*
X6476191Y21638095D01*
X6552381Y21600000D01*
X6590477Y21561905D01*
X6628572Y21485714D01*
X6628572Y21409524D01*
X6590477Y21295238D01*
X6133334Y20838095D01*
X6628572Y20838095D01*
X5866667Y18338095D02*
X5600000Y18719048D01*
X5409524Y18338095D02*
X5409524Y19138095D01*
X5714286Y19138095D01*
X5790477Y19100000D01*
X5828572Y19061905D01*
X5866667Y18985714D01*
X5866667Y18871429D01*
X5828572Y18795238D01*
X5790477Y18757143D01*
X5714286Y18719048D01*
X5409524Y18719048D01*
X6133334Y19138095D02*
X6628572Y19138095D01*
X6361905Y18833333D01*
X6476191Y18833333D01*
X6552381Y18795238D01*
X6590477Y18757143D01*
X6628572Y18680952D01*
X6628572Y18490476D01*
X6590477Y18414286D01*
X6552381Y18376190D01*
X6476191Y18338095D01*
X6247619Y18338095D01*
X6171429Y18376190D01*
X6133334Y18414286D01*
X5866667Y15838095D02*
X5600000Y16219048D01*
X5409524Y15838095D02*
X5409524Y16638095D01*
X5714286Y16638095D01*
X5790477Y16600000D01*
X5828572Y16561905D01*
X5866667Y16485714D01*
X5866667Y16371429D01*
X5828572Y16295238D01*
X5790477Y16257143D01*
X5714286Y16219048D01*
X5409524Y16219048D01*
X6552381Y16371429D02*
X6552381Y15838095D01*
X6361905Y16676190D02*
X6171429Y16104762D01*
X6666667Y16104762D01*
X5866667Y13338095D02*
X5600000Y13719048D01*
X5409524Y13338095D02*
X5409524Y14138095D01*
X5714286Y14138095D01*
X5790477Y14100000D01*
X5828572Y14061905D01*
X5866667Y13985714D01*
X5866667Y13871429D01*
X5828572Y13795238D01*
X5790477Y13757143D01*
X5714286Y13719048D01*
X5409524Y13719048D01*
X6590477Y14138095D02*
X6209524Y14138095D01*
X6171429Y13757143D01*
X6209524Y13795238D01*
X6285715Y13833333D01*
X6476191Y13833333D01*
X6552381Y13795238D01*
X6590477Y13757143D01*
X6628572Y13680952D01*
X6628572Y13490476D01*
X6590477Y13414286D01*
X6552381Y13376190D01*
X6476191Y13338095D01*
X6285715Y13338095D01*
X6209524Y13376190D01*
X6171429Y13414286D01*
X5866667Y10838095D02*
X5600000Y11219048D01*
X5409524Y10838095D02*
X5409524Y11638095D01*
X5714286Y11638095D01*
X5790477Y11600000D01*
X5828572Y11561905D01*
X5866667Y11485714D01*
X5866667Y11371429D01*
X5828572Y11295238D01*
X5790477Y11257143D01*
X5714286Y11219048D01*
X5409524Y11219048D01*
X6552381Y11638095D02*
X6400000Y11638095D01*
X6323810Y11600000D01*
X6285715Y11561905D01*
X6209524Y11447619D01*
X6171429Y11295238D01*
X6171429Y10990476D01*
X6209524Y10914286D01*
X6247619Y10876190D01*
X6323810Y10838095D01*
X6476191Y10838095D01*
X6552381Y10876190D01*
X6590477Y10914286D01*
X6628572Y10990476D01*
X6628572Y11180952D01*
X6590477Y11257143D01*
X6552381Y11295238D01*
X6476191Y11333333D01*
X6323810Y11333333D01*
X6247619Y11295238D01*
X6209524Y11257143D01*
X6171429Y11180952D01*
X43866667Y13338095D02*
X43600000Y13719048D01*
X43409524Y13338095D02*
X43409524Y14138095D01*
X43714286Y14138095D01*
X43790477Y14100000D01*
X43828572Y14061905D01*
X43866667Y13985714D01*
X43866667Y13871429D01*
X43828572Y13795238D01*
X43790477Y13757143D01*
X43714286Y13719048D01*
X43409524Y13719048D01*
X44133334Y14138095D02*
X44666667Y14138095D01*
X44323810Y13338095D01*
X43866667Y15838095D02*
X43600000Y16219048D01*
X43409524Y15838095D02*
X43409524Y16638095D01*
X43714286Y16638095D01*
X43790477Y16600000D01*
X43828572Y16561905D01*
X43866667Y16485714D01*
X43866667Y16371429D01*
X43828572Y16295238D01*
X43790477Y16257143D01*
X43714286Y16219048D01*
X43409524Y16219048D01*
X44323810Y16295238D02*
X44247619Y16333333D01*
X44209524Y16371429D01*
X44171429Y16447619D01*
X44171429Y16485714D01*
X44209524Y16561905D01*
X44247619Y16600000D01*
X44323810Y16638095D01*
X44476191Y16638095D01*
X44552381Y16600000D01*
X44590477Y16561905D01*
X44628572Y16485714D01*
X44628572Y16447619D01*
X44590477Y16371429D01*
X44552381Y16333333D01*
X44476191Y16295238D01*
X44323810Y16295238D01*
X44247619Y16257143D01*
X44209524Y16219048D01*
X44171429Y16142857D01*
X44171429Y15990476D01*
X44209524Y15914286D01*
X44247619Y15876190D01*
X44323810Y15838095D01*
X44476191Y15838095D01*
X44552381Y15876190D01*
X44590477Y15914286D01*
X44628572Y15990476D01*
X44628572Y16142857D01*
X44590477Y16219048D01*
X44552381Y16257143D01*
X44476191Y16295238D01*
X43866667Y18338095D02*
X43600000Y18719048D01*
X43409524Y18338095D02*
X43409524Y19138095D01*
X43714286Y19138095D01*
X43790477Y19100000D01*
X43828572Y19061905D01*
X43866667Y18985714D01*
X43866667Y18871429D01*
X43828572Y18795238D01*
X43790477Y18757143D01*
X43714286Y18719048D01*
X43409524Y18719048D01*
X44247619Y18338095D02*
X44400000Y18338095D01*
X44476191Y18376190D01*
X44514286Y18414286D01*
X44590477Y18528571D01*
X44628572Y18680952D01*
X44628572Y18985714D01*
X44590477Y19061905D01*
X44552381Y19100000D01*
X44476191Y19138095D01*
X44323810Y19138095D01*
X44247619Y19100000D01*
X44209524Y19061905D01*
X44171429Y18985714D01*
X44171429Y18795238D01*
X44209524Y18719048D01*
X44247619Y18680952D01*
X44323810Y18642857D01*
X44476191Y18642857D01*
X44552381Y18680952D01*
X44590477Y18719048D01*
X44628572Y18795238D01*
X43485714Y20838095D02*
X43219047Y21219048D01*
X43028571Y20838095D02*
X43028571Y21638095D01*
X43333333Y21638095D01*
X43409524Y21600000D01*
X43447619Y21561905D01*
X43485714Y21485714D01*
X43485714Y21371429D01*
X43447619Y21295238D01*
X43409524Y21257143D01*
X43333333Y21219048D01*
X43028571Y21219048D01*
X44247619Y20838095D02*
X43790476Y20838095D01*
X44019047Y20838095D02*
X44019047Y21638095D01*
X43942857Y21523810D01*
X43866666Y21447619D01*
X43790476Y21409524D01*
X44742857Y21638095D02*
X44819048Y21638095D01*
X44895238Y21600000D01*
X44933333Y21561905D01*
X44971429Y21485714D01*
X45009524Y21333333D01*
X45009524Y21142857D01*
X44971429Y20990476D01*
X44933333Y20914286D01*
X44895238Y20876190D01*
X44819048Y20838095D01*
X44742857Y20838095D01*
X44666667Y20876190D01*
X44628571Y20914286D01*
X44590476Y20990476D01*
X44552381Y21142857D01*
X44552381Y21333333D01*
X44590476Y21485714D01*
X44628571Y21561905D01*
X44666667Y21600000D01*
X44742857Y21638095D01*
X43485714Y23338095D02*
X43219047Y23719048D01*
X43028571Y23338095D02*
X43028571Y24138095D01*
X43333333Y24138095D01*
X43409524Y24100000D01*
X43447619Y24061905D01*
X43485714Y23985714D01*
X43485714Y23871429D01*
X43447619Y23795238D01*
X43409524Y23757143D01*
X43333333Y23719048D01*
X43028571Y23719048D01*
X44247619Y23338095D02*
X43790476Y23338095D01*
X44019047Y23338095D02*
X44019047Y24138095D01*
X43942857Y24023810D01*
X43866666Y23947619D01*
X43790476Y23909524D01*
X45009524Y23338095D02*
X44552381Y23338095D01*
X44780952Y23338095D02*
X44780952Y24138095D01*
X44704762Y24023810D01*
X44628571Y23947619D01*
X44552381Y23909524D01*
D11*
X29557143Y15147619D02*
X29223809Y15623810D01*
X28985714Y15147619D02*
X28985714Y16147619D01*
X29366667Y16147619D01*
X29461905Y16100000D01*
X29509524Y16052381D01*
X29557143Y15957143D01*
X29557143Y15814286D01*
X29509524Y15719048D01*
X29461905Y15671429D01*
X29366667Y15623810D01*
X28985714Y15623810D01*
X30509524Y15147619D02*
X29938095Y15147619D01*
X30223809Y15147619D02*
X30223809Y16147619D01*
X30128571Y16004762D01*
X30033333Y15909524D01*
X29938095Y15861905D01*
X30890476Y16052381D02*
X30938095Y16100000D01*
X31033333Y16147619D01*
X31271429Y16147619D01*
X31366667Y16100000D01*
X31414286Y16052381D01*
X31461905Y15957143D01*
X31461905Y15861905D01*
X31414286Y15719048D01*
X30842857Y15147619D01*
X31461905Y15147619D01*
X20252381Y16357143D02*
X19776190Y16023809D01*
X20252381Y15785714D02*
X19252381Y15785714D01*
X19252381Y16166667D01*
X19300000Y16261905D01*
X19347619Y16309524D01*
X19442857Y16357143D01*
X19585714Y16357143D01*
X19680952Y16309524D01*
X19728571Y16261905D01*
X19776190Y16166667D01*
X19776190Y15785714D01*
X20252381Y17309524D02*
X20252381Y16738095D01*
X20252381Y17023809D02*
X19252381Y17023809D01*
X19395238Y16928571D01*
X19490476Y16833333D01*
X19538095Y16738095D01*
X19252381Y17642857D02*
X19252381Y18261905D01*
X19633333Y17928571D01*
X19633333Y18071429D01*
X19680952Y18166667D01*
X19728571Y18214286D01*
X19823810Y18261905D01*
X20061905Y18261905D01*
X20157143Y18214286D01*
X20204762Y18166667D01*
X20252381Y18071429D01*
X20252381Y17785714D01*
X20204762Y17690476D01*
X20157143Y17642857D01*
X10357143Y44947619D02*
X10023809Y45423810D01*
X9785714Y44947619D02*
X9785714Y45947619D01*
X10166667Y45947619D01*
X10261905Y45900000D01*
X10309524Y45852381D01*
X10357143Y45757143D01*
X10357143Y45614286D01*
X10309524Y45519048D01*
X10261905Y45471429D01*
X10166667Y45423810D01*
X9785714Y45423810D01*
X11309524Y44947619D02*
X10738095Y44947619D01*
X11023809Y44947619D02*
X11023809Y45947619D01*
X10928571Y45804762D01*
X10833333Y45709524D01*
X10738095Y45661905D01*
X12166667Y45614286D02*
X12166667Y44947619D01*
X11928571Y45995238D02*
X11690476Y45280952D01*
X12309524Y45280952D01*
X29852381Y33957143D02*
X29376190Y33623809D01*
X29852381Y33385714D02*
X28852381Y33385714D01*
X28852381Y33766667D01*
X28900000Y33861905D01*
X28947619Y33909524D01*
X29042857Y33957143D01*
X29185714Y33957143D01*
X29280952Y33909524D01*
X29328571Y33861905D01*
X29376190Y33766667D01*
X29376190Y33385714D01*
X29852381Y34909524D02*
X29852381Y34338095D01*
X29852381Y34623809D02*
X28852381Y34623809D01*
X28995238Y34528571D01*
X29090476Y34433333D01*
X29138095Y34338095D01*
X28852381Y35814286D02*
X28852381Y35338095D01*
X29328571Y35290476D01*
X29280952Y35338095D01*
X29233333Y35433333D01*
X29233333Y35671429D01*
X29280952Y35766667D01*
X29328571Y35814286D01*
X29423810Y35861905D01*
X29661905Y35861905D01*
X29757143Y35814286D01*
X29804762Y35766667D01*
X29852381Y35671429D01*
X29852381Y35433333D01*
X29804762Y35338095D01*
X29757143Y35290476D01*
X37452381Y33957143D02*
X36976190Y33623809D01*
X37452381Y33385714D02*
X36452381Y33385714D01*
X36452381Y33766667D01*
X36500000Y33861905D01*
X36547619Y33909524D01*
X36642857Y33957143D01*
X36785714Y33957143D01*
X36880952Y33909524D01*
X36928571Y33861905D01*
X36976190Y33766667D01*
X36976190Y33385714D01*
X37452381Y34909524D02*
X37452381Y34338095D01*
X37452381Y34623809D02*
X36452381Y34623809D01*
X36595238Y34528571D01*
X36690476Y34433333D01*
X36738095Y34338095D01*
X36452381Y35766667D02*
X36452381Y35576190D01*
X36500000Y35480952D01*
X36547619Y35433333D01*
X36690476Y35338095D01*
X36880952Y35290476D01*
X37261905Y35290476D01*
X37357143Y35338095D01*
X37404762Y35385714D01*
X37452381Y35480952D01*
X37452381Y35671429D01*
X37404762Y35766667D01*
X37357143Y35814286D01*
X37261905Y35861905D01*
X37023810Y35861905D01*
X36928571Y35814286D01*
X36880952Y35766667D01*
X36833333Y35671429D01*
X36833333Y35480952D01*
X36880952Y35385714D01*
X36928571Y35338095D01*
X37023810Y35290476D01*
X15357143Y36947619D02*
X15023809Y37423810D01*
X14785714Y36947619D02*
X14785714Y37947619D01*
X15166667Y37947619D01*
X15261905Y37900000D01*
X15309524Y37852381D01*
X15357143Y37757143D01*
X15357143Y37614286D01*
X15309524Y37519048D01*
X15261905Y37471429D01*
X15166667Y37423810D01*
X14785714Y37423810D01*
X16309524Y36947619D02*
X15738095Y36947619D01*
X16023809Y36947619D02*
X16023809Y37947619D01*
X15928571Y37804762D01*
X15833333Y37709524D01*
X15738095Y37661905D01*
X16642857Y37947619D02*
X17309524Y37947619D01*
X16880952Y36947619D01*
X12452381Y38157143D02*
X11976190Y37823809D01*
X12452381Y37585714D02*
X11452381Y37585714D01*
X11452381Y37966667D01*
X11500000Y38061905D01*
X11547619Y38109524D01*
X11642857Y38157143D01*
X11785714Y38157143D01*
X11880952Y38109524D01*
X11928571Y38061905D01*
X11976190Y37966667D01*
X11976190Y37585714D01*
X12452381Y39109524D02*
X12452381Y38538095D01*
X12452381Y38823809D02*
X11452381Y38823809D01*
X11595238Y38728571D01*
X11690476Y38633333D01*
X11738095Y38538095D01*
X11880952Y39680952D02*
X11833333Y39585714D01*
X11785714Y39538095D01*
X11690476Y39490476D01*
X11642857Y39490476D01*
X11547619Y39538095D01*
X11500000Y39585714D01*
X11452381Y39680952D01*
X11452381Y39871429D01*
X11500000Y39966667D01*
X11547619Y40014286D01*
X11642857Y40061905D01*
X11690476Y40061905D01*
X11785714Y40014286D01*
X11833333Y39966667D01*
X11880952Y39871429D01*
X11880952Y39680952D01*
X11928571Y39585714D01*
X11976190Y39538095D01*
X12071429Y39490476D01*
X12261905Y39490476D01*
X12357143Y39538095D01*
X12404762Y39585714D01*
X12452381Y39680952D01*
X12452381Y39871429D01*
X12404762Y39966667D01*
X12357143Y40014286D01*
X12261905Y40061905D01*
X12071429Y40061905D01*
X11976190Y40014286D01*
X11928571Y39966667D01*
X11880952Y39871429D01*
X34452381Y17557143D02*
X33976190Y17223809D01*
X34452381Y16985714D02*
X33452381Y16985714D01*
X33452381Y17366667D01*
X33500000Y17461905D01*
X33547619Y17509524D01*
X33642857Y17557143D01*
X33785714Y17557143D01*
X33880952Y17509524D01*
X33928571Y17461905D01*
X33976190Y17366667D01*
X33976190Y16985714D01*
X34452381Y18509524D02*
X34452381Y17938095D01*
X34452381Y18223809D02*
X33452381Y18223809D01*
X33595238Y18128571D01*
X33690476Y18033333D01*
X33738095Y17938095D01*
X34452381Y18985714D02*
X34452381Y19176190D01*
X34404762Y19271429D01*
X34357143Y19319048D01*
X34214286Y19414286D01*
X34023810Y19461905D01*
X33642857Y19461905D01*
X33547619Y19414286D01*
X33500000Y19366667D01*
X33452381Y19271429D01*
X33452381Y19080952D01*
X33500000Y18985714D01*
X33547619Y18938095D01*
X33642857Y18890476D01*
X33880952Y18890476D01*
X33976190Y18938095D01*
X34023810Y18985714D01*
X34071429Y19080952D01*
X34071429Y19271429D01*
X34023810Y19366667D01*
X33976190Y19414286D01*
X33880952Y19461905D01*
X41652381Y11357143D02*
X41176190Y11023809D01*
X41652381Y10785714D02*
X40652381Y10785714D01*
X40652381Y11166667D01*
X40700000Y11261905D01*
X40747619Y11309524D01*
X40842857Y11357143D01*
X40985714Y11357143D01*
X41080952Y11309524D01*
X41128571Y11261905D01*
X41176190Y11166667D01*
X41176190Y10785714D01*
X40747619Y11738095D02*
X40700000Y11785714D01*
X40652381Y11880952D01*
X40652381Y12119048D01*
X40700000Y12214286D01*
X40747619Y12261905D01*
X40842857Y12309524D01*
X40938095Y12309524D01*
X41080952Y12261905D01*
X41652381Y11690476D01*
X41652381Y12309524D01*
X40652381Y12928571D02*
X40652381Y13023810D01*
X40700000Y13119048D01*
X40747619Y13166667D01*
X40842857Y13214286D01*
X41033333Y13261905D01*
X41271429Y13261905D01*
X41461905Y13214286D01*
X41557143Y13166667D01*
X41604762Y13119048D01*
X41652381Y13023810D01*
X41652381Y12928571D01*
X41604762Y12833333D01*
X41557143Y12785714D01*
X41461905Y12738095D01*
X41271429Y12690476D01*
X41033333Y12690476D01*
X40842857Y12738095D01*
X40747619Y12785714D01*
X40700000Y12833333D01*
X40652381Y12928571D01*
D18*
X29425905Y30095476D02*
X29425905Y29067381D01*
X29474286Y28946429D01*
X29522667Y28885952D01*
X29619429Y28825476D01*
X29812952Y28825476D01*
X29909714Y28885952D01*
X29958095Y28946429D01*
X30006476Y29067381D01*
X30006476Y30095476D01*
X31022476Y28825476D02*
X30441905Y28825476D01*
X30732191Y28825476D02*
X30732191Y30095476D01*
X30635429Y29914048D01*
X30538667Y29793095D01*
X30441905Y29732619D01*
D11*
X41638095Y39947619D02*
X41638095Y39138095D01*
X41685714Y39042857D01*
X41733333Y38995238D01*
X41828571Y38947619D01*
X42019048Y38947619D01*
X42114286Y38995238D01*
X42161905Y39042857D01*
X42209524Y39138095D01*
X42209524Y39947619D01*
X42638095Y39852381D02*
X42685714Y39900000D01*
X42780952Y39947619D01*
X43019048Y39947619D01*
X43114286Y39900000D01*
X43161905Y39852381D01*
X43209524Y39757143D01*
X43209524Y39661905D01*
X43161905Y39519048D01*
X42590476Y38947619D01*
X43209524Y38947619D01*
X41638095Y32547619D02*
X41638095Y31738095D01*
X41685714Y31642857D01*
X41733333Y31595238D01*
X41828571Y31547619D01*
X42019048Y31547619D01*
X42114286Y31595238D01*
X42161905Y31642857D01*
X42209524Y31738095D01*
X42209524Y32547619D01*
X43114286Y32214286D02*
X43114286Y31547619D01*
X42876190Y32595238D02*
X42638095Y31880952D01*
X43257143Y31880952D01*
X16285715Y36021429D02*
X17285715Y34521429D01*
X17285715Y36021429D02*
X16285715Y34521429D01*
X18642857Y34521429D02*
X17785714Y34521429D01*
X18214286Y34521429D02*
X18214286Y36021429D01*
X18071429Y35807143D01*
X17928571Y35664286D01*
X17785714Y35592857D01*
X11204762Y10290476D02*
X11252381Y10433333D01*
X11252381Y10671429D01*
X11204762Y10766667D01*
X11157143Y10814286D01*
X11061905Y10861905D01*
X10966667Y10861905D01*
X10871429Y10814286D01*
X10823810Y10766667D01*
X10776190Y10671429D01*
X10728571Y10480952D01*
X10680952Y10385714D01*
X10633333Y10338095D01*
X10538095Y10290476D01*
X10442857Y10290476D01*
X10347619Y10338095D01*
X10300000Y10385714D01*
X10252381Y10480952D01*
X10252381Y10719048D01*
X10300000Y10861905D01*
X10252381Y11195238D02*
X11252381Y11433333D01*
X10538095Y11623810D01*
X11252381Y11814286D01*
X10252381Y12052381D01*
X11252381Y12957143D02*
X11252381Y12385714D01*
X11252381Y12671428D02*
X10252381Y12671428D01*
X10395238Y12576190D01*
X10490476Y12480952D01*
X10538095Y12385714D01*
X10728571Y13719048D02*
X10776190Y13861905D01*
X10823810Y13909524D01*
X10919048Y13957143D01*
X11061905Y13957143D01*
X11157143Y13909524D01*
X11204762Y13861905D01*
X11252381Y13766667D01*
X11252381Y13385714D01*
X10252381Y13385714D01*
X10252381Y13719048D01*
X10300000Y13814286D01*
X10347619Y13861905D01*
X10442857Y13909524D01*
X10538095Y13909524D01*
X10633333Y13861905D01*
X10680952Y13814286D01*
X10728571Y13719048D01*
X10728571Y13385714D01*
X11252381Y14909524D02*
X11252381Y14338095D01*
X11252381Y14623809D02*
X10252381Y14623809D01*
X10395238Y14528571D01*
X10490476Y14433333D01*
X10538095Y14338095D01*
X21404762Y10490476D02*
X21452381Y10633333D01*
X21452381Y10871429D01*
X21404762Y10966667D01*
X21357143Y11014286D01*
X21261905Y11061905D01*
X21166667Y11061905D01*
X21071429Y11014286D01*
X21023810Y10966667D01*
X20976190Y10871429D01*
X20928571Y10680952D01*
X20880952Y10585714D01*
X20833333Y10538095D01*
X20738095Y10490476D01*
X20642857Y10490476D01*
X20547619Y10538095D01*
X20500000Y10585714D01*
X20452381Y10680952D01*
X20452381Y10919048D01*
X20500000Y11061905D01*
X20452381Y11395238D02*
X21452381Y11633333D01*
X20738095Y11823810D01*
X21452381Y12014286D01*
X20452381Y12252381D01*
X20547619Y12585714D02*
X20500000Y12633333D01*
X20452381Y12728571D01*
X20452381Y12966667D01*
X20500000Y13061905D01*
X20547619Y13109524D01*
X20642857Y13157143D01*
X20738095Y13157143D01*
X20880952Y13109524D01*
X21452381Y12538095D01*
X21452381Y13157143D01*
X20928571Y13919048D02*
X20976190Y14061905D01*
X21023810Y14109524D01*
X21119048Y14157143D01*
X21261905Y14157143D01*
X21357143Y14109524D01*
X21404762Y14061905D01*
X21452381Y13966667D01*
X21452381Y13585714D01*
X20452381Y13585714D01*
X20452381Y13919048D01*
X20500000Y14014286D01*
X20547619Y14061905D01*
X20642857Y14109524D01*
X20738095Y14109524D01*
X20833333Y14061905D01*
X20880952Y14014286D01*
X20928571Y13919048D01*
X20928571Y13585714D01*
X21452381Y15109524D02*
X21452381Y14538095D01*
X21452381Y14823809D02*
X20452381Y14823809D01*
X20595238Y14728571D01*
X20690476Y14633333D01*
X20738095Y14538095D01*
X31404762Y11666667D02*
X31452381Y11809524D01*
X31452381Y12047620D01*
X31404762Y12142858D01*
X31357143Y12190477D01*
X31261905Y12238096D01*
X31166667Y12238096D01*
X31071429Y12190477D01*
X31023810Y12142858D01*
X30976190Y12047620D01*
X30928571Y11857143D01*
X30880952Y11761905D01*
X30833333Y11714286D01*
X30738095Y11666667D01*
X30642857Y11666667D01*
X30547619Y11714286D01*
X30500000Y11761905D01*
X30452381Y11857143D01*
X30452381Y12095239D01*
X30500000Y12238096D01*
X30452381Y12571429D02*
X31452381Y12809524D01*
X30738095Y13000001D01*
X31452381Y13190477D01*
X30452381Y13428572D01*
X30452381Y13714286D02*
X30452381Y14333334D01*
X30833333Y14000000D01*
X30833333Y14142858D01*
X30880952Y14238096D01*
X30928571Y14285715D01*
X31023810Y14333334D01*
X31261905Y14333334D01*
X31357143Y14285715D01*
X31404762Y14238096D01*
X31452381Y14142858D01*
X31452381Y13857143D01*
X31404762Y13761905D01*
X31357143Y13714286D01*
X17583334Y29392857D02*
X17535715Y29345238D01*
X17392858Y29297619D01*
X17297620Y29297619D01*
X17154762Y29345238D01*
X17059524Y29440476D01*
X17011905Y29535714D01*
X16964286Y29726190D01*
X16964286Y29869048D01*
X17011905Y30059524D01*
X17059524Y30154762D01*
X17154762Y30250000D01*
X17297620Y30297619D01*
X17392858Y30297619D01*
X17535715Y30250000D01*
X17583334Y30202381D01*
X18440477Y30297619D02*
X18250000Y30297619D01*
X18154762Y30250000D01*
X18107143Y30202381D01*
X18011905Y30059524D01*
X17964286Y29869048D01*
X17964286Y29488095D01*
X18011905Y29392857D01*
X18059524Y29345238D01*
X18154762Y29297619D01*
X18345239Y29297619D01*
X18440477Y29345238D01*
X18488096Y29392857D01*
X18535715Y29488095D01*
X18535715Y29726190D01*
X18488096Y29821429D01*
X18440477Y29869048D01*
X18345239Y29916667D01*
X18154762Y29916667D01*
X18059524Y29869048D01*
X18011905Y29821429D01*
X17964286Y29726190D01*
X21957143Y32833334D02*
X22004762Y32785715D01*
X22052381Y32642858D01*
X22052381Y32547620D01*
X22004762Y32404762D01*
X21909524Y32309524D01*
X21814286Y32261905D01*
X21623810Y32214286D01*
X21480952Y32214286D01*
X21290476Y32261905D01*
X21195238Y32309524D01*
X21100000Y32404762D01*
X21052381Y32547620D01*
X21052381Y32642858D01*
X21100000Y32785715D01*
X21147619Y32833334D01*
X21052381Y33166667D02*
X21052381Y33833334D01*
X22052381Y33404762D01*
X6861905Y495238D02*
X7004762Y447619D01*
X7242858Y447619D01*
X7338096Y495238D01*
X7385715Y542857D01*
X7433334Y638095D01*
X7433334Y733333D01*
X7385715Y828571D01*
X7338096Y876190D01*
X7242858Y923810D01*
X7052381Y971429D01*
X6957143Y1019048D01*
X6909524Y1066667D01*
X6861905Y1161905D01*
X6861905Y1257143D01*
X6909524Y1352381D01*
X6957143Y1400000D01*
X7052381Y1447619D01*
X7290477Y1447619D01*
X7433334Y1400000D01*
X7766667Y1447619D02*
X8004762Y447619D01*
X8195239Y1161905D01*
X8385715Y447619D01*
X8623810Y1447619D01*
X9528572Y447619D02*
X8957143Y447619D01*
X9242857Y447619D02*
X9242857Y1447619D01*
X9147619Y1304762D01*
X9052381Y1209524D01*
X8957143Y1161905D01*
X9909524Y733333D02*
X10385715Y733333D01*
X9814286Y447619D02*
X10147619Y1447619D01*
X10480953Y447619D01*
X11338096Y447619D02*
X10766667Y447619D01*
X11052381Y447619D02*
X11052381Y1447619D01*
X10957143Y1304762D01*
X10861905Y1209524D01*
X10766667Y1161905D01*
X28761905Y495238D02*
X28904762Y447619D01*
X29142858Y447619D01*
X29238096Y495238D01*
X29285715Y542857D01*
X29333334Y638095D01*
X29333334Y733333D01*
X29285715Y828571D01*
X29238096Y876190D01*
X29142858Y923810D01*
X28952381Y971429D01*
X28857143Y1019048D01*
X28809524Y1066667D01*
X28761905Y1161905D01*
X28761905Y1257143D01*
X28809524Y1352381D01*
X28857143Y1400000D01*
X28952381Y1447619D01*
X29190477Y1447619D01*
X29333334Y1400000D01*
X29666667Y1447619D02*
X29904762Y447619D01*
X30095239Y1161905D01*
X30285715Y447619D01*
X30523810Y1447619D01*
X30857143Y1352381D02*
X30904762Y1400000D01*
X31000000Y1447619D01*
X31238096Y1447619D01*
X31333334Y1400000D01*
X31380953Y1352381D01*
X31428572Y1257143D01*
X31428572Y1161905D01*
X31380953Y1019048D01*
X30809524Y447619D01*
X31428572Y447619D01*
X31809524Y733333D02*
X32285715Y733333D01*
X31714286Y447619D02*
X32047619Y1447619D01*
X32380953Y447619D01*
X33238096Y447619D02*
X32666667Y447619D01*
X32952381Y447619D02*
X32952381Y1447619D01*
X32857143Y1304762D01*
X32761905Y1209524D01*
X32666667Y1161905D01*
D18*
X18825905Y39956381D02*
X18825905Y39133905D01*
X18874286Y39037143D01*
X18922667Y38988762D01*
X19019429Y38940381D01*
X19212952Y38940381D01*
X19309714Y38988762D01*
X19358095Y39037143D01*
X19406476Y39133905D01*
X19406476Y39956381D01*
X19793524Y39956381D02*
X20422476Y39956381D01*
X20083810Y39569333D01*
X20228952Y39569333D01*
X20325714Y39520952D01*
X20374095Y39472571D01*
X20422476Y39375810D01*
X20422476Y39133905D01*
X20374095Y39037143D01*
X20325714Y38988762D01*
X20228952Y38940381D01*
X19938667Y38940381D01*
X19841905Y38988762D01*
X19793524Y39037143D01*
%LPC*%
D21*
X41150000Y26600000D03*
X39250000Y26600000D03*
D22*
X45000000Y30950000D03*
X45000000Y29050000D03*
D23*
X24750000Y32500000D03*
X26250000Y32500000D03*
X24250000Y16500000D03*
X25750000Y16500000D03*
X24250000Y18000000D03*
X25750000Y18000000D03*
D21*
X4250000Y27200000D03*
X6150000Y27200000D03*
D24*
X22699140Y39500000D03*
X26300860Y39500000D03*
D22*
X10000000Y41550000D03*
X10000000Y43450000D03*
X45000000Y38450000D03*
X45000000Y36550000D03*
D25*
X24000000Y47800860D03*
X24000000Y44199140D03*
D26*
X9950980Y49000000D03*
X12049020Y49000000D03*
X48549020Y15000000D03*
X46450980Y15000000D03*
X48549020Y17500000D03*
X46450980Y17500000D03*
X48549020Y20000000D03*
X46450980Y20000000D03*
X48549020Y22500000D03*
X46450980Y22500000D03*
X48549020Y25000000D03*
X46450980Y25000000D03*
X1450980Y25000000D03*
X3549020Y25000000D03*
X1450980Y22500000D03*
X3549020Y22500000D03*
X1450980Y20000000D03*
X3549020Y20000000D03*
X1450980Y17500000D03*
X3549020Y17500000D03*
X1450980Y15000000D03*
X3549020Y15000000D03*
X1450980Y12500000D03*
X3549020Y12500000D03*
D27*
X34000000Y42000000D03*
X30000000Y42000000D03*
D28*
X39000000Y48540000D03*
D29*
X39000000Y46000000D03*
X39000000Y43460000D03*
D30*
X45000000Y5000000D03*
X5000000Y5000000D03*
X5000000Y45000000D03*
X45000000Y45000000D03*
D31*
X5080000Y31750000D03*
D32*
X2540000Y31750000D03*
X5080000Y34290000D03*
X2540000Y34290000D03*
X5080000Y36830000D03*
X2540000Y36830000D03*
D33*
X28700000Y48500000D03*
X35300000Y48500000D03*
D34*
X32000000Y45625000D03*
X31350000Y45625000D03*
X30700000Y45625000D03*
X33300000Y45625000D03*
X32650000Y45625000D03*
D35*
X28800000Y45825000D03*
X35200000Y45825000D03*
D36*
X48260000Y39370000D03*
D37*
X48260000Y36830000D03*
D36*
X48260000Y31750000D03*
D37*
X48260000Y29210000D03*
D38*
X37500000Y17500000D03*
X12500000Y17500000D03*
D39*
X6450000Y25000000D03*
X5550000Y25000000D03*
X6450000Y22500000D03*
X5550000Y22500000D03*
X6450000Y20000000D03*
X5550000Y20000000D03*
X6450000Y17500000D03*
X5550000Y17500000D03*
X6450000Y15000000D03*
X5550000Y15000000D03*
X6450000Y12500000D03*
X5550000Y12500000D03*
X43550000Y15000000D03*
X44450000Y15000000D03*
X43550000Y17500000D03*
X44450000Y17500000D03*
X43550000Y20000000D03*
X44450000Y20000000D03*
X43550000Y22500000D03*
X44450000Y22500000D03*
X44450000Y25000000D03*
X43550000Y25000000D03*
X28950000Y17000000D03*
X29850000Y17000000D03*
D40*
X21600000Y16550000D03*
X21600000Y17450000D03*
D41*
X12100000Y47000000D03*
X9900000Y47000000D03*
D42*
X31200000Y35850000D03*
X31200000Y33150000D03*
X35000000Y35850000D03*
X35000000Y33150000D03*
D41*
X17100000Y39000000D03*
X14900000Y39000000D03*
D43*
X12000000Y41400000D03*
X12000000Y43600000D03*
X32300000Y19200000D03*
X32300000Y17000000D03*
X39500000Y10900000D03*
X39500000Y13100000D03*
D44*
X22223780Y29815840D03*
X23023880Y29815840D03*
X23823980Y29815840D03*
X24624080Y29815840D03*
X25424180Y29815840D03*
X26224280Y29815840D03*
X27024380Y29815840D03*
X27824480Y29815840D03*
X27819400Y20250200D03*
X22206000Y20250200D03*
X23018800Y20250200D03*
X23831600Y20250200D03*
X24619000Y20250200D03*
X25431800Y20250200D03*
X26219200Y20250200D03*
X27032000Y20250200D03*
D45*
X29826000Y27824480D03*
X29826000Y27026920D03*
X29826000Y26224280D03*
X29826000Y25426720D03*
X29826000Y24624080D03*
X29826000Y23826520D03*
X29826000Y23023880D03*
X29826000Y22226320D03*
X20224800Y27819400D03*
X20224800Y27032000D03*
X20224800Y26219200D03*
X20224800Y25431800D03*
X20224800Y24644400D03*
X20224800Y23831600D03*
X20224800Y23018800D03*
X20224800Y22206000D03*
D46*
X43516000Y36839600D03*
X43516000Y38160400D03*
X43516000Y37500000D03*
X41484000Y38160400D03*
X41484000Y36839600D03*
X41484000Y37500000D03*
X43516000Y29339600D03*
X43516000Y30660400D03*
X43516000Y30000000D03*
X41484000Y30660400D03*
X41484000Y29339600D03*
X41484000Y30000000D03*
D47*
X15950000Y32500000D03*
X19050000Y32500000D03*
D48*
X17250000Y6000000D03*
X17250000Y14000000D03*
X12750000Y14000000D03*
X12750000Y6000000D03*
X27250000Y6000000D03*
X27250000Y14000000D03*
X22750000Y14000000D03*
X22750000Y6000000D03*
X37250000Y6000000D03*
X37250000Y14000000D03*
X32750000Y14000000D03*
X32750000Y6000000D03*
D49*
X15950000Y29800000D03*
X14850000Y29800000D03*
D50*
X23000000Y32450000D03*
X23000000Y33550000D03*
D51*
X15000000Y2700000D03*
X15000000Y900000D03*
D52*
X13200000Y2525000D03*
X13200000Y1075000D03*
X16800000Y2525000D03*
X16800000Y1075000D03*
D51*
X25000000Y2700000D03*
X25000000Y900000D03*
D52*
X23200000Y2525000D03*
X23200000Y1075000D03*
X26800000Y2525000D03*
X26800000Y1075000D03*
D53*
X17000000Y48302000D03*
D54*
X17000000Y41698000D03*
X19286000Y41698000D03*
X14714000Y41698000D03*
M02*
